<svg width="27" height="23" viewBox="0 0 27 23" fill="none" xmlns="http://www.w3.org/2000/svg">
<path d="M20.1416 8.76576H4.97451C4.07856 8.76576 3.34948 9.49485 3.34948 10.3908V11.4741C3.34948 15.3396 5.48478 18.8453 8.92117 20.6231C9.18661 20.7596 9.51375 20.6567 9.65137 20.3902C9.78788 20.1247 9.68494 19.7976 9.41844 19.66C6.34386 18.0696 4.43282 14.9333 4.43282 11.4741V10.3908C4.43282 10.0917 4.67551 9.84905 4.97451 9.84905H20.1416C20.4406 9.84905 20.6833 10.0917 20.6833 10.3908V11.4741C20.6833 14.9332 18.7722 18.0696 15.6966 19.6588C15.4301 19.7964 15.3271 20.1236 15.4636 20.3891C15.5601 20.5754 15.7496 20.6826 15.9457 20.6826C16.0302 20.6826 16.1147 20.6631 16.1938 20.6219C19.6313 18.8452 21.7666 15.3406 21.7666 11.474V10.3907C21.7666 9.49485 21.0375 8.76576 20.1416 8.76576Z" fill="#4F4F4F"/>
<path fill-rule="evenodd" clip-rule="evenodd" d="M3.24948 11.4741C3.24948 15.377 5.40567 18.917 8.87522 20.7119C9.18939 20.8735 9.5772 20.7518 9.7403 20.4359C9.87162 20.1806 9.81581 19.8767 9.62072 19.6844L9.41844 19.66C9.68494 19.7976 9.78788 20.1247 9.65137 20.3902C9.51375 20.6567 9.18661 20.7596 8.92117 20.6231C5.48478 18.8453 3.34948 15.3396 3.34948 11.4741V10.3908C3.34948 9.49485 4.07856 8.76576 4.97451 8.76576H20.1416C21.0375 8.76576 21.7666 9.49485 21.7666 10.3907V11.474C21.7666 15.3406 19.6313 18.8452 16.1938 20.6219C16.1147 20.6631 16.0302 20.6826 15.9457 20.6826C15.7496 20.6826 15.5601 20.5754 15.4636 20.3891L15.3477 20.3751C15.3557 20.3953 15.3647 20.4153 15.3748 20.435C15.489 20.6557 15.7136 20.7826 15.9457 20.7826C16.0457 20.7826 16.146 20.7595 16.2397 20.7108C19.7104 18.9169 21.8666 15.378 21.8666 11.474V10.3907C21.8666 9.43961 21.0927 8.66576 20.1416 8.66576H4.97451C4.02333 8.66576 3.24948 9.43962 3.24948 10.3908V11.4741Z" fill="#4F4F4F"/>
<path d="M24.9766 19.933C24.8921 19.7304 24.6949 19.5983 24.476 19.5983H0.642171C0.423349 19.5983 0.226161 19.7304 0.141659 19.933C0.0571569 20.1356 0.103724 20.3685 0.258662 20.5235L1.47312 21.739C2.19032 22.4551 3.14148 22.8494 4.15444 22.8494H20.9616C21.9746 22.8494 22.9269 22.4551 23.6451 21.739L24.8596 20.5235C25.0145 20.3685 25.0611 20.1356 24.9766 19.933ZM22.8781 20.973C22.3668 21.4844 21.6853 21.7661 20.9628 21.7661H4.15444C3.43185 21.7661 2.7504 21.4844 2.23908 20.973L1.94875 20.6827H23.1684L22.8781 20.973Z" fill="#4F4F4F"/>
<path fill-rule="evenodd" clip-rule="evenodd" d="M1.47312 21.739L0.258662 20.5235C0.103724 20.3685 0.0571569 20.1356 0.141659 19.933C0.226161 19.7304 0.423349 19.5983 0.642171 19.5983H24.476C24.6949 19.5983 24.8921 19.7304 24.9766 19.933C25.0611 20.1356 25.0145 20.3685 24.8596 20.5235L23.6451 21.739C22.9269 22.4551 21.9746 22.8494 20.9616 22.8494H4.15444C3.14148 22.8494 2.19032 22.4551 1.47312 21.739ZM24.9303 20.5942C25.1138 20.4107 25.169 20.1346 25.0688 19.8945C24.9689 19.655 24.7355 19.4983 24.476 19.4983H0.642171C0.382674 19.4983 0.149282 19.655 0.049367 19.8945C-0.0507979 20.1346 0.00445737 20.4107 0.18792 20.5941C0.18793 20.5941 0.18791 20.5941 0.18792 20.5941L1.40238 21.8097C2.13829 22.5444 3.11492 22.9494 4.15444 22.9494H20.9616C22.0011 22.9494 22.9788 22.5446 23.7157 21.8098L24.9303 20.5942ZM20.9628 21.6661C21.6589 21.6661 22.3149 21.3949 22.8074 20.9023L22.927 20.7827H2.19017L2.30979 20.9023C2.80233 21.3949 3.45833 21.6661 4.15444 21.6661H20.9628ZM1.94875 20.6827H23.1684L22.8781 20.973C22.3668 21.4844 21.6853 21.7661 20.9628 21.7661H4.15444C3.43185 21.7661 2.7504 21.4844 2.23908 20.973L1.94875 20.6827Z" fill="#4F4F4F"/>
<path d="M25.0524 11.3236C23.5931 10.3854 21.2618 11.4037 21.0007 11.5218C20.7287 11.6464 20.6074 11.9671 20.732 12.2401C20.8565 12.5131 21.1762 12.6333 21.4502 12.5088C21.9724 12.2715 23.6473 11.7092 24.4663 12.2368C24.8357 12.4741 25.0166 12.9345 25.0166 13.6409C25.0166 15.8097 20.642 17.1206 18.9531 17.4434L18.5695 17.5193C18.276 17.5767 18.0853 17.8616 18.1427 18.1552C18.1937 18.413 18.42 18.5918 18.6735 18.5918C18.7082 18.5918 18.7429 18.5885 18.7786 18.581L19.1589 18.5062C19.4427 18.452 26.1 17.1466 26.1 13.6409C26.1 12.551 25.7469 11.7721 25.0524 11.3236Z" fill="#4F4F4F"/>
<path fill-rule="evenodd" clip-rule="evenodd" d="M25.1067 11.2396C25.8384 11.7121 26.2 12.529 26.2 13.6409C26.2 14.5521 25.7665 15.3152 25.1253 15.9439C24.4851 16.5715 23.6324 17.0709 22.7772 17.4589C21.0675 18.2348 19.324 18.5765 19.1779 18.6044C19.178 18.6044 19.1778 18.6044 19.1779 18.6044L18.7986 18.679C18.7558 18.688 18.7144 18.6918 18.6735 18.6918C18.3732 18.6918 18.105 18.4802 18.0446 18.1746C17.9766 17.8271 18.2022 17.4893 18.5502 17.4212C18.5502 17.4212 18.5503 17.4211 18.5502 17.4212L18.9337 17.3453C19.7722 17.1851 21.2796 16.7788 22.5742 16.1446C23.2217 15.8274 23.8106 15.4558 24.2363 15.0336C24.6619 14.6115 24.9166 14.1469 24.9166 13.6409C24.9166 12.9472 24.7388 12.5307 24.4123 12.321C24.2269 12.2015 23.9871 12.1403 23.7166 12.1232C23.4468 12.1061 23.1527 12.1332 22.8645 12.1844C22.2874 12.2871 21.7462 12.4841 21.4916 12.5998M18.5695 17.5193C18.276 17.5767 18.0853 17.8616 18.1427 18.1552C18.1937 18.413 18.42 18.5918 18.6735 18.5918C18.7082 18.5918 18.7429 18.5885 18.7786 18.581L19.1589 18.5062C19.4427 18.452 26.1 17.1466 26.1 13.6409C26.1 12.551 25.7469 11.7721 25.0524 11.3236C23.5931 10.3854 21.2618 11.4037 21.0007 11.5218C20.7287 11.6464 20.6074 11.9671 20.732 12.2401C20.8565 12.5131 21.1762 12.6333 21.4502 12.5088C21.9724 12.2715 23.6473 11.7092 24.4663 12.2368C24.8357 12.4741 25.0166 12.9345 25.0166 13.6409C25.0166 15.8097 20.642 17.1206 18.9531 17.4434L18.5695 17.5193ZM20.9595 11.4307C21.093 11.3703 21.7494 11.0826 22.5585 10.9283C23.3638 10.7749 24.344 10.7492 25.1067 11.2396M20.9595 11.4307C20.6378 11.578 20.4933 11.958 20.641 12.2816L20.9595 11.4307ZM20.641 12.2816C20.7884 12.6047 21.1672 12.7472 21.4916 12.5998L20.641 12.2816Z" fill="#4F4F4F"/>
<path d="M13.5212 4.22865C14.403 3.12794 14.403 1.40434 13.5212 0.303626C13.3348 0.0696205 12.9936 0.0316859 12.7596 0.219124C12.5256 0.406562 12.4876 0.74782 12.6751 0.980708C13.2341 1.67729 13.2341 2.85494 12.674 3.5537C11.7932 4.65441 11.7932 6.37802 12.674 7.47873C12.7813 7.61305 12.9383 7.68242 13.0976 7.68242C13.2156 7.68242 13.3348 7.64341 13.4356 7.56323C13.6696 7.37579 13.7075 7.03565 13.5201 6.80164C12.9621 6.10501 12.9621 4.92742 13.5212 4.22865Z" fill="#4F4F4F"/>
<path fill-rule="evenodd" clip-rule="evenodd" d="M12.596 3.49116C12.8593 3.1626 12.9941 2.71676 12.9942 2.26636C12.9943 1.81594 12.8598 1.37071 12.5971 1.0433C12.3749 0.767068 12.4202 0.362869 12.6971 0.141075C12.9741 -0.0808214 13.3784 -0.0361133 13.5993 0.241229C14.5103 1.37847 14.5103 3.15391 13.5992 4.29112C13.3364 4.61968 13.2019 5.06554 13.2018 5.51598C13.2016 5.96643 13.3359 6.41169 13.5981 6.73913C13.8202 7.01633 13.7751 7.41939 13.4981 7.64128C13.3793 7.73581 13.2378 7.78241 13.0976 7.78241C12.9093 7.78241 12.723 7.70026 12.5959 7.5412C11.6859 6.40397 11.686 4.62839 12.596 3.49116ZM12.674 7.47873C11.7932 6.37802 11.7932 4.65441 12.674 3.5537C13.2341 2.85494 13.2341 1.67729 12.6751 0.980708C12.4876 0.74782 12.5256 0.406562 12.7596 0.219124C12.9936 0.0316859 13.3348 0.0696205 13.5212 0.303626C14.403 1.40434 14.403 3.12794 13.5212 4.22865C12.9621 4.92742 12.9621 6.10501 13.5201 6.80164C13.7075 7.03565 13.6696 7.37579 13.4356 7.56323C13.3348 7.64341 13.2156 7.68242 13.0976 7.68242C12.9383 7.68242 12.7813 7.61305 12.674 7.47873Z" fill="#4F4F4F"/>
<path d="M16.7077 4.22864C17.5896 3.12793 17.5896 1.40433 16.7077 0.303616C16.5214 0.0696108 16.1802 0.0316762 15.9462 0.219114C15.7122 0.406552 15.6742 0.74781 15.8617 0.980699C16.4207 1.67728 16.4207 2.85493 15.8606 3.55369C14.9798 4.6544 14.9798 6.37801 15.8606 7.47872C15.9678 7.61304 16.1249 7.68241 16.2842 7.68241C16.4022 7.68241 16.5214 7.6434 16.6222 7.56322C16.8562 7.37578 16.8941 7.03564 16.7067 6.80164C16.1487 6.105 16.1487 4.92741 16.7077 4.22864Z" fill="#4F4F4F"/>
<path fill-rule="evenodd" clip-rule="evenodd" d="M15.7826 3.49115C16.0459 3.16259 16.1807 2.71675 16.1808 2.26635C16.1809 1.81593 16.0464 1.3707 15.7837 1.04329C15.5614 0.767059 15.6067 0.362859 15.8836 0.141065C16.1607 -0.0808311 16.565 -0.0361229 16.7859 0.241219C17.6969 1.37846 17.6969 3.1539 16.7858 4.29111C16.523 4.61967 16.3885 5.06553 16.3884 5.51597C16.3882 5.96642 16.5225 6.41168 16.7847 6.73912C17.0068 7.01632 16.9617 7.41938 16.6847 7.64127C16.5659 7.7358 16.4244 7.78241 16.2842 7.78241C16.0959 7.78241 15.9096 7.70025 15.7825 7.5412C14.8725 6.40396 14.8726 4.62838 15.7826 3.49115ZM15.8606 7.47872C14.9798 6.37801 14.9798 4.6544 15.8606 3.55369C16.4207 2.85493 16.4207 1.67728 15.8617 0.980699C15.6742 0.74781 15.7122 0.406552 15.9462 0.219114C16.1802 0.0316762 16.5214 0.0696108 16.7077 0.303616C17.5896 1.40433 17.5896 3.12793 16.7077 4.22864C16.1487 4.92741 16.1487 6.105 16.7067 6.80164C16.8941 7.03564 16.8562 7.37578 16.6222 7.56322C16.5214 7.6434 16.4022 7.68241 16.2842 7.68241C16.1249 7.68241 15.9678 7.61304 15.8606 7.47872Z" fill="#4F4F4F"/>
<path d="M9.70775 4.22864C10.5896 3.12793 10.5896 1.40433 9.70775 0.303616C9.52143 0.0696108 9.18017 0.0316762 8.94616 0.219114C8.71216 0.406552 8.67422 0.74781 8.86166 0.980699C9.42067 1.67728 9.42067 2.85493 8.86059 3.55369C7.97982 4.6544 7.97982 6.37801 8.86059 7.47872C8.96785 7.61304 9.12492 7.68241 9.28417 7.68241C9.40224 7.68241 9.52143 7.6434 9.62218 7.56322C9.85618 7.37578 9.89412 7.03564 9.70668 6.80164C9.14873 6.105 9.14873 4.92741 9.70775 4.22864Z" fill="#4F4F4F"/>
<path fill-rule="evenodd" clip-rule="evenodd" d="M8.78257 3.49115C9.04591 3.16259 9.18066 2.71675 9.18079 2.26635C9.18091 1.81593 9.04642 1.3707 8.78367 1.04329C8.56145 0.767059 8.60675 0.362859 8.88365 0.141065C9.16067 -0.0808311 9.56497 -0.0361229 9.78589 0.241219C10.6969 1.37846 10.6969 3.1539 9.78583 4.29111C9.52298 4.61967 9.38848 5.06553 9.38835 5.51597C9.38822 5.96642 9.52248 6.41168 9.78473 6.73912C10.0068 7.01632 9.96171 7.41938 9.68469 7.64127C9.56591 7.7358 9.42443 7.78241 9.28417 7.78241C9.09587 7.78241 8.90956 7.70025 8.78251 7.5412C7.87252 6.40396 7.87257 4.62838 8.78257 3.49115ZM8.86059 7.47872C7.97982 6.37801 7.97982 4.6544 8.86059 3.55369C9.42067 2.85493 9.42067 1.67728 8.86166 0.980699C8.67422 0.74781 8.71216 0.406552 8.94616 0.219114C9.18017 0.0316762 9.52143 0.0696108 9.70775 0.303616C10.5896 1.40433 10.5896 3.12793 9.70775 4.22864C9.14873 4.92741 9.14873 6.105 9.70668 6.80164C9.89412 7.03564 9.85618 7.37578 9.62218 7.56322C9.52143 7.6434 9.40224 7.68241 9.28417 7.68241C9.12492 7.68241 8.96785 7.61304 8.86059 7.47872Z" fill="#4F4F4F"/>
</svg>
