<svg width="25" height="23" viewBox="0 0 25 23" fill="none" xmlns="http://www.w3.org/2000/svg">
<path d="M23.4909 0H1.50923C0.677054 0 0 0.699192 0 1.55858V17.2316C0 18.091 0.677054 18.7902 1.50923 18.7902H9.04149V19.9242C9.04149 20.9638 8.22244 21.8097 7.21575 21.8097H5.55573C5.23747 21.8097 4.97941 22.0761 4.97941 22.4048C4.97941 22.7336 5.23747 23 5.55573 23H19.4443C19.7625 23 20.0206 22.7336 20.0206 22.4048C20.0206 22.0761 19.7625 21.8097 19.4443 21.8097H17.7842C16.7775 21.8097 15.9585 20.9638 15.9585 19.9242V18.7902H23.4907C24.3229 18.7902 25 18.091 25 17.2316V1.55858C25.0001 0.699192 24.323 0 23.4909 0ZM9.56644 21.8098C9.95932 21.2886 10.1942 20.6345 10.1942 19.9243V18.7903H14.8059V19.9243C14.8059 20.6345 15.0408 21.2886 15.4337 21.8098H9.56644ZM23.8475 17.2316C23.8475 17.4347 23.6875 17.5999 23.4908 17.5999H1.50923C1.3126 17.5999 1.15259 17.4348 1.15259 17.2316V14.1036H23.8475V17.2316ZM23.8475 12.9133H1.15264V1.55858C1.15264 1.35552 1.3126 1.19028 1.50928 1.19028H23.4908C23.6874 1.19028 23.8475 1.35547 23.8475 1.55858L23.8475 12.9133Z" fill="#4F4F4F"/>
<path d="M12.5002 16.4943C12.8437 16.4943 13.1221 16.2067 13.1221 15.852C13.1221 15.4972 12.8437 15.2096 12.5002 15.2096C12.1567 15.2096 11.8782 15.4972 11.8782 15.852C11.8782 16.2067 12.1567 16.4943 12.5002 16.4943Z" fill="#4F4F4F"/>
<path d="M13.4882 4.10042C13.2631 3.86801 12.8983 3.86801 12.6731 4.10042L8.60017 8.30655C8.37512 8.53896 8.37512 8.91584 8.60017 9.1483C8.71276 9.26452 8.86018 9.32261 9.00774 9.32261C9.15529 9.32261 9.30271 9.26452 9.41526 9.1483L13.4882 4.94216C13.7133 4.70975 13.7133 4.33288 13.4882 4.10042Z" fill="#4F4F4F"/>
<path d="M15.9023 6.53791C15.6773 6.30551 15.3125 6.30551 15.0873 6.53786L13.4647 8.21338C13.2397 8.44584 13.2397 8.82272 13.4647 9.05513C13.5773 9.17135 13.7247 9.22944 13.8722 9.22944C14.0197 9.22944 14.1672 9.17135 14.2797 9.05513L15.9023 7.37961C16.1273 7.1472 16.1273 6.77032 15.9023 6.53791Z" fill="#4F4F4F"/>
</svg>
