<svg width="25" height="25" viewBox="0 0 25 25" fill="none" xmlns="http://www.w3.org/2000/svg">
<path fill-rule="evenodd" clip-rule="evenodd" d="M12.5 1.60002C6.48012 1.60002 1.60002 6.48012 1.60002 12.5C1.60002 18.5199 6.48012 23.4 12.5 23.4C18.5199 23.4 23.4 18.5199 23.4 12.5C23.4 6.48012 18.5199 1.60002 12.5 1.60002ZM0.400024 12.5C0.400024 5.81738 5.81738 0.400024 12.5 0.400024C19.1827 0.400024 24.6 5.81738 24.6 12.5C24.6 19.1827 19.1827 24.6 12.5 24.6C5.81738 24.6 0.400024 19.1827 0.400024 12.5ZM12.5 6.60002C9.24154 6.60002 6.60002 9.24154 6.60002 12.5C6.60002 15.7585 9.24154 18.4 12.5 18.4C15.7585 18.4 18.4 15.7585 18.4 12.5C18.4 9.24154 15.7585 6.60002 12.5 6.60002ZM5.40002 12.5C5.40002 8.5788 8.5788 5.40002 12.5 5.40002C16.4212 5.40002 19.6 8.5788 19.6 12.5C19.6 16.4212 16.4212 19.6 12.5 19.6C8.5788 19.6 5.40002 16.4212 5.40002 12.5Z" fill="#4F4F4F"/>
</svg>
