<svg width="23" height="23" viewBox="0 0 23 23" fill="none" xmlns="http://www.w3.org/2000/svg">
<path d="M22.1266 17.9939L17.6199 13.4872C17.0819 12.9493 16.2068 12.9493 15.6687 13.4872L14.4968 14.6592C14.1296 15.0264 14.0135 15.5506 14.1476 16.0176L13.7055 16.4598C13.7056 16.4597 13.7053 16.4599 13.7055 16.4598C13.3915 16.7742 11.4355 16.2921 9.07164 13.9282C6.70813 11.5648 6.22557 9.60949 6.53958 9.2949L6.98224 8.85229C7.10717 8.88818 7.23609 8.90651 7.36511 8.90651C7.71842 8.90651 8.07168 8.77206 8.34072 8.50311L9.51264 7.33119C10.0506 6.79325 10.0506 5.91804 9.51264 5.38005L5.00595 0.873309C4.7454 0.612762 4.39892 0.469281 4.03042 0.469281C3.66184 0.469281 3.31549 0.612852 3.0549 0.873309L1.88289 2.04532C1.5157 2.41251 1.39962 2.93684 1.53371 3.4038C1.53371 3.4038 1.15888 3.78223 1.14024 3.80612C-0.106478 5.19192 -0.340386 7.37373 0.486132 9.9823C1.29549 12.5364 3.04025 15.2421 5.3991 17.6008C7.75786 19.9596 10.4635 21.7044 13.0177 22.5138C14.0437 22.8389 15.0035 23 15.8752 23C17.3043 23 18.4958 22.5666 19.3499 21.7125L19.5958 21.4666C19.7188 21.502 19.8474 21.5211 19.979 21.5211C20.3476 21.5211 20.6941 21.3775 20.9546 21.1171L22.1266 19.9451C22.6645 19.4071 22.6645 18.5319 22.1266 17.9939ZM4.03042 1.84883L8.53716 6.35562L7.36587 7.52817L2.85846 3.02084L4.03042 1.84883ZM18.3744 20.737C18.3745 20.7369 18.3743 20.7371 18.3744 20.737C17.3819 21.7293 15.6274 21.8935 13.4345 21.1985C11.0872 20.4547 8.58002 18.8305 6.37476 16.6252C4.16941 14.4199 2.54522 11.9128 1.80144 9.56547C1.1065 7.37252 1.27042 5.61818 2.26302 4.62554L2.38754 4.50102L5.88502 7.99846L5.56423 8.31925C5.56401 8.31947 5.56383 8.31974 5.56356 8.32001C4.23455 9.65069 5.83143 12.6391 8.09617 14.9039C9.79125 16.5989 11.8918 17.9199 13.3992 17.9199C13.9061 17.9199 14.346 17.7705 14.6808 17.4357C14.6806 17.4359 14.6809 17.4356 14.6808 17.4357L15.0016 17.115L18.499 20.6124L18.3744 20.737ZM19.9791 20.1415L15.4724 15.6348L16.6443 14.4629L21.151 18.9695C21.151 18.9695 19.9795 20.1419 19.9791 20.1415Z" fill="#4F4F4F"/>
<path d="M17.4664 5.53369C16.1543 4.22157 14.4098 3.499 12.5545 3.49905C12.1735 3.49905 11.8647 3.80789 11.8647 4.18887C11.8647 4.56985 12.1735 4.87869 12.5545 4.87869C14.0414 4.8786 15.4393 5.45773 16.4909 6.50922C17.5423 7.56066 18.1213 8.95858 18.1213 10.4455C18.1213 10.8264 18.4301 11.1354 18.8111 11.1354C19.192 11.1354 19.5009 10.8265 19.5009 10.4456C19.501 8.59018 18.7784 6.84582 17.4664 5.53369Z" fill="#4F4F4F"/>
<path d="M19.9406 3.05949C17.9675 1.08648 15.3443 -8.98382e-05 12.5542 5.57111e-09C12.1733 5.57111e-09 11.8644 0.308883 11.8644 0.68982C11.8644 1.0708 12.1733 1.37964 12.5542 1.37964C14.9758 1.37955 17.2525 2.32264 18.965 4.03502C20.6773 5.74735 21.6204 8.02403 21.6203 10.4456C21.6203 10.8266 21.9292 11.1355 22.3101 11.1355C22.6911 11.1355 23 10.8266 23 10.4457C23.0001 7.65554 21.9135 5.03246 19.9406 3.05949Z" fill="#4F4F4F"/>
<path d="M14.9921 8.00782C14.3315 7.3472 13.4888 6.99811 12.5548 6.99811C12.1739 6.9982 11.8648 7.30699 11.8648 7.68802C11.8649 8.069 12.1738 8.37784 12.5548 8.37775C12.5547 8.37775 12.5548 8.37775 12.5548 8.37775C13.1227 8.37775 13.6148 8.58151 14.0167 8.98334C14.4129 9.37955 14.6223 9.88515 14.6222 10.4453C14.6221 10.8263 14.931 11.1351 15.3119 11.1352C15.6929 11.1352 16.0017 10.8263 16.0018 10.4455C16.0019 9.51144 15.6528 8.66853 14.9921 8.00782Z" fill="#4F4F4F"/>
</svg>
