<svg width="27" height="28" viewBox="0 0 27 28" fill="none" xmlns="http://www.w3.org/2000/svg">
<path d="M25.3686 17.2262C27.2294 14.4035 25.9784 10.4378 23.6605 8.90982C21.5407 7.51245 12.2858 3.54476 11.8928 3.37656C11.6086 3.25488 11.2781 3.35412 11.1079 3.61222L7.23571 9.48625C7.06558 9.74434 7.10464 10.0872 7.3285 10.3005C7.5544 10.5156 11.5019 14.2725 14.442 16.8293L9.91469 23.6971C9.1519 24.8542 9.47272 26.4162 10.6298 27.1789C11.7868 27.9416 13.3487 27.6208 14.1115 26.4637L18.6277 19.6128C20.9337 20.1994 23.8797 19.4848 25.3686 17.2262ZM20.7876 14.5774C20.3183 14.268 20.1415 13.9059 20.1341 13.7755C20.2569 13.7309 20.6593 13.7507 21.1287 14.0601C21.598 14.3695 21.7747 14.7315 21.7822 14.8619C21.6593 14.9065 21.2569 14.8868 20.7876 14.5774ZM19.0591 13.0669C18.6631 13.6676 18.8609 14.4907 19.5023 15.1617C18.7256 16.0204 17.8147 16.7113 16.8376 17.1792C15.1033 15.7848 12.1603 13.0789 10.2006 11.249L13.8968 5.64208C16.3387 6.71635 19.9614 8.34368 21.9334 9.38881C21.8974 10.4742 21.6294 11.5868 21.1507 12.6456C20.2843 12.3245 19.4538 12.4682 19.0591 13.0669ZM11.8802 4.76232C12.0968 4.85599 12.3779 4.97784 12.7092 5.12208L9.25463 10.3625C8.99151 10.1149 8.7687 9.90454 8.59724 9.74243L11.8802 4.76232ZM13.0448 25.7604C12.6697 26.3293 11.9019 26.487 11.3331 26.112C10.7642 25.737 10.6065 24.9692 10.9816 24.4003L15.4208 17.6662C16.0902 18.2271 16.6599 18.6758 17.0521 18.9344C17.1656 19.0092 17.2848 19.0781 17.4067 19.1435L13.0448 25.7604ZM17.9975 18.0114C18.9347 17.4723 19.8028 16.7569 20.5526 15.904C21.4934 16.3335 22.4301 16.2183 22.857 15.5706C23.2852 14.9211 23.0193 14.0116 22.2489 13.3156C22.7334 12.2843 23.0434 11.201 23.1617 10.1241C24.8178 11.4019 25.6865 14.4224 24.3018 16.523C22.9236 18.6136 19.828 19.0118 17.9975 18.0114Z" fill="#4F4F4F"/>
<path d="M8.20849 3.54838C8.11865 3.48916 8.10285 3.45294 8.05476 3.19572C7.99358 2.86932 7.90117 2.37605 7.34833 2.01162C6.79549 1.64718 6.30581 1.75672 5.98164 1.8291C5.72622 1.88623 5.68678 1.88603 5.59694 1.82681C5.50717 1.76764 5.49137 1.73142 5.44328 1.4742C5.38218 1.14785 5.28968 0.654534 4.73692 0.290147C4.18409 -0.0742901 3.6944 0.0352466 3.37034 0.107803C3.11504 0.164917 3.07552 0.164666 2.98584 0.105542C2.69124 -0.0886567 2.295 -0.00727165 2.1008 0.287321C1.9066 0.581914 1.98799 0.978157 2.28258 1.17236C2.83542 1.53679 3.3251 1.42726 3.64924 1.35475C3.90454 1.29764 3.94405 1.29789 4.03374 1.35701C4.12343 1.41613 4.13924 1.45235 4.18737 1.70949C4.24848 2.03585 4.34092 2.52924 4.89376 2.89367C5.44659 3.25811 5.93635 3.14862 6.2605 3.07612C6.51579 3.019 6.55538 3.01931 6.64507 3.07843C6.73484 3.1376 6.75064 3.17382 6.79878 3.43096C6.85991 3.75744 6.9524 4.25076 7.50524 4.61519C7.79983 4.80939 8.19607 4.72801 8.39027 4.43341C8.58447 4.13882 8.50309 3.74258 8.20849 3.54838Z" fill="#4F4F4F"/>
<path d="M6.29191 6.45578C6.20215 6.3966 6.18634 6.36038 6.13818 6.10312C6.07713 5.77669 5.98468 5.2833 5.43184 4.91886C4.87901 4.55442 4.3892 4.66398 4.06506 4.73649C3.80963 4.79363 3.77012 4.79338 3.68035 4.7342C3.59066 4.67508 3.57486 4.63886 3.52677 4.38165C3.46564 4.05517 3.37328 3.56183 2.82044 3.19739C2.2676 2.83295 1.77779 2.94251 1.45372 3.01507C1.19838 3.07226 1.15886 3.07201 1.06925 3.01293C0.774657 2.81873 0.378414 2.90012 0.184216 3.19471C-0.00998254 3.4893 0.0714034 3.88554 0.365996 4.07974C0.918835 4.44418 1.40864 4.33462 1.73279 4.26211C1.98813 4.20493 2.02765 4.20518 2.11726 4.26425C2.20695 4.32337 2.22268 4.35954 2.27076 4.61676C2.33189 4.94324 2.42426 5.43658 2.97718 5.80106C3.53009 6.16555 4.0199 6.05599 4.34404 5.98348C4.59939 5.9263 4.6389 5.92655 4.72859 5.98567C4.81828 6.04479 4.83409 6.08101 4.88217 6.33823C4.9433 6.66471 5.03575 7.1581 5.58858 7.52253C5.88318 7.71673 6.27942 7.63535 6.47362 7.34076C6.66789 7.04622 6.58651 6.64997 6.29191 6.45578Z" fill="#4F4F4F"/>
</svg>
