<svg width="16" height="22" viewBox="0 0 16 22" fill="none" xmlns="http://www.w3.org/2000/svg">
<path d="M2.00004 0H14C15.1028 0 16 0.925155 16 2.06251V18.5625C16 19.6999 15.1029 20.625 14 20.625H13.3333V22H10.6667V20.625H5.33335V22H2.66667V20.625H2C0.897116 20.625 0 19.6999 0 18.5625V2.06251C4.01178e-05 0.925155 0.897156 0 2.00004 0ZM14 1.37499H2.00004C1.63219 1.37499 1.33336 1.68317 1.33336 2.06251V8.25002H14.6666V2.06251C14.6666 1.68317 14.3678 1.37499 14 1.37499ZM2.00004 19.25H14C14.3678 19.25 14.6667 18.9418 14.6667 18.5625V9.62501H1.3334V18.5625C1.33336 18.9418 1.63219 19.25 2.00004 19.25Z" fill="#4F4F4F"/>
<path d="M10.6667 5.5H12V4.12501H13.3333V6.87503H10.6666L10.6667 5.5Z" fill="#4F4F4F"/>
<path d="M12 11H13.3333V13.75H10.6667V12.375H12L12 11Z" fill="#4F4F4F"/>
</svg>
