<svg width="20" height="22" viewBox="0 0 20 22" fill="none" xmlns="http://www.w3.org/2000/svg">
<path d="M18.4658 0.707352C17.8069 0.251195 16.9426 0 16.032 0C15.1214 0 14.257 0.251195 13.5982 0.707352C13.089 1.05982 12.7343 1.52028 12.5694 2.0237H9.5534V0.94441H5.56607V4.31716H4.86903V6.97043H3.5254V9.6125L3.13211 9.83357C1.72531 10.6242 0.759115 11.9893 0.481279 13.5789C0.203443 15.1685 0.649287 16.7805 1.70451 18.0014L3.5254 20.1082V22H11.594V20.1082L13.4149 18.0014C14.4701 16.7805 14.9159 15.1685 14.6381 13.5789C14.3603 11.9893 13.3941 10.6242 11.9873 9.83357L11.594 9.6125V6.97043H10.2504V4.31716H9.55331V3.31276H12.5693C12.7342 3.81614 13.089 4.27664 13.5981 4.62911C14.2569 5.08522 15.1213 5.33642 16.0319 5.33642C16.9425 5.33642 17.8068 5.08522 18.4657 4.62911C19.1862 4.13029 19.5995 3.41554 19.5995 2.66823C19.5995 1.92088 19.1863 1.20618 18.4658 0.707352ZM12.4397 17.1584L10.305 19.6283V20.7109H4.81451V19.6283L2.67982 17.1585C1.87867 16.2315 1.5402 15.0077 1.75113 13.8008C1.75926 13.7543 1.76845 13.7081 1.77816 13.662H13.3414C13.3511 13.7081 13.3603 13.7543 13.3684 13.8008C13.5793 15.0077 13.2408 16.2315 12.4397 17.1584ZM11.3558 10.9573C11.9692 11.302 12.472 11.7908 12.829 12.3729H2.29039C2.64751 11.7908 3.15028 11.302 3.76366 10.9573L4.81451 10.3667V8.2595H10.305V10.3667L11.3558 10.9573ZM6.15814 6.97043V5.60622H8.96138V6.97043H6.15814ZM6.85513 4.31716V2.23347H8.26429V4.31716H6.85513ZM16.032 4.04731C14.8181 4.04731 13.7534 3.40287 13.7534 2.66819C13.7534 1.93351 14.8181 1.28906 16.032 1.28906C17.2458 1.28906 18.3105 1.93351 18.3105 2.66823C18.3105 3.40287 17.2458 4.04731 16.032 4.04731Z" fill="#4F4F4F"/>
</svg>
