<svg width="23" height="23" viewBox="0 0 23 23" fill="none" xmlns="http://www.w3.org/2000/svg">
<path d="M20.5218 0H2.47825C1.11164 0 0 1.11164 0 2.47807V20.5218C0 21.8884 1.11164 23 2.47825 23H20.5218C21.8884 23 23 21.8884 23 20.5218V2.47807C23 1.11164 21.8884 0 20.5218 0ZM2.47825 1.34766H20.5218C21.1452 1.34766 21.6523 1.85478 21.6523 2.47807V5.77386H1.34766V2.47807C1.34766 1.85478 1.85478 1.34766 2.47825 1.34766ZM20.5218 21.6523H2.47825C1.85478 21.6523 1.34766 21.1452 1.34766 20.5218V7.12152H21.6523V20.5218C21.6523 21.1452 21.1452 21.6523 20.5218 21.6523Z" fill="#4F4F4F"/>
<path d="M5.00423 4.23476C5.18181 4.23476 5.35518 4.16299 5.481 4.03718C5.60629 3.91171 5.67805 3.73799 5.67805 3.56094C5.67805 3.38353 5.60629 3.20963 5.481 3.08434C5.35518 2.95905 5.18181 2.88711 5.00423 2.88711C4.82682 2.88711 4.65292 2.95905 4.52763 3.08434C4.40234 3.20963 4.3304 3.38353 4.3304 3.56094C4.3304 3.73834 4.40234 3.91171 4.52763 4.03718C4.65345 4.16299 4.82682 4.23476 5.00423 4.23476Z" fill="#4F4F4F"/>
<path d="M9.3348 4.23476C9.51221 4.23476 9.68558 4.16299 9.81139 4.03718C9.93668 3.91171 10.0086 3.73799 10.0086 3.56094C10.0086 3.38353 9.93668 3.20963 9.81139 3.08434C9.68558 2.95905 9.51221 2.88711 9.3348 2.88711C9.15739 2.88711 8.9835 2.95905 8.85821 3.08434C8.73274 3.20963 8.66097 3.38353 8.66097 3.56094C8.66097 3.73834 8.73274 3.91171 8.85821 4.03718C8.98385 4.16299 9.15739 4.23476 9.3348 4.23476Z" fill="#4F4F4F"/>
<path d="M13.6652 4.23476C13.8426 4.23476 14.0162 4.16299 14.1418 4.03718C14.2671 3.91171 14.339 3.73799 14.339 3.56094C14.339 3.38353 14.2671 3.20963 14.1418 3.08434C14.0165 2.95905 13.8426 2.88711 13.6652 2.88711C13.4878 2.88711 13.3139 2.95905 13.1886 3.08434C13.0633 3.20963 12.9914 3.38353 12.9914 3.56094C12.9914 3.73834 13.0633 3.91171 13.1886 4.03718C13.3144 4.16299 13.4878 4.23476 13.6652 4.23476Z" fill="#4F4F4F"/>
<path d="M17.9958 4.23476C18.1732 4.23476 18.3465 4.16247 18.4724 4.03718C18.5977 3.91171 18.6696 3.73799 18.6696 3.56094C18.6696 3.38353 18.5977 3.20963 18.4724 3.08434C18.3465 2.95905 18.1732 2.88711 17.9958 2.88711C17.8182 2.88711 17.6445 2.95905 17.5192 3.08434C17.3937 3.20963 17.3219 3.38353 17.3219 3.56094C17.3219 3.73834 17.3937 3.91171 17.5192 4.03718C17.6448 4.16247 17.8182 4.23476 17.9958 4.23476Z" fill="#4F4F4F"/>
<path d="M19.4392 8.66097H3.56076C3.18875 8.66097 2.88693 8.96262 2.88693 9.3348V19.4392C2.88693 19.8112 3.18875 20.1131 3.56076 20.1131H19.4392C19.8114 20.1131 20.1131 19.8112 20.1131 19.4392V9.3348C20.1131 8.96262 19.8114 8.66097 19.4392 8.66097ZM18.7654 18.7652H4.23459V10.0086H18.7654V18.7652Z" fill="#4F4F4F"/>
<path d="M6.44769 12.8956H16.5523C16.9243 12.8956 17.2261 12.5939 17.2261 12.2217C17.2261 11.8495 16.9243 11.5479 16.5523 11.5479H6.44769C6.07568 11.5479 5.77386 11.8495 5.77386 12.2217C5.77386 12.5939 6.07568 12.8956 6.44769 12.8956Z" fill="#4F4F4F"/>
</svg>
