<svg width="27" height="27" viewBox="0 0 27 27" fill="none" xmlns="http://www.w3.org/2000/svg">
<path d="M14.1535 8.73656C14.1535 6.96654 14.2248 4.9359 14.7541 3.29516C15.0647 2.33208 15.5127 1.57586 16.0857 1.04747C16.7675 0.418755 17.6286 0.0999756 18.6452 0.0999756C20.6031 0.0999756 22.5616 1.03195 24.0186 2.65695C25.545 4.35943 26.2887 6.596 26.059 8.79349L25.3739 15.3267C25.3729 15.3399 25.3717 15.3531 25.3698 15.3662L25.0598 18.3226C24.91 19.7579 24.3662 21.0793 23.5287 22.0436C22.6228 23.0869 21.4076 23.6614 20.107 23.6614C17.3753 23.6614 15.1529 21.241 15.1529 18.2659V16.5164C15.1529 15.7529 14.9862 14.9697 14.7932 14.0629L14.7693 13.9506C14.6577 13.4254 14.5284 12.8164 14.4172 12.1094L14.417 12.1083C14.2693 11.1695 14.1535 10.0576 14.1535 8.73656ZM23.214 3.38465C21.9621 1.98828 20.2968 1.18743 18.6452 1.18743C17.2308 1.18743 16.3216 1.96365 15.7841 3.63027C15.3013 5.12707 15.2362 7.0515 15.2362 8.73656C15.2362 9.43731 15.2695 10.0712 15.3234 10.6502L18.4446 6.53336V5.76873C18.4446 4.81735 19.1692 4.04334 20.0599 4.04334C20.9514 4.04334 21.6766 4.81735 21.6766 5.76873V6.53336L24.7784 10.6242L24.9823 8.67985C25.1799 6.78847 24.5354 4.85843 23.214 3.38465ZM15.82 13.6849L19.6291 8.65909C19.7315 8.52399 19.8908 8.44474 20.0599 8.44468C20.2289 8.44468 20.3882 8.52394 20.4906 8.65898L24.4385 13.8658L24.6131 12.201L20.7047 7.04616C20.6329 6.95149 20.5941 6.83575 20.5941 6.71676V5.76867C20.5941 5.42289 20.3494 5.13079 20.06 5.13079C19.7713 5.13079 19.5274 5.42289 19.5274 5.76867V6.71676C19.5274 6.83575 19.4886 6.95149 19.4167 7.04616L15.5249 12.1796C15.6185 12.7338 15.7232 13.2298 15.82 13.6849ZM16.2355 18.2659C16.2355 20.6414 17.9723 22.5739 20.107 22.5739C22.1208 22.5739 23.7147 20.7791 23.983 18.2089L24.2731 15.4426L20.06 9.8859L16.1038 15.1058C16.1836 15.5817 16.2355 16.0428 16.2355 16.5163V18.2659Z" fill="#4F4F4F"/>
<path d="M12.0978 9.9841C11.6114 8.28031 10.9846 6.34473 10.0243 4.90682C9.46066 4.06279 8.82154 3.45461 8.12476 3.09913C7.29574 2.67614 6.37928 2.59941 5.4007 2.87109C3.51604 3.39434 1.88698 4.81483 0.93113 6.76839C-0.0703319 8.81509 -0.171538 11.1667 0.653448 13.2206L3.10839 19.3262C3.11302 19.3387 3.11778 19.3511 3.12324 19.3632L4.23413 22.1261C4.77276 23.4676 5.65933 24.5942 6.73046 25.2987C7.88921 26.0608 9.21684 26.289 10.4687 25.9415C13.0982 25.2114 14.5723 22.2877 13.7547 19.4239L13.2739 17.7399C13.064 17.0049 13.0093 16.2065 12.9458 15.282L12.938 15.1676C12.9011 14.6322 12.8581 14.0115 12.7709 13.3012L12.7708 13.3001C12.655 12.357 12.4608 11.2557 12.0978 9.9841ZM1.90557 7.25384C2.72689 5.57516 4.10979 4.35923 5.69956 3.91785C7.06107 3.53985 8.14953 4.04405 9.12492 5.50466C10.001 6.81643 10.5925 8.65144 11.0556 10.2734C11.2482 10.948 11.3903 11.567 11.4976 12.1388L7.36179 9.01012L7.15166 8.27411C6.8902 7.35833 5.98002 6.80693 5.1227 7.04495C4.26455 7.2832 3.77912 8.22207 4.04058 9.13785L4.25072 9.87386L2.38928 14.6406L1.65866 12.8235C0.948638 11.0557 1.03861 9.02562 1.90557 7.25384ZM11.8536 15.1927L6.8058 11.3729C6.6701 11.2702 6.49498 11.2365 6.33228 11.2816C6.16958 11.3268 6.03797 11.4456 5.97651 11.603L3.60731 17.67L2.98173 16.1141L5.32724 10.1077C5.3703 9.99742 5.37589 9.87562 5.34319 9.76109L5.08264 8.84848C4.98761 8.51563 5.14282 8.16909 5.42145 8.09174C5.69935 8.01458 6.01439 8.23056 6.10942 8.56341L6.36997 9.47602C6.40267 9.59055 6.47183 9.6916 6.56698 9.76353L11.724 13.6647C11.7862 14.2233 11.8217 14.7286 11.8536 15.1927ZM12.7125 19.7133C13.3654 21.9998 12.2247 24.3242 10.1698 24.8947C8.2314 25.4328 6.20397 24.1311 5.23938 21.7289L4.19988 19.1436L6.72825 12.6689L11.9709 16.6362C12.0248 17.1156 12.1016 17.5733 12.2317 18.0291L12.7125 19.7133Z" fill="#4F4F4F"/>
<path fill-rule="evenodd" clip-rule="evenodd" d="M26.1585 8.80395L25.4735 15.3357C25.4725 15.3486 25.4712 15.3634 25.469 15.3787L25.1592 18.333C25.0076 19.786 24.4569 21.1274 23.6042 22.1092C22.6806 23.1728 21.4385 23.7614 20.107 23.7614C17.3122 23.7614 15.0529 21.288 15.0529 18.266V16.5164C15.0529 15.7654 14.8889 14.9931 14.6954 14.0837L14.6715 13.9715C14.5599 13.4462 14.4301 12.8349 14.3184 12.125L14.3182 12.1239C14.1698 11.1808 14.0535 10.0636 14.0535 8.73659C14.0535 6.96697 14.1243 4.92186 14.6589 3.26448C14.9732 2.28977 15.429 1.51702 16.018 0.973981C16.72 0.326537 17.6061 0 18.6452 0C20.635 0 22.6195 0.946762 24.093 2.59022C25.6376 4.31289 26.3912 6.57727 26.1585 8.80395ZM14.417 12.1083L14.4172 12.1094C14.5284 12.8164 14.6577 13.4254 14.7693 13.9506L14.7932 14.0629C14.9862 14.9697 15.1529 15.7529 15.1529 16.5164V18.2659C15.1529 21.241 17.3753 23.6614 20.107 23.6614C21.4076 23.6614 22.6228 23.0869 23.5287 22.0436C24.3662 21.0793 24.91 19.7579 25.0598 18.3226L25.3698 15.3662C25.3717 15.3531 25.3729 15.3399 25.3739 15.3267L26.059 8.79349C26.2887 6.596 25.545 4.35943 24.0186 2.65695C22.5616 1.03195 20.6031 0.0999756 18.6452 0.0999756C17.6286 0.0999756 16.7675 0.418755 16.0857 1.04747C15.5127 1.57586 15.0647 2.33208 14.7541 3.29516C14.2248 4.9359 14.1535 6.96654 14.1535 8.73656C14.1535 10.0576 14.2693 11.1695 14.417 12.1083ZM20.0599 8.44468C20.2289 8.44468 20.3882 8.52394 20.4906 8.65898L24.4385 13.8658L24.6131 12.201L20.7047 7.04616C20.6329 6.95149 20.5941 6.83575 20.5941 6.71676V5.76867C20.5941 5.42289 20.3494 5.13079 20.06 5.13079C19.7713 5.13079 19.5274 5.42289 19.5274 5.76867V6.71676C19.5274 6.83575 19.4886 6.95149 19.4167 7.04616L15.5249 12.1796C15.6097 12.6818 15.7036 13.1361 15.7925 13.5556C15.8017 13.5991 15.8109 13.6422 15.82 13.6849L19.6291 8.65909C19.7315 8.52399 19.8908 8.44474 20.0599 8.44468ZM15.8724 13.4502L19.5494 8.59871C19.6707 8.43874 19.8594 8.34477 20.0598 8.34471C20.2602 8.34471 20.449 8.43867 20.5703 8.59859L24.3654 13.6039L24.5095 12.2299L20.625 7.10661C20.54 6.99452 20.4941 6.85754 20.4941 6.71679V5.7687C20.4941 5.46078 20.2783 5.23082 20.06 5.23082C19.8426 5.23082 19.6274 5.46049 19.6274 5.7687V6.71679C19.6274 6.85751 19.5815 6.9945 19.4964 7.10663L15.6307 12.2055C15.7076 12.6555 15.7915 13.0669 15.8724 13.4502ZM23.1395 3.45143C21.9037 2.07304 20.2643 1.28745 18.6452 1.28745C17.9577 1.28745 17.401 1.47547 16.9507 1.85994C16.4984 2.24613 16.1447 2.83799 15.8793 3.66099C15.4019 5.14096 15.3362 7.05059 15.3362 8.73659C15.3362 9.33137 15.3603 9.87763 15.4006 10.3828L18.3446 6.49976V5.76875C18.3446 4.76846 19.1079 3.94337 20.0599 3.94337C21.0126 3.94337 21.7766 4.76837 21.7766 5.76875V6.49976L24.7053 10.3623L24.8828 8.66948C24.8828 8.66949 24.8828 8.66947 24.8828 8.66948C25.0774 6.80748 24.443 4.90514 23.1395 3.45143ZM24.9823 8.67985C25.1799 6.78847 24.5354 4.85843 23.214 3.38465C21.9621 1.98828 20.2968 1.18743 18.6452 1.18743C17.2308 1.18743 16.3216 1.96365 15.7841 3.63027C15.3013 5.12707 15.2362 7.0515 15.2362 8.73656C15.2362 9.37804 15.2641 9.96352 15.3102 10.5021C15.3144 10.5519 15.3188 10.6012 15.3234 10.6502L18.4446 6.53336V5.76873C18.4446 4.81735 19.1692 4.04334 20.0599 4.04334C20.9514 4.04334 21.6766 4.81735 21.6766 5.76873V6.53336L24.7784 10.6242L24.9823 8.67985ZM23.8835 18.1985L24.1695 15.4715L20.06 10.0515L16.2095 15.1319C16.2859 15.5962 16.3355 16.0497 16.3355 16.5164V18.266C16.3355 20.5965 18.0373 22.4739 20.107 22.4739C22.0509 22.4739 23.6183 20.7388 23.8835 18.1985ZM16.1038 15.1058L20.06 9.8859L24.2731 15.4426L23.983 18.2089C23.7147 20.7791 22.1208 22.5739 20.107 22.5739C17.9723 22.5739 16.2355 20.6414 16.2355 18.2659V16.5163C16.2355 16.0428 16.1836 15.5817 16.1038 15.1058ZM0.56065 13.2579C-0.275238 11.1769 -0.172187 8.79575 0.841302 6.72446C1.80814 4.74843 3.45847 3.30657 5.37395 2.77476C6.37426 2.49704 7.31676 2.57463 8.1702 3.01008C8.88609 3.3753 9.53707 3.99717 10.1075 4.8513C11.0775 6.30368 11.7076 8.25325 12.1939 9.95667C12.5586 11.2338 12.7537 12.3402 12.87 13.2875C12.87 13.2874 12.87 13.2877 12.87 13.2875L12.8702 13.289C12.9578 14.0023 13.0008 14.6254 13.0377 15.1608L13.0456 15.2752C13.1092 16.2023 13.1636 16.9895 13.37 17.7124L13.8508 19.3965C14.6813 22.3054 13.1863 25.2908 10.4955 26.0378C9.21372 26.3937 7.85652 26.159 6.67551 25.3822C5.58521 24.6652 4.68655 23.5213 4.14133 22.1634L3.03119 19.4023C3.02489 19.3882 3.0196 19.3744 3.01509 19.3622L0.56065 13.2579ZM4.23413 22.1261L3.12324 19.3632C3.11778 19.3511 3.11302 19.3387 3.10839 19.3262L0.653448 13.2206C-0.171538 11.1667 -0.0703319 8.81509 0.93113 6.76839C1.88698 4.81483 3.51604 3.39434 5.4007 2.87109C6.37928 2.59941 7.29574 2.67614 8.12476 3.09913C8.82154 3.45461 9.46066 4.06279 10.0243 4.90682C10.9846 6.34473 11.6114 8.28031 12.0978 9.9841C12.4608 11.2557 12.655 12.357 12.7708 13.3001L12.7709 13.3012C12.8581 14.0115 12.9011 14.6322 12.938 15.1676L12.9458 15.282C13.0093 16.2065 13.064 17.0049 13.2739 17.7399L13.7547 19.4239C14.5723 22.2877 13.0982 25.2114 10.4687 25.9415C9.21684 26.289 7.88921 26.0608 6.73046 25.2987C5.65933 24.5942 4.77276 23.4676 4.23413 22.1261ZM1.99539 7.29782C1.14038 9.04517 1.0524 11.0457 1.75143 12.7862C1.75143 12.7862 1.75144 12.7862 1.75143 12.7862L2.38792 14.3692L4.1453 9.86892L3.94442 9.16533C3.6695 8.20242 4.17826 7.2034 5.09594 6.94862C6.01221 6.69423 6.97304 7.28427 7.24781 8.24668L7.44877 8.95055L11.3496 11.9014C11.2496 11.4048 11.1228 10.8729 10.9595 10.3009C10.4961 8.67805 9.90805 6.85735 9.04176 5.56023L9.12492 5.50466C10.001 6.81643 10.5925 8.65144 11.0556 10.2734C11.2318 10.8907 11.3658 11.4616 11.4695 11.9922C11.4792 12.0414 11.4885 12.0902 11.4976 12.1388L7.36179 9.01012L7.15166 8.27411C6.8902 7.35833 5.98002 6.80693 5.1227 7.04495C4.26455 7.2832 3.77912 8.22207 4.04058 9.13785L4.25072 9.87386L2.38928 14.6406L1.65866 12.8235C0.948638 11.0557 1.03861 9.02562 1.90557 7.25384C2.72689 5.57516 4.10979 4.35923 5.69956 3.91785C7.06107 3.53985 8.14953 4.04405 9.12492 5.50466L9.04176 5.56023C8.56005 4.83888 8.05677 4.36351 7.515 4.11254C6.97562 3.86267 6.38798 3.83053 5.7263 4.01423C4.1679 4.4469 2.80599 5.64103 1.99539 7.29782ZM6.33228 11.2816C6.49498 11.2365 6.6701 11.2702 6.8058 11.3729L11.8536 15.1927C11.8506 15.1489 11.8476 15.1048 11.8445 15.0604C11.8148 14.6329 11.7803 14.1706 11.724 13.6647L6.56698 9.76353C6.47183 9.6916 6.40267 9.59055 6.36997 9.47602L6.10942 8.56341C6.01439 8.23056 5.69935 8.01458 5.42145 8.09174C5.14282 8.16909 4.98761 8.51563 5.08264 8.84848L5.34319 9.76109C5.37589 9.87562 5.3703 9.99742 5.32724 10.1077L2.98173 16.1141L3.60731 17.67L5.97651 11.603C6.03797 11.4456 6.16958 11.3268 6.33228 11.2816ZM3.60595 17.3986L5.88336 11.5666C5.95627 11.38 6.11248 11.2388 6.30552 11.1853C6.4985 11.1317 6.70579 11.1718 6.86614 11.2931L11.7386 14.9803C11.7111 14.59 11.6789 14.1718 11.6293 13.7185L6.50666 9.84333C6.39419 9.75829 6.31246 9.63887 6.27381 9.5035L6.01325 8.59089C5.92846 8.29389 5.65761 8.12997 5.4482 8.18812C5.23871 8.24628 5.09413 8.52451 5.17879 8.82105L5.43935 9.73366C5.47801 9.86908 5.47145 10.0133 5.42039 10.1441L3.08929 16.1136L3.60595 17.3986ZM5.33217 21.6916C6.28568 24.0663 8.27175 25.3179 10.1431 24.7983C12.1347 24.2454 13.2569 21.9841 12.6164 19.7407L12.1356 18.0566C12.0073 17.6074 11.9304 17.1576 11.8764 16.6901L6.77331 12.8284L4.30744 19.1431L5.33217 21.6916ZM4.19988 19.1436L6.72825 12.6689L11.9709 16.6362C12.0248 17.1156 12.1016 17.5733 12.2317 18.0291L12.7125 19.7133C13.3654 21.9998 12.2247 24.3242 10.1698 24.8947C8.2314 25.4328 6.20397 24.1311 5.23938 21.7289L4.19988 19.1436Z" fill="#4F4F4F"/>
</svg>
