<svg width="28" height="19" viewBox="0 0 28 19" fill="none" xmlns="http://www.w3.org/2000/svg">
<path d="M23.7804 6.26541C24.1874 6.26541 24.5173 5.93449 24.5173 5.52628C24.5173 5.11807 24.1874 4.78715 23.7804 4.78715C23.3733 4.78715 23.0434 5.11807 23.0434 5.52628C23.0434 5.93449 23.3733 6.26541 23.7804 6.26541Z" fill="#4F4F4F"/>
<path d="M23.7804 10.2391C24.1874 10.2391 24.5173 9.90816 24.5173 9.49995C24.5173 9.09174 24.1874 8.76083 23.7804 8.76083C23.3733 8.76083 23.0434 9.09174 23.0434 9.49995C23.0434 9.90816 23.3733 10.2391 23.7804 10.2391Z" fill="#4F4F4F"/>
<path d="M23.7804 14.2128C24.1874 14.2128 24.5173 13.8818 24.5173 13.4736C24.5173 13.0654 24.1874 12.7345 23.7804 12.7345C23.3733 12.7345 23.0434 13.0654 23.0434 13.4736C23.0434 13.8818 23.3733 14.2128 23.7804 14.2128Z" fill="#4F4F4F"/>
<path d="M27.3778 0H0.622222C0.278578 0 0 0.279389 0 0.624035V18.376C0 18.7206 0.278578 19 0.622222 19H27.3778C27.7214 19 28 18.7206 28 18.376V0.624035C28 0.2793 27.7214 0 27.3778 0ZM1.24444 1.24807H19.7262V17.7519H1.24444V1.24807ZM26.7556 17.7518H20.9707V1.24807H26.7556V17.7518Z" fill="#4F4F4F"/>
<path d="M16.7599 4.16312H4.21067C3.86702 4.16312 3.58845 4.44251 3.58845 4.78715V14.2128C3.58845 14.5574 3.86702 14.8368 4.21067 14.8368H16.7599C17.1036 14.8368 17.3821 14.5574 17.3821 14.2128V4.78715C17.3821 4.44251 17.1036 4.16312 16.7599 4.16312ZM16.1377 13.5887H4.83289V5.41119H16.1377V13.5887Z" fill="#4F4F4F"/>
</svg>
