<svg width="30" height="30" viewBox="0 0 30 30" fill="none" xmlns="http://www.w3.org/2000/svg">
<path d="M29.4141 12.0996H24.6094V10.8594C24.6094 10.5358 24.347 10.2734 24.0234 10.2734H11.3672C11.0436 10.2734 10.7812 10.5358 10.7812 10.8594C10.7812 11.183 11.0436 11.4453 11.3672 11.4453H23.4375V15.9375C23.4375 19.8836 21.3306 23.5512 17.9286 25.5468H6.68074C3.27873 23.5513 1.17188 19.8836 1.17188 15.9375V11.4454H5.09766C5.42121 11.4454 5.68359 11.183 5.68359 10.8594C5.68359 10.5358 5.42121 10.2735 5.09766 10.2735H0.585938C0.262383 10.2735 0 10.5358 0 10.8594V15.9375C0 18.1524 0.595312 20.3241 1.7216 22.2178C2.48115 23.4949 3.4667 24.6227 4.62082 25.5469H0.585938C0.262383 25.5469 0 25.8092 0 26.1328C0 28.2652 1.73479 30 3.86719 30H22.1484C24.2808 30 26.0156 28.2652 26.0156 26.1328C26.0156 25.8092 25.7532 25.5469 25.4297 25.5469H19.9886C21.0508 24.6963 21.9697 23.6729 22.7016 22.5195H24.3555C27.4679 22.5195 30 19.9874 30 16.875V12.6856C30 12.3619 29.7377 12.0996 29.4141 12.0996ZM24.7796 26.7188C24.5113 27.9241 23.4335 28.8281 22.1484 28.8281H3.86719C2.58217 28.8281 1.50434 27.9241 1.23604 26.7188H24.7796ZM24.6094 15.9375V15.6152H26.4844V16.875C26.4844 18.0489 25.5294 19.0039 24.3555 19.0039H24.2224C24.4782 18.0075 24.6094 16.9773 24.6094 15.9375ZM28.8281 16.875C28.8281 19.3412 26.8217 21.3476 24.3555 21.3476H23.3582C23.5453 20.9656 23.7124 20.5744 23.8584 20.1758H24.3555C26.1756 20.1758 27.6562 18.695 27.6562 16.875V15.0293C27.6562 14.7057 27.3939 14.4434 27.0703 14.4434H24.6094V13.2715H28.8281V16.875Z" fill="#424242"/>
<path d="M12.8642 3.24277L12.5593 2.85998C12.1118 2.29818 12.1112 1.51285 12.5578 0.950234C12.759 0.696758 12.7165 0.328203 12.4631 0.127051C12.2095 -0.0742185 11.841 -0.0317381 11.6398 0.221738C10.8522 1.21408 10.8534 2.59918 11.6427 3.59012L11.9476 3.97291C12.5324 4.70709 12.5333 5.73336 11.9497 6.46865L11.6372 6.86228C11.436 7.11576 11.4785 7.48431 11.7319 7.68546C11.8397 7.77095 11.9682 7.8125 12.0958 7.8125C12.2684 7.8125 12.4395 7.73656 12.5552 7.59078L12.8676 7.19714C13.7922 6.03218 13.7909 4.40609 12.8642 3.24277Z" fill="#424242"/>
<path d="M16.112 4.56019L15.8071 4.17746C15.3596 3.6156 15.3589 2.83027 15.8055 2.26766C16.0068 2.01418 15.9643 1.64562 15.7109 1.44447C15.4573 1.2432 15.0888 1.28568 14.8876 1.53916C14.1 2.5315 14.1012 3.9166 14.8905 4.90759L15.1954 5.29039C15.7801 6.02463 15.781 7.05095 15.1974 7.78619L14.885 8.17976C14.6838 8.43324 14.7263 8.80179 14.9797 9.00294C15.0875 9.08843 15.216 9.12992 15.3436 9.12992C15.5162 9.12992 15.6873 9.05392 15.803 8.9082L16.1153 8.51462C17.0399 7.34972 17.0386 5.72363 16.112 4.56019Z" fill="#424242"/>
<path d="M9.61641 4.56025L9.31154 4.17752C8.864 3.61572 8.86336 2.83033 9.3099 2.26771C9.51111 2.01424 9.46869 1.64568 9.21521 1.44447C8.96168 1.24326 8.59318 1.2858 8.39197 1.53916C7.60441 2.5315 7.60559 3.91666 8.3949 4.90759L8.69977 5.29039C9.28453 6.02463 9.28541 7.05095 8.70187 7.78613L8.38945 8.1797C8.18824 8.43318 8.23061 8.80173 8.48408 9.00294C8.59184 9.08843 8.72027 9.12997 8.84795 9.12997C9.02057 9.12997 9.1916 9.05404 9.30727 8.90832L9.61975 8.51468C10.5444 7.34978 10.543 5.72369 9.61641 4.56025Z" fill="#424242"/>
<path d="M8.80547 10.4449C8.69648 10.336 8.54531 10.2733 8.39121 10.2733C8.23711 10.2733 8.08594 10.336 7.97695 10.4449C7.86803 10.5545 7.80527 10.7051 7.80527 10.8592C7.80527 11.0133 7.86797 11.1645 7.97695 11.274C8.08594 11.383 8.23711 11.4451 8.39121 11.4451C8.54531 11.4451 8.69648 11.383 8.80547 11.274C8.91498 11.1645 8.97715 11.0139 8.97715 10.8592C8.97715 10.7051 8.91498 10.5539 8.80547 10.4449Z" fill="#424242"/>
<path d="M21.2109 15.3516C20.8874 15.3516 20.625 15.6139 20.625 15.9375C20.625 18.1125 19.7428 20.2499 18.2046 21.8017C17.9768 22.0316 17.9785 22.4026 18.2083 22.6304C18.3226 22.7436 18.4717 22.8002 18.6208 22.8002C18.7716 22.8001 18.9224 22.7422 19.037 22.6266C20.7909 20.8571 21.7969 18.419 21.7969 15.9375C21.7969 15.6139 21.5345 15.3516 21.2109 15.3516Z" fill="#424242"/>
<path d="M17.2198 23.3921C17.0608 23.1102 16.7034 23.0107 16.4216 23.1696L16.4082 23.1772C16.1263 23.3362 16.0268 23.6936 16.1858 23.9754C16.2935 24.1663 16.492 24.2736 16.6966 24.2736C16.7941 24.2736 16.893 24.2491 16.984 24.1979L16.9973 24.1903C17.2792 24.0313 17.3788 23.6739 17.2198 23.3921Z" fill="#424242"/>
</svg>
