<svg width="23" height="27" viewBox="0 0 23 27" fill="none" xmlns="http://www.w3.org/2000/svg">
<path d="M22.8772 4.88017C19.8432 1.73302 15.8023 0 11.5 0C7.1977 0 3.15719 1.73258 0.122836 4.88017C-0.0409454 5.05004 -0.0409454 5.32461 0.122836 5.49448C0.286618 5.66435 0.551349 5.66435 0.715131 5.49448C3.59115 2.51112 7.42138 0.868464 11.5 0.868464C15.5786 0.868464 19.4088 2.51112 22.2849 5.49404C22.3666 5.57876 22.4738 5.62134 22.581 5.62134C22.6882 5.62134 22.7955 5.57876 22.8772 5.49404C23.0409 5.32461 23.0409 5.0496 22.8772 4.88017Z" fill="black"/>
<path d="M2.585 7.43343C2.42122 7.6033 2.42122 7.87787 2.585 8.04774C2.66669 8.13246 2.77392 8.17503 2.88115 8.17503C2.98838 8.17503 3.09562 8.13246 3.1773 8.04774C7.76612 3.28791 15.233 3.28791 19.8223 8.04774C19.9861 8.21761 20.2508 8.21761 20.4146 8.04774C20.5784 7.87787 20.5784 7.6033 20.4146 7.43343C15.4995 2.3356 7.50096 2.33473 2.585 7.43343Z" fill="black"/>
<path d="M11.5 7.21968C9.06003 7.21968 6.76877 8.20284 5.04759 9.98755C4.88381 10.1574 4.88381 10.432 5.04759 10.6019C5.21137 10.7717 5.47611 10.7717 5.63989 10.6019C7.20272 8.98137 9.28371 8.08858 11.5 8.08858C13.7163 8.08858 15.7973 8.98137 17.3601 10.6019C17.4418 10.6866 17.549 10.7292 17.6563 10.7292C17.7635 10.7292 17.8707 10.6866 17.9524 10.6019C18.1162 10.432 18.1162 10.1574 17.9524 9.98755C16.2317 8.20284 13.94 7.21968 11.5 7.21968Z" fill="black"/>
<path d="M11.5 11.307C9.98701 11.307 8.75593 12.5838 8.75593 14.1535C8.75593 15.7232 9.98701 17 11.5 17C13.0134 17 14.2445 15.7232 14.2445 14.1535C14.2445 12.5838 13.0134 11.307 11.5 11.307ZM11.5 16.1307C10.4486 16.1307 9.59368 15.2435 9.59368 14.1531C9.59368 13.0626 10.449 12.1754 11.5 12.1754C12.551 12.1754 13.4067 13.0626 13.4067 14.1531C13.4067 15.2435 12.5514 16.1307 11.5 16.1307Z" fill="black"/>
<path d="M4.09785 24.7933L4.23705 25.7163L4.44087 24.8846L5.87258 20H6.67792L8.07483 24.8846L8.27368 25.7308L8.42779 24.7885L9.55128 20H10.5107L8.75589 27H7.88592L6.39456 21.899L6.28022 21.3654L6.16588 21.899L4.61983 27H3.74987L2 20H2.95447L4.09785 24.7933Z" fill="black"/>
<path d="M12.5986 27H11.6442V20H12.5986V27Z" fill="black"/>
<path d="M18.3404 23.9087H15.303V27H14.3485V20H18.8325V20.7596H15.303V23.1538H18.3404V23.9087Z" fill="black"/>
<path d="M21 27H20.0455V20H21V27Z" fill="black"/>
</svg>
