<svg width="32" height="32" viewBox="0 0 32 32" fill="none" xmlns="http://www.w3.org/2000/svg">
<path d="M5.53817 26.6149L6.92522 21.8282H9.01492L10.679 26.6149H5.53817ZM15.916 26.6149H11.9293L10.2646 21.8282H12.3791C12.7045 21.8282 12.9686 21.5602 12.9686 21.2299C12.9686 20.8996 12.7045 20.6315 12.3791 20.6315H3.53688C3.21149 20.6315 2.9474 20.8996 2.9474 21.2299C2.9474 21.5602 3.21149 21.8282 3.53688 21.8282H5.69614L4.30911 26.6149H0.589481C0.264087 26.6149 0 26.8824 0 27.2133C0 27.5442 0.264087 27.8116 0.589481 27.8116H3.96249L2.97157 31.2329C2.87961 31.5501 3.05822 31.8827 3.37065 31.9755C3.42606 31.9922 3.48206 32 3.53688 32C3.79213 32 4.02675 31.8313 4.1022 31.5704L5.19156 27.8116H11.0952L12.4127 31.6009C12.4982 31.8462 12.7257 32 12.9686 32C13.0334 32 13.1 31.9886 13.1649 31.9659C13.472 31.8558 13.6329 31.5141 13.5244 31.2024L12.3455 27.8116H15.916C16.2414 27.8116 16.5055 27.5442 16.5055 27.2133C16.5055 26.8824 16.2414 26.6149 15.916 26.6149Z" fill="#424242"/>
<path d="M31.8508 24.0026L27.5482 16.4432H29.474C29.8484 16.4432 30.1543 16.2768 30.3141 15.9872C30.4738 15.697 30.4532 15.3452 30.2569 15.0221L26.4028 8.66473H27.7056C28.0864 8.66473 28.3929 8.4954 28.5456 8.19982C28.6983 7.90424 28.6611 7.55182 28.4442 7.2335L23.8103 0.439331C23.4106 -0.146444 22.5689 -0.146444 22.1692 0.439331L17.5353 7.2335C17.3184 7.55182 17.2812 7.90424 17.4339 8.19982C17.5866 8.4954 17.8931 8.66473 18.2739 8.66473H19.5767L15.7227 15.0221C15.5264 15.3452 15.5057 15.697 15.6655 15.9872C15.8252 16.2768 16.1312 16.4432 16.5055 16.4432H18.4313L14.1281 24.0026C13.943 24.3287 13.93 24.6799 14.0933 24.9671C14.2566 25.2537 14.5625 25.4183 14.9333 25.4183H20.6318C20.9572 25.4183 21.2213 25.1502 21.2213 24.8199C21.2213 24.4896 20.9572 24.2216 20.6318 24.2216H15.3654L19.668 16.6622C19.8537 16.3367 19.8667 15.9848 19.7034 15.6982C19.5407 15.411 19.2342 15.2465 18.8634 15.2465H16.9712L20.8252 8.88911C21.0215 8.566 21.0421 8.21418 20.8824 7.92399C20.7226 7.63439 20.4167 7.46805 20.0424 7.46805H18.8097L22.9898 1.33924L27.1698 7.46805H25.9372C25.5628 7.46805 25.2569 7.63439 25.0972 7.92399C24.9374 8.21418 24.958 8.566 25.1543 8.88911L29.0084 15.2465H27.1161C26.7453 15.2465 26.4388 15.411 26.2761 15.6982C26.1128 15.9848 26.1258 16.3367 26.3115 16.6622L30.6141 24.2216H23.5792C22.929 24.2216 22.4003 24.7583 22.4003 25.4183V31.4017C22.4003 31.7325 22.6644 32 22.9898 32C23.3152 32 23.5792 31.7325 23.5792 31.4017V25.4183H31.0462C31.417 25.4183 31.7229 25.2537 31.8862 24.9671C32.0495 24.6799 32.0365 24.3287 31.8508 24.0026Z" fill="#424242"/>
</svg>
