<svg width="16" height="33" viewBox="0 0 16 33" fill="none" xmlns="http://www.w3.org/2000/svg">
<path d="M14.8567 18.458C14.6374 20.0671 13.7031 21.4995 12.0791 22.7138C11.2262 23.3518 9.35885 23.7423 8.01698 23.8333C6.97088 23.8333 4.86777 23.3976 3.95482 22.7138C2.30955 21.483 1.36386 20.0377 1.1423 18.4177C0.804517 15.9366 2.21133 13.6644 2.83233 12.8028C4.99275 9.80284 5.8342 7.93407 5.8342 6.1374V3.66667C5.8342 3.32933 5.59027 3.05556 5.2885 3.05556C4.98728 3.05556 4.7428 2.78117 4.7428 2.44445V1.83333C4.7428 1.49661 4.98728 1.22222 5.2885 1.22222H10.7455C11.0467 1.22222 11.2912 1.49661 11.2912 1.83333V2.44445C11.2912 2.78117 11.0467 3.05556 10.7455 3.05556H7.47128C7.16951 3.05556 6.92559 3.32933 6.92559 3.66667C6.92559 4.004 7.16951 4.27778 7.47128 4.27778H10.1998V6.1374C10.1998 7.97012 11.0183 9.81996 13.1187 12.7362C13.7555 13.6198 15.1989 15.9476 14.8567 18.458ZM13.9678 11.9686C12.0415 9.2944 11.2912 7.65968 11.2912 6.1374V4.16534C11.9247 3.91234 12.3825 3.24011 12.3825 2.44445V1.83333C12.3825 0.822556 11.648 0 10.7455 0H5.2885C4.38592 0 3.65141 0.822556 3.65141 1.83333V2.44445C3.65141 3.24011 4.10925 3.91234 4.7428 4.16534V6.1374C4.7428 7.60407 3.94335 9.31333 1.98267 12.0352C1.27163 13.0234 -0.339821 15.6408 0.0639937 18.6022C0.333022 20.5755 1.43752 22.3019 3.348 23.7313C4.50324 24.5948 6.79735 25.0556 8.04536 25.0556C8.04699 25.0556 8.04864 25.0556 8.04973 25.0556C8.37169 25.0556 11.2399 24.8123 12.686 23.7313C14.5752 22.3178 15.6682 20.6055 15.9361 18.6426C16.3438 15.6512 14.6952 12.9788 13.9678 11.9686Z" fill="#424242"/>
<path d="M9.42815 20.4515C9.1744 21.0216 8.62816 21.3461 7.7605 21.4421C7.46473 21.3865 6.06121 21.0454 6.03556 19.5867C6.02574 19.0141 6.28551 18.6145 6.74553 17.9575C7.27322 17.2034 7.93731 16.2549 8.10812 14.6214C9.77685 18.0339 9.7763 19.6698 9.42815 20.4515ZM7.93732 11.9051C7.80144 11.6539 7.52424 11.5463 7.27867 11.6502C7.03311 11.7541 6.8885 12.0395 6.93434 12.3286C7.36926 15.0841 6.58181 16.2097 5.88659 17.2034C5.41402 17.8774 4.92616 18.5753 4.94417 19.6106C4.98182 21.7409 6.75043 22.539 7.6803 22.6637C7.70213 22.6667 7.72341 22.6686 7.74523 22.6686C7.76051 22.6686 7.77688 22.6673 7.79216 22.6661C9.08873 22.5408 9.96729 21.9792 10.4049 20.9972C11.5651 18.3914 8.94412 13.7066 8.08302 12.1672L7.93732 11.9051Z" fill="#424242"/>
<path d="M14.0196 31.1667C14.0196 31.504 13.7752 31.7778 13.4739 31.7778H2.56002C2.2588 31.7778 2.01433 31.504 2.01433 31.1667V30.5556C2.01433 30.2182 2.2588 29.9444 2.56002 29.9444H3.10572C3.957 29.9444 4.78537 29.2197 4.99165 28.2938L5.00692 28.2229C5.09204 27.8441 5.4855 27.5 5.8342 27.5H10.1998C10.5485 27.5 10.9419 27.844 11.0265 28.2211L11.0429 28.2957C11.2486 29.2197 12.077 29.9444 12.9282 29.9444H13.4739C13.7752 29.9444 14.0196 30.2182 14.0196 30.5556V31.1667ZM13.4739 28.7222H12.9282C12.5795 28.7222 12.1861 28.3782 12.1015 28.0011L12.0851 27.9266C11.8794 27.0019 11.0511 26.2778 10.1998 26.2778H5.8342C4.98291 26.2778 4.15454 27.0019 3.94827 27.9284L3.933 27.9993C3.84787 28.3782 3.45442 28.7222 3.10572 28.7222H2.56002C1.65744 28.7222 0.922935 29.5448 0.922935 30.5556V31.1667C0.922935 32.1774 1.65744 33 2.56002 33H13.4739C14.3765 33 15.111 32.1774 15.111 31.1667V30.5556C15.111 29.5448 14.3765 28.7222 13.4739 28.7222Z" fill="#424242"/>
<path d="M15.111 24.4444C14.8093 24.4444 14.5653 24.7182 14.5653 25.0555V25.6667H12.9282C12.6265 25.6667 12.3826 25.9404 12.3826 26.2778C12.3826 26.6151 12.6265 26.8889 12.9282 26.8889H14.5653V27.5C14.5653 27.8379 14.8093 28.1111 15.111 28.1111C15.4128 28.1111 15.6567 27.8379 15.6567 27.5V25.0555C15.6567 24.7182 15.4128 24.4444 15.111 24.4444Z" fill="#424242"/>
</svg>
