<svg width="33" height="28" viewBox="0 0 33 28" fill="none" xmlns="http://www.w3.org/2000/svg">
<path d="M18.6346 4.23693C18.3266 4.1023 17.9649 4.23217 17.8249 4.53183C17.3519 5.544 17.1111 6.62468 17.1111 7.74468C17.1111 8.66808 17.2767 9.57183 17.6031 10.4321C17.6935 10.6722 17.9276 10.8211 18.1757 10.8211C18.246 10.8211 18.3181 10.8098 18.3877 10.7842C18.7043 10.6698 18.8662 10.3272 18.7489 10.0186C18.4733 9.29183 18.3333 8.52689 18.3333 7.74468C18.3333 6.79625 18.5362 5.88179 18.9371 5.02689C19.0771 4.72783 18.942 4.37396 18.6346 4.23693Z" fill="#424242"/>
<path d="M25.0556 5.36171C26.4037 5.36171 27.5 6.43048 27.5 7.74469C27.5 9.0589 26.4037 10.1277 25.0556 10.1277C23.7074 10.1277 22.6111 9.0589 22.6111 7.74469C22.6111 6.43048 23.7074 5.36171 25.0556 5.36171ZM25.0556 11.3192C27.0777 11.3192 28.7222 9.71601 28.7222 7.74469C28.7222 5.77337 27.0777 4.17022 25.0556 4.17022C23.0334 4.17022 21.3889 5.77337 21.3889 7.74469C21.3889 9.71601 23.0334 11.3192 25.0556 11.3192Z" fill="#424242"/>
<path d="M8.55556 9.53192C8.55556 9.96324 8.19563 10.531 7.80024 10.7234L6.32011 11.4449C6.22661 11.4901 6.17039 11.4949 6.14961 11.4949L6.14901 11.502C6.13924 11.4913 6.11112 11.4347 6.11112 11.3192V4.17022C6.11112 4.05465 6.13922 3.99806 6.14961 3.99448C6.17039 3.99448 6.22661 3.99924 6.32011 4.04452L7.80024 4.76597C8.19563 4.95839 8.55556 5.52614 8.55556 5.95746V9.53192ZM8.34657 3.70018L6.86644 2.97873C6.62689 2.86197 6.3855 2.80299 6.14961 2.80299C5.41933 2.80299 4.8889 3.37788 4.8889 4.17022V11.3192C4.8889 12.1115 5.41933 12.6864 6.14961 12.6864C6.3855 12.6864 6.62689 12.6274 6.86644 12.5106L8.34657 11.7892C9.14957 11.3984 9.77778 10.4065 9.77778 9.53192V5.95746C9.77778 5.0829 9.14957 4.09099 8.34657 3.70018Z" fill="#424242"/>
<path d="M3.05555 4.76596H0.611111C0.273167 4.76596 0 5.03226 0 5.36171C0 5.69116 0.273167 5.95745 0.611111 5.95745H3.05555C3.3935 5.95745 3.66667 5.69116 3.66667 5.36171C3.66667 5.03226 3.3935 4.76596 3.05555 4.76596Z" fill="#424242"/>
<path d="M3.05555 7.14893H0.611111C0.273167 7.14893 0 7.41523 0 7.74468C0 8.07413 0.273167 8.34042 0.611111 8.34042H3.05555C3.3935 8.34042 3.66667 8.07413 3.66667 7.74468C3.66667 7.41523 3.3935 7.14893 3.05555 7.14893Z" fill="#424242"/>
<path d="M3.05555 9.53193H0.611111C0.273167 9.53193 0 9.79823 0 10.1277C0 10.4571 0.273167 10.7234 0.611111 10.7234H3.05555C3.3935 10.7234 3.66667 10.4571 3.66667 10.1277C3.66667 9.79823 3.3935 9.53193 3.05555 9.53193Z" fill="#424242"/>
<path d="M21.3889 23.234C21.3889 20.4966 21.9756 17.0043 23.6146 15.3583C24.0869 15.4423 24.5673 15.4894 25.0556 15.4894C26.3438 15.4894 27.5575 15.1826 28.6342 14.6494C26.9696 17.3195 24.8307 21.1495 24.4506 23.7452C24.4463 23.7732 24.4444 23.8018 24.4444 23.8298C24.4444 24.1163 23.8712 24.4255 22.6111 24.4255C21.7568 24.4255 21.3889 23.5212 21.3889 23.234ZM13.5123 11.7362C12.4819 11.5616 11.6111 10.5518 11.6111 9.53191V5.95745C11.6111 4.93753 12.482 3.92774 13.5484 3.74604L22.1491 1.76936L22.4455 1.69668L22.5268 1.67107C23.3292 1.35294 24.1798 1.19149 25.0556 1.19149C28.7619 1.19149 31.7778 4.13149 31.7778 7.74468C31.7778 11.3579 28.7619 14.2979 25.0556 14.2979C24.1481 14.2979 23.2674 14.1245 22.4394 13.7831L13.5123 11.7362ZM32.3889 19.6596C32.3003 19.6596 30.2121 19.6828 28.8249 21.7119C28.3843 22.3559 28.0274 23.1905 27.6827 23.9978C27.1199 25.315 26.4813 26.8085 25.6667 26.8085C24.1193 26.8085 23.5534 26.1085 23.345 25.5789C25.3929 25.371 25.6489 24.3016 25.6654 23.8798C26.2747 19.8877 31.6146 12.3301 31.669 12.2539C31.7521 12.1371 31.7778 12.0019 31.7674 11.8696C32.5435 10.674 33 9.26145 33 7.74468C33 3.47438 29.436 0 25.0556 0C24.0362 0 23.0444 0.185872 22.1069 0.551064L13.3039 2.57898C11.6967 2.85183 10.3889 4.3674 10.3889 5.95745V9.53191C10.3889 11.122 11.6967 12.6375 13.2678 12.9032L21.8961 14.8847L22.0293 14.9073C22.1234 14.9454 22.22 14.9729 22.3153 15.0068C20.3329 17.5191 20.1667 21.8799 20.1667 23.234C20.1667 23.9871 20.8004 25.2596 22.0623 25.5539C22.2897 26.6071 23.2131 28 25.6667 28C27.2965 28 28.0665 26.1985 28.8114 24.4565C29.1335 23.7011 29.4672 22.9207 29.8418 22.3732C30.8556 20.8904 32.3308 20.8523 32.3889 20.8511C32.7268 20.8511 33 20.5848 33 20.2553C33 19.9259 32.7268 19.6596 32.3889 19.6596Z" fill="#424242"/>
</svg>
