<svg width="32" height="32" viewBox="0 0 32 32" fill="none" xmlns="http://www.w3.org/2000/svg">
<path d="M30.8148 30.2222C30.8148 30.5487 30.5493 30.8148 30.2222 30.8148H29.037V25.4815C29.037 23.1941 27.4424 21.3333 25.4815 21.3333C23.5206 21.3333 21.9259 23.1941 21.9259 25.4815V30.8148H19.5556V25.4815C19.5556 23.1941 17.9609 21.3333 16 21.3333C14.0391 21.3333 12.4444 23.1941 12.4444 25.4815V30.8148H10.0741V25.4815C10.0741 23.1941 8.47941 21.3333 6.51852 21.3333C4.55763 21.3333 2.96296 23.1941 2.96296 25.4815V30.8148H1.77778C1.45067 30.8148 1.18519 30.5487 1.18519 30.2222V19.5556C1.18519 19.229 1.45067 18.963 1.77778 18.963H30.2222C30.5493 18.963 30.8148 19.229 30.8148 19.5556V30.2222ZM27.8519 14.8148H23.1111V10.6667C23.1111 9.03289 24.1742 7.7037 25.4815 7.7037C26.7887 7.7037 27.8519 9.03289 27.8519 10.6667V14.8148ZM18.3704 14.8148H13.6296V10.6667C13.6296 9.03289 14.6927 7.7037 16 7.7037C17.3073 7.7037 18.3704 9.03289 18.3704 10.6667V14.8148ZM8.88889 14.8148H4.14815V10.6667C4.14815 9.03289 5.21126 7.7037 6.51852 7.7037C7.82578 7.7037 8.88889 9.03289 8.88889 10.6667V14.8148ZM30.8148 16.5926V17.1852C30.8148 17.5117 30.5493 17.7778 30.2222 17.7778H1.77778C1.45067 17.7778 1.18519 17.5117 1.18519 17.1852V16.5926C1.18519 16.2661 1.45067 16 1.77778 16H30.2222C30.5493 16 30.8148 16.2661 30.8148 16.5926ZM30.8148 4.74074V14.2222C30.8148 14.5487 30.5493 14.8148 30.2222 14.8148H29.037V10.6667C29.037 8.37926 27.4424 6.51852 25.4815 6.51852C23.5206 6.51852 21.9259 8.37926 21.9259 10.6667V14.8148H19.5556V10.6667C19.5556 8.37926 17.9609 6.51852 16 6.51852C14.0391 6.51852 12.4444 8.37926 12.4444 10.6667V14.8148H10.0741V10.6667C10.0741 8.37926 8.47941 6.51852 6.51852 6.51852C4.55763 6.51852 2.96296 8.37926 2.96296 10.6667V14.8148H1.77778C1.45067 14.8148 1.18519 14.5487 1.18519 14.2222V4.74074C1.18519 4.41422 1.45067 4.14815 1.77778 4.14815H30.2222C30.5493 4.14815 30.8148 4.41422 30.8148 4.74074ZM1.18519 1.77778C1.18519 1.45126 1.45067 1.18519 1.77778 1.18519H30.2222C30.5493 1.18519 30.8148 1.45126 30.8148 1.77778V2.37037C30.8148 2.69689 30.5493 2.96296 30.2222 2.96296H1.77778C1.45067 2.96296 1.18519 2.69689 1.18519 2.37037V1.77778ZM32 1.77778C32 0.79763 31.2024 0 30.2222 0H1.77778C0.79763 0 0 0.79763 0 1.77778V2.37037C0 2.82726 0.178359 3.2403 0.462211 3.55556C0.178359 3.87081 0 4.28385 0 4.74074V14.2222C0 14.6791 0.178359 15.0921 0.462211 15.4074C0.178359 15.7227 0 16.1357 0 16.5926V17.1852C0 17.6421 0.178359 18.0551 0.462211 18.3704C0.178359 18.6856 0 19.0987 0 19.5556V30.2222C0 31.2024 0.79763 32 1.77778 32H3.55556C3.88326 32 4.14815 31.7345 4.14815 31.4074V25.4815C4.14815 23.8477 5.21126 22.5185 6.51852 22.5185C7.82578 22.5185 8.88889 23.8477 8.88889 25.4815V31.4074C8.88889 31.7345 9.15378 32 9.48148 32H13.037C13.3647 32 13.6296 31.7345 13.6296 31.4074V25.4815C13.6296 23.8477 14.6927 22.5185 16 22.5185C17.3073 22.5185 18.3704 23.8477 18.3704 25.4815V31.4074C18.3704 31.7345 18.6353 32 18.963 32H22.5185C22.8462 32 23.1111 31.7345 23.1111 31.4074V25.4815C23.1111 23.8477 24.1742 22.5185 25.4815 22.5185C26.7887 22.5185 27.8519 23.8477 27.8519 25.4815V31.4074C27.8519 31.7345 28.1167 32 28.4444 32H30.2222C31.2024 32 32 31.2024 32 30.2222V19.5556C32 19.0987 31.8216 18.6856 31.5378 18.3704C31.8216 18.0551 32 17.6421 32 17.1852V16.5926C32 16.1357 31.8216 15.7227 31.5378 15.4074C31.8216 15.0921 32 14.6791 32 14.2222V4.74074C32 4.28385 31.8216 3.87081 31.5378 3.55556C31.8216 3.2403 32 2.82726 32 2.37037V1.77778Z" fill="#424242"/>
</svg>
