<svg width="23" height="32" viewBox="0 0 23 32" fill="none" xmlns="http://www.w3.org/2000/svg">
<path d="M1.21053 13.037C1.21053 11.5479 1.5513 10.1381 2.14567 8.8646L15.7617 22.1956C14.461 22.7781 13.021 23.1111 11.5 23.1111C5.82626 23.1111 1.21053 18.592 1.21053 13.037ZM4.73013 5.46963L19.2292 19.6652C18.5501 20.4237 17.7572 21.0785 16.8759 21.6107L2.74304 7.77363C3.28657 6.91081 3.95539 6.13452 4.73013 5.46963ZM21.7895 13.037C21.7895 15.1473 21.1207 17.1064 19.9834 18.7271L5.68826 4.73126C7.34366 3.61778 9.34466 2.96296 11.5 2.96296C17.1737 2.96296 21.7895 7.48207 21.7895 13.037ZM23 13.037C23 7.02874 18.1646 2.1191 12.1053 1.80799V0.592593C12.1053 0.264889 11.8347 0 11.5 0C11.1653 0 10.8947 0.264889 10.8947 0.592593V1.80799C4.83545 2.1191 0 7.02874 0 13.037C0 19.0453 4.83545 23.955 10.8947 24.2661V28.4444C10.8947 28.7721 11.1653 29.037 11.5 29.037C13.2952 29.037 14.5136 30.0433 15.1842 30.8148H7.7625C8.13837 30.3502 8.71277 29.795 9.50506 29.4282C9.80769 29.2883 9.93659 28.9351 9.79436 28.6394C9.65152 28.3437 9.29077 28.2157 8.98875 28.3567C7.01377 29.2699 6.14402 31.0827 6.10831 31.1597C6.02176 31.3434 6.0375 31.5573 6.14827 31.7268C6.25964 31.8969 6.4515 32 6.65789 32H16.3421C16.5539 32 16.7501 31.8916 16.859 31.7156C16.9692 31.5384 16.977 31.3179 16.8796 31.1342C16.8118 31.008 15.2889 28.2062 12.1053 27.8827V24.2661C18.1646 23.955 23 19.0453 23 13.037Z" fill="#424242"/>
</svg>
