<svg width="32" height="33" viewBox="0 0 32 33" fill="none" xmlns="http://www.w3.org/2000/svg">
<path d="M27.7582 25.9753C27.7529 24.8097 28.5292 23.1557 29.1247 22.0903C29.6693 23.0074 30.4717 24.5938 30.4717 25.9784C30.4717 26.807 29.8252 27.5611 29.1153 27.5611C28.3674 27.5611 27.7618 26.6938 27.7582 25.9753ZM20.7407 31.7698V26.2337H21.9259C22.253 26.2337 22.5185 25.9581 22.5185 25.6186C22.5185 25.279 22.253 25.0035 21.9259 25.0035H10.0741C9.74679 25.0035 9.48148 25.279 9.48148 25.6186C9.48148 25.9581 9.74679 26.2337 10.0741 26.2337H11.2593V31.7698H7.11111V21.3128H10.6667V21.9279C10.6667 22.2674 10.932 22.543 11.2593 22.543H20.7407C21.068 22.543 21.3333 22.2674 21.3333 21.9279V21.3128H24.8889V31.7698H20.7407ZM16.5926 31.7698V26.2337H19.5556V31.7698H16.5926ZM12.4444 31.7698V26.2337H15.4074V31.7698H12.4444ZM11.8519 20.0825H20.1481V21.3128H11.8519V20.0825ZM7.11111 4.70458C7.11111 4.29737 7.45232 3.81574 7.82661 3.69456L15.0454 1.35279C15.5542 1.18794 16.4465 1.18794 16.9546 1.35279L24.173 3.69456C24.5476 3.81574 24.8889 4.29737 24.8889 4.70458V20.0825H21.3333V19.4674C21.3333 19.1279 21.068 18.8523 20.7407 18.8523H11.2593C10.932 18.8523 10.6667 19.1279 10.6667 19.4674V20.0825H7.11111V4.70458ZM1.60024 25.9753C1.59467 24.8097 2.37061 23.1557 2.9667 22.0903C3.51087 23.0074 4.31366 24.5938 4.31366 25.9784C4.31366 26.807 3.6669 27.5611 2.95692 27.5611C2.20925 27.5611 1.60326 26.6938 1.60024 25.9753ZM31.4074 31.7698H29.6296V28.7262C30.7561 28.4463 31.6569 27.2831 31.6569 25.9784C31.6569 23.4878 29.667 20.705 29.5822 20.5875C29.4678 20.4288 29.2901 20.3372 29.0951 20.3415C28.9043 20.3464 28.7271 20.4461 28.6187 20.6097C28.5351 20.737 26.563 23.7591 26.573 25.9809C26.5784 27.0986 27.3233 28.3122 28.4444 28.6739V31.7698H26.0741V21.3128C26.4012 21.3128 26.6667 21.0372 26.6667 20.6976C26.6667 20.3581 26.4012 20.0825 26.0741 20.0825V4.70458C26.0741 3.76099 25.3944 2.80142 24.5268 2.52031L17.3081 0.178538C16.5743 -0.0595127 15.4257 -0.0595127 14.6919 0.178538L7.47313 2.52031C6.60557 2.80142 5.92593 3.76099 5.92593 4.70458V20.0825C5.59864 20.0825 5.33333 20.3581 5.33333 20.6976C5.33333 21.0372 5.59864 21.3128 5.92593 21.3128V31.7698H3.55556V28.6954C4.64142 28.3792 5.49885 27.2493 5.49885 25.9784C5.49885 23.4878 3.5088 20.705 3.42382 20.5875C3.30927 20.4288 3.12824 20.3372 2.93707 20.3415C2.74607 20.3464 2.56853 20.4461 2.46062 20.6097C2.37659 20.737 0.404387 23.7591 0.415054 25.9809C0.419913 27.1275 1.20024 28.3811 2.37037 28.7059V31.7698H0.592593C0.265304 31.7698 0 32.0453 0 32.3849C0 32.7244 0.265304 33 0.592593 33H31.4074C31.7345 33 32 32.7244 32 32.3849C32 32.0453 31.7345 31.7698 31.4074 31.7698Z" fill="#424242"/>
<path d="M9.48148 11.4709C9.80877 11.4709 10.0741 11.1953 10.0741 10.8558V9.01041H11.8519C12.1791 9.01041 12.4444 8.73484 12.4444 8.39529C12.4444 8.05575 12.1791 7.78017 11.8519 7.78017H9.48148C9.15419 7.78017 8.88889 8.05575 8.88889 8.39529V10.8558C8.88889 11.1953 9.15419 11.4709 9.48148 11.4709Z" fill="#424242"/>
<path d="M14.8148 11.4709C15.1421 11.4709 15.4074 11.1953 15.4074 10.8558V9.01041H17.1852C17.5125 9.01041 17.7778 8.73484 17.7778 8.39529C17.7778 8.05575 17.5125 7.78017 17.1852 7.78017H14.8148C14.4875 7.78017 14.2222 8.05575 14.2222 8.39529V10.8558C14.2222 11.1953 14.4875 11.4709 14.8148 11.4709Z" fill="#424242"/>
<path d="M20.1481 11.4709C20.4754 11.4709 20.7407 11.1953 20.7407 10.8558V9.01041H22.5185C22.8456 9.01041 23.1111 8.73484 23.1111 8.39529C23.1111 8.05575 22.8456 7.78017 22.5185 7.78017H20.1481C19.8209 7.78017 19.5556 8.05575 19.5556 8.39529V10.8558C19.5556 11.1953 19.8209 11.4709 20.1481 11.4709Z" fill="#424242"/>
<path d="M11.8519 14.5465C12.1791 14.5465 12.4444 14.2709 12.4444 13.9314C12.4444 13.5918 12.1791 13.3162 11.8519 13.3162H9.48148C9.15419 13.3162 8.88889 13.5918 8.88889 13.9314V16.3918C8.88889 16.7314 9.15419 17.0069 9.48148 17.0069C9.80877 17.0069 10.0741 16.7314 10.0741 16.3918V14.5465H11.8519Z" fill="#424242"/>
<path d="M14.8148 17.0069C15.1421 17.0069 15.4074 16.7314 15.4074 16.3918V14.5465H17.1852C17.5125 14.5465 17.7778 14.2709 17.7778 13.9314C17.7778 13.5918 17.5125 13.3162 17.1852 13.3162H14.8148C14.4875 13.3162 14.2222 13.5918 14.2222 13.9314V16.3918C14.2222 16.7314 14.4875 17.0069 14.8148 17.0069Z" fill="#424242"/>
<path d="M20.1481 17.0069C20.4754 17.0069 20.7407 16.7314 20.7407 16.3918V14.5465H22.5185C22.8456 14.5465 23.1111 14.2709 23.1111 13.9314C23.1111 13.5918 22.8456 13.3162 22.5185 13.3162H20.1481C19.8209 13.3162 19.5556 13.5918 19.5556 13.9314V16.3918C19.5556 16.7314 19.8209 17.0069 20.1481 17.0069Z" fill="#424242"/>
</svg>
