<svg width="33" height="33" viewBox="0 0 33 33" fill="none" xmlns="http://www.w3.org/2000/svg">
<path d="M31.7778 29.9444C31.7778 30.9552 30.9552 31.7778 29.9444 31.7778H18.3333V1.22222H29.9444C30.9552 1.22222 31.7778 2.04478 31.7778 3.05556V29.9444ZM3.05556 31.7778C2.04478 31.7778 1.22222 30.9552 1.22222 29.9444V3.05556C1.22222 2.04478 2.04478 1.22222 3.05556 1.22222H17.1111V31.7778H3.05556ZM29.9444 0H3.05556C1.37072 0 0 1.37072 0 3.05556V29.9444C0 31.6293 1.37072 33 3.05556 33H29.9444C31.6293 33 33 31.6293 33 29.9444V3.05556C33 1.37072 31.6293 0 29.9444 0Z" fill="#424242"/>
<path d="M9.16669 8.55555C10.1775 8.55555 11 9.3781 11 10.3889C11 11.3997 10.1775 12.2222 9.16669 12.2222C8.15591 12.2222 7.33335 11.3997 7.33335 10.3889C7.33335 9.3781 8.15591 8.55555 9.16669 8.55555ZM9.16669 13.4444C10.8515 13.4444 12.2222 12.0737 12.2222 10.3889C12.2222 8.70405 10.8515 7.33332 9.16669 7.33332C7.48185 7.33332 6.11113 8.70405 6.11113 10.3889C6.11113 12.0737 7.48185 13.4444 9.16669 13.4444Z" fill="#424242"/>
<path d="M12.8334 20.1667C12.8334 20.5394 12.6329 20.7778 12.5278 20.7778C11.6851 20.7778 11 21.6003 11 22.6111V24.4444C11 24.7818 10.7262 25.0555 10.3889 25.0555H9.7778V22C9.7778 21.662 9.50463 21.3889 9.16669 21.3889C8.82874 21.3889 8.55557 21.662 8.55557 22V25.0555H7.94446C7.60713 25.0555 7.33335 24.7818 7.33335 24.4444V22.6111C7.33335 21.6003 6.6483 20.7778 5.80557 20.7778C5.70046 20.7778 5.50002 20.5394 5.50002 20.1667V15.8889C5.50002 15.5515 5.7738 15.2778 6.11113 15.2778H12.2222C12.5596 15.2778 12.8334 15.5515 12.8334 15.8889V20.1667ZM12.2222 14.0555H6.11113C5.10035 14.0555 4.2778 14.8781 4.2778 15.8889V20.1667C4.2778 21.1774 4.96285 22 5.80557 22C5.91069 22 6.11113 22.2383 6.11113 22.6111V24.4444C6.11113 25.4552 6.93369 26.2778 7.94446 26.2778H10.3889C11.3997 26.2778 12.2222 25.4552 12.2222 24.4444V22.6111C12.2222 22.2383 12.4227 22 12.5278 22C13.3705 22 14.0556 21.1774 14.0556 20.1667V15.8889C14.0556 14.8781 13.233 14.0555 12.2222 14.0555Z" fill="#424242"/>
<path d="M25.0556 7.08034L21.568 10.5679C21.329 10.8069 21.329 11.1931 21.568 11.4321C21.8069 11.671 22.1931 11.671 22.4321 11.4321L25.0556 8.80855L27.6791 11.4321C27.7982 11.5512 27.9547 11.6111 28.1111 11.6111C28.2676 11.6111 28.424 11.5512 28.5432 11.4321C28.7821 11.1931 28.7821 10.8069 28.5432 10.5679L25.0556 7.08034Z" fill="#424242"/>
<path d="M27.6791 22.179L25.0556 24.8026L22.4321 22.179C22.1931 21.9401 21.8069 21.9401 21.568 22.179C21.329 22.418 21.329 22.8042 21.568 23.0432L25.0556 26.5308L28.5432 23.0432C28.7821 22.8042 28.7821 22.418 28.5432 22.179C28.3042 21.9401 27.918 21.9401 27.6791 22.179Z" fill="#424242"/>
</svg>
