<svg width="32" height="32" viewBox="0 0 32 32" fill="none" xmlns="http://www.w3.org/2000/svg">
<path d="M7.7037 26.6616H5.33332V24.4373C5.33332 23.4728 5.87614 22.6578 6.51851 22.6578C7.16088 22.6578 7.7037 23.4728 7.7037 24.4373V26.6616ZM6.51851 21.4715C5.21125 21.4715 4.14814 22.802 4.14814 24.4373V27.2548C4.14814 27.5822 4.41362 27.8479 4.74073 27.8479H8.29629C8.6234 27.8479 8.88888 27.5822 8.88888 27.2548V24.4373C8.88888 22.802 7.82577 21.4715 6.51851 21.4715Z" fill="#424242"/>
<path d="M26.6667 26.6616H24.2963V24.4373C24.2963 23.4728 24.8391 22.6578 25.4815 22.6578C26.1239 22.6578 26.6667 23.4728 26.6667 24.4373V26.6616ZM25.4815 21.4715C24.1742 21.4715 23.1111 22.802 23.1111 24.4373V27.2548C23.1111 27.5822 23.3766 27.8479 23.7037 27.8479H27.2593C27.5864 27.8479 27.8519 27.5822 27.8519 27.2548V24.4373C27.8519 22.802 26.7887 21.4715 25.4815 21.4715Z" fill="#424242"/>
<path d="M30.8148 30.2205C30.8148 30.5474 30.5487 30.8137 30.2222 30.8137H20.1481V24.8822C20.1481 22.5926 18.2874 20.7301 16 20.7301C13.7126 20.7301 11.8519 22.5926 11.8519 24.8822V30.8137H1.77778C1.45126 30.8137 1.18519 30.5474 1.18519 30.2205V19.5438C1.18519 19.217 1.45126 18.9506 1.77778 18.9506H30.2222C30.5487 18.9506 30.8148 19.217 30.8148 19.5438V30.2205ZM1.65273 2.73325L2.37037 1.29604L3.08801 2.73267C3.1923 2.94206 3.29066 3.22736 3.37066 3.52868H1.37008C1.45008 3.22736 1.54844 2.94204 1.65273 2.73325ZM1.77778 17.7643C1.56919 17.7643 1.37126 17.807 1.18519 17.8735V4.71498H3.55556V17.7643H1.77778ZM9.48148 13.0191H22.5185V17.7643H9.48148V13.0191ZM16 7.08759C18.9748 7.08759 22.1256 8.74545 22.4848 11.8328H9.51526C9.87437 8.74545 13.0252 7.08759 16 7.08759ZM28.4444 4.71498H30.7662C30.7965 4.93089 30.8148 5.13612 30.8148 5.30814V17.8735C30.6287 17.807 30.4308 17.7643 30.2222 17.7643H28.4444V4.71498ZM28.912 2.73325L29.5881 1.3785L30.3959 3.26471C30.4296 3.3442 30.4622 3.43437 30.4942 3.52868H28.6293C28.7093 3.22736 28.8077 2.94204 28.912 2.73325ZM32 4.12183C32 3.93202 31.9052 3.77011 31.7659 3.66156C31.6859 3.34304 31.5899 3.04171 31.485 2.79792L30.6418 0.82688C30.3336 0.1062 29.8305 0.014852 29.6291 0.00892046C29.4365 0.00654785 28.9203 0.0640837 28.5695 0.76519L27.8519 2.2024C27.6373 2.63184 27.4536 3.24456 27.3499 3.82525C27.2978 3.91423 27.2593 4.0115 27.2593 4.12183C27.2593 4.17225 27.2759 4.21674 27.2877 4.2636C27.2711 4.42257 27.2593 4.57619 27.2593 4.71498V17.7643H23.7037V12.426C23.7037 9.3914 21.2124 6.18303 16.5926 5.9262V4.12183C16.5926 3.79441 16.3271 3.52868 16 3.52868C15.6729 3.52868 15.4074 3.79441 15.4074 4.12183V5.9262C10.7876 6.18303 8.2963 9.3914 8.2963 12.426V17.7643H4.74074V4.71498C4.74074 4.57619 4.72889 4.42257 4.7123 4.2636C4.72415 4.21674 4.74074 4.17225 4.74074 4.12183C4.74074 4.0115 4.70222 3.91421 4.65007 3.82583C4.54637 3.24454 4.36267 2.63184 4.14815 2.2024L3.43051 0.765769C3.18755 0.278791 2.80119 0 2.37037 0C1.93956 0 1.55378 0.278805 1.31023 0.76519L0.592593 2.2024C0.378074 2.63184 0.194372 3.24456 0.0906684 3.82525C0.0385203 3.91423 0 4.0115 0 4.12183C0 4.17225 0.0165914 4.21674 0.0284433 4.2636C0.0118507 4.42257 0 4.57619 0 4.71498V30.2205C0 31.2016 0.79763 32 1.77778 32H12.4444C12.7716 32 13.037 31.7343 13.037 31.4068V24.8822C13.037 23.2468 14.3662 21.9164 16 21.9164C17.6338 21.9164 18.963 23.2468 18.963 24.8822V31.4068C18.963 31.7343 19.2284 32 19.5556 32H30.2222C31.2024 32 32 31.2016 32 30.2205V5.30814C32 5.043 31.9698 4.72922 31.9182 4.40477C31.9656 4.31935 32 4.22623 32 4.12183Z" fill="#424242"/>
</svg>
