<svg width="32" height="31" viewBox="0 0 32 31" fill="none" xmlns="http://www.w3.org/2000/svg">
<path d="M16.3683 19.7706L15.2217 20.0753C14.4501 19.5059 13.3411 18.5845 13.1306 18.1853C13.0803 18.0903 13.0014 18.023 12.9135 17.969L13.2671 16.9661L24.5233 6.86133L27.3217 9.56528L16.3683 19.7706ZM12.4633 19.2476C12.8401 19.6603 13.3527 20.1033 13.7925 20.4554L11.8567 20.9692L12.4633 19.2476ZM21.2323 29.2778C21.2323 29.5947 20.9599 29.8519 20.6256 29.8519H1.81991C1.48565 29.8519 1.21327 29.5947 1.21327 29.2778V8.61111H7.27963C8.28301 8.61111 9.09954 7.83835 9.09954 6.88889V1.14815H20.6256C20.9599 1.14815 21.2323 1.40533 21.2323 1.72222V8.03704C21.2323 8.09559 21.2505 8.14823 21.2674 8.20185L12.322 16.2313C12.2498 16.2968 12.1952 16.3772 12.1637 16.4667L10.3438 21.6334C10.2728 21.8348 10.3256 22.057 10.4802 22.2104C10.5961 22.3263 10.7557 22.3889 10.9195 22.3889C10.974 22.3889 11.0292 22.3819 11.0838 22.3676L16.8469 20.8367C16.9452 20.8102 17.035 20.7609 17.1084 20.6931L21.2323 16.8502V29.2778ZM6.78098 1.81172C7.01696 1.5632 7.46769 1.33248 7.88627 1.21991V6.88889C7.88627 7.20578 7.61389 7.46296 7.27963 7.46296H1.54935C1.64581 7.27863 1.755 7.11157 1.86844 6.99228L6.78098 1.81172ZM24.9722 5.65463C24.7404 5.43126 24.3613 5.42385 24.1217 5.63959L22.4455 7.14429V1.72222C22.4455 0.772761 21.629 0 20.6256 0H8.35277C7.50712 0 6.44308 0.448925 5.8777 1.04476L0.965767 6.22532C0.424041 6.79583 0 7.84352 0 8.61111V29.2778C0 30.2272 0.816532 31 1.81991 31H20.6256C21.629 31 22.4455 30.2272 22.4455 29.2778V16.0741C22.4455 15.9725 22.4097 15.8816 22.3612 15.7992L28.6041 9.98194C28.8425 9.75972 28.8462 9.39708 28.612 9.17083L24.9722 5.65463Z" fill="#424242"/>
<path d="M28.0242 2.30773C27.8258 2.27099 27.6195 2.3284 27.4764 2.46451L25.6565 4.18673C25.4193 4.4112 25.4193 4.77401 25.6565 4.99848C25.8937 5.22294 26.277 5.22294 26.5142 4.99848L28.0836 3.51283C28.7533 3.72409 30.3282 4.41189 30.7419 6.27803L29.1446 7.78905C28.9074 8.01351 28.9074 8.37679 29.1446 8.60079C29.2629 8.71314 29.4182 8.769 29.5735 8.769C29.7288 8.769 29.8841 8.71314 30.0024 8.60079L31.8223 6.87857C31.9576 6.75124 32.0207 6.57092 31.994 6.39244C31.5863 3.67811 29.2192 2.53334 28.0242 2.30773Z" fill="#424242"/>
</svg>
