<svg width="32" height="32" viewBox="0 0 32 32" fill="none" xmlns="http://www.w3.org/2000/svg">
<path d="M30.2222 27.2593H1.77778C1.45126 27.2593 1.18519 26.9939 1.18519 26.6668V23.7039H30.8148V26.6668C30.8148 26.9939 30.5487 27.2593 30.2222 27.2593ZM1.77778 6.51898H30.2222C30.5487 6.51898 30.8148 6.78446 30.8148 7.11156V22.5187H1.18519V7.11156C1.18519 6.78446 1.45126 6.51898 1.77778 6.51898ZM30.2222 5.33382H19.3914L21.2551 2.07224C21.4175 1.7884 21.3191 1.42634 21.0347 1.26397C20.7508 1.10101 20.3887 1.20056 20.2264 1.48441L18.0267 5.33382H14.5126L10.5422 0.229324C10.3407 -0.0296345 9.96801 -0.0764485 9.71023 0.125622C9.45186 0.326507 9.40564 0.698636 9.60593 0.957002L13.0104 5.33382H1.77778C0.79763 5.33382 0 6.13143 0 7.11156V26.6668C0 27.6469 0.79763 28.4445 1.77778 28.4445H15.4074V30.8148H10.6667C10.3396 30.8148 10.0741 31.0797 10.0741 31.4074C10.0741 31.7351 10.3396 32 10.6667 32H21.3333C21.6604 32 21.9259 31.7351 21.9259 31.4074C21.9259 31.0797 21.6604 30.8148 21.3333 30.8148H16.5926V28.4445H30.2222C31.2024 28.4445 32 27.6469 32 26.6668V7.11156C32 6.13143 31.2024 5.33382 30.2222 5.33382Z" fill="#424242"/>
<path d="M27.2593 24.889H26.0741C25.747 24.889 25.4815 25.1539 25.4815 25.4816C25.4815 25.8093 25.747 26.0742 26.0741 26.0742H27.2593C27.5864 26.0742 27.8518 25.8093 27.8518 25.4816C27.8518 25.1539 27.5864 24.889 27.2593 24.889Z" fill="#424242"/>
</svg>
