<svg width="32" height="32" viewBox="0 0 32 32" fill="none" xmlns="http://www.w3.org/2000/svg">
<path d="M20.7626 30.7996C20.6914 30.8169 20.4269 30.8245 20.1245 30.8143C19.9857 30.8098 19.842 30.8045 19.6969 30.8045H2.26741C2.15829 30.8045 2.05038 30.8063 1.94461 30.8086L1.66982 30.8121C1.31029 30.8121 1.20986 30.7709 1.21106 30.7886C1.21082 30.7879 1.20423 30.772 1.20076 30.7332C1.24168 30.549 1.37021 29.9932 1.61577 29.0626C1.78822 28.4061 3.90912 26.938 5.92163 25.869L8.16117 29.1449C8.25411 29.281 8.4011 29.3728 8.56564 29.398C8.59674 29.4029 8.62766 29.4052 8.65858 29.4052C8.79244 29.4052 8.92355 29.361 9.03003 29.278L11.1357 27.6433L12.9064 29.2038C13.0396 29.321 13.2189 29.3721 13.3953 29.3479C13.5721 29.3222 13.7277 29.2203 13.8199 29.0701L15.891 25.694C18.0456 26.8755 20.2041 28.5121 20.382 29.0867C20.7658 30.3275 20.7658 30.4558 20.7658 30.7366C20.7658 30.7638 20.7645 30.7844 20.7626 30.7996ZM7.58491 25.0724L10.1751 26.8886L8.79477 27.9606L6.99811 25.332C7.19938 25.2391 7.39694 25.1501 7.58491 25.0724ZM8.06428 20.44C7.76767 19.9822 7.51211 19.6007 7.29675 19.0125C7.21364 18.786 7.02687 18.6623 6.78179 18.654C6.76028 18.6475 6.70407 18.6623 6.67226 18.6059C6.28463 17.9076 6.11799 16.6762 6.13578 16.6762C6.13884 16.6762 6.14166 16.6762 6.14471 16.6762C6.31675 16.6762 6.4705 16.5106 6.58681 16.3954C6.70366 16.28 6.76639 16.0151 6.76052 15.8525C6.68933 13.9588 7.2291 12.4634 8.32104 11.5282C8.49122 11.3822 8.56097 11.1578 8.51039 10.9483C8.83343 10.8023 9.2971 10.8099 9.30225 10.8076L9.33526 10.22L9.82745 9.88453C9.84741 9.91279 9.85298 9.93881 9.8537 9.94569C9.85232 9.92338 9.85837 9.89348 9.87006 9.85874C10.1076 10.0147 10.3855 10.1289 10.6486 10.2007C11.5348 10.4415 12.1761 10.6898 12.5794 10.8641C14.3686 11.5604 15.3416 13.3789 15.2482 15.8543C15.2424 16.0121 15.3016 16.1657 15.4121 16.2806C15.5181 16.3905 15.6625 16.4559 15.8156 16.4641C15.8334 16.8298 15.6668 17.8064 15.2794 18.5041C15.248 18.5604 15.1897 18.6034 15.1822 18.6087C14.9633 18.6388 14.7789 18.7842 14.7026 18.9879C14.4836 19.5706 14.2261 19.9664 13.9281 20.4242C13.8398 20.5607 13.7502 20.698 13.6599 20.8434C13.4105 21.2467 13.1758 21.5279 12.9432 21.7053C12.7952 21.8177 12.7095 21.9913 12.7107 22.175C12.7112 22.2452 12.6986 22.3245 12.6866 22.4123C12.6253 22.8766 12.5181 23.692 13.2722 24.5608L10.9974 26.0184L8.91156 24.5562C9.50286 23.7891 9.42838 22.9003 9.3823 22.4252C9.37409 22.3422 9.36498 22.2732 9.36636 22.2215C9.37199 22.0225 9.27534 21.8358 9.10888 21.7229C8.83127 21.5346 8.5799 21.2524 8.31774 20.8309C8.2323 20.6932 8.14757 20.569 8.06428 20.44ZM14.8253 25.1494L13.1674 27.8521L11.9729 26.7996L14.6661 25.0743C14.7185 25.0977 14.7724 25.1249 14.8253 25.1494ZM14.8533 23.8656C14.6701 23.7863 14.4606 23.8033 14.2925 23.9086C13.7734 23.3901 13.8193 22.9875 13.8752 22.5641C13.8798 22.5275 13.8846 22.4928 13.8888 22.4588C14.1621 22.2075 14.4194 21.8823 14.6834 21.4562C14.7686 21.3184 14.8538 21.1879 14.9379 21.0581C15.2058 20.6463 15.4821 20.2218 15.7231 19.6548C15.9708 19.529 16.1911 19.3204 16.3315 19.0679C16.8125 18.2014 17.1802 16.6615 16.9337 15.9755C16.8457 15.7295 16.6786 15.5418 16.452 15.4252C16.4164 12.6955 15.1565 10.6011 13.0419 9.77804C12.6237 9.59731 11.9243 9.3264 10.969 9.06568C10.6732 8.98562 10.4922 8.86146 10.4367 8.80189C10.3998 8.66832 10.3162 8.5517 10.1994 8.47241C10.0655 8.38157 9.89912 8.34867 9.74039 8.37928C9.2615 8.474 8.90108 9.0698 8.77722 9.37173C8.73486 9.47546 8.70376 9.57659 8.68338 9.6762C8.06967 9.78451 7.29418 10.1012 7.06198 10.9207C7.03813 10.9901 7.02639 11.0642 7.02855 11.1378C6.28229 11.9803 5.58247 13.3223 5.55647 15.3988C5.30133 15.5128 5.11269 15.7102 5.01904 15.9721C4.77162 16.6573 5.13912 18.1961 5.62041 19.0633C5.77063 19.3339 6.01247 19.5501 6.28115 19.6701C6.51754 20.2317 6.78928 20.6516 7.05311 21.0588C7.13269 21.1814 7.2134 21.306 7.29513 21.4373C7.57808 21.8931 7.866 22.2397 8.18622 22.5064C8.18712 22.5165 8.18832 22.5264 8.18927 22.5358C8.23865 23.0474 8.2447 23.5078 7.93179 23.8827C7.78151 23.8079 7.60643 23.7951 7.44751 23.8562C5.91953 24.4407 0.913314 27.0293 0.455219 28.7671C0.14297 29.9532 0.0177945 30.5343 0.012881 30.5589C0.0044321 30.5984 0 30.6389 0 30.6796C0 31.3377 0.342207 31.6532 0.628929 31.8022C0.945611 31.9671 1.31634 31.9894 1.66982 31.9894L19.6969 31.9818C19.8275 31.9818 19.9565 31.9864 20.0812 31.9912C20.2123 31.9954 20.3389 32 20.4587 32C21.7031 32 21.9643 31.3131 21.9643 30.7366C21.9643 30.2709 21.9215 30.0143 21.5282 28.7441C21.0826 27.3034 16.9534 24.7664 14.8533 23.8656Z" fill="#424242"/>
<path d="M24.447 11.2803C24.2372 11.2803 23.5278 11.2297 23.4013 11.209C23.3372 11.1991 23.2713 11.1977 23.2054 11.2086L22.9376 11.2509C22.8387 11.2674 22.7446 11.3075 22.6655 11.3674C22.6499 11.3792 21.5713 12.1958 20.2507 12.7214C20.6446 12.0732 20.8092 11.4399 20.7406 10.8298C20.7355 10.7834 20.7242 10.7376 20.7078 10.6935C20.6867 10.6362 20.6374 10.5044 20.3939 10.28C20.3729 10.2607 20.3506 10.2425 20.327 10.2266C18.7683 9.15878 18.1104 7.96553 18.1265 6.23422C18.1525 3.44559 20.9957 1.17736 24.4643 1.17736C27.9589 1.17736 30.8016 3.4433 30.8016 6.22893C30.8016 9.0139 27.9589 11.2803 24.447 11.2803ZM24.4643 0C20.3411 0 16.9602 2.79163 16.9281 6.22363C16.9084 8.32862 17.7199 9.84677 19.5562 11.1331C19.5424 11.5928 19.2807 12.2958 18.2661 13.2464L18.1923 13.3159C18.0146 13.4909 17.9665 13.7551 18.0716 13.9788C18.1696 14.1883 18.3831 14.3214 18.6153 14.3214C18.6312 14.3214 18.6466 14.3331 18.6626 14.332C20.6945 14.1747 22.747 12.7962 23.2749 12.4146L23.3103 12.4335C23.6081 12.4671 24.2324 12.5554 24.4631 12.5554C24.4637 12.5554 24.4637 12.5554 24.4643 12.5554C28.6193 12.5554 32 9.71202 32 6.27767C32 2.84338 28.6193 0 24.4643 0Z" fill="#424242"/>
<path d="M22.0675 5.49129H20.8691C20.5381 5.49129 20.2699 5.75437 20.2699 6.07997C20.2699 6.40556 20.5381 6.66864 20.8691 6.66864H22.0675C22.3983 6.66864 22.6667 6.40556 22.6667 6.07997C22.6667 5.75437 22.3983 5.49129 22.0675 5.49129Z" fill="#424242"/>
<path d="M25.0636 5.49129H23.8651C23.5344 5.49129 23.2659 5.75437 23.2659 6.07997C23.2659 6.40556 23.5344 6.66864 23.8651 6.66864H25.0636C25.3943 6.66864 25.6628 6.40556 25.6628 6.07997C25.6628 5.75437 25.3943 5.49129 25.0636 5.49129Z" fill="#424242"/>
<path d="M28.0596 5.49129H26.8612C26.5304 5.49129 26.262 5.75437 26.262 6.07997C26.262 6.40556 26.5304 6.66864 26.8612 6.66864H28.0596C28.3903 6.66864 28.6588 6.40556 28.6588 6.07997C28.6588 5.75437 28.3903 5.49129 28.0596 5.49129Z" fill="#424242"/>
<path d="M17.2738 29.0384H15.4762C15.1452 29.0384 14.877 29.3015 14.877 29.6271C14.877 29.9524 15.1452 30.2157 15.4762 30.2157H17.2738C17.6048 30.2157 17.873 29.9524 17.873 29.6271C17.873 29.3015 17.6048 29.0384 17.2738 29.0384Z" fill="#424242"/>
</svg>
