<svg width="30" height="29" viewBox="0 0 30 29" fill="none" xmlns="http://www.w3.org/2000/svg">
<path d="M28.3178 27.84H1.6822C1.49227 27.84 1.35388 27.8238 1.25776 27.804C1.32377 27.7315 1.42684 27.6364 1.57971 27.5245L4.20272 25.6134C5.13555 24.9342 6.89814 24.36 8.05158 24.36H21.9484C23.1019 24.36 24.8645 24.9342 25.7973 25.6134L28.4203 27.5245C28.5732 27.6364 28.6762 27.7315 28.7422 27.804C28.6461 27.8238 28.5077 27.84 28.3178 27.84ZM13.249 2.97134C13.4997 1.98998 14.4343 1.16 15.2895 1.16C16.1448 1.16 17.0793 1.98998 17.33 2.97134L17.9062 5.22H12.6729L13.249 2.97134ZM12.3764 6.38H18.2026L19.242 10.44H11.337L12.3764 6.38ZM11.04 11.6H19.5391L20.1331 13.92H10.4459L11.04 11.6ZM10.1489 15.08H20.4302L21.4696 19.14H9.10948L10.1489 15.08ZM8.81244 20.3H21.7666L22.517 23.2319C22.3201 23.2116 22.1291 23.2 21.9484 23.2H8.0701L8.81244 20.3ZM29.1012 26.5866L26.4782 24.6755C25.7515 24.146 24.6763 23.6924 23.6271 23.4326C23.6786 23.3172 23.7012 23.1878 23.6676 23.0562L18.4522 2.68366C18.0677 1.17856 16.678 0 15.2895 0C13.901 0 12.5113 1.17856 12.1268 2.68366L6.91146 23.0562C6.88888 23.1443 6.89292 23.2307 6.90971 23.3143C5.70474 23.5352 4.37297 24.0549 3.52179 24.6755L0.898776 26.5866C-0.0207313 27.2565 -0.0722778 27.833 0.0464243 28.1984C0.164547 28.5644 0.544973 29 1.6822 29H28.3178C29.455 29 29.8355 28.5644 29.9536 28.1984C30.0723 27.833 30.0207 27.2565 29.1012 26.5866Z" fill="#424242"/>
</svg>
