<svg width="33" height="33" viewBox="0 0 33 33" fill="none" xmlns="http://www.w3.org/2000/svg">
<path d="M28.7014 24.4445C27.0083 24.4445 25.6309 23.0737 25.6309 21.3889C25.6309 19.7041 27.0083 18.3334 28.7014 18.3334C30.3944 18.3334 31.7718 19.7041 31.7718 21.3889C31.7718 23.0737 30.3944 24.4445 28.7014 24.4445ZM26.245 28.1111H22.5605V23.8193C23.3643 23.79 24.1498 23.647 24.9057 23.3921C25.537 24.5716 26.7074 25.4198 28.0873 25.6178V26.8889C28.0873 27.5513 27.2435 28.1111 26.245 28.1111ZM16.228 11.9277C17.506 9.84751 19.802 8.55562 22.2535 8.55562C26.1474 8.55562 29.3155 11.7083 29.3155 15.5834C29.3155 16.1083 29.2559 16.6278 29.1417 17.1338C28.9968 17.1185 28.85 17.1112 28.7014 17.1112C26.331 17.1112 24.4028 19.03 24.4028 21.3889C24.4028 21.6816 24.4329 21.9677 24.4894 22.2439C23.7703 22.4828 23.0211 22.6111 22.2535 22.6111C20.5438 22.6111 18.9091 21.9958 17.6239 20.8829C17.7258 20.3702 17.7866 19.8465 17.7866 19.3136C17.7866 16.8667 17.1504 14.3269 16.228 11.9277ZM8.89276 26.8889C4.59844 26.8889 1.24675 22.8147 1.22833 19.3105C1.19517 12.9905 7.14445 4.09512 8.88416 1.63113C10.654 3.95029 16.5584 12.2186 16.5584 19.3136C16.5584 23.3494 12.9764 26.8889 8.89276 26.8889ZM33 21.3889C33 19.6045 31.8953 18.0736 30.3318 17.4326C30.4712 16.8288 30.5436 16.2092 30.5436 15.5834C30.5436 11.0343 26.8247 7.3334 22.2535 7.3334C19.6682 7.3334 17.2272 8.5556 15.6698 10.5741C13.2436 5.01117 9.56826 0.502425 9.33797 0.223759C9.21823 0.0783147 9.03891 -0.00297241 8.84916 8.31422e-05C8.66063 0.00436091 8.48438 0.0947908 8.37139 0.245124C8.0275 0.702845 -0.0403776 11.5427 0.000152189 19.3166C0.0210312 23.3414 3.60423 27.8154 8.43649 28.0855V32.3889C8.43649 32.7262 8.7116 33 9.05058 33C9.38955 33 9.66467 32.7262 9.66467 32.3889V28.0696C13.0888 27.7469 16.085 25.3129 17.256 22.1656C18.4449 23.0615 19.8512 23.6134 21.3323 23.7771V32.3889C21.3323 32.7262 21.6074 33 21.9464 33C22.2854 33 22.5605 32.7262 22.5605 32.3889V29.3333H26.245C27.9381 29.3333 29.3155 28.237 29.3155 26.8889V25.6178C31.3954 25.3196 33 23.5394 33 21.3889Z" fill="#424242"/>
</svg>
