<svg width="33" height="29" viewBox="0 0 33 29" fill="none" xmlns="http://www.w3.org/2000/svg">
<path d="M27.5 27.7917H0.611111C0.273167 27.7917 0 28.0617 0 28.3958C0 28.7299 0.273167 29 0.611111 29H27.5C27.8379 29 28.1111 28.7299 28.1111 28.3958C28.1111 28.0617 27.8379 27.7917 27.5 27.7917Z" fill="#424242"/>
<path d="M22.6111 19.9375V19.769C22.6111 18.8929 21.7274 18.1251 20.7191 18.1251H18.6389C17.6703 18.1251 16.5 18.8585 16.5 19.769V19.9375H10.3889V19.1098C14.4577 15.0559 20.515 13.6832 22.2286 13.3648L24.9138 19.9375H22.6111ZM22.5274 12.0895C22.1974 12.1342 14.3831 13.2513 9.33654 18.4453C9.22776 18.5576 9.16667 18.7081 9.16667 18.8639V20.5417C9.16667 20.8758 9.43983 21.1459 9.77778 21.1459H17.1111C17.4491 21.1459 17.7222 20.8758 17.7222 20.5417L17.7198 19.7883C17.7644 19.6427 18.2282 19.3334 18.6389 19.3334H20.7191C21.0992 19.3334 21.3889 19.6234 21.3889 19.769V20.5417C21.3889 20.8758 21.6621 21.1459 22 21.1459H25.8194C26.0223 21.1459 26.213 21.0462 26.3261 20.88C26.4397 20.7127 26.4623 20.5018 26.3859 20.3158L23.1776 12.4616C23.0731 12.2042 22.7993 12.0466 22.5274 12.0895Z" fill="#424242"/>
<path d="M27.148 10.924C26.7856 10.4407 26.4678 10.0135 26.2167 9.66975L28.0231 9.31269L28.4008 10.2594L27.148 10.924ZM31.7778 20.2227C30.4737 20.5097 27.2366 21.5917 26.0083 25.375H1.4178C2.3418 22.6164 6.87624 12.7359 24.9407 9.98331C26.2454 11.8091 30.9271 17.9075 31.7778 19.0144V20.2227ZM33 6.04174V5.43758C33 4.43829 32.1774 3.62509 31.1667 3.62509H28.7222C28.3494 3.62509 28.1111 3.42692 28.1111 3.323C28.1111 3.09826 28.4106 2.58049 28.8622 2.31284L30.8703 1.12203C31.1593 0.950449 31.2534 0.579494 31.0793 0.29312C30.9057 0.00735016 30.5311 -0.0856864 30.2408 0.0865004L28.2333 1.2767C27.467 1.73164 26.8889 2.6113 26.8889 3.323C26.8889 4.15615 27.7114 4.83341 28.7222 4.83341H31.1667C31.504 4.83341 31.7778 5.10408 31.7778 5.43758V6.04174C31.7778 6.50997 31.4252 7.1812 31.0371 7.45005L29.1243 8.77861L28.9734 8.3998C28.8646 8.12672 28.5755 7.96903 28.2847 8.02884L25.0531 8.66804C24.9572 8.68677 24.8753 8.73148 24.8032 8.78706C2.96512 12.0943 0.121614 25.3007 0.0116141 25.8644C-0.0232192 26.0414 0.0232312 26.2245 0.139953 26.364C0.256064 26.5024 0.428395 26.5833 0.611118 26.5833H26.466C26.7435 26.5833 26.9855 26.3985 27.0564 26.1338C28.2199 21.7851 32.2746 21.3458 32.4445 21.3295C32.7586 21.3011 33 21.0395 33 20.7278V18.8108C33 18.6784 32.9566 18.5498 32.8753 18.4446C32.8332 18.3903 29.9964 14.7006 27.885 11.9039L29.4574 11.0702C29.7305 10.9258 29.8509 10.602 29.7373 10.3168L29.5857 9.93558L31.7399 8.43907C32.4579 7.94063 33 6.91053 33 6.04174Z" fill="#424242"/>
</svg>
