<svg width="32" height="31" viewBox="0 0 32 31" fill="none" xmlns="http://www.w3.org/2000/svg">
<path d="M1.24765 7.82599C9.1862 8.57181 12.7934 13.6389 14.2495 16.6422C16.1014 20.4622 16.2604 24.4389 15.3761 26.2226C10.8103 25.6762 7.27622 23.8675 4.86878 20.8427C1.12678 16.1422 1.14369 9.7689 1.24765 7.82599ZM16.145 1.36061C19.4083 3.90542 21.4132 6.51852 22.4389 9.55667C22.451 9.59204 22.4751 9.61825 22.4926 9.64997C20.8951 10.7001 19.6029 11.9124 18.5645 13.1498C18.0253 12.2149 17.0057 10.5787 16.2616 10.1823C16.1002 10.0957 15.9086 10.0878 15.7412 10.161C15.0866 10.444 14.1389 12.0057 13.5163 13.1455C12.5988 11.935 11.4081 10.6897 9.86617 9.60911C11.3222 5.10188 15.005 2.17839 16.145 1.36061ZM29.3704 16.1501C27.2084 21.8416 22.946 25.1957 16.6974 26.1391C17.2565 24.4297 17.248 21.7989 16.4339 18.9803C16.4732 18.9334 16.5119 18.8858 16.5366 18.8266C18.009 15.2622 21.8024 9.18041 30.7945 7.86196C30.8132 9.24261 30.7008 12.6461 29.3704 16.1501ZM15.3356 16.1062C15.0606 15.5391 14.7082 14.9006 14.2785 14.2341C14.3063 14.2005 14.3395 14.1724 14.3613 14.1322C14.8847 13.14 15.5786 12.0063 15.9848 11.5124C16.4593 12.0295 17.2021 13.1766 17.7558 14.1822C16.9549 15.2811 16.3408 16.3672 15.8736 17.3442C15.7104 16.9313 15.5351 16.5184 15.3356 16.1062ZM15.442 27.4502C15.5127 27.4795 15.5889 27.4972 15.6693 27.4972C15.6892 27.4972 15.7104 27.4959 15.7309 27.4935C33.2158 25.6939 31.9912 7.30823 31.9767 7.12285C31.964 6.95758 31.8848 6.80454 31.7579 6.69904C31.631 6.59415 31.4708 6.54596 31.304 6.56486C28.1785 6.93259 25.6188 7.83331 23.5262 9.01638C22.3681 5.69526 20.1439 2.86322 16.5282 0.12205C16.3281 -0.0297966 16.0561 -0.0401779 15.8452 0.0921544C15.6324 0.225706 10.7559 3.35839 8.82111 8.9383C6.72073 7.69852 4.06851 6.77831 0.730258 6.56182C0.397219 6.53987 0.128848 6.7771 0.0907694 7.09909C0.0508773 7.44425 -0.838834 15.6123 3.91982 21.5983C6.56963 24.9316 10.4488 26.8959 15.442 27.4502Z" fill="#424242"/>
<path d="M28.9461 22.2545C28.6433 22.113 28.2849 22.2466 28.1441 22.5521C28.0038 22.8576 28.1362 23.2204 28.4391 23.3619C30.0867 24.1303 30.2777 24.7194 30.2777 25.0957C30.2777 27.2624 23.8079 29.7803 15.4674 29.7803C7.12632 29.7803 1.31355 27.3118 1.31355 25.0957C1.31355 24.5578 1.50517 23.9126 2.92617 23.2095C3.22597 23.0613 3.34926 22.696 3.20239 22.3935C3.05612 22.0917 2.69347 21.966 2.39367 22.1142C1.41087 22.6009 0.104698 23.4388 0.104698 25.0957C0.104698 28.407 6.85252 31 15.4674 31C24.2999 31 31.4866 28.3515 31.4866 25.0957C31.4866 23.6114 30.0365 22.7637 28.9461 22.2545Z" fill="#424242"/>
</svg>
