<svg width="28" height="32" viewBox="0 0 28 32" fill="none" xmlns="http://www.w3.org/2000/svg">
<path d="M15.7859 17.0584L13.9999 18.1055L12.214 17.0584V14.9416L13.9999 13.8945L15.7859 14.9416V17.0584ZM16.6835 14.093L14.3022 12.6963C14.1155 12.5861 13.8844 12.5861 13.6976 12.6963L11.3163 14.093C11.135 14.1991 11.0233 14.3935 11.0233 14.6033V17.3967C11.0233 17.6065 11.135 17.8009 11.3163 17.907L13.6976 19.3037C13.7908 19.3588 13.8955 19.3861 13.9999 19.3861C14.1043 19.3861 14.209 19.3588 14.3022 19.3037L16.6835 17.907C16.8649 17.8009 16.9765 17.6065 16.9765 17.3967V14.6033C16.9765 14.3935 16.8649 14.1991 16.6835 14.093Z" fill="#424242"/>
<path d="M13.4046 6.20327V9.11525L11.8849 8.3585C11.5898 8.21273 11.2329 8.33124 11.0861 8.62399C10.9392 8.91673 11.0582 9.27231 11.3524 9.41927L13.4046 10.4403V10.6667C13.4046 10.9938 13.6711 11.2593 13.9999 11.2593C14.3287 11.2593 14.5952 10.9938 14.5952 10.6667V10.4403L16.6475 9.41927C16.9416 9.27231 17.0609 8.91673 16.9137 8.62399C16.767 8.33124 16.4098 8.21273 16.1149 8.3585L14.5952 9.11525V6.20327L17.9529 3.41808C18.2055 3.2089 18.2395 2.83497 18.029 2.58371C17.8188 2.33245 17.443 2.29747 17.1907 2.50784L14.5952 4.66073V0.592592C14.5952 0.265481 14.3287 0 13.9999 0C13.6711 0 13.4046 0.265481 13.4046 0.592592V4.66073L10.8091 2.50784C10.5561 2.29806 10.1813 2.33245 9.97081 2.58371C9.76037 2.83497 9.7943 3.2089 10.0469 3.41808L13.4046 6.20327Z" fill="#424242"/>
<path d="M14.5952 25.7967V22.8848L16.1149 23.6415C16.2005 23.6836 16.2914 23.7037 16.3805 23.7037C16.5991 23.7037 16.8093 23.584 16.9137 23.376C17.0609 23.0833 16.9416 22.7277 16.6475 22.5807L14.5952 21.5597V21.3333C14.5952 21.0062 14.3287 20.7407 13.9999 20.7407C13.6711 20.7407 13.4046 21.0062 13.4046 21.3333V21.5597L11.3524 22.5807C11.0582 22.7277 10.9392 23.0833 11.0861 23.376C11.2329 23.6688 11.5898 23.7885 11.8849 23.6415L13.4046 22.8848V25.7967L10.0469 28.5819C9.7943 28.7911 9.76037 29.165 9.97081 29.4163C10.1806 29.6676 10.5559 29.7013 10.8091 29.4922L13.4046 27.3393V31.4074C13.4046 31.7345 13.6711 32 13.9999 32C14.3287 32 14.5952 31.7345 14.5952 31.4074V27.3393L17.1907 29.4922C17.3021 29.5846 17.4372 29.6296 17.5716 29.6296C17.742 29.6296 17.9113 29.5567 18.029 29.4163C18.2395 29.165 18.2055 28.7911 17.9529 28.5819L14.5952 25.7967Z" fill="#424242"/>
<path d="M18.1243 13.6296C18.2348 13.8198 18.4348 13.9259 18.6406 13.9259C18.7415 13.9259 18.8441 13.9004 18.9378 13.8465L19.1348 13.7333L21.0491 14.9914C21.1503 15.0584 21.264 15.0898 21.3765 15.0898C21.57 15.0898 21.7593 14.9961 21.8742 14.8237C22.0552 14.5505 21.9795 14.1831 21.7051 14.0024L20.2877 13.0708L22.8207 11.6148L26.9231 13.117C26.9903 13.1419 27.06 13.1538 27.1284 13.1538C27.3707 13.1538 27.5982 13.005 27.6869 12.7656C27.8006 12.4581 27.6428 12.1173 27.3338 12.0047L24.1632 10.8439L27.7023 8.80949C27.9869 8.64593 28.0845 8.28385 27.9202 8C27.7553 7.71674 27.391 7.61836 27.107 7.7831L23.5678 9.8169L24.1429 6.50312C24.1989 6.18075 23.9816 5.87438 23.6577 5.81808C23.3303 5.76238 23.0255 5.97926 22.9696 6.30104L22.2254 10.5885L19.6919 12.0444L19.5901 10.3561C19.5703 10.0296 19.2889 9.77421 18.9601 9.80029C18.632 9.81984 18.382 10.1007 18.4017 10.4273L18.5392 12.707L18.3425 12.8201C18.0576 12.9837 17.9601 13.3458 18.1243 13.6296Z" fill="#424242"/>
<path d="M9.87551 18.3704C9.71037 18.0865 9.34573 17.9893 9.06207 18.1535L8.86507 18.2667L6.95053 17.0086C6.67705 16.8279 6.30753 16.9037 6.1259 17.1763C5.94475 17.4495 6.02035 17.8169 6.29473 17.9976L7.71236 18.9292L5.17899 20.3852L1.07713 18.883C0.768282 18.7692 0.426451 18.9274 0.312984 19.2344C0.199278 19.5419 0.357394 19.8827 0.666007 19.9953L3.83673 21.1561L0.297861 23.1905C0.0130016 23.3541 -0.084452 23.7161 0.0797366 24C0.190168 24.1902 0.390194 24.2963 0.595996 24.2963C0.696902 24.2963 0.799475 24.2708 0.893178 24.2169L4.43204 22.1831L3.85673 25.4969C3.80071 25.8192 4.01812 26.1256 4.34209 26.1819C4.37626 26.1872 4.41067 26.1902 4.44389 26.1902C4.72833 26.1902 4.97991 25.987 5.02992 25.699L5.77431 21.4115L8.30792 19.9556L8.40978 21.6439C8.42883 21.9585 8.69089 22.2009 9.00343 22.2009C9.01533 22.2009 9.02766 22.2003 9.03974 22.1997C9.36782 22.1802 9.61786 21.8993 9.59809 21.5727L9.46063 19.293L9.65738 19.1799C9.94224 19.0163 10.0397 18.6542 9.87551 18.3704Z" fill="#424242"/>
<path d="M0.297861 8.80949L3.83673 10.8439L0.666007 12.0047C0.357394 12.1173 0.199278 12.4581 0.312984 12.7656C0.401567 13.005 0.628978 13.1538 0.87157 13.1538C0.939912 13.1538 1.00921 13.1419 1.07713 13.117L5.17899 11.6148L7.71236 13.0708L6.29473 14.0024C6.02035 14.1831 5.94475 14.5505 6.1259 14.8237C6.24032 14.9961 6.43011 15.0898 6.62335 15.0898C6.73586 15.0898 6.84987 15.0578 6.95053 14.9914L8.86507 13.7333L9.06207 13.8465C9.15601 13.9004 9.25834 13.9259 9.35925 13.9259C9.56505 13.9259 9.76502 13.8198 9.87551 13.6296C10.0397 13.3458 9.94224 12.9837 9.65738 12.8201L9.46063 12.707L9.59809 10.4273C9.61786 10.1007 9.36782 9.81984 9.03974 9.80029C8.70297 9.7748 8.4293 10.0296 8.40978 10.3561L8.30792 12.0444L5.77431 10.5885L5.02992 6.30104C4.97438 5.97926 4.6688 5.76297 4.34209 5.81808C4.01812 5.87438 3.80071 6.18075 3.85673 6.50312L4.43204 9.8169L0.893178 7.7831C0.60689 7.61836 0.244401 7.71674 0.0797366 8C-0.084452 8.28385 0.0130016 8.64593 0.297861 8.80949Z" fill="#424242"/>
<path d="M27.7023 23.1905L24.1632 21.1561L27.3338 19.9953C27.6428 19.8827 27.8006 19.5419 27.6869 19.2344C27.5731 18.9274 27.2308 18.7704 26.9231 18.883L22.8207 20.3852L20.2877 18.9292L21.7051 17.9976C21.9795 17.8169 22.0552 17.4495 21.8742 17.1763C21.6932 16.9037 21.3235 16.8284 21.0491 17.0086L19.1348 18.2667L18.9378 18.1535C18.652 17.9893 18.289 18.0865 18.1243 18.3704C17.9601 18.6542 18.0576 19.0163 18.3425 19.1799L18.5392 19.293L18.4017 21.5727C18.382 21.8993 18.632 22.1802 18.9601 22.1997C18.9722 22.2003 18.9845 22.2009 18.9964 22.2009C19.3089 22.2009 19.5712 21.9585 19.5901 21.6439L19.6919 19.9556L22.2254 21.4115L22.9696 25.699C23.0196 25.987 23.2714 26.1902 23.5559 26.1902C23.5893 26.1902 23.6238 26.1872 23.6577 26.1819C23.9816 26.1256 24.1989 25.8192 24.1429 25.4969L23.5678 22.1831L27.107 24.2169C27.2005 24.2708 27.3029 24.2963 27.4041 24.2963C27.6095 24.2963 27.8095 24.1902 27.9202 24C28.0845 23.7161 27.9869 23.3541 27.7023 23.1905Z" fill="#424242"/>
</svg>
