<svg width="30" height="32" viewBox="0 0 30 32" fill="none" xmlns="http://www.w3.org/2000/svg">
<path d="M10.9353 21.3191L3.01313 21.3333C1.33323 21.3333 1.2853 20.7407 1.25955 20.4213C1.21583 19.8892 1.34459 19.3209 2.62803 19.1425C2.9179 19.1022 3.13648 18.8557 3.14367 18.5665C3.14427 18.531 3.15387 18.2921 3.16166 18.1007C3.16705 17.9532 3.17122 17.8305 3.17122 17.8263C3.17122 17.1692 4.26123 17.136 4.48043 17.136C4.68645 17.136 4.88647 17.1668 5.07453 17.2279C5.37996 17.3274 5.70816 17.1715 5.82195 16.8746C6.09145 16.1689 7.07663 15.4074 8.19657 15.4074C9.4836 15.4074 10.5496 16.1416 10.573 17.0447C10.5802 17.3333 10.7982 17.5751 11.0869 17.616C12.2379 17.7784 12.977 18.6015 13.0021 19.2693C13.0315 20.0717 12.8458 21.1573 10.9353 21.3191ZM11.7085 16.5351C11.3971 15.2053 9.95433 14.2222 8.19657 14.2222C6.73047 14.2222 5.51951 15.0631 4.93978 15.9834C4.78885 15.9615 4.63554 15.9508 4.48043 15.9508C2.98079 15.9508 1.91713 16.704 1.91713 17.8103L1.85186 18.0551C1.85186 18.0587 1.85186 18.0622 1.85186 18.0652C0.654069 18.4 -0.0915581 19.2735 0.00905655 20.5161C0.116858 21.8447 1.16494 22.5185 3.01313 22.5185H10.4556C10.4616 22.5185 10.4676 22.5185 10.4736 22.5185L11.0042 22.5019C13.1357 22.3224 14.27 21.1597 14.1987 19.2261C14.1538 18.0201 13.0938 16.9055 11.7085 16.5351Z" fill="#424242"/>
<path d="M23.4121 16.5926C20.9734 16.5926 18.9587 14.7793 18.6623 12.4444H28.162C27.8655 14.7793 25.8508 16.5926 23.4121 16.5926ZM24.6099 20.1481H22.2143V17.6581C22.6012 17.7363 23.0019 17.7778 23.4121 17.7778C23.8224 17.7778 24.223 17.7363 24.6099 17.6581V20.1481ZM26.4066 21.9259C26.4066 22.2524 26.1383 22.5185 25.8077 22.5185H21.0166C20.686 22.5185 20.4177 22.2524 20.4177 21.9259C20.4177 21.5994 20.686 21.3333 21.0166 21.3333H25.8077C26.1383 21.3333 26.4066 21.5994 26.4066 21.9259ZM24.6099 25.4815H22.2143V23.7037H24.6099V25.4815ZM26.4066 27.2593C26.4066 27.5858 26.1383 27.8519 25.8077 27.8519H21.0166C20.686 27.8519 20.4177 27.5858 20.4177 27.2593C20.4177 26.9327 20.686 26.6667 21.0166 26.6667H25.8077C26.1383 26.6667 26.4066 26.9327 26.4066 27.2593ZM23.4121 7.11111C25.8508 7.11111 27.8655 8.92444 28.162 11.2593H18.6623C18.9587 8.92444 20.9734 7.11111 23.4121 7.11111ZM22.6821 4.74074H24.1422L24.4668 6.0237C24.1236 5.96325 23.7727 5.92593 23.4121 5.92593C23.0516 5.92593 22.7007 5.96325 22.3575 6.0237L22.6821 4.74074ZM29.4011 11.2593H29.3706C29.1514 9.08444 27.7386 7.25391 25.7916 6.41658C25.7892 6.40236 25.7934 6.38873 25.7898 6.37451L25.1909 4.00414C25.1238 3.74103 24.8848 3.55556 24.6099 3.55556H24.011V2.37037C24.3422 2.37037 24.6099 2.10489 24.6099 1.77778C24.6099 1.45067 24.3422 1.18519 24.011 1.18519V0.592593C24.011 0.265481 23.7433 0 23.4121 0C23.081 0 22.8132 0.265481 22.8132 0.592593V1.18519C22.4821 1.18519 22.2143 1.45067 22.2143 1.77778C22.2143 2.10489 22.4821 2.37037 22.8132 2.37037V3.55556H22.2143C21.9395 3.55556 21.7005 3.74103 21.6334 4.00414L21.0345 6.37451C21.0309 6.38873 21.0351 6.40236 21.0327 6.41658C19.0863 7.25391 17.6729 9.08444 17.4537 11.2593H17.4232C17.092 11.2593 16.8243 11.5247 16.8243 11.8519C16.8243 12.179 17.092 12.4444 17.4232 12.4444H17.4537C17.6723 14.6133 19.0785 16.4385 21.0166 17.2794V20.1481C20.026 20.1481 19.2199 20.9458 19.2199 21.9259C19.2199 22.9061 20.026 23.7037 21.0166 23.7037V25.4815C20.026 25.4815 19.2199 26.2791 19.2199 27.2593C19.2199 28.2394 20.026 29.037 21.0166 29.037V31.4074C21.0166 31.7345 21.2843 32 21.6155 32C21.9466 32 22.2143 31.7345 22.2143 31.4074V29.037H24.6099V31.4074C24.6099 31.7345 24.8776 32 25.2088 32C25.54 32 25.8077 31.7345 25.8077 31.4074V29.037C26.7983 29.037 27.6044 28.2394 27.6044 27.2593C27.6044 26.2791 26.7983 25.4815 25.8077 25.4815V23.7037C26.7983 23.7037 27.6044 22.9061 27.6044 21.9259C27.6044 20.9458 26.7983 20.1481 25.8077 20.1481V17.2794C27.7458 16.4385 29.152 14.6133 29.3706 12.4444H29.4011C29.7323 12.4444 30 12.179 30 11.8519C30 11.5247 29.7323 11.2593 29.4011 11.2593Z" fill="#424242"/>
</svg>
