<svg width="32" height="32" viewBox="0 0 32 32" fill="none" xmlns="http://www.w3.org/2000/svg">
<path d="M31.8451 25.7964L28.446 20.0331H29.8125C30.1985 20.0331 30.513 19.8662 30.6745 19.5742C30.836 19.2828 30.81 18.931 30.6032 18.6091L27.2851 13.4513H27.9977C28.3879 13.4513 28.7025 13.2599 28.8598 12.9649C29.0176 12.6699 28.9813 12.2959 28.7618 11.977L25.2423 6.82644C25.0391 6.53145 24.733 6.27119 24.4027 6.27119C24.4015 6.27119 24.4003 6.27119 24.3991 6.27119C24.0706 6.27119 23.7645 6.52789 23.56 6.82048L19.9807 12.0201C19.7581 12.3384 19.72 12.6908 19.8766 12.9864C20.0333 13.282 20.3479 13.4513 20.7387 13.4513H21.4513L18.1339 18.6084C17.9264 18.931 17.9004 19.2828 18.0619 19.5742C18.2234 19.8662 18.538 20.0331 18.9239 20.0331H20.3092L18.3335 23.5041L14.8987 17.6397H17.14C17.5241 17.6397 17.8387 17.4734 18.0026 17.1838C18.1659 16.8936 18.1448 16.5418 17.9433 16.2187L13.6163 9.26291H15.1855C15.5768 9.26291 15.8908 9.09358 16.0481 8.79799C16.2042 8.50241 16.1666 8.14999 15.944 7.83167L10.7695 0.43911C10.36 -0.146071 9.49616 -0.146669 9.08603 0.43911L3.91151 7.83167C3.68829 8.14999 3.65079 8.50241 3.80746 8.79799C3.96414 9.09358 4.27809 9.26291 4.66948 9.26291H6.23925L1.91163 16.2187C1.71019 16.5418 1.68902 16.8936 1.85295 17.1838C2.01689 17.4734 2.33084 17.6397 2.71497 17.6397H4.96952L0.151293 25.8436C-0.0344184 26.1631 -0.0501429 26.5024 0.109557 26.7753C0.272281 27.0535 0.588662 27.2132 0.977628 27.2132H7.43034C7.76426 27.2132 8.03527 26.9458 8.03527 26.6149C8.03527 26.2846 7.76426 26.0166 7.43034 26.0166L1.44946 26.016L6.24046 17.8587C6.43041 17.5326 6.44371 17.1814 6.27614 16.8942C6.10858 16.6076 5.79463 16.443 5.41413 16.443H3.19285L7.51987 9.48729C7.72131 9.16418 7.74309 8.81236 7.57915 8.52217C7.41522 8.23257 7.10126 8.06622 6.71653 8.06622H5.21874L9.92747 1.33902L14.6362 8.06622H13.1384C12.7543 8.06622 12.4397 8.23257 12.2764 8.52217C12.1125 8.81236 12.1336 9.16418 12.3351 9.48729L16.6627 16.443H14.4414C14.0567 16.443 13.7409 16.6052 13.5758 16.8882C13.4124 17.1676 13.427 17.5129 13.6157 17.8366L18.4067 26.0166H10.5324C9.87061 26.0166 9.24511 26.643 9.24511 27.3054V31.4017C9.24511 31.7325 9.51612 32 9.85004 32C10.184 32 10.455 31.7325 10.455 31.4017L10.4537 27.3233C10.4628 27.2868 10.5233 27.2222 10.5324 27.2132H18.8773C18.8882 27.2132 18.8973 27.2103 18.9076 27.2103C18.9136 27.2103 18.9184 27.2132 18.9239 27.2132H21.3436C21.6775 27.2132 21.9485 26.9458 21.9485 26.6149C21.9485 26.2846 21.6775 26.0166 21.3436 26.0166H19.7805C19.7581 25.9585 19.7363 25.8999 19.703 25.8424L19.0104 24.6601C19.0709 24.6134 19.1235 24.5554 19.1634 24.4848L21.5735 20.2497C21.7598 19.923 21.7701 19.5718 21.6007 19.2858C21.4319 19.0004 21.118 18.8364 20.7387 18.8364H19.4211L22.7385 13.6793C22.946 13.3568 22.972 13.005 22.8105 12.7136C22.649 12.4216 22.3345 12.2546 21.9485 12.2546H21.2885L24.3978 7.81552L27.4576 12.2546H26.7879C26.402 12.2546 26.0874 12.4216 25.9259 12.7136C25.7644 13.005 25.7904 13.3568 25.9973 13.6787L29.3153 18.8364H27.9977C27.6166 18.8364 27.3021 19.001 27.1357 19.2888C26.9688 19.576 26.9833 19.9278 27.175 20.2533L30.5741 26.0166H24.3682C23.701 26.0166 23.1584 26.5533 23.1584 27.2132V31.4017C23.1584 31.7325 23.4294 32 23.7633 32C24.0972 32 24.3682 31.7325 24.3682 31.4017V27.2132H31.0224C31.4035 27.2132 31.718 27.0487 31.8844 26.7609C32.0513 26.4737 32.0368 26.1219 31.8451 25.7964Z" fill="#424242"/>
</svg>
