<svg width="32" height="33" viewBox="0 0 32 33" fill="none" xmlns="http://www.w3.org/2000/svg">
<path d="M31.4074 30.5555C30.2761 30.5555 29.6883 30.9283 29.1692 31.2571C28.7105 31.548 28.3484 31.7778 27.552 31.7778C26.7556 31.7778 26.3935 31.548 25.9348 31.2571C25.4163 30.9283 24.8278 30.5555 23.6966 30.5555C22.5659 30.5555 21.9781 30.9283 21.4601 31.2571C21.0015 31.548 20.64 31.7778 19.8442 31.7778C19.0495 31.7778 18.688 31.548 18.2305 31.2571C17.7126 30.9283 17.1247 30.5555 15.9953 30.5555C14.864 30.5555 14.2767 30.9283 13.7588 31.2571C13.3001 31.548 12.9387 31.7778 12.1434 31.7778C11.3487 31.7778 10.9873 31.548 10.5292 31.2571C10.0113 30.9283 9.4234 30.5555 8.29333 30.5555C7.16266 30.5555 6.57541 30.9283 6.05748 31.2571C5.59941 31.548 5.23792 31.7778 4.44326 31.7778C3.648 31.7778 3.28592 31.548 2.82844 31.2571C2.30992 30.9283 1.72267 30.5555 0.592593 30.5555C0.265481 30.5555 0 30.8293 0 31.1666C0 31.504 0.265481 31.7778 0.592593 31.7778C1.38726 31.7778 1.74933 32.0075 2.20681 32.2984C2.72533 32.6272 3.31259 33 4.44326 33C5.57333 33 6.16059 32.6272 6.67911 32.2984C7.13659 32.0075 7.49807 31.7778 8.29333 31.7778C9.088 31.7778 9.45007 32.0075 9.90755 32.2984C10.4261 32.6272 11.0133 33 12.1434 33C13.2741 33 13.8613 32.6272 14.3798 32.2984C14.8379 32.0075 15.2 31.7778 15.9953 31.7778C16.7893 31.7778 17.1508 32.0075 17.6089 32.2984C18.1268 32.6272 18.7141 33 19.8442 33C20.9754 33 21.5627 32.6272 22.0812 32.2984C22.5393 32.0075 22.9013 31.7778 23.6966 31.7778C24.493 31.7778 24.8551 32.0075 25.3138 32.2984C25.8329 32.6272 26.4207 33 27.552 33C28.6833 33 29.2717 32.6272 29.7902 32.2984C30.2489 32.0075 30.611 31.7778 31.4074 31.7778C31.7345 31.7778 32 31.504 32 31.1666C32 30.8293 31.7345 30.5555 31.4074 30.5555Z" fill="#424242"/>
<path d="M13.7624 10.4308L16.2471 9.84777C16.5659 9.7726 16.7656 9.44628 16.6927 9.1175C16.6199 8.78811 16.301 8.58581 15.9834 8.65976L14.8018 8.9427C16.6684 6.25256 20.0047 6.13585 20.163 6.13096C20.4095 6.12424 20.627 5.98124 20.7076 5.74107C20.7881 5.5009 20.717 5.27599 20.5274 5.11283L18.0367 3.05519C18.0415 3.05519 18.0462 3.05519 18.051 3.05519C20.1653 3.05519 21.4643 4.1436 21.5271 4.20104C21.6504 4.31715 21.8181 4.29028 21.9816 4.27439C22.1476 4.2585 22.2993 4.17108 22.3994 4.03358C22.4136 4.01464 23.5881 2.42635 25.2231 1.58851L24.5499 4.33365C24.4919 4.57015 24.5766 4.81948 24.7644 4.96798C24.9523 5.11648 25.2089 5.13484 25.4157 5.01567C25.5153 4.95883 27.635 3.77265 29.5822 5.52106L27.1899 6.03744C26.9458 6.09 26.7603 6.29473 26.7253 6.54895C26.6898 6.80379 26.813 7.05374 27.0329 7.17535C27.0607 7.19063 29.4554 8.53021 30.4616 10.6416L28.0391 9.80865C27.9561 9.77993 27.8726 9.77443 27.7908 9.78299C27.5016 9.27637 27.1526 8.8272 26.717 8.49048C26.4551 8.28759 26.0842 8.3426 25.8874 8.61211C25.6913 8.88222 25.744 9.26539 26.0059 9.46767C27.3061 10.4736 27.7363 13.0678 27.8394 14.9329L22.416 8.9256C22.2922 8.78932 22.1156 8.71659 21.9336 8.7337C21.7529 8.74898 21.5888 8.84859 21.4886 9.00504C20.3242 10.8176 18.589 13.4778 17.5633 14.9732C17.1478 10.4546 19.4175 8.77588 19.5313 8.69521C19.8015 8.50698 19.8738 8.12932 19.693 7.84943C19.5111 7.56832 19.1437 7.49254 18.8711 7.68015C18.7271 7.77915 15.3553 10.1814 16.6044 16.6196C16.6471 16.8408 16.8042 17.0192 17.0133 17.0846C17.2225 17.1494 17.4489 17.0914 17.6042 16.9319C18.0788 16.4423 20.3763 12.9284 21.683 10.9099C22.3638 13.2279 23.5674 19.6477 18.5736 25.8023C17.7381 25.7167 16.8433 25.6666 15.8773 25.6666C13.9858 25.6666 12.3413 25.9251 10.9274 26.3144C7.5514 23.5148 7.97215 19.9123 8.19497 18.8318L11.0258 22.1569C11.1633 22.3176 11.3713 22.3934 11.5751 22.3555C11.7796 22.3176 11.9496 22.1728 12.0243 21.973C12.179 21.558 13.4809 17.884 11.6397 16.5786C11.3701 16.388 11.0009 16.4583 10.8154 16.7363C10.6299 17.0144 10.6987 17.3945 10.9683 17.5858C11.5953 18.03 11.475 19.4191 11.2154 20.5271L8.35318 17.1653C8.24118 17.0345 8.08059 16.9582 7.91111 16.9575C7.71496 16.9667 7.58045 17.0303 7.46726 17.1604C7.44652 17.183 5.92 18.9363 4.63348 20.477C4.8717 17.8858 5.92592 17.0883 5.96444 17.0608C6.23585 16.8812 6.31822 16.509 6.14756 16.2248C5.97511 15.9388 5.61007 15.8502 5.33156 16.0274C5.24504 16.083 3.21305 17.4385 3.41453 22.2162C3.42519 22.4698 3.58637 22.6892 3.81985 22.7693C3.88089 22.7906 3.9443 22.801 4.00653 22.801C4.18134 22.801 4.35082 22.721 4.46519 22.5768C5.10223 21.7738 6.08652 20.609 6.90667 19.6495C6.79112 21.3759 7.06489 24.2897 9.59585 26.7434C6.10785 28.0322 4.39348 30.0343 4.29096 30.1577C4.07822 30.4138 4.10726 30.7981 4.35437 31.0181C4.60148 31.2369 4.97541 31.2094 5.18993 30.9546C5.22371 30.9136 8.6874 26.8888 15.8773 26.8888C24.4237 26.8888 27.3428 30.8733 27.3695 30.9106C27.485 31.0774 27.6676 31.1666 27.8524 31.1666C27.9716 31.1666 28.0919 31.1294 28.1962 31.053C28.4628 30.8568 28.5244 30.4749 28.3342 30.2005C28.227 30.0459 26.0326 26.9903 19.9508 25.9856C24.2293 20.2643 23.6723 14.3022 23.0104 11.378L28.0107 16.9166C28.125 17.0425 28.2833 17.1109 28.4444 17.1109C28.5126 17.1109 28.5807 17.0987 28.6471 17.0742C28.8705 16.9905 29.024 16.7766 29.0364 16.5316C29.0447 16.3635 29.1692 13.5982 28.4154 11.2265L31.2202 12.1908C31.2812 12.2116 31.3446 12.222 31.4074 12.222C31.5496 12.222 31.6901 12.1694 31.7997 12.0692C31.9579 11.925 32.0296 11.7044 31.9882 11.4911C31.5828 9.39861 29.9858 7.82497 28.8314 6.93213L30.8527 6.49578C31.0524 6.45239 31.2172 6.30636 31.2877 6.10897C31.3582 5.91096 31.325 5.68973 31.2 5.52351C29.5324 3.30209 27.4335 3.12852 25.9781 3.49458L26.6483 0.760456C26.6999 0.552064 26.6412 0.331435 26.4936 0.179267C26.3467 0.027098 26.1339 -0.0334111 25.9301 0.0179229C24.0249 0.508651 22.5061 2.0438 21.8305 2.82969C20.9748 2.24424 19.0643 1.26034 16.4658 1.84701C16.2447 1.89712 16.0705 2.07251 16.0172 2.29923C15.9633 2.52596 16.0391 2.76431 16.2133 2.91343L18.736 5.08167C17.0785 5.44895 14.3846 6.5123 13.0874 9.59112C12.9985 9.80195 13.0323 10.047 13.1745 10.2242C13.3173 10.4015 13.5437 10.4815 13.7624 10.4308Z" fill="#424242"/>
<path d="M0.8563 14.2643L3.05956 14.9219C2.20444 15.5031 1.16801 16.4399 0.65779 17.7838C0.574827 18.0019 0.620456 18.2501 0.775715 18.4224C0.929789 18.5941 1.16683 18.6583 1.38372 18.5904C1.97038 18.4047 3.07319 18.1401 3.08445 18.137C3.40327 18.0606 3.60179 17.7324 3.52771 17.4037C3.45364 17.0749 3.13127 16.8702 2.81601 16.9465C2.80119 16.9502 2.67319 16.9808 2.48593 17.0272C3.45363 15.8869 4.81482 15.3283 4.8332 15.3216C5.06964 15.2263 5.22193 14.9861 5.21008 14.7245C5.19882 14.463 5.02756 14.2375 4.78401 14.1647L2.83379 13.5823C3.87675 13.2658 5.27882 13.0659 6.45927 13.6862C6.67378 13.7987 6.93216 13.7669 7.11527 13.6049C7.2972 13.4436 7.36712 13.1839 7.29067 12.9486C7.16623 12.563 7.01038 11.793 6.88061 11.078C7.56209 11.5919 8.29808 12.2996 8.52149 13.0335C8.59912 13.2859 8.82549 13.4589 9.08208 13.4613C9.21778 13.4784 9.37482 13.4051 9.48208 13.3055C9.75171 13.1662 10.9209 12.7573 12.1505 12.7806C11.6545 13.2279 11.0098 13.7987 10.4018 14.3297C10.2199 14.4886 10.1493 14.7453 10.221 14.98C10.2933 15.2146 10.4954 15.3821 10.7331 15.4047C10.8397 15.4151 13.0364 15.6522 14.0818 17.9414C13.9864 17.9084 13.8839 17.8724 13.7724 17.8339C13.4607 17.7257 13.1259 17.8993 13.0222 18.2183C12.9173 18.5379 13.0845 18.885 13.395 18.9926C14.0024 19.2028 14.6898 19.446 14.765 19.4772C14.8492 19.5206 14.9399 19.5419 15.0299 19.5419C15.1603 19.5419 15.2895 19.4974 15.3962 19.4112C15.5763 19.2651 15.6587 19.0249 15.6077 18.7945C15.0116 16.0946 13.2468 14.9653 12.0379 14.5008C14.179 12.6235 14.1636 12.5789 14.0208 12.1596C13.9568 11.972 13.808 11.8309 13.6284 11.7753C12.5416 11.4397 10.525 11.5791 9.37245 12.0179C8.49067 10.4357 6.43556 9.34178 6.33719 9.28984C6.13867 9.18595 5.89986 9.2049 5.71971 9.34056C5.53956 9.47562 5.44771 9.70416 5.48327 9.93088C5.49393 10.0012 5.67705 11.1733 5.88623 12.189C3.41571 11.6249 0.855123 13.0727 0.731864 13.1436C0.523272 13.2639 0.405342 13.5017 0.432009 13.7467C0.459268 13.9918 0.626967 14.1953 0.8563 14.2643Z" fill="#424242"/>
</svg>
