<svg width="32" height="31" viewBox="0 0 32 31" fill="none" xmlns="http://www.w3.org/2000/svg">
<path d="M28.5162 10.3333H26.1291C25.7991 10.3333 25.5323 10.5898 25.5323 10.9074C25.5323 11.2246 25.7991 11.4814 26.1291 11.4814H28.5162C29.4484 11.4814 30.2195 11.1778 30.8109 10.5784C32.1125 9.25689 32.0009 6.95542 31.9955 6.85788C31.9782 6.55356 31.7162 6.31475 31.3993 6.31475H27.753L27.2916 4.98519C27.2111 4.75039 26.9831 4.59252 26.7259 4.59252H22.5484V0.57399C22.5484 0.355784 22.4201 0.156637 22.2166 0.0595611C22.0143 -0.0372855 21.7708 -0.014437 21.5912 0.11651C21.4599 0.212265 18.4163 2.4747 18.3745 5.67517C18.3662 5.68728 18.353 5.69423 18.3453 5.70611C17.8183 6.55178 17.3087 7.33149 17.3075 7.33304C16.8999 7.95781 16.5806 9.02324 16.5806 9.7592V11.4814C16.5806 11.9555 16.2589 12.6892 15.9062 13.0211L5.54487 22.7499C4.94152 22.6568 3.49731 22.2626 3.44957 21.4434C3.42212 20.9622 3.84822 20.6828 4.10484 20.5592C4.39905 20.4168 4.51839 20.0724 4.37039 19.7889C4.22298 19.5064 3.86432 19.3911 3.56951 19.5328C2.70119 19.952 2.21062 20.6895 2.25837 21.5071C2.37175 23.4922 5.34136 23.8837 5.46788 23.9003C5.49354 23.9032 5.51921 23.905 5.54487 23.905C5.6314 23.905 5.71256 23.8819 5.78775 23.8487C5.80267 23.8498 5.81699 23.8572 5.83131 23.8572C5.9817 23.8572 6.13211 23.8028 6.24848 23.6937L16.7399 13.8425C16.9106 13.6824 17.067 13.4804 17.206 13.2588L22.5651 15.3208L22.4953 15.713C22.4911 15.733 22.4887 15.7531 22.4875 15.7738C22.4858 15.8117 22.4309 16.7152 22.7609 17.6027C22.7782 17.648 22.8044 17.6866 22.8307 17.725C22.8194 17.8124 22.8218 17.9023 22.8552 17.9909C23.6823 20.1993 25.6081 25.0595 26.6823 27.7599C26.7957 28.0457 27.084 28.2714 27.5429 28.6153C27.6879 28.7232 27.901 28.8829 27.9803 28.962L28.3187 29.8117C28.222 29.8335 28.0896 29.8518 27.9195 29.8518H26.1291C25.6851 29.8518 25.0788 29.5148 24.858 29.1446L21.9797 24.3315C21.5041 23.5363 20.4066 23.1903 19.5341 23.5623L17.8302 24.2873C17.8798 24.1725 17.9281 24.0571 17.9687 23.9423C18.7523 22.3205 16.124 20.7303 15.8197 20.5534C15.538 20.3903 15.171 20.4754 15.0003 20.7476C14.829 21.0185 14.9197 21.3717 15.2014 21.5358C16.0435 22.0254 17.1254 22.9968 16.8808 23.4709C16.8682 23.4944 16.8581 23.5191 16.8491 23.5444C16.2768 25.1944 14.3886 27.1427 14.3695 27.1622C14.2066 27.3293 14.1624 27.5733 14.2567 27.7834C14.3522 27.9935 14.5671 28.1296 14.8046 28.1296H17.2896C17.4853 28.1296 19.053 28.1823 19.3461 29.8518H7.65509C7.39012 29.5303 6.84228 28.8844 6.00738 28.0009C5.54905 27.5165 5.25183 27.0216 5.12293 26.5303C5.07339 26.3419 4.92839 26.2094 4.75294 26.1444C4.69744 26.0641 4.6282 25.9923 4.53212 25.9459C2.77041 25.0991 0.775385 23.5496 1.27131 20.9801C1.46586 19.9719 2.12232 19.4449 2.64033 19.1803C3.52357 18.728 4.68788 18.6821 5.60633 19.0655C5.9089 19.1913 6.26041 19.057 6.3917 18.7663C6.5224 18.476 6.38335 18.1378 6.08078 18.0115C4.82276 17.4879 3.28961 17.5464 2.07933 18.1672C1.02123 18.7085 0.317031 19.6333 0.0974151 20.7705C-0.394931 23.3235 0.990224 25.5261 3.99801 26.9727C4.00577 26.9768 4.01472 26.9752 4.02307 26.9785C4.21762 27.5964 4.58164 28.1996 5.12412 28.7737C6.27054 29.9855 6.88046 30.7634 6.88702 30.7708C7.00399 30.9208 7.18303 31 7.36445 31C7.41398 31 7.46293 30.9897 7.51187 30.9772C7.55125 30.985 7.58706 31 7.62883 31H19.99C20.32 31 20.5868 30.7432 20.5868 30.4259C20.5868 27.7013 18.4306 26.9815 17.2896 26.9815H16.0954C16.3586 26.6606 16.6534 26.2764 16.9381 25.862C17.0216 25.8632 17.1064 25.8506 17.1881 25.816L20.0174 24.6116C20.3385 24.4755 20.7706 24.6127 20.9449 24.9045L23.8231 29.7168C24.2528 30.4367 25.2662 31 26.1291 31H27.9195C28.2387 31 29.0247 30.9507 29.412 30.4918C29.5785 30.295 29.6424 30.0557 29.591 29.8169C29.5845 29.787 29.5749 29.7572 29.5636 29.7278L29.0736 28.4988C28.9692 28.2363 28.715 28.0373 28.2758 27.7087C28.1188 27.5917 27.8628 27.3999 27.7816 27.3093C26.7056 24.6042 24.7977 19.7894 23.9777 17.6016C23.9616 17.5585 23.9311 17.5258 23.9067 17.489C23.9198 17.3996 23.9186 17.3071 23.8846 17.2159C23.6662 16.6279 23.674 16.0023 23.6781 15.8709L24.0159 13.9655C24.4736 13.1933 25.4709 13.2048 25.5323 13.2037H27.3227C27.6527 13.2037 27.9195 12.9469 27.9195 12.6296C27.9195 12.3121 27.6527 12.0555 27.3227 12.0555H25.552C25.4768 12.0555 23.6924 12.0154 22.9095 13.5205C22.8838 13.5709 22.8653 13.6255 22.8558 13.6813L22.7704 14.163L17.6685 12.2002C17.7342 11.9533 17.7741 11.7081 17.7741 11.4814V9.7592C17.7741 9.23628 18.0284 8.38768 18.3178 7.9446C18.3178 7.9446 18.8341 7.1541 19.3688 6.29747C19.4147 6.22393 19.438 6.14476 19.4469 6.06491C19.5155 5.97145 19.5645 5.86358 19.5645 5.74067C19.5645 4.13033 20.5617 2.75146 21.3548 1.90872V5.1666C21.3548 5.48412 21.6216 5.74067 21.9516 5.74067H26.2956L26.7569 7.07023C26.8381 7.30503 27.0655 7.4629 27.3227 7.4629H30.7912C30.7464 8.10064 30.5734 9.15172 29.9426 9.79083C29.5809 10.1552 29.1148 10.3333 28.5162 10.3333Z" fill="#424242"/>
</svg>
