<svg width="33" height="32" viewBox="0 0 33 32" fill="none" xmlns="http://www.w3.org/2000/svg">
<path d="M14.3611 17.2593C12.4655 17.2593 10.9236 15.7641 10.9236 13.9259C10.9236 12.0877 12.4655 10.5926 14.3611 10.5926C16.2568 10.5926 17.7986 12.0877 17.7986 13.9259C17.7986 15.7641 16.2568 17.2593 14.3611 17.2593ZM19.0208 13.9259C19.0208 11.4341 16.9302 9.40741 14.3611 9.40741C11.792 9.40741 9.7014 11.4341 9.7014 13.9259C9.7014 16.4178 11.792 18.4444 14.3611 18.4444C16.9302 18.4444 19.0208 16.4178 19.0208 13.9259Z" fill="#424242"/>
<path d="M14.3611 12.963C13.8129 12.963 13.368 13.3944 13.368 13.9259C13.368 14.4575 13.8129 14.8889 14.3611 14.8889C14.9093 14.8889 15.3541 14.4575 15.3541 13.9259C15.3541 13.3944 14.9093 12.963 14.3611 12.963Z" fill="#424242"/>
<path d="M14.9722 4.07407C14.9722 3.74696 14.699 3.48148 14.3611 3.48148C8.42171 3.48148 3.59027 8.16711 3.59027 13.9259C3.59027 14.253 3.86344 14.5185 4.20138 14.5185C4.53932 14.5185 4.81249 14.253 4.81249 13.9259C4.81249 8.82014 9.09638 4.66666 14.3611 4.66666C14.699 4.66666 14.9722 4.40118 14.9722 4.07407Z" fill="#424242"/>
<path d="M31.7778 26.6667C31.7778 28.9541 29.8583 30.8148 27.5 30.8148H25.0556C23.5009 30.8148 22.0782 30.0101 20.8242 28.4196L19.3074 26.5262C19.3032 26.4812 19.3056 26.4362 19.2897 26.3911C19.228 26.2092 19.0807 26.0853 18.9078 26.0273L16.5269 23.056C16.2525 22.733 16.178 22.0978 16.3711 21.7233L16.5 21.4732C16.5654 21.3458 16.6705 21.2575 16.7952 21.2255C16.9204 21.1941 17.0555 21.2196 17.1777 21.2984L19.8275 23.0115C20.0151 23.133 20.2565 23.1443 20.4551 23.0412C20.6537 22.9381 20.7778 22.7372 20.7778 22.5185V14.8148C20.7778 14.4883 21.0516 14.2222 21.3889 14.2222H22C22.3373 14.2222 22.6111 14.4883 22.6111 14.8148V20.7407C22.6111 21.0679 22.8843 21.3333 23.2222 21.3333C23.5602 21.3333 23.8333 21.0679 23.8333 20.7407V13.037C23.8333 12.7105 24.1071 12.4444 24.4444 12.4444H25.0556C25.3929 12.4444 25.6667 12.7105 25.6667 13.037V20.7407C25.6667 21.0679 25.9398 21.3333 26.2778 21.3333C26.6157 21.3333 26.8889 21.0679 26.8889 20.7407V13.6296C26.8889 13.3031 27.1627 13.037 27.5 13.037H28.1111C28.4484 13.037 28.7222 13.3031 28.7222 13.6296V20.7407C28.7222 21.0679 28.9954 21.3333 29.3333 21.3333C29.6713 21.3333 29.9444 21.0679 29.9444 20.7407V16C29.9444 15.6735 30.2182 15.4074 30.5556 15.4074H31.1667C31.504 15.4074 31.7778 15.6735 31.7778 16V26.6667ZM14.3611 26.6667C7.11639 26.6667 1.22222 20.9511 1.22222 13.9259C1.22222 6.90074 7.11639 1.18519 14.3611 1.18519C20.8187 1.18519 26.2906 5.74695 27.3161 11.8696C27.0576 11.8951 26.8168 11.9709 26.6011 12.0895C26.2759 11.5923 25.7064 11.2593 25.0556 11.2593H24.4444C23.4337 11.2593 22.6111 12.0569 22.6111 13.037V13.1461C22.4192 13.0797 22.2151 13.037 22 13.037H21.3889C20.3781 13.037 19.5556 13.8347 19.5556 14.8148V21.411L17.8561 20.3123C17.4442 20.0468 16.9437 19.9609 16.4823 20.08C16.0203 20.1985 15.6285 20.5132 15.4067 20.9434L15.2778 21.1935C14.8714 21.981 15.0058 23.1307 15.5723 23.7967L17.5646 26.2832C16.522 26.5363 15.4489 26.6667 14.3611 26.6667ZM31.1667 14.2222H30.5556C30.3404 14.2222 30.1363 14.2649 29.9444 14.3313V13.6296C29.9444 12.8006 29.3541 12.1084 28.5615 11.9123C27.5428 5.10163 21.5007 0 14.3611 0C6.44233 0 0 6.24711 0 13.9259C0 21.6047 6.44233 27.8519 14.3611 27.8519C15.7276 27.8519 17.072 27.6557 18.3712 27.2901L19.8556 29.1431C21.329 31.0121 23.1275 32 25.0556 32H27.5C30.5329 32 33 29.6071 33 26.6667V16C33 15.0199 32.1774 14.2222 31.1667 14.2222Z" fill="#424242"/>
</svg>
