<svg width="32" height="32" viewBox="0 0 32 32" fill="none" xmlns="http://www.w3.org/2000/svg">
<path d="M31.4074 10.6668C30.2761 10.6668 29.6883 11.0282 29.1692 11.3471C28.7105 11.6291 28.3484 11.8519 27.552 11.8519C26.7556 11.8519 26.3935 11.6291 25.9348 11.3471C25.4163 11.0282 24.8278 10.6668 23.6966 10.6668C22.5659 10.6668 21.9781 11.0282 21.4602 11.3471C21.0015 11.6291 20.64 11.8519 19.8442 11.8519C19.0495 11.8519 18.688 11.6291 18.2305 11.3471C17.7126 11.0282 17.1247 10.6668 15.9953 10.6668C14.864 10.6668 14.2767 11.0282 13.7588 11.3471C13.3001 11.6291 12.9387 11.8519 12.1434 11.8519C11.3487 11.8519 10.9873 11.6291 10.5292 11.3471C10.0113 11.0282 9.4234 10.6668 8.29333 10.6668C7.16266 10.6668 6.57541 11.0282 6.05748 11.3471C5.59941 11.6291 5.23792 11.8519 4.44326 11.8519C3.648 11.8519 3.28592 11.6291 2.82844 11.3471C2.30992 11.0282 1.72267 10.6668 0.592593 10.6668C0.265481 10.6668 0 10.9322 0 11.2594C0 11.5865 0.265481 11.8519 0.592593 11.8519C1.38726 11.8519 1.74933 12.0748 2.20681 12.3568C2.72533 12.6756 3.31259 13.0371 4.44326 13.0371C5.57333 13.0371 6.16059 12.6756 6.67911 12.3568C7.13659 12.0748 7.49807 11.8519 8.29333 11.8519C9.088 11.8519 9.45007 12.0748 9.90755 12.3568C10.4261 12.6756 11.0133 13.0371 12.1434 13.0371C13.2741 13.0371 13.8613 12.6756 14.3798 12.3568C14.8379 12.0748 15.2 11.8519 15.9953 11.8519C16.7893 11.8519 17.1508 12.0748 17.6089 12.3568C18.1268 12.6756 18.7141 13.0371 19.8442 13.0371C20.9754 13.0371 21.5627 12.6756 22.0812 12.3568C22.5393 12.0748 22.9013 11.8519 23.6966 11.8519C24.493 11.8519 24.8551 12.0748 25.3138 12.3568C25.8329 12.6756 26.4207 13.0371 27.552 13.0371C28.6833 13.0371 29.2717 12.6756 29.7902 12.3568C30.2489 12.0748 30.611 11.8519 31.4074 11.8519C31.7345 11.8519 32 11.5865 32 11.2594C32 10.9322 31.7345 10.6668 31.4074 10.6668Z" fill="#424242"/>
<path d="M6.64357 10.2733C6.78875 10.2733 6.93393 10.2205 7.0483 10.1139L11.0708 6.35924C11.1046 6.32783 11.1342 6.29285 11.1597 6.25493L14.4249 1.3566L19.6818 3.98532L20.7828 6.7391C20.8551 6.91865 21.0104 7.05198 21.1988 7.09584L23.4999 7.63032L24.2726 9.69194C24.3882 9.99891 24.7301 10.153 25.0359 10.0392C25.3422 9.92426 25.4975 9.58231 25.3825 9.27595L24.4984 6.91687C24.4285 6.73139 24.2708 6.59273 24.0776 6.54769L21.7689 6.01138L20.6987 3.33524C20.6442 3.20072 20.5434 3.0905 20.4131 3.02531L14.4871 0.0623662C14.2199 -0.0709664 13.8945 0.0155748 13.7292 0.26387L10.2116 5.54029L6.23942 9.2475C6.00001 9.47091 5.98756 9.84545 6.21038 10.0849C6.32712 10.2099 6.48535 10.2733 6.64357 10.2733Z" fill="#424242"/>
<path d="M26.7242 14.0842C26.4107 13.993 26.0812 14.1737 25.9899 14.4884L24.9677 18.0149L22.8634 19.5936L20.032 20.1601C19.7108 20.2241 19.5028 20.5364 19.5674 20.8569C19.6231 21.1384 19.8708 21.3334 20.1476 21.3334C20.1861 21.3334 20.2252 21.3298 20.2643 21.3215L22.3721 20.9002L21.4056 26.2157L18.1831 27.2895C18.0782 27.3245 17.9858 27.3879 17.9152 27.4726L15.3126 30.5956L13.5046 29.2397L10.3473 22.9091C10.2945 22.8024 10.2098 22.7141 10.1061 22.656L7.03051 20.9405L5.36949 14.3468C5.28949 14.0297 4.96592 13.8377 4.65007 13.9171C4.33244 13.9971 4.13985 14.3195 4.21985 14.6365L5.9437 21.478C5.984 21.6368 6.0871 21.7713 6.22992 21.8507L9.36889 23.6018L12.5067 29.8939C12.5476 29.9763 12.6074 30.0486 12.6815 30.1037L15.0518 31.8815C15.1585 31.9615 15.283 32 15.4074 32C15.5775 32 15.7458 31.9271 15.8625 31.7867L18.7176 28.3609L22.1132 27.2291C22.3188 27.1603 22.4699 26.9855 22.509 26.7728L23.6527 20.483L25.837 18.8445C25.9396 18.7675 26.0148 18.659 26.0504 18.5352L27.1283 14.8179C27.2196 14.5038 27.0382 14.1749 26.7242 14.0842Z" fill="#424242"/>
</svg>
