<svg width="21" height="33" viewBox="0 0 21 33" fill="none" xmlns="http://www.w3.org/2000/svg">
<path d="M18.2433 2.3432C19.1552 2.3432 19.8973 3.16848 19.8973 4.1826C19.8973 5.19673 19.1552 6.02201 18.2433 6.02201C17.3314 6.02201 16.5893 5.19673 16.5893 4.1826C16.5893 3.16848 17.3314 2.3432 18.2433 2.3432ZM1.1454 8.20722C1.9746 10.9835 3.55805 14.0848 5.76669 16.9364C8.2736 20.1732 11.3594 22.4804 14.046 23.6472C11.2927 23.4486 7.31481 22.5043 4.30288 19.0824C1.44422 15.834 1.01914 11.3299 1.1454 8.20722ZM16.6401 6.66642C17.0933 7.02878 17.644 7.24828 18.2433 7.24828C19.7634 7.24828 21 5.87302 21 4.1826C21 2.49219 19.7634 1.11692 18.2433 1.11692C16.7233 1.11692 15.4867 2.49219 15.4867 4.1826C15.4867 4.76263 15.6405 5.30035 15.8935 5.76327L9.0438 12.9327C8.82217 13.165 8.81224 13.5532 9.02009 13.8003C9.12925 13.9284 9.27536 13.9928 9.42201 13.9928C9.55764 13.9928 9.69326 13.9376 9.80022 13.8266L14.7826 8.61067C18.406 13.3692 19.8163 18.4049 19.5853 21.1015C19.5114 21.9611 19.2732 22.5914 18.8961 22.9231C17.4279 24.2187 11.3693 22.2903 6.60249 16.1363C1.99114 10.1828 0.54554 3.44377 2.37927 1.61785C3.60103 0.403228 8.59833 1.92198 12.9996 6.51743C13.2224 6.74858 13.5702 6.73569 13.7792 6.48983C13.9876 6.24273 13.9766 5.85524 13.7544 5.62286C9.39941 1.07646 3.6275 -1.27001 1.6438 0.704284C0.832242 1.5124 0.46231 2.79998 0.484363 4.37819C0.242879 5.47448 -1.48941 14.2534 3.51449 19.9396C3.61758 20.0567 3.72454 20.1609 3.82929 20.2725L0.0802316 32.1845C-0.020111 32.504 0.130962 32.8541 0.418757 32.9657C0.478853 32.989 0.540591 33 0.600687 33C0.828387 33 1.04175 32.8418 1.12114 32.5892L4.72244 21.1475C5.54172 21.882 6.39739 22.4847 7.26298 22.9673C7.22935 23.0617 7.2084 23.1628 7.22163 23.2708L8.3243 32.4678C8.36124 32.7762 8.59778 33 8.87014 33C8.8944 33 8.91863 32.9982 8.94344 32.9945C9.24557 32.9497 9.45731 32.6413 9.41706 32.3059L8.36344 23.5166C9.49037 24.0243 10.6079 24.3597 11.6571 24.5749C11.6681 24.619 11.6725 24.6644 11.6929 24.7067L15.5523 32.6775C15.6521 32.8835 15.8423 33 16.0385 33C16.1268 33 16.2161 32.9767 16.2993 32.927C16.5673 32.7658 16.6682 32.3942 16.5237 32.0962L12.988 24.7944C13.8068 24.8968 14.5599 24.9354 15.2005 24.9354C16.4884 24.9354 17.3408 24.795 17.4472 24.7766C17.6088 24.7484 17.7383 24.6417 17.8199 24.5001C18.541 24.4615 19.1481 24.2659 19.5809 23.8851C20.1989 23.3407 20.5799 22.4179 20.683 21.2174C20.9917 17.6115 18.8994 12.1043 15.587 7.76884L16.6401 6.66642Z" fill="#424242"/>
</svg>
