<svg width="24" height="33" viewBox="0 0 24 33" fill="none" xmlns="http://www.w3.org/2000/svg">
<path d="M9.0868 1.67135C9.46529 1.38416 9.9173 1.23256 10.3924 1.23256C11.1075 1.23256 11.794 1.58446 12.2277 2.17424C12.9786 3.1948 12.7921 4.62888 11.8104 5.3715C11.4319 5.65868 10.9799 5.8103 10.5048 5.8103C9.78973 5.8103 9.10321 5.4584 8.67004 4.86923C7.91913 3.84806 8.10625 2.41396 9.0868 1.67135ZM10.5048 7.04286C11.2442 7.04286 11.947 6.80682 12.5382 6.35878C14.0558 5.20942 14.3535 3.00129 13.2016 1.43655C12.5394 0.536784 11.489 0 10.3924 0C9.65364 0 8.95012 0.236026 8.3596 0.684063C6.8426 1.83281 6.5443 4.04095 7.69556 5.6063C8.35838 6.50607 9.4082 7.04286 10.5048 7.04286Z" fill="#424242"/>
<path d="M22.7556 28.4641C22.7234 28.5708 22.6475 28.7292 22.3589 28.8703C22.0594 29.0176 21.8018 29.0465 21.5709 28.959C21.1821 28.8117 20.9136 28.3477 20.8328 28.1585L17.8049 21.6438C17.7046 21.4287 17.4902 21.2906 17.2551 21.2906H10.4331C9.59594 21.2906 9.21197 20.1031 9.1652 19.8276L7.91917 10.9051C7.86024 10.56 7.93616 10.2155 8.13118 9.93567C8.33106 9.64849 8.63726 9.45744 8.99388 9.39581C9.22839 9.35514 9.44103 9.33418 9.63422 9.33418C10.0498 9.33418 10.3766 9.4297 10.6397 9.62322C11.0692 9.93937 11.3505 10.5489 11.4744 11.4172L11.7599 13.9612C11.7946 14.2706 12.0516 14.5048 12.3584 14.5079L16.9981 14.5116C17.4312 14.5208 17.7769 14.6299 17.9452 14.8117C18.0491 14.9239 18.0953 15.0767 18.0874 15.2788C18.0819 15.4255 18.0315 15.4908 17.9835 15.5346C17.7678 15.7306 17.2696 15.7614 17.0108 15.7441H10.9355C10.5996 15.7441 10.328 16.0196 10.328 16.3604C10.328 16.7012 10.5996 16.9767 10.9355 16.9767H12.0996L12.3152 18.8958C12.3505 19.207 12.6099 19.4418 12.9191 19.4418H19.1196C19.3978 19.4418 19.5685 19.6668 19.8055 20.1099C19.8273 20.1505 19.848 20.1894 19.8674 20.2245L22.2909 26.8655C22.3036 26.9006 22.3188 26.9333 22.3376 26.9647C22.7009 27.5903 22.8534 28.1363 22.7556 28.4641ZM23.4118 26.3879L20.989 19.7481C20.9762 19.7124 20.9604 19.6791 20.9416 19.647L20.8735 19.5225C20.6457 19.0961 20.1718 18.2092 19.1196 18.2092H13.461L13.3225 16.9761L16.961 16.9748C17.0777 16.9835 18.1251 17.0531 18.7873 16.4584C19.1056 16.1724 19.2836 15.7823 19.3018 15.3281C19.3231 14.7932 19.1597 14.3224 18.8298 13.9668C18.4276 13.5335 17.803 13.295 17.0108 13.279H12.9058L12.6792 11.2594C12.5048 10.0312 12.0589 9.1456 11.3535 8.62608C10.3742 7.9038 9.18039 8.11333 8.78914 8.18112C8.11357 8.29699 7.5279 8.66737 7.13908 9.22387C6.75573 9.77297 6.60812 10.4441 6.7193 11.0968L7.96473 20.0193C8.12998 20.9874 8.94588 22.5232 10.4331 22.5232H16.8705L19.7222 28.6577C19.7672 28.768 20.1901 29.7448 21.1335 30.1096C21.3589 30.1959 21.5953 30.2397 21.8371 30.2397C22.1791 30.2397 22.5333 30.1534 22.8856 29.9814C23.5497 29.6567 23.8134 29.1716 23.9179 28.8222C24.1196 28.148 23.9494 27.329 23.4118 26.3879Z" fill="#424242"/>
<path d="M17.5302 28.1868C15.7891 30.4628 13.1645 31.7674 10.328 31.7674C5.30312 31.7674 1.21506 27.6205 1.21506 22.5232C1.21506 19.26 2.86026 16.3013 5.6154 14.609C5.90276 14.4327 5.99449 14.0537 5.82074 13.7628C5.64638 13.4719 5.27275 13.3801 4.9866 13.5545C1.8639 15.4724 0 18.8249 0 22.5232C0 28.3002 4.63302 33 10.328 33C13.5424 33 16.5175 31.5215 18.4908 28.943C18.6961 28.6737 18.6481 28.2873 18.3832 28.0784C18.1171 27.8695 17.7362 27.9194 17.5302 28.1868Z" fill="#424242"/>
<path d="M3.64519 22.5232C3.64519 22.1461 3.67616 21.7664 3.73691 21.3967C3.7922 21.0608 3.56924 20.7428 3.23814 20.6873C2.90703 20.6263 2.59478 20.858 2.53888 21.1933C2.4672 21.6309 2.43013 22.0777 2.43013 22.5232C2.43013 24.8737 3.44288 27.0979 5.20836 28.6238C5.32319 28.7236 5.46293 28.7717 5.60266 28.7717C5.77399 28.7717 5.94468 28.6984 6.06436 28.5548C6.28246 28.2959 6.25211 27.9064 5.99634 27.6864C4.50243 26.3941 3.64519 24.5126 3.64519 22.5232Z" fill="#424242"/>
</svg>
