<svg width="29" height="32" viewBox="0 0 29 32" fill="none" xmlns="http://www.w3.org/2000/svg">
<path d="M13.3345 12.9467C13.3345 12.29 13.8572 11.7559 14.5 11.7559C15.1428 11.7559 15.6655 12.29 15.6655 12.9467C15.6655 13.6035 15.1428 14.1376 14.5 14.1376C13.8572 14.1376 13.3345 13.6035 13.3345 12.9467ZM16.831 12.9467C16.831 11.6333 15.7855 10.5651 14.5 10.5651C13.2144 10.5651 12.169 11.6333 12.169 12.9467C12.169 14.0536 12.9143 14.9777 13.9172 15.2439V30.8092H12.7517C12.4295 30.8092 12.169 31.0753 12.169 31.4046C12.169 31.7338 12.4295 32 12.7517 32H16.2482C16.5705 32 16.831 31.7338 16.831 31.4046C16.831 31.0753 16.5705 30.8092 16.2482 30.8092H15.0827V15.2439C16.0856 14.9777 16.831 14.0536 16.831 12.9467Z" fill="#424242"/>
<path d="M8.37471 24.9765C3.92774 22.6216 1.1655 17.9851 1.1655 12.8765C1.1655 8.05601 3.69813 3.54752 7.77389 1.1099C8.05187 0.943775 8.14511 0.579386 7.98252 0.295373C7.81935 0.0101699 7.46153 -0.0845056 7.18531 0.0822104C2.75349 2.73299 0 7.63505 0 12.8765C0 18.4317 3.00349 23.4731 7.83857 26.0333C7.92424 26.0792 8.01572 26.1006 8.10605 26.1006C8.317 26.1006 8.52039 25.9839 8.62412 25.7791C8.77214 25.4874 8.66026 25.1277 8.37471 24.9765Z" fill="#424242"/>
<path d="M21.845 0.100672C21.5682 -0.0666397 21.2104 0.0274381 21.0478 0.311451C20.8846 0.594868 20.9767 0.959853 21.2547 1.12597C25.3135 3.56777 27.8345 8.0703 27.8345 12.8765C27.8345 17.9851 25.0723 22.6216 20.6253 24.9765C20.3397 25.1277 20.2279 25.4874 20.3759 25.7791C20.4796 25.9839 20.683 26.1006 20.894 26.1006C20.9843 26.1006 21.0758 26.0792 21.1614 26.0333C25.9965 23.4731 29 18.4317 29 12.8765C29 7.64993 26.2588 2.75503 21.845 0.100672Z" fill="#424242"/>
<path d="M25.2529 12.8765C25.2529 9.00213 23.2215 5.37248 19.9511 3.40464C19.6737 3.23733 19.3159 3.3314 19.1527 3.61482C18.9895 3.89824 19.0816 4.26322 19.359 4.42994C22.2756 6.18641 24.0874 9.4219 24.0874 12.8765C24.0874 16.546 22.1002 19.878 18.9021 21.5719C18.616 21.7232 18.5047 22.0828 18.6527 22.3745C18.7564 22.5794 18.9598 22.6961 19.1707 22.6961C19.2611 22.6961 19.3526 22.6746 19.4383 22.6294C23.0251 20.7294 25.2529 16.9926 25.2529 12.8765Z" fill="#424242"/>
<path d="M10.0979 21.5719C6.89976 19.878 4.91258 16.546 4.91258 12.8765C4.91258 9.42249 6.72376 6.18641 9.64043 4.42994C9.91782 4.26322 10.0099 3.89824 9.84673 3.61482C9.68239 3.3314 9.32517 3.23733 9.04895 3.40464C5.77855 5.37308 3.74708 9.00273 3.74708 12.8765C3.74708 16.9926 5.97492 20.7294 9.56175 22.6294C9.64742 22.6746 9.73893 22.6961 9.82926 22.6961C10.0402 22.6961 10.2436 22.5794 10.3473 22.3745C10.4953 22.0828 10.384 21.7232 10.0979 21.5719Z" fill="#424242"/>
<path d="M21.5058 12.8765C21.5058 10.3478 20.1789 7.98101 18.0419 6.69967C17.7657 6.53296 17.4079 6.62821 17.2448 6.91163C17.0822 7.19505 17.1748 7.56005 17.4522 7.72617C19.2337 8.79494 20.3403 10.7687 20.3403 12.8765C20.3403 15.1117 19.13 17.1415 17.1818 18.1733C16.8957 18.3245 16.7844 18.6842 16.9324 18.9759C17.0361 19.1807 17.2395 19.2974 17.4505 19.2974C17.5408 19.2974 17.6323 19.276 17.7174 19.2308C20.0542 17.9935 21.5058 15.5582 21.5058 12.8765Z" fill="#424242"/>
<path d="M11.8182 18.1733C9.87004 17.1415 8.65966 15.1117 8.65966 12.8765C8.65966 10.7824 9.75465 8.81637 11.5186 7.74403C11.7949 7.57553 11.8858 7.20993 11.7209 6.92771C11.5559 6.64489 11.1987 6.552 10.9219 6.7205C8.80711 8.006 7.49415 10.365 7.49415 12.8765C7.49415 15.5582 8.9458 17.9935 11.2826 19.2308C11.3677 19.276 11.4592 19.2974 11.5501 19.2974C11.7605 19.2974 11.9639 19.1807 12.0676 18.9759C12.2156 18.6842 12.1043 18.3245 11.8182 18.1733Z" fill="#424242"/>
</svg>
