<svg width="32" height="28" viewBox="0 0 32 28" fill="none" xmlns="http://www.w3.org/2000/svg">
<path d="M30.3166 24.4845L27.8845 25.0394C27.7048 24.4003 25.0144 14.7526 25.0144 11.5061C25.0144 10.564 25.2698 9.82638 25.7734 9.34984C26.3461 8.80703 27.1087 8.682 27.3899 8.65319L30.7848 23.7722C30.8545 24.084 30.6399 24.4101 30.3166 24.4845ZM20.0348 26.8314C19.878 26.8666 19.7217 26.8412 19.5877 26.7611C19.4531 26.681 19.3593 26.5548 19.3245 26.4073L16.8522 15.9782C16.7091 15.3726 16.4219 15.066 16 15.066C15.5781 15.066 15.2909 15.3726 15.1472 15.9782L12.6761 26.4073C12.6406 26.5548 12.5469 26.681 12.4123 26.7611C12.2783 26.8412 12.1214 26.8671 11.9652 26.8314L5.2717 25.3033C5.63468 23.7745 7.62685 15.3265 8.18153 11.6064C8.40148 10.1289 8.12925 8.95515 7.37264 8.11846C6.60943 7.27487 5.56375 7.02362 4.99284 6.94755L5.52349 4.58446C5.60943 4.59656 5.69477 4.60981 5.78371 4.60981H14.5757C14.0715 6.15352 12.9952 9.66735 12.9952 11.5245C12.9952 11.8426 13.2638 12.1008 13.5962 12.1008C13.9285 12.1008 14.1971 11.8426 14.1971 11.5245C14.1971 9.71345 15.3996 5.92649 15.8221 4.65188C16.2434 5.06618 17.3636 6.45951 17.8077 9.86732C17.8455 10.1589 18.1046 10.3721 18.4032 10.3721C18.4279 10.3721 18.4531 10.3709 18.4784 10.3675C18.8077 10.3283 19.0414 10.0402 19 9.72439C18.655 7.07951 17.9285 5.507 17.3179 4.60981H26.2163C26.3052 4.60981 26.3906 4.59656 26.4765 4.58446L27.1508 7.58661C26.6369 7.6425 25.7025 7.84188 24.9429 8.55294C24.1929 9.25479 23.8125 10.2545 23.8125 11.5245C23.8125 14.8989 26.426 24.2891 26.7127 25.3073L20.0348 26.8314ZM1.21523 23.7722L4.73864 8.07927C5.08059 8.11327 5.91352 8.25847 6.47121 8.88137C6.98443 9.45414 7.15931 10.3162 6.99165 11.4427C6.45259 15.0608 4.4634 23.5141 4.10282 25.0365L1.68338 24.4845C1.36006 24.4101 1.14552 24.084 1.21523 23.7722ZM5.18276 1.72868C5.18276 1.41118 5.45199 1.15245 5.78371 1.15245H13.5962V3.45736H5.78371C5.45199 3.45736 5.18276 3.19863 5.18276 2.88113V1.72868ZM14.7981 3.45736V1.15245H17.2019V3.45736H14.7981ZM26.8172 1.72868V2.88113C26.8172 3.19863 26.548 3.45736 26.2163 3.45736H18.4038V1.15245H26.2163C26.548 1.15245 26.8172 1.41118 26.8172 1.72868ZM31.9596 23.5296L27.5757 4.00421C27.8479 3.70112 28.0192 3.31157 28.0192 2.88113V1.72868C28.0192 0.775601 27.2103 0 26.2163 0H5.78371C4.78973 0 3.98084 0.775601 3.98084 1.72868V2.88113C3.98084 3.31157 4.15211 3.70112 4.42434 4.00421L0.0403695 23.5296C-0.166961 24.455 0.444812 25.3857 1.40514 25.6052L11.6869 27.9522C12.1539 28.0599 12.6376 27.9839 13.0469 27.7395C13.4567 27.4958 13.7404 27.1132 13.848 26.6626L16 17.5818L18.1526 26.6626C18.2596 27.1132 18.5433 27.4958 18.9531 27.7395C19.241 27.9113 19.5655 28 19.8948 28C20.0342 28 20.1743 27.9839 20.3131 27.9522L30.5949 25.6052C31.5552 25.3857 32.167 24.455 31.9596 23.5296Z" fill="#424242"/>
</svg>
