<svg width="33" height="32" viewBox="0 0 33 32" fill="none" xmlns="http://www.w3.org/2000/svg">
<path d="M30.0351 10.0759C29.6975 10.3501 21.7397 16.8207 19.2126 19.2708C16.8639 21.5487 10.6504 28.8227 10.4257 29.0898C9.29437 30.187 7.76251 30.8158 6.2221 30.8158C4.84716 30.8158 3.58028 30.322 2.65531 29.4249C1.67539 28.474 1.16739 27.169 1.22539 25.7503C1.28523 24.3132 1.91532 22.9419 2.96362 21.9229C3.29942 21.6475 11.2151 15.1551 13.7269 12.7191C16.0885 10.4288 22.3423 3.17903 22.5706 2.91022C23.702 1.81363 25.2344 1.18422 26.7748 1.18422C28.1498 1.18422 29.4161 1.67805 30.341 2.5751C32.3876 4.56045 32.2325 7.94079 30.0351 10.0759ZM31.2043 1.73785C30.0492 0.617577 28.4758 0 26.7748 0C24.9121 0 23.0658 0.75612 21.6707 2.11205C21.606 2.18666 15.1861 9.6283 12.8636 11.8819C10.3878 14.2829 2.25724 20.9512 2.13757 21.0519C0.83467 22.3155 0.0769598 23.9675 0.00552617 25.7029C-0.066518 27.4556 0.567853 29.075 1.79199 30.2622C2.94775 31.383 4.52113 32 6.2221 32C8.08426 32 9.93053 31.2445 11.3275 29.8862C11.3916 29.811 17.7675 22.3474 20.0759 20.1081C22.5651 17.6946 30.7373 11.0506 30.8588 10.9487C33.5726 8.3162 33.7277 4.18445 31.2043 1.73785Z" fill="#424242"/>
<path d="M12.6823 17.9942C13.0242 18.0226 13.3166 17.7876 13.349 17.4619C13.3814 17.1363 13.1353 16.8467 12.8001 16.8159C11.7255 16.7141 10.8928 16.9569 10.3262 17.5336C9.42074 18.4549 9.62041 19.8635 9.62956 19.9227C9.67352 20.217 9.9342 20.4278 10.2321 20.4278C10.2602 20.4278 10.2895 20.426 10.3182 20.4225C10.651 20.3769 10.8836 20.0779 10.8378 19.7546C10.8366 19.7457 10.7175 18.8463 11.2139 18.3465C11.5082 18.0493 12.004 17.9309 12.6823 17.9942Z" fill="#424242"/>
<path d="M15.0316 19.0891C14.6958 19.1181 14.4479 19.4064 14.4778 19.7321C14.5017 19.9902 14.4675 20.8216 14.009 21.2455C13.7202 21.5114 13.2696 21.6061 12.6627 21.525C12.3287 21.4753 12.0204 21.7056 11.974 22.0295C11.9276 22.3534 12.1602 22.653 12.4942 22.6974C12.6932 22.7246 12.8843 22.7382 13.0669 22.7382C13.7947 22.7382 14.3936 22.5251 14.8509 22.1023C15.8278 21.1999 15.7002 19.69 15.6947 19.6261C15.6641 19.3004 15.3687 19.0606 15.0316 19.0891Z" fill="#424242"/>
<path d="M19.6669 11.2211C20.0064 11.2519 20.3013 11.0139 20.3336 10.6888C20.3666 10.3631 20.1205 10.0736 19.7853 10.0422C18.709 9.93918 17.8774 10.1831 17.3108 10.7599C16.4054 11.6812 16.605 13.0892 16.6136 13.149C16.6581 13.4433 16.9176 13.6541 17.2168 13.6541C17.2449 13.6541 17.2736 13.6523 17.3023 13.6488C17.635 13.6032 17.8676 13.3041 17.8224 12.9814C17.8212 12.9726 17.7022 12.0731 18.1979 11.5734C18.4934 11.2762 18.988 11.1578 19.6669 11.2211Z" fill="#424242"/>
<path d="M22.0156 12.3159C21.6798 12.3449 21.432 12.6327 21.4625 12.9583C21.4863 13.2165 21.4515 14.0478 20.993 14.4718C20.7042 14.7382 20.2518 14.8318 19.6467 14.7513C19.3128 14.7021 19.0045 14.9318 18.9581 15.2557C18.9117 15.5796 19.1449 15.8792 19.4788 15.9236C19.6779 15.9509 19.8684 15.9645 20.0509 15.9645C20.7793 15.9639 21.3776 15.7513 21.8349 15.3292C22.8124 14.4262 22.6848 12.9163 22.6787 12.8524C22.6482 12.5267 22.3472 12.2899 22.0156 12.3159Z" fill="#424242"/>
</svg>
