<svg width="32" height="28" viewBox="0 0 32 28" fill="none" xmlns="http://www.w3.org/2000/svg">
<path d="M29.0785 23.234C29.0785 24.2194 28.2797 25.0213 27.2982 25.0213H26.1113C25.1297 25.0213 24.331 24.2194 24.331 23.234V13.1064C24.331 11.119 25.8466 9.44017 27.6405 9.44017C29.3894 9.44017 30.8131 10.8688 30.8131 12.625C30.8131 14.3813 29.3894 15.8099 27.6405 15.8099C27.3124 15.8099 27.0471 16.0762 27.0471 16.4056C27.0471 16.7351 27.3124 17.0014 27.6405 17.0014C28.145 17.0014 28.6275 16.9108 29.0785 16.7517V23.234ZM5.93438 25.0213H4.74751C3.76596 25.0213 2.96719 24.2194 2.96719 23.234V16.7684C3.40515 16.9174 3.87218 17.0014 4.3594 17.0014C4.68697 17.0014 4.95283 16.7351 4.95283 16.4056C4.95283 16.0762 4.68697 15.8099 4.3594 15.8099C2.60994 15.8099 1.18688 14.3813 1.18688 12.625C1.18688 10.8688 2.60994 9.44017 4.3594 9.44017C6.20974 9.44017 7.7147 10.8175 7.7147 12.5106V23.234C7.7147 24.2194 6.91593 25.0213 5.93438 25.0213ZM8.90157 16.6809C8.90157 15.6955 9.70034 14.8936 10.6819 14.8936H21.3638C22.3453 14.8936 23.1441 15.6955 23.1441 16.6809C23.1441 17.6662 22.3453 18.4681 21.3638 18.4681H10.6819C9.70034 18.4681 8.90157 17.6662 8.90157 16.6809ZM8.90157 23.234V19.0483C9.39888 19.4266 10.0113 19.6596 10.6819 19.6596H21.3638C22.0344 19.6596 22.6468 19.4266 23.1441 19.0483V23.234C23.1441 23.6582 23.2355 24.0597 23.3957 24.4255H8.64994C8.81017 24.0597 8.90157 23.6582 8.90157 23.234ZM5.93438 2.97872C5.93438 2.01004 6.77054 1.19149 7.76039 1.19149H24.331C25.3125 1.19149 26.1113 1.99336 26.1113 2.97872V8.34043C26.1113 8.40715 26.1291 8.4691 26.1492 8.52927C24.4016 9.19591 23.1441 10.9933 23.1441 13.1064V14.3134C22.6468 13.9351 22.0344 13.7021 21.3638 13.7021H10.6819C10.0113 13.7021 9.39888 13.9351 8.90157 14.3134V12.5106C8.90157 10.6805 7.66366 9.12085 5.93438 8.51796V2.97872ZM32 12.625C32 10.2122 30.0446 8.24868 27.6405 8.24868C27.5248 8.24868 27.4115 8.25821 27.2982 8.26715V2.97872C27.2982 1.33626 25.9671 0 24.331 0H7.76039C6.12725 0 4.74751 1.36426 4.74751 2.97872V8.26715C4.61932 8.25643 4.49054 8.24868 4.3594 8.24868C1.95538 8.24868 0 10.2122 0 12.625C0 14.0691 0.703224 15.3482 1.78031 16.1453V23.234C1.78031 24.8765 3.1114 26.2128 4.74751 26.2128V27.4043C4.74751 27.7337 5.01277 28 5.34094 28C5.66912 28 5.93438 27.7337 5.93438 27.4043V26.2128C6.69042 26.2128 7.37407 25.9185 7.89867 25.4496C8.00489 25.5521 8.1485 25.617 8.30814 25.617H23.7375C23.8972 25.617 24.0408 25.5521 24.147 25.4496C24.6716 25.9185 25.3552 26.2128 26.1113 26.2128V27.4043C26.1113 27.7337 26.3766 28 26.7047 28C27.0329 28 27.2982 27.7337 27.2982 27.4043V26.2128C28.9343 26.2128 30.2654 24.8765 30.2654 23.234V16.1113C31.3163 15.3112 32 14.0488 32 12.625Z" fill="#424242"/>
</svg>
