<svg width="32" height="30" viewBox="0 0 32 30" fill="none" xmlns="http://www.w3.org/2000/svg">
<path d="M28.6056 8.69811L27.153 8.54638C26.6222 8.49083 25.8251 8.13007 25.4475 7.7739L23.7274 6.15456C23.3505 5.79896 22.9674 5.04825 22.9078 4.54835L22.7467 3.18039C22.7133 2.89809 22.8033 2.51673 22.9589 2.19148L29.6568 8.49885C29.3157 8.64429 28.9138 8.73075 28.6056 8.69811ZM14.699 18.7063L18.5666 22.3487C18.0291 22.8492 17.1061 23.7058 16.2141 24.5344C15.0832 25.5834 14.0016 26.5884 13.8058 26.7727C10.2635 30.1088 3.38736 28.5089 1.85636 28.0961C1.46784 26.6823 0.0170994 20.4505 3.55517 17.1184C3.74608 16.9386 4.76697 15.9623 5.8535 14.9253C6.75701 14.0618 7.7049 13.1565 8.25212 12.6349L12.1191 16.2773L9.96918 18.302C9.67794 18.5775 9.33441 19.0544 9.17207 19.4123L8.36095 21.1938C8.12504 21.7108 8.36827 22.02 8.4844 22.1294C8.56466 22.2056 8.74765 22.3396 9.03767 22.3396C9.16414 22.3396 9.31128 22.3138 9.47849 22.2462L11.3701 21.4829C11.7501 21.3295 12.2571 21.0065 12.549 20.7311L14.699 18.7063ZM11.6893 19.9214C11.5075 20.0926 11.1268 20.3348 10.8915 20.4305L9.83784 20.8553L10.2896 19.8636C10.3911 19.6408 10.6483 19.2824 10.8295 19.1111L23.2976 7.36907L24.1579 8.17932L11.6893 19.9214ZM24.5878 1.29534L30.6072 6.96425C30.8437 7.18757 30.8437 7.55058 30.6072 7.7739L23.7274 1.2959C23.8417 1.18825 23.9944 1.12926 24.1573 1.12926C24.3215 1.12926 24.4741 1.18826 24.5878 1.29534ZM31.4669 6.15456L25.4475 0.485657C24.7599 -0.161399 23.556 -0.162558 22.8671 0.486216L22.4384 0.890487C22.4384 0.890487 22.4384 0.890501 22.4378 0.891074C22.4378 0.891074 22.4378 0.89106 22.4378 0.891633C21.8298 1.46425 21.4431 2.50184 21.538 3.30694L21.6991 4.67493C21.7672 5.24869 22.084 5.97074 22.4822 6.51759L12.9789 15.4676V15.467L8.68017 11.4186C8.44243 11.1947 8.05815 11.1953 7.82042 11.418C7.57903 11.6454 6.2402 12.924 4.98707 14.1214C3.90419 15.1561 2.88513 16.1295 2.69482 16.3088C-1.81121 20.5524 0.670117 28.3898 0.778345 28.7214C0.836107 28.8989 0.981418 29.0392 1.16869 29.097C1.37177 29.1606 4.13157 30.0006 7.31699 30C9.85547 30 12.6645 29.4669 14.6655 27.583C14.8601 27.3992 15.9393 26.3965 17.0672 25.3498C18.3154 24.1914 19.6221 22.9786 19.8586 22.7558C20.0957 22.532 20.0957 22.1695 19.8586 21.9456L15.5593 17.8966C15.5587 17.8966 15.5587 17.8966 15.5587 17.8966L25.0177 8.98901C25.0329 8.97412 25.0389 8.95523 25.0523 8.93977C25.6342 9.31827 26.4058 9.62003 27.0186 9.68473L28.4712 9.83647C28.5557 9.84506 28.6439 9.84964 28.7345 9.84964C29.5517 9.84964 30.4984 9.49577 31.0371 8.98901L31.4669 8.58359C32.1777 7.9142 32.1777 6.82395 31.4669 6.15456Z" fill="#424242"/>
</svg>
