<svg width="32" height="31" viewBox="0 0 32 31" fill="none" xmlns="http://www.w3.org/2000/svg">
<path d="M26.0741 29.8264H5.92593C3.312 29.8264 1.18519 27.7202 1.18519 25.1318C1.18519 22.5433 3.312 20.4372 5.92593 20.4372H26.0741C28.688 20.4372 30.8148 22.5433 30.8148 25.1318C30.8148 27.7202 28.688 29.8264 26.0741 29.8264ZM4.40888 4.83706L6.19852 5.11228C6.15112 5.96259 6.2228 7.47716 7.21539 8.17548C8.14162 8.82744 8.83794 9.31744 8.7526 10.832C7.58046 10.6566 5.3434 10.3256 5.3434 10.3256C5.02044 10.2757 4.7206 10.497 4.67023 10.8156L3.85067 16.0348C3.81689 16.2484 3.90518 16.4632 4.0794 16.5929C4.12503 16.6275 5.21481 17.428 6.39763 17.0847C7.11941 16.8746 7.68356 16.3083 8.07763 15.4005L8.16001 15.3746L7.54904 19.2635H5.92593C4.36919 19.2635 2.95526 19.8656 1.8963 20.8415L4.40888 4.83706ZM21.9164 11.531C21.2118 7.64676 24.131 2.47862 26.3656 1.36131L29.8619 20.6238C28.8344 19.7752 27.5135 19.2635 26.0741 19.2635H23.0115L21.9164 11.531ZM31.1425 22.1073C31.2373 21.9817 31.2836 21.8209 31.2533 21.6548L27.411 0.483422C27.3831 0.329675 27.2954 0.194107 27.1662 0.10491C27.037 0.0162993 26.8776 -0.0183164 26.723 0.00926432C23.6237 0.560879 19.8809 6.94845 20.7467 11.7164L21.8145 19.2635H11.5502C11.5882 19.2301 11.6273 19.2031 11.6646 19.1644C12.2945 18.5012 11.9248 17.6099 11.6551 16.9591C11.5248 16.6439 11.3061 16.1164 11.4133 16.0037C11.5212 15.8905 12.0652 16.0747 12.3911 16.1845C13.0637 16.4121 13.9846 16.7238 14.6145 16.0601C15.245 15.3964 14.8759 14.505 14.6056 13.8542C14.4753 13.5391 14.2566 13.0115 14.3639 12.8982C14.4717 12.7838 15.0175 12.9687 15.344 13.0784C16.0166 13.3049 16.9375 13.6148 17.568 12.9523C18.1292 12.3613 17.7878 11.724 17.6041 11.3813C17.3221 10.8561 17.0791 10.4025 18.2145 9.31394C18.4504 9.0886 18.4563 8.71714 18.2287 8.48417C18.0006 8.25061 17.6255 8.24592 17.3908 8.47067C15.6148 10.1736 16.2281 11.3174 16.557 11.9318C16.5973 12.0069 16.6489 12.1025 16.6762 12.1671C16.5185 12.2351 16.0279 12.0691 15.7256 11.9675C15.053 11.7404 14.1315 11.43 13.5004 12.0943C12.8705 12.7574 13.2397 13.6488 13.5093 14.3002C13.6403 14.6153 13.859 15.1429 13.7511 15.2555C13.6421 15.3659 13.0993 15.1839 12.7739 15.0742C12.1013 14.8465 11.1798 14.5355 10.5499 15.1992C9.91939 15.8623 10.2892 16.7537 10.5588 17.4045C10.6892 17.7196 10.9079 18.2472 10.8012 18.3598C10.7028 18.4631 10.6572 18.4848 10.2163 18.3651C9.88444 18.2753 9.38135 18.1427 8.88712 18.3815L9.47792 14.617C9.50933 14.4158 9.43349 14.2127 9.27763 14.0807C9.12237 13.9481 8.90665 13.9064 8.71169 13.9674L7.44948 14.3671C7.27526 14.4222 7.13718 14.5543 7.07436 14.7239C6.81599 15.4204 6.47762 15.8353 6.06814 15.9574C5.71199 16.063 5.33391 15.9415 5.08325 15.8224L5.75052 11.5726C6.75556 11.7211 8.74963 12.0174 9.18281 12.0843C9.33807 12.1078 9.4969 12.0696 9.62312 11.9775C9.75053 11.886 9.83525 11.7481 9.85955 11.5943C10.2833 8.89436 8.96236 7.96541 7.90162 7.21897C7.31555 6.80585 7.32919 5.34878 7.42815 4.70738C7.47734 4.38756 7.2563 4.08768 6.93333 4.0378L4.00593 3.58711C3.85008 3.56305 3.69125 3.60179 3.56562 3.69333C3.43881 3.78488 3.35349 3.92279 3.3292 4.07654L0.32474 23.2123C0.323554 23.2181 0.326532 23.224 0.325347 23.2305C0.11794 23.8278 0 24.4657 0 25.1318C0 28.3675 2.65837 31 5.92593 31H26.0741C29.3416 31 32 28.3675 32 25.1318C32 24.0244 31.683 22.9916 31.1425 22.1073Z" fill="#424242"/>
<path d="M5.92593 26.3054C5.2723 26.3054 4.74074 25.779 4.74074 25.1318C4.74074 24.4845 5.2723 23.9581 5.92593 23.9581C6.57956 23.9581 7.11111 24.4845 7.11111 25.1318C7.11111 25.779 6.57956 26.3054 5.92593 26.3054ZM5.92593 22.7845C4.61867 22.7845 3.55556 23.8372 3.55556 25.1318C3.55556 26.4263 4.61867 27.4791 5.92593 27.4791C7.23319 27.4791 8.2963 26.4263 8.2963 25.1318C8.2963 23.8372 7.23319 22.7845 5.92593 22.7845Z" fill="#424242"/>
<path d="M26.0741 26.3054C25.4205 26.3054 24.8889 25.779 24.8889 25.1318C24.8889 24.4845 25.4205 23.9581 26.0741 23.9581C26.7277 23.9581 27.2593 24.4845 27.2593 25.1318C27.2593 25.779 26.7277 26.3054 26.0741 26.3054ZM26.0741 22.7845C24.7668 22.7845 23.7037 23.8372 23.7037 25.1318C23.7037 26.4263 24.7668 27.4791 26.0741 27.4791C27.3814 27.4791 28.4445 26.4263 28.4445 25.1318C28.4445 23.8372 27.3814 22.7845 26.0741 22.7845Z" fill="#424242"/>
</svg>
