<svg width="32" height="31" viewBox="0 0 32 31" fill="none" xmlns="http://www.w3.org/2000/svg">
<path d="M19.9212 4.94985C20.2154 4.90931 20.4367 4.66133 20.4446 4.37041C20.4452 4.33464 20.4549 4.09499 20.4622 3.90184C20.4683 3.7534 20.4726 3.62997 20.4726 3.6258C20.4726 2.96466 21.579 2.93128 21.8009 2.93128C22.0106 2.93128 22.2137 2.9623 22.4045 3.0237C22.714 3.12445 23.0477 2.96706 23.1626 2.66898C23.4368 1.95896 24.4362 1.19231 25.573 1.19231C26.8795 1.19231 27.9622 1.93093 27.9853 2.83947C27.9932 3.1298 28.2133 3.37304 28.5069 3.41417C29.6759 3.57812 30.4261 4.40559 30.451 5.07805C30.4814 5.88524 30.293 6.97677 28.3537 7.13952L20.3121 7.15384C18.6062 7.15384 18.5576 6.5577 18.5315 6.23697C18.4877 5.70102 18.619 5.12929 19.9212 4.94985ZM20.3121 8.34615H27.8667C27.8728 8.34615 27.8789 8.34615 27.885 8.34615L28.4236 8.32947C30.5872 8.14884 31.7386 6.97917 31.6663 5.03392C31.6207 3.82075 30.5446 2.69937 29.1385 2.32677C28.8224 0.989006 27.3585 0 25.573 0C24.0848 0 22.8562 0.845955 22.2678 1.77178C22.1146 1.74972 21.9583 1.73898 21.8009 1.73898C20.2792 1.73898 19.1655 2.49669 19.1661 3.60912L19.0652 3.85593C19.0652 3.85951 19.0652 3.86249 19.0652 3.86606C17.8494 4.20289 17.1266 5.08163 17.2287 6.33236C17.3375 7.66834 18.4354 8.34615 20.3121 8.34615Z" fill="#424242"/>
<path d="M30.6158 29.8077H23.3182C23.3359 29.571 23.2951 29.3206 23.1869 29.0732L20.6464 23.2494C20.678 23.2506 20.7066 23.2554 20.74 23.2554C21.5626 23.2554 21.9954 22.8315 22.3109 22.5221C22.5839 22.2556 22.717 22.1376 23.0228 22.1376C23.328 22.1376 23.4611 22.2556 23.7328 22.5215C24.0484 22.8309 24.4806 23.2554 25.3019 23.2554C26.1232 23.2554 26.5554 22.8309 26.8709 22.5215C26.894 22.4994 26.9092 22.4881 26.9299 22.4678L30.7306 29.6217C30.7829 29.7201 30.7872 29.7839 30.7981 29.7737C30.7866 29.7827 30.7294 29.8077 30.6158 29.8077ZM1.43541 29.8077C1.30836 29.8077 1.23845 29.7743 1.22447 29.7534C1.21048 29.7326 1.20684 29.6569 1.25669 29.5424L7.11281 16.1188C7.32193 16.1659 7.46419 16.2923 7.69459 16.5182C8.02652 16.8431 8.48125 17.2885 9.34147 17.2885C10.2017 17.2885 10.6564 16.8431 10.9883 16.5182C11.2874 16.2255 11.4339 16.0962 11.7768 16.0962C12.1185 16.0962 12.2644 16.2255 12.5622 16.5176C12.8942 16.8431 13.3483 17.2885 14.2079 17.2885C15.0669 17.2885 15.5192 16.8425 15.8505 16.5176C16.0469 16.3251 16.0639 16.2046 16.2238 16.1438L22.0689 29.5424C22.1188 29.6569 22.1152 29.7326 22.1012 29.7534C22.0872 29.7743 22.0173 29.8077 21.8902 29.8077H1.43541ZM11.6631 5.6885L15.783 15.1328C15.4596 15.2896 15.1696 15.4988 14.9903 15.6747C14.6924 15.9668 14.5489 16.0962 14.2079 16.0962C13.8662 16.0962 13.7203 15.9668 13.4218 15.6747C13.0905 15.3492 12.6364 14.9039 11.7768 14.9039C10.916 14.9039 10.4613 15.3492 10.1293 15.6741C9.83084 15.9668 9.68433 16.0962 9.34147 16.0962C8.9986 16.0962 8.85209 15.9668 8.5536 15.6741C8.32441 15.4499 8.0326 15.1709 7.59308 15.0177L11.6631 5.6885ZM22.9407 15.0445C22.9486 15.0296 22.9559 15.0165 22.9632 15.0046C22.9705 15.0165 22.9778 15.0296 22.9857 15.0445L26.35 21.3763C26.2229 21.477 26.1098 21.582 26.0113 21.6785C25.7396 21.945 25.6071 22.0631 25.3019 22.0631C24.9967 22.0631 24.8642 21.945 24.5924 21.6785C24.2769 21.3691 23.8447 20.9453 23.0228 20.9453C22.2009 20.9453 21.768 21.3691 21.4519 21.6785C21.1796 21.945 21.0464 22.0631 20.74 22.0631C20.4336 22.0631 20.3005 21.945 20.0282 21.6779L19.912 21.5665L19.6804 21.0347L22.9407 15.0445ZM31.8085 29.0709L24.0642 14.4937C23.8082 14.0126 23.4076 13.7366 22.9632 13.7366C22.5188 13.7366 22.1176 14.0126 21.8647 14.4883L19.067 19.629L12.7002 5.03454C12.3793 4.30008 11.868 4.22138 11.6631 4.22138C11.4576 4.22138 10.9464 4.30008 10.626 5.03454L0.138707 29.0732C-0.0685946 29.5478 -0.0424438 30.0354 0.209845 30.4104C0.462133 30.7848 0.908952 31 1.43541 31H30.6158C31.1519 31 31.5939 30.7824 31.8292 30.4027C32.0638 30.0223 32.0565 29.537 31.8085 29.0709Z" fill="#424242"/>
</svg>
