<svg width="22" height="32" viewBox="0 0 22 32" fill="none" xmlns="http://www.w3.org/2000/svg">
<path d="M11.5789 1.43848L15.6744 2.96266L11.5789 4.48683V1.43848ZM10.6677 5.81838C10.7667 5.8889 10.8825 5.92565 11 5.92565C11.0666 5.92565 11.1337 5.91379 11.198 5.89009L17.5664 3.51969C17.7951 3.43436 17.9474 3.21155 17.9474 2.96266C17.9474 2.71376 17.7951 2.49095 17.5664 2.40562L11.198 0.0352245C11.0203 -0.0299614 10.8228 -0.00388937 10.6677 0.106927C10.5131 0.217742 10.4211 0.399074 10.4211 0.592261V5.33305C10.4211 5.52624 10.5131 5.70757 10.6677 5.81838Z" fill="#424242"/>
<path d="M18.0904 19.0796L20.6956 30.8148H1.29626L3.91716 18.4283C4.03063 17.8908 3.79732 17.2307 3.37411 16.8917L1.39121 15.3053C1.28005 15.2164 1.15789 14.9592 1.15789 14.8146V8.29606H4.05263V10.6665C4.05263 11.3201 4.57195 11.8517 5.21053 11.8517H8.10526C8.74384 11.8517 9.26316 11.3201 9.26316 10.6665V8.29606H12.7368V10.6665C12.7368 11.3201 13.2562 11.8517 13.8947 11.8517H16.7895C17.4281 11.8517 17.9474 11.3201 17.9474 10.6665V8.29606H20.8421V14.8146C20.8421 14.9835 20.7188 15.2881 20.6024 15.4072L18.5263 17.5323C18.1581 17.9092 17.9746 18.5599 18.0904 19.0796ZM21.4211 16.2452C21.7568 15.9021 22 15.3 22 14.8146V8.29606C22 7.64242 21.4807 7.11086 20.8421 7.11086H17.9474C17.3088 7.11086 16.7895 7.64242 16.7895 8.29606V10.6665H13.8947V8.29606C13.8947 7.64242 13.3754 7.11086 12.7368 7.11086H9.26316C8.62458 7.11086 8.10526 7.64242 8.10526 8.29606V10.6665H5.21053V8.29606C5.21053 7.64242 4.69121 7.11086 4.05263 7.11086H1.15789C0.519316 7.11086 0 7.64242 0 8.29606V14.8146C0 15.3255 0.285419 15.9246 0.678525 16.2386L2.66084 17.8256C2.73726 17.8867 2.80616 18.0805 2.78531 18.1776L0.135472 30.7028C0.065998 31.0305 0.138949 31.3612 0.334633 31.6095C0.530317 31.8578 0.83021 32 1.15789 32H20.8421C21.1709 32 21.4714 31.8566 21.6659 31.6071C21.8605 31.3576 21.9299 31.0258 21.857 30.698L19.2193 18.8164C19.1927 18.6979 19.261 18.4562 19.3449 18.3702L21.4211 16.2452Z" fill="#424242"/>
<path d="M12.7351 24.2962H9.26317V21.9258C9.26317 21.7569 9.38648 21.4523 9.50285 21.3332L11 19.8008L12.4972 21.3332C12.6135 21.4523 12.7369 21.7569 12.7369 21.9258L12.7351 24.2962ZM11.8186 18.9628C11.3821 18.516 10.6179 18.516 10.1814 18.9628L8.68422 20.4953C8.34843 20.8384 8.10527 21.4405 8.10527 21.9258V24.2962C8.10527 24.9498 8.62459 25.4814 9.26317 25.4814H12.7369C13.3754 25.4814 13.8947 24.9498 13.8947 24.2962V21.9258C13.8947 21.4405 13.6516 20.8384 13.3158 20.4953L11.8186 18.9628Z" fill="#424242"/>
</svg>
