<svg width="23" height="32" viewBox="0 0 23 32" fill="none" xmlns="http://www.w3.org/2000/svg">
<path d="M9.07898 23.1884H13.921V24.3633H9.07898V23.1884ZM11.5 1.33779L13.0815 3.63995C13.1118 3.6846 13.1427 3.74098 13.1717 3.80325H9.82828C9.85733 3.74098 9.88821 3.68458 9.91847 3.64053L11.5 1.33779ZM8.66195 22.0506C8.61413 22.0353 8.56452 22.0247 8.51247 22.0212L9.60979 4.9781H13.3908L14.5009 22.0136L8.66195 22.0506ZM22.8225 30.9971L21.612 29.8223C21.4988 29.7118 21.3451 29.6501 21.1841 29.6501H17.4327L16.3281 24.8232C16.2658 24.5548 16.0207 24.3633 15.7368 24.3633H15.1315V23.021C15.2229 22.9675 15.3095 22.907 15.3833 22.8313C15.603 22.6039 15.718 22.2932 15.698 21.9777L14.5632 4.35307C14.536 3.92953 14.332 3.34269 14.0887 2.98847L12.3395 0.44196C11.9352 -0.147231 11.0648 -0.147218 10.6605 0.441387L8.91132 2.98908C8.66801 3.34271 8.46404 3.92953 8.43681 4.35307L7.30195 21.9783C7.28198 22.2932 7.39696 22.6039 7.61667 22.8313C7.69051 22.907 7.77707 22.9675 7.86847 23.021V24.3633H7.26321C6.97934 24.3633 6.73422 24.5548 6.67187 24.8232L5.56728 29.6501H1.81591C1.65491 29.6501 1.50119 29.7118 1.388 29.8223L0.177491 30.9971C-0.0591638 31.2268 -0.0591638 31.5981 0.177491 31.8277C0.414146 32.0574 0.796647 32.0574 1.0333 31.8277L2.06649 30.825H6.0527C6.33656 30.825 6.58169 30.6335 6.64403 30.365L7.74863 25.5381H15.2514L16.356 30.365C16.4183 30.6335 16.6634 30.825 16.9473 30.825H20.9335L21.9667 31.8277C22.0847 31.9423 22.2397 31.9999 22.3946 31.9999C22.5495 31.9999 22.7045 31.9423 22.8225 31.8277C23.0592 31.5981 23.0592 31.2268 22.8225 30.9971Z" fill="#424242"/>
<path d="M12.7087 29.0627H10.2895V27.8879H12.7105L12.7087 29.0627ZM12.7105 26.713H10.2895C9.62189 26.713 9.07898 27.2399 9.07898 27.8879V29.0627C9.07898 29.7106 9.62189 30.2376 10.2895 30.2376H12.7105C13.3781 30.2376 13.921 29.7106 13.921 29.0627V27.8879C13.921 27.2399 13.3781 26.713 12.7105 26.713Z" fill="#424242"/>
</svg>
