<svg width="32" height="31" viewBox="0 0 32 31" fill="none" xmlns="http://www.w3.org/2000/svg">
<path d="M15.9999 23.609C11.3847 23.609 7.62949 19.9711 7.62949 15.5C7.62949 11.0289 11.3847 7.39102 15.9999 7.39102C20.6152 7.39102 24.3704 11.0289 24.3704 15.5C24.3704 19.9711 20.6152 23.609 15.9999 23.609ZM15.9999 6.20332C10.7086 6.20332 6.4035 10.3739 6.4035 15.5C6.4035 20.6261 10.7086 24.7967 15.9999 24.7967C21.2913 24.7967 25.5964 20.6261 25.5964 15.5C25.5964 10.3739 21.2913 6.20332 15.9999 6.20332Z" fill="#424242"/>
<path d="M13.6657 9.58883C11.8071 10.2783 10.3463 11.7885 9.75904 13.6288C9.65912 13.9417 9.83996 14.2743 10.1636 14.3717C10.2237 14.3895 10.285 14.3984 10.3451 14.3984C10.6068 14.3984 10.849 14.2345 10.9305 13.9792C11.4074 12.4844 12.5935 11.2576 14.104 10.6981C14.4197 10.5806 14.5784 10.2373 14.457 9.93148C14.3363 9.62446 13.9814 9.47244 13.6657 9.58883Z" fill="#424242"/>
<path d="M30.1025 15.8925C29.4092 16.2108 28.7257 16.5137 28.0508 16.8029C27.208 17.1646 26.6213 17.7923 26.4417 18.5257C26.2744 19.2098 26.4644 19.9188 26.9787 20.5245C27.4213 21.0412 27.8718 21.5584 28.3316 22.0786C28.6142 22.3957 28.643 22.5864 28.6393 22.6113C28.6203 22.6345 28.4732 22.7224 28.106 22.7224C28.0214 22.7224 27.9319 22.7182 27.8375 22.7087C27.105 22.6381 26.3829 22.5608 25.6706 22.4789C24.6996 22.3667 23.8739 22.6571 23.3491 23.2557C22.909 23.7575 22.7343 24.4333 22.8581 25.1607C22.9715 25.8223 23.0947 26.4886 23.2284 27.1626C23.3124 27.5777 23.2523 27.7724 23.2351 27.7891C23.1236 27.7891 22.8912 27.7107 22.5762 27.4916C21.9834 27.0783 21.3974 26.6626 20.8193 26.2463C20.3019 25.8739 19.7325 25.6774 19.1728 25.6774C18.1969 25.6774 17.3749 26.2843 17.0267 27.2641C16.7974 27.9197 16.5792 28.5872 16.3757 29.2523C16.2703 29.611 16.1452 29.7648 16.0907 29.8064C16.0147 29.7725 15.816 29.6116 15.5947 29.1621C15.2662 28.4904 14.9536 27.8283 14.655 27.1744C14.1928 26.1625 13.3402 25.5586 12.3747 25.5586C11.8267 25.5586 11.2878 25.7575 10.8134 26.1358C10.2801 26.5646 9.74677 27.0011 9.20918 27.4458C8.94927 27.6638 8.75127 27.741 8.65932 27.7445C8.62377 27.7178 8.50363 27.5064 8.55879 26.9678C8.63174 26.2581 8.71142 25.5586 8.79602 24.8685C8.8941 24.0686 8.68629 23.3435 8.21244 22.8263C7.69324 22.2604 6.92516 22.0008 6.02774 22.144C5.34486 22.2538 4.65708 22.3732 3.96133 22.5026C3.81544 22.53 3.68363 22.5442 3.569 22.5442C3.40166 22.5442 3.32688 22.5169 3.31462 22.5199C3.30849 22.4557 3.35078 22.236 3.62173 21.8708C4.04837 21.2965 4.47747 20.7288 4.90718 20.1688C5.446 19.4663 5.625 18.6557 5.39757 17.9443C5.1818 17.2691 4.63561 16.7548 3.8565 16.4947C3.17975 16.2726 2.49074 16.0612 1.80419 15.864C1.3898 15.75 1.24085 15.6116 1.22491 15.6057C1.23778 15.5511 1.38796 15.3426 1.89736 15.1075C2.59066 14.7892 3.27415 14.4863 3.94906 14.1971C4.79193 13.8354 5.37795 13.2083 5.55817 12.4749C5.72552 11.7908 5.5361 11.0818 5.02119 10.4749C4.57922 9.9588 4.12806 9.44217 3.66832 8.92137C3.38573 8.60366 3.35691 8.41302 3.36059 8.38868C3.37959 8.36552 3.5261 8.27704 3.89328 8.27704C3.97787 8.27704 4.06798 8.28178 4.16238 8.29128C4.89491 8.36194 5.61702 8.43915 6.32932 8.5211C7.29786 8.63156 8.12541 8.34294 8.65074 7.74435C9.09088 7.24254 9.26557 6.56674 9.14235 5.83928C9.02834 5.17773 8.90514 4.51144 8.7715 3.83742C8.68752 3.42232 8.74759 3.22755 8.76475 3.21092C8.87632 3.21092 9.10864 3.2893 9.42372 3.50843C10.0165 3.92174 10.6025 4.33745 11.1806 4.75374C11.6973 5.12608 12.2668 5.32265 12.8271 5.32265C13.803 5.32265 14.625 4.71572 14.9732 3.73588C15.2024 3.08027 15.4207 2.41278 15.6242 1.74767C15.7419 1.34623 15.8853 1.20195 15.8908 1.18651C15.9472 1.19898 16.1624 1.34445 16.4051 1.83794C16.7337 2.50958 17.0463 3.17173 17.3448 3.82556C17.807 4.83748 18.6597 5.44142 19.6252 5.44142C20.1726 5.44142 20.712 5.24247 21.1865 4.86419C21.7198 4.43602 22.2537 3.99896 22.7907 3.55357C23.0506 3.33623 23.2486 3.25902 23.3406 3.25546C23.3761 3.28218 23.4963 3.4936 23.4411 4.03222C23.3681 4.74187 23.2885 5.44142 23.2039 6.13148C23.1058 6.93079 23.313 7.65647 23.7874 8.17312C24.306 8.73905 25.0735 8.99796 25.9721 8.85662C26.655 8.74616 27.3428 8.62681 28.0386 8.49735C28.1844 8.47004 28.3169 8.45577 28.4309 8.45577C28.5982 8.45518 28.6724 8.48132 28.6853 8.48013C28.6914 8.54427 28.6491 8.764 28.3782 9.12922C27.9515 9.70347 27.5224 10.2712 27.0927 10.8312C26.5539 11.5337 26.3749 12.3443 26.6023 13.0557C26.8175 13.7309 27.3643 14.2452 28.1434 14.5053C28.8201 14.7274 29.5091 14.9388 30.1957 15.136C30.6101 15.25 30.759 15.389 30.775 15.3943C30.7621 15.4489 30.6119 15.6574 30.1025 15.8925ZM31.9961 15.3094C31.9654 14.9608 31.7349 14.326 30.5377 13.9952C29.8714 13.8046 29.1983 13.5973 28.5394 13.3811C28.1366 13.2469 27.8718 13.013 27.7737 12.7042C27.6628 12.3591 27.7737 11.9345 28.0766 11.5396C28.51 10.9755 28.9421 10.403 29.373 9.82281C30.0498 8.91007 29.9677 8.29426 29.7789 7.93795C29.6464 7.68735 29.2952 7.26808 28.4309 7.26808C28.2378 7.26808 28.0269 7.28948 27.805 7.33164C27.1215 7.45872 26.4435 7.5763 25.7723 7.68438C25.326 7.75505 24.946 7.64875 24.7039 7.38389C24.4654 7.12438 24.3649 6.72946 24.4213 6.27101C24.5065 5.57442 24.5874 4.86775 24.661 4.15038C24.737 3.41282 24.596 2.82909 24.2533 2.46209C23.731 1.90269 22.8312 1.95138 21.9914 2.65271C21.4611 3.09216 20.9321 3.52566 20.4061 3.94848C19.7067 4.50551 18.8718 4.23173 18.466 3.34512C18.1632 2.68179 17.8463 2.01015 17.5122 1.32723C16.9709 0.23039 16.3365 0 15.8994 0C15.588 0 14.823 0.138343 14.4466 1.4163C14.2498 2.06182 14.0359 2.71387 13.8128 3.35225C13.6332 3.85702 13.2831 4.13495 12.8271 4.13495C12.5322 4.13495 12.2159 4.01916 11.9119 3.80062C11.3295 3.38077 10.7386 2.9621 10.1397 2.54403C9.19323 1.88546 8.30623 1.87595 7.8281 2.43773C7.61109 2.69309 7.39042 3.183 7.56819 4.06368C7.69937 4.72582 7.82074 5.38262 7.9323 6.03289C7.99728 6.41414 7.92251 6.74017 7.71654 6.97533C7.4597 7.2681 7.00853 7.40527 6.47338 7.34173C5.75434 7.25919 5.02486 7.18079 4.28436 7.10953C2.90635 6.97532 2.40554 7.5573 2.24861 7.88985C2.10394 8.19628 1.97521 8.8382 2.73839 9.69572C3.19201 10.2094 3.6395 10.7219 4.07595 11.2314C4.34322 11.5462 4.44313 11.8817 4.36528 12.2006C4.27517 12.5694 3.94232 12.9013 3.45315 13.111C2.76844 13.4043 2.07514 13.7113 1.3702 14.035C0.107426 14.6193 -0.027435 15.323 0.00382776 15.6906C0.0344775 16.0392 0.264966 16.674 1.46215 17.0048C2.12847 17.1954 2.80153 17.4027 3.45989 17.6189C3.86324 17.7531 4.12805 17.987 4.22613 18.2958C4.33647 18.6409 4.22614 19.0655 3.92332 19.4604C3.48993 20.0245 3.05777 20.597 2.62684 21.1772C1.95009 22.0899 2.03222 22.7057 2.22103 23.062C2.35343 23.3126 2.70529 23.7319 3.569 23.7319C3.7621 23.7319 3.97297 23.7105 4.19487 23.6684C4.87836 23.5413 5.55634 23.4237 6.22757 23.3156C6.67383 23.2438 7.05327 23.3507 7.29602 23.6155C7.53386 23.875 7.6344 24.2705 7.57862 24.729C7.49341 25.4256 7.41249 26.1323 7.33893 26.8496C7.26291 27.5872 7.40391 28.1709 7.74658 28.5379C8.26885 29.0967 9.16811 29.048 10.0085 28.3473C10.5388 27.9078 11.0678 27.4743 11.5943 27.0515C12.2931 26.4945 13.1287 26.7683 13.5339 27.6549C13.8367 28.3182 14.1536 28.9898 14.4877 29.6728C15.029 30.7696 15.6634 31 16.1005 31C16.4119 31 17.1769 30.8617 17.5533 29.5837C17.75 28.9382 17.964 28.2861 18.1871 27.6477C18.3667 27.143 18.7167 26.865 19.1728 26.865C19.467 26.865 19.784 26.9808 20.088 27.1994C20.6703 27.6192 21.2613 28.0379 21.8602 28.4554C22.8066 29.1152 23.6936 29.1246 24.1712 28.5623C24.3882 28.3069 24.6095 27.8176 24.4317 26.9363C24.3005 26.2742 24.1791 25.6174 24.0676 24.9671C24.0026 24.5859 24.0774 24.2598 24.2833 24.0247C24.5402 23.7325 24.9938 23.5983 25.5265 23.6583C26.2455 23.7408 26.975 23.8192 27.7155 23.8905C29.0954 24.0259 29.5943 23.4427 29.7513 23.1101C29.8959 22.8037 30.0247 22.1618 29.2615 21.3043C28.8079 20.7906 28.3604 20.2781 27.9239 19.7686C27.6567 19.4532 27.5567 19.1183 27.6346 18.8C27.7247 18.4312 28.0576 18.0993 28.5467 17.889C29.2314 17.5957 29.9241 17.2887 30.6297 16.965C31.8925 16.3807 32.0279 15.677 31.9961 15.3094Z" fill="#424242"/>
</svg>
