<svg width="32" height="31" viewBox="0 0 32 31" fill="none" xmlns="http://www.w3.org/2000/svg">
<path d="M24.8154 15.7863L20.5581 8.98371C20.5724 8.96696 20.5904 8.95439 20.6047 8.93645L23.0608 5.78913C23.0823 5.76161 23.0967 5.72991 23.1164 5.70179C23.9674 5.89323 26.2146 6.40054 28.1925 6.85579C27.9711 7.48514 27.1476 9.53709 25.2068 11.5956C24.9806 11.8361 24.992 12.2148 25.2326 12.4415C25.3481 12.5504 25.4953 12.6042 25.6425 12.6042C25.8017 12.6042 25.9609 12.5414 26.0788 12.4164C28.3014 10.0575 29.1715 7.71486 29.3654 7.12739C29.8304 7.23568 30.2589 7.33616 30.609 7.41991C28.8262 12.0485 25.9615 14.8135 24.8154 15.7863ZM18.8208 8.30412L15.1128 5.41223C14.9877 5.31471 14.9081 5.17355 14.8884 5.01382C14.8686 4.85409 14.9117 4.69795 15.0093 4.57291L17.4653 1.42499C17.579 1.27962 17.7514 1.19647 17.9393 1.19647C18.0332 1.19647 18.1727 1.218 18.3055 1.32149L22.0135 4.21339C22.1386 4.3109 22.2182 4.45266 22.2379 4.61179C22.2577 4.77152 22.2146 4.92827 22.117 5.0527L19.6604 8.20063C19.5473 8.346 19.3743 8.42914 19.1864 8.42914C19.0931 8.42914 18.9536 8.40762 18.8208 8.30412ZM11.2959 16.823C11.0314 17.1622 10.5933 17.6258 10.0852 18.1625C8.03375 20.3323 4.59986 23.9635 4.6992 27.8371C4.70997 28.2744 4.54659 28.8996 4.37782 29.4111L1.24614 26.8632C1.39096 26.1411 1.88409 24.2537 3.37243 22.1126C4.20308 20.9173 5.49871 19.4732 6.87096 17.9447C8.16001 16.5089 9.49216 15.0241 10.7046 13.4711C12.3958 11.3037 12.3605 9.98575 12.1373 9.33666L14.4593 6.42026L17.5401 8.82279L11.2959 16.823ZM31.9286 6.7152C31.8496 6.56744 31.7114 6.45976 31.5486 6.41848C30.0854 6.04817 24.9315 4.884 23.4276 4.5454C23.4252 4.51848 23.4288 4.49216 23.4252 4.46524C23.3666 3.98845 23.1266 3.5643 22.7496 3.26997L19.0416 0.378075C18.7286 0.133994 18.3372 0 17.9393 0C17.3803 0 16.8638 0.25126 16.5215 0.689169L14.0655 3.83648C13.7711 4.21337 13.6418 4.68358 13.7005 5.16037C13.71 5.23874 13.7322 5.31352 13.7513 5.3883L10.9614 8.89099C10.7758 9.12431 10.7651 9.42938 10.9697 9.64595C10.9751 9.65372 11.5185 10.4823 9.76087 12.7347C8.57414 14.2554 7.25517 15.7246 5.98047 17.1455C4.5825 18.7027 3.26232 20.1737 2.38978 21.4294C0.325134 24.3997 0.0163278 26.9332 0.00376039 27.0397C-0.0189806 27.2425 0.0624159 27.4429 0.221005 27.5715L4.2695 30.8654C4.37722 30.9533 4.51068 31 4.64713 31C4.695 31 4.74287 30.994 4.79015 30.9826C4.97268 30.9378 5.12289 30.8104 5.1971 30.6375C5.27131 30.464 5.92362 28.9086 5.8955 27.8066C5.80872 24.4272 9.03016 21.0202 10.9554 18.9844C11.4838 18.4251 11.9404 17.9429 12.2402 17.5588L18.5323 9.497C18.74 9.57836 18.9614 9.62562 19.1864 9.62562C19.3019 9.62562 19.4138 9.60887 19.5246 9.58793L24.1565 16.9887C24.2433 17.1281 24.384 17.2256 24.5449 17.2579C24.5844 17.2657 24.6239 17.2699 24.6634 17.2699C24.7861 17.2699 24.9064 17.2322 25.0075 17.161C25.1954 17.0288 29.6294 13.8534 31.9663 7.19619C32.022 7.03765 32.0082 6.86297 31.9286 6.7152Z" fill="#424242"/>
</svg>
