<svg width="32" height="32" viewBox="0 0 32 32" fill="none" xmlns="http://www.w3.org/2000/svg">
<path d="M15.2113 30.508L14.698 30.6829C14.4578 30.7647 14.1978 30.8059 13.9277 30.8059C12.9424 30.8059 11.9818 30.2698 11.5406 29.4763L1.37971 10.7359C1.86661 10.4386 2.80502 9.99799 4.08743 9.99799C4.39362 9.99799 4.70821 10.0231 5.02221 10.0726C7.06711 10.3962 9.61093 9.44751 10.7877 7.97103C11.606 6.94532 12.7161 6.23128 13.6209 6.13097L16.9644 27.6255C17.1481 28.8035 16.3448 30.1229 15.2113 30.508ZM14.7712 5.71722L14.7142 5.42648C14.6649 5.17513 14.4602 4.98287 14.2051 4.94824C12.8326 4.76614 11.0717 5.69334 9.84688 7.22952C8.94511 8.35971 6.80415 9.1454 5.20954 8.89285C4.8337 8.83375 4.45606 8.80391 4.08743 8.80391C1.6787 8.80391 0.256396 10.0607 0.197559 10.1138C-0.00717089 10.2983 -0.0594093 10.598 0.0720741 10.8398L10.4863 30.0489C11.1359 31.2161 12.5186 32 13.9277 32C14.3305 32 14.7208 31.9373 15.0864 31.8131L15.5997 31.6382C17.2778 31.0674 18.4227 29.1861 18.1508 27.4434L14.7712 5.71722Z" fill="#424242"/>
<path d="M14.791 27.6166C14.7076 28.1169 14.5064 28.4673 14.2525 28.5533C13.6923 28.7456 12.6254 27.8118 12.0773 26.2177C11.8077 25.4344 11.7147 24.6206 11.8209 23.983C11.9044 23.4827 12.1061 23.1328 12.3589 23.0462C12.4075 23.0301 12.4573 23.0223 12.5114 23.0223C13.0943 23.0223 14.0339 23.9245 14.5347 25.3824C14.8036 26.1658 14.8973 26.9801 14.791 27.6166ZM12.5114 21.8283C12.3252 21.8283 12.1433 21.8581 11.971 21.9166C11.2722 22.1543 10.7979 22.8187 10.6364 23.7877C10.4965 24.6254 10.6046 25.626 10.9408 26.604C11.5826 28.4691 12.8818 29.7718 14.1 29.7718C14.2861 29.7718 14.4686 29.742 14.6409 29.6835C15.3398 29.4459 15.8135 28.7814 15.9756 27.8124C16.1155 26.9747 16.0074 25.9741 15.6712 24.9962C15.03 23.131 13.7307 21.8283 12.5114 21.8283Z" fill="#424242"/>
<path d="M6.20736 12.5336C6.05907 12.2387 5.69884 12.1187 5.40226 12.2667C5.10507 12.4142 4.98499 12.7724 5.13329 13.0679L8.81603 20.3912C8.9211 20.6002 9.13303 20.7208 9.35337 20.7208C9.44342 20.7208 9.53528 20.7011 9.62113 20.6581C9.91832 20.5106 10.0384 20.1518 9.8901 19.8569L6.20736 12.5336Z" fill="#424242"/>
<path d="M13.2126 19.3034C13.2493 19.3034 13.2865 19.3004 13.3243 19.2933C13.6503 19.2324 13.8646 18.9201 13.8034 18.5959L12.2592 10.4458C12.1974 10.1216 11.884 9.90843 11.558 9.96933C11.232 10.0308 11.0176 10.3431 11.0789 10.6666L12.6231 18.8168C12.6777 19.104 12.9292 19.3034 13.2126 19.3034Z" fill="#424242"/>
<path d="M26.3303 22.5644C26.092 23.7203 24.9284 24.6606 23.7355 24.6606L23.1357 24.6457C21.9379 24.614 20.7756 23.5931 20.5967 22.4152L17.3853 1.25675C17.6164 1.22332 17.9166 1.19407 18.266 1.19407C19.3401 1.19407 20.3541 1.45678 21.2799 1.975C22.1601 2.46756 23.2726 2.73862 24.4133 2.73862C25.5462 2.73862 26.6425 2.46933 27.42 2.00066C28.5253 1.33496 29.8396 1.03885 30.7203 1.25617L26.3303 22.5644ZM31.6821 0.350468C30.4688 -0.293138 28.4593 -0.0215131 26.798 0.979718C26.2025 1.33854 25.3331 1.54454 24.4133 1.54454C23.4755 1.54454 22.5719 1.32782 21.8689 0.933774C20.7768 0.323005 19.531 0 18.266 0C17.2478 0 16.5579 0.20836 16.5291 0.217913C16.2457 0.30508 16.0692 0.585093 16.113 0.877044L19.4097 22.5931C19.6739 24.337 21.3316 25.7932 23.1039 25.8392L23.7355 25.8547C25.4976 25.8547 27.1546 24.5143 27.5065 22.8038L31.9439 1.2657L31.9919 0.974354C32.034 0.721808 31.9091 0.470472 31.6821 0.350468Z" fill="#424242"/>
<path d="M23.4251 22.4928C22.8841 22.4677 22.1943 21.3453 22.2417 19.5524C22.2886 17.7708 23.0673 16.677 23.616 16.677C24.1588 16.6914 24.8558 17.818 24.8084 19.6198C24.7615 21.3913 24.0237 22.4808 23.4251 22.4928ZM23.6046 15.4585C22.2039 15.4585 21.1022 17.1708 21.0416 19.4729C20.9797 21.8115 22.0076 23.5919 23.4323 23.5919C23.4377 23.5919 23.4695 23.5919 23.4749 23.5919C24.8756 23.5919 25.9779 21.8928 26.0385 19.5906C26.0998 17.2514 25.0725 15.4961 23.6046 15.4585Z" fill="#424242"/>
<path d="M21.7843 13.7832C21.8125 13.7832 21.8407 13.7814 21.8695 13.7778C22.1979 13.7313 22.4261 13.4292 22.3798 13.1026L21.1791 4.65928C21.1322 4.33211 20.8242 4.10223 20.5006 4.15119C20.1722 4.19776 19.9435 4.49986 19.9897 4.82644L21.1905 13.2697C21.2331 13.5683 21.4901 13.7832 21.7843 13.7832Z" fill="#424242"/>
<path d="M27.3822 4.07C27.0574 4.01448 26.7434 4.22583 26.684 4.55002L25.0539 13.4202C24.9945 13.745 25.2106 14.0554 25.5372 14.1152C25.5733 14.1217 25.6099 14.1247 25.6453 14.1247C25.9299 14.1247 26.1826 13.9229 26.2355 13.6351L27.8655 4.76435C27.9249 4.44016 27.7088 4.12971 27.3822 4.07Z" fill="#424242"/>
</svg>
