<svg width="32" height="32" viewBox="0 0 32 32" fill="none" xmlns="http://www.w3.org/2000/svg">
<path d="M29.037 30.8148H2.96296C1.98264 30.8148 1.18519 30.0172 1.18519 29.037V17.7778H30.8148V29.037C30.8148 30.0172 30.0172 30.8148 29.037 30.8148ZM2.96296 2.96296H13.7139C13.9787 3.98281 14.8988 4.74074 16 4.74074C17.1012 4.74074 18.0213 3.98281 18.2861 2.96296H29.037C30.0172 2.96296 30.8148 3.76059 30.8148 4.74074V16.5926H1.18519V4.74074C1.18519 3.76059 1.98264 2.96296 2.96296 2.96296ZM16 1.18519C16.6537 1.18519 17.1852 1.71674 17.1852 2.37037C17.1852 3.024 16.6537 3.55556 16 3.55556C15.3463 3.55556 14.8148 3.024 14.8148 2.37037C14.8148 1.71674 15.3463 1.18519 16 1.18519ZM29.037 1.77778H18.2861C18.0213 0.757926 17.1012 0 16 0C14.8988 0 13.9787 0.757926 13.7139 1.77778H2.96296C1.32942 1.77778 0 3.10696 0 4.74074V29.037C0 30.6708 1.32942 32 2.96296 32H29.037C30.6708 32 32 30.6708 32 29.037V4.74074C32 3.10696 30.6708 1.77778 29.037 1.77778Z" fill="#424242"/>
<path d="M8.29631 21.3333C7.96902 21.3333 7.70371 21.5982 7.70371 21.9259V23.7037H5.92594V21.9259C5.92594 21.5982 5.66063 21.3333 5.33334 21.3333C5.00605 21.3333 4.74075 21.5982 4.74075 21.9259V26.6667C4.74075 26.9944 5.00605 27.2593 5.33334 27.2593C5.66063 27.2593 5.92594 26.9944 5.92594 26.6667V24.8889H7.70371V26.6667C7.70371 26.9944 7.96902 27.2593 8.29631 27.2593C8.62359 27.2593 8.8889 26.9944 8.8889 26.6667V21.9259C8.8889 21.5982 8.62359 21.3333 8.29631 21.3333Z" fill="#424242"/>
<path d="M22.5185 22.5185C22.8456 22.5185 23.1111 22.2536 23.1111 21.9259C23.1111 21.5982 22.8456 21.3333 22.5185 21.3333H20.7407C20.4134 21.3333 20.1481 21.5982 20.1481 21.9259V26.6667C20.1481 26.9944 20.4134 27.2593 20.7407 27.2593H22.5185C22.8456 27.2593 23.1111 26.9944 23.1111 26.6667C23.1111 26.339 22.8456 26.0741 22.5185 26.0741H21.3333V24.8889H22.5185C22.8456 24.8889 23.1111 24.624 23.1111 24.2963C23.1111 23.9686 22.8456 23.7037 22.5185 23.7037H21.3333V22.5185H22.5185Z" fill="#424242"/>
<path d="M27.2593 26.0741H26.0741V21.9259C26.0741 21.5982 25.8086 21.3333 25.4815 21.3333C25.1544 21.3333 24.8889 21.5982 24.8889 21.9259V26.6667C24.8889 26.9944 25.1544 27.2593 25.4815 27.2593H27.2593C27.5864 27.2593 27.8519 26.9944 27.8519 26.6667C27.8519 26.339 27.5864 26.0741 27.2593 26.0741Z" fill="#424242"/>
<path d="M18.3704 21.3333H16C15.6727 21.3333 15.4074 21.5982 15.4074 21.9259C15.4074 22.2536 15.6727 22.5185 16 22.5185H16.5926V26.6667C16.5926 26.9944 16.8579 27.2593 17.1852 27.2593C17.5125 27.2593 17.7778 26.9944 17.7778 26.6667V22.5185H18.3704C18.6976 22.5185 18.9629 22.2536 18.9629 21.9259C18.9629 21.5982 18.6976 21.3333 18.3704 21.3333Z" fill="#424242"/>
<path d="M12.4444 26.0741C11.7465 26.0741 11.2592 25.3434 11.2592 24.2963C11.2592 23.2166 11.7245 22.5185 12.4444 22.5185C13.1643 22.5185 13.6296 23.2166 13.6296 24.2963C13.6296 25.3434 13.1423 26.0741 12.4444 26.0741ZM12.4444 21.3333C11.3025 21.3333 10.0741 22.2601 10.0741 24.2963C10.0741 26.2412 11.2664 27.2593 12.4444 27.2593C13.6224 27.2593 14.8148 26.2412 14.8148 24.2963C14.8148 22.2601 13.5864 21.3333 12.4444 21.3333Z" fill="#424242"/>
<path d="M14.0794 9.50814L15.0511 9.86547L14.4639 10.6542C14.2685 10.9167 14.3229 11.2883 14.5854 11.4833C14.6919 11.5627 14.8158 11.6006 14.9387 11.6006C15.1197 11.6006 15.2984 11.5182 15.4146 11.3618L16.0002 10.5748L16.5806 11.3541C16.6968 11.5105 16.8753 11.5929 17.056 11.5929C17.1791 11.5929 17.3032 11.5544 17.4095 11.4749C17.672 11.2794 17.7264 10.9084 17.5306 10.6459L16.9493 9.86488L17.9206 9.50814C18.2278 9.39495 18.3852 9.05481 18.2722 8.74785C18.1597 8.4403 17.8192 8.28325 17.5116 8.39584L16.5926 8.73361V7.7037C16.5926 7.37599 16.3273 7.1111 16 7.1111C15.6727 7.1111 15.4074 7.37599 15.4074 7.7037V8.73361L14.4884 8.39584C14.1803 8.28206 13.8405 8.4397 13.7278 8.74785C13.6148 9.05481 13.7722 9.39495 14.0794 9.50814Z" fill="#424242"/>
<path d="M19.4127 10.1007L20.3845 10.4581L19.7972 11.2468C19.6018 11.5093 19.6562 11.8809 19.9188 12.0759C20.0252 12.1553 20.1491 12.1932 20.272 12.1932C20.453 12.1932 20.6317 12.1108 20.7479 11.9544L21.3336 11.1674L21.9139 11.9467C22.0302 12.1031 22.2086 12.1855 22.3893 12.1855C22.5126 12.1855 22.6364 12.147 22.7425 12.0676C23.005 11.872 23.0596 11.501 22.864 11.2385L22.2827 10.4575L23.2539 10.1007C23.5609 9.98756 23.7185 9.64742 23.6053 9.34046C23.4933 9.03231 23.1526 8.87645 22.845 8.98845L21.9259 9.32623V8.29631C21.9259 7.9686 21.6606 7.70371 21.3333 7.70371C21.006 7.70371 20.7407 7.9686 20.7407 8.29631V9.32623L19.8218 8.98845C19.5137 8.87586 19.1739 9.03231 19.0611 9.34046C18.9482 9.64742 19.1055 9.98756 19.4127 10.1007Z" fill="#424242"/>
<path d="M24.7461 11.2859L25.7179 11.6432L25.1307 12.432C24.9351 12.6945 24.9896 13.0661 25.2521 13.261C25.3582 13.3404 25.4821 13.3784 25.6053 13.3784C25.7867 13.3784 25.965 13.296 26.0812 13.1395L26.6667 12.3526L27.2468 13.1318C27.3636 13.2883 27.5419 13.3707 27.7227 13.3707C27.8459 13.3707 27.9698 13.3321 28.0759 13.2527C28.3384 13.0572 28.3929 12.6862 28.1973 12.4237L27.616 11.6427L28.5873 11.2859C28.8942 11.1727 29.0518 10.8326 28.9387 10.5256C28.8267 10.2175 28.4859 10.061 28.1784 10.1736L27.2593 10.5114V9.48147C27.2593 9.15377 26.9938 8.88888 26.6667 8.88888C26.3396 8.88888 26.0741 9.15377 26.0741 9.48147V10.5114L25.155 10.1736C24.8468 10.0604 24.5073 10.2175 24.3947 10.5256C24.2815 10.8326 24.4391 11.1727 24.7461 11.2859Z" fill="#424242"/>
<path d="M3.41274 11.2859L4.38447 11.6432L3.79722 12.432C3.60184 12.6945 3.65624 13.0661 3.91876 13.261C4.02525 13.3404 4.1491 13.3784 4.272 13.3784C4.45304 13.3784 4.6317 13.296 4.74791 13.1395L5.33357 12.3526L5.9139 13.1318C6.03011 13.2883 6.20859 13.3707 6.38934 13.3707C6.51248 13.3707 6.63656 13.3321 6.74281 13.2527C7.00533 13.0572 7.05974 12.6862 6.86388 12.4237L6.28267 11.6427L7.25393 11.2859C7.56113 11.1727 7.71852 10.8326 7.60557 10.5256C7.49304 10.2175 7.15254 10.061 6.84492 10.1736L5.92593 10.5114V9.48147C5.92593 9.15377 5.66062 8.88888 5.33334 8.88888C5.00605 8.88888 4.74074 9.15377 4.74074 9.48147V10.5114L3.82175 10.1736C3.51319 10.0604 3.17363 10.2175 3.0611 10.5256C2.94815 10.8326 3.10554 11.1727 3.41274 11.2859Z" fill="#424242"/>
<path d="M8.74608 10.1007L9.71781 10.4581L9.13055 11.2468C8.93517 11.5093 8.98957 11.8809 9.25209 12.0759C9.35858 12.1553 9.48243 12.1932 9.60534 12.1932C9.78637 12.1932 9.96504 12.1108 10.0812 11.9544L10.6669 11.1674L11.2472 11.9467C11.3634 12.1031 11.5419 12.1855 11.7227 12.1855C11.8458 12.1855 11.9699 12.147 12.0761 12.0676C12.3387 11.872 12.3931 11.501 12.1972 11.2385L11.616 10.4575L12.5873 10.1007C12.8945 9.98756 13.0519 9.64742 12.9389 9.34046C12.8264 9.03231 12.4859 8.87645 12.1783 8.98845L11.2593 9.32623V8.29631C11.2593 7.9686 10.994 7.70371 10.6667 7.70371C10.3394 7.70371 10.0741 7.9686 10.0741 8.29631V9.32623L9.15508 8.98845C8.84652 8.87586 8.5072 9.03231 8.39443 9.34046C8.28148 9.64742 8.43888 9.98756 8.74608 10.1007Z" fill="#424242"/>
</svg>
