<svg width="32" height="31" viewBox="0 0 32 31" fill="none" xmlns="http://www.w3.org/2000/svg">
<path d="M2.13377 23.7336C1.69415 23.7336 1.45193 23.6509 1.3714 23.574C0.987487 23.2047 1.16248 21.1717 2.75202 17.8076C4.33792 14.45 6.71466 11.0708 9.10835 8.76809C13.8594 4.19706 21.0598 1.16504 23.7369 1.16504C24.1766 1.16504 24.4188 1.24776 24.4993 1.32523C25.5517 2.33765 21.9003 11.1885 16.7623 16.1312C12.0113 20.7016 4.81146 23.7336 2.13377 23.7336ZM25.3555 0.50157C25.0098 0.168369 24.4654 0 23.7369 0C20.395 0 12.9027 3.47009 8.25212 7.94443C5.76094 10.3403 3.29277 13.8477 1.64934 17.3253C0.851844 19.0129 -0.85456 23.08 0.515166 24.3977C0.860928 24.7303 1.40531 24.8987 2.13377 24.8987C5.47573 24.8987 12.968 21.4286 17.6186 16.9548C22.3375 12.4153 27.4222 2.49029 25.3555 0.50157Z" fill="#424242"/>
<path d="M16.1277 13.0205L14.2984 14.7803C11.6788 14.1261 10.7627 11.9329 10.5144 11.1366L12.3419 9.37858C12.9517 8.79198 13.7698 8.45531 14.5872 8.45531C15.2812 8.45531 15.9164 8.69822 16.3754 9.13977C17.4187 10.144 17.3079 11.8852 16.1277 13.0205ZM10.8965 16.8162C10.2019 16.8162 9.56733 16.5727 9.10834 16.1312C8.61361 15.6553 8.36171 14.9941 8.39986 14.2694C8.43982 13.5227 8.77893 12.8061 9.35601 12.251L9.56734 12.0477C10.0294 13.1551 11.0933 14.9026 13.3338 15.7082L13.1418 15.8929C12.5321 16.4795 11.7134 16.8162 10.8965 16.8162ZM14.5872 7.29027C13.4513 7.29027 12.3207 7.75104 11.4857 8.55492L8.49977 11.4273C7.71015 12.1863 7.24571 13.1755 7.1906 14.2106C7.13489 15.2684 7.51214 16.243 8.25211 16.9548C8.9394 17.6166 9.87858 17.9812 10.8965 17.9812C12.0325 17.9812 13.163 17.5199 13.9981 16.7166L16.984 13.8442C18.6365 12.2545 18.7479 9.77471 17.2316 8.31608C16.5443 7.65434 15.6045 7.29027 14.5872 7.29027Z" fill="#424242"/>
<path d="M30.4021 11.7518L27.7976 13.8966C27.1527 14.4267 25.9683 14.8927 25.2635 14.8927C25.2326 14.8927 25.2029 14.8863 25.1726 14.884C25.2471 14.6795 25.2041 14.4442 25.034 14.2805C24.8463 14.0999 24.5689 14.0691 24.3431 14.1751C24.3291 14.1139 24.3219 14.0516 24.3219 13.9869C24.3219 13.3083 24.8057 12.1695 25.3573 11.5491L27.5863 9.04363C27.8001 8.80364 28.0895 8.67143 28.402 8.67143C28.6835 8.67143 28.9542 8.78208 29.1643 8.98422L30.4632 10.2343C30.6842 10.447 30.7999 10.7213 30.7884 11.0062C30.7769 11.2916 30.6394 11.5566 30.4021 11.7518ZM14.2209 26.9573L11.9913 29.4627C11.5856 29.92 10.8559 29.9474 10.4139 29.5221L9.11439 28.2721C8.89337 28.0589 8.77832 27.7856 8.78982 27.4996C8.80133 27.2148 8.93817 26.9503 9.17615 26.7546L11.7806 24.6097C12.4255 24.0791 13.6093 23.6136 14.3141 23.6136C14.4237 23.6136 14.5273 23.6352 14.6254 23.6684C14.609 23.835 14.6593 24.0057 14.7919 24.1332C14.91 24.2468 15.065 24.3039 15.22 24.3039C15.2218 24.3039 15.2243 24.3028 15.2261 24.3028C15.2442 24.3727 15.2564 24.4449 15.2564 24.52C15.2564 25.1981 14.7725 26.3369 14.2209 26.9573ZM31.3195 9.41064L30.0206 8.16055C29.5816 7.73881 29.0069 7.50638 28.402 7.50638C27.7401 7.50638 27.1073 7.79007 26.6665 8.28579L24.4375 10.7918C23.6933 11.6277 23.1108 13.031 23.1108 13.9869C23.1108 14.365 23.224 14.7145 23.4087 15.0203L15.3884 22.7358C15.0711 22.5581 14.7071 22.4486 14.3141 22.4486C13.3211 22.4486 11.8623 23.009 10.9934 23.7249L8.38835 25.8697C7.8912 26.2787 7.60417 26.8414 7.57935 27.4548C7.55452 28.0682 7.79553 28.6513 8.25816 29.0957L9.55764 30.3458C9.99665 30.7682 10.5713 31 11.1762 31C11.8381 31 12.4703 30.7163 12.9117 30.2206L15.1407 27.7146C15.8849 26.8781 16.4674 25.4748 16.4674 24.52C16.4674 24.1798 16.3736 23.8641 16.2228 23.581L24.2873 15.8224C24.5816 15.9675 24.9104 16.0578 25.2635 16.0578C26.2565 16.0578 27.7153 15.4974 28.5848 14.7815L31.1899 12.6372C31.6864 12.2283 31.9734 11.665 31.9983 11.0516C32.0231 10.4376 31.7821 9.8551 31.3195 9.41064Z" fill="#424242"/>
</svg>
