<svg width="32" height="32" viewBox="0 0 32 32" fill="none" xmlns="http://www.w3.org/2000/svg">
<path d="M3.55556 27.8105C3.69956 27.833 3.84535 27.8519 3.99823 27.8519C5.27349 27.8519 5.92651 27.078 6.45095 26.4564C6.9754 25.8336 7.30607 25.4816 7.99644 25.4816C8.68681 25.4816 9.01808 25.8342 9.54311 26.4564C10.0676 27.078 10.7206 27.8519 11.9953 27.8519C13.2711 27.8519 13.9235 27.078 14.4486 26.4564C14.9736 25.8342 15.3043 25.4816 15.9947 25.4816C16.685 25.4816 17.0157 25.8342 17.5407 26.4564C18.0646 27.078 18.7176 27.8519 19.9917 27.8519C21.2675 27.8519 21.9206 27.078 22.4456 26.4564C22.9713 25.8342 23.3013 25.4816 23.9929 25.4816C24.685 25.4816 25.0163 25.8342 25.5425 26.457C26.067 27.078 26.7206 27.8519 27.9964 27.8519C28.1517 27.8519 28.2999 27.8365 28.4444 27.8134V30.8148H3.55556V27.8105ZM5.33333 22.5187H26.6667C27.6468 22.5187 28.4444 23.3163 28.4444 24.2965V26.5969C28.3064 26.6395 28.1612 26.6668 27.9964 26.6668C27.3043 26.6668 26.9736 26.3142 26.4474 25.6914C25.9224 25.0704 25.2693 24.2965 23.9929 24.2965C22.7176 24.2965 22.064 25.0704 21.5396 25.692C21.0139 26.3142 20.6833 26.6668 19.9917 26.6668C19.3019 26.6668 18.9719 26.3148 18.4468 25.692C17.9224 25.0704 17.2699 24.2965 15.9947 24.2965C14.72 24.2965 14.067 25.0704 13.5425 25.6914C13.0175 26.3142 12.6862 26.6668 11.9953 26.6668C11.3049 26.6668 10.9742 26.3142 10.4492 25.692C9.92415 25.0704 9.2717 24.2965 7.99644 24.2965C6.72177 24.2965 6.06874 25.0704 5.5443 25.692C5.01986 26.3142 4.6892 26.6668 3.99823 26.6668C3.83527 26.6668 3.69126 26.6395 3.55556 26.598V24.2965C3.55556 23.3163 4.35319 22.5187 5.33333 22.5187ZM7.11111 18.3707C8.05867 18.3701 8.55942 17.9701 8.9612 17.6477C9.30905 17.3698 9.53897 17.1855 10.0711 17.1855C10.6045 17.1855 10.8338 17.3698 11.1822 17.6483C11.5846 17.9701 12.0853 18.3707 13.0335 18.3707C13.9822 18.3707 14.4824 17.9695 14.8848 17.6477C15.2326 17.3698 15.4625 17.1855 15.9941 17.1855C16.5274 17.1855 16.7573 17.3698 17.1058 17.6483C17.5088 17.9701 18.0095 18.3707 18.9582 18.3707C19.9076 18.3707 20.4083 17.9701 20.8113 17.6483C21.1597 17.3698 21.3902 17.1855 21.923 17.1855C22.4569 17.1855 22.7005 17.3799 23.0365 17.6483C23.4388 17.9701 23.9396 18.3707 24.8889 18.3707V21.3336H7.11111V18.3707ZM8.88889 13.63H23.1111C24.0913 13.63 24.8889 14.4276 24.8889 15.4078V17.1855C24.3556 17.1855 24.112 16.9917 23.776 16.7227C23.3736 16.4009 22.8729 16.0003 21.923 16.0003C20.9748 16.0003 20.4735 16.4009 20.0711 16.7227C19.7351 16.9911 19.4921 17.1855 18.9582 17.1855C18.4255 17.1855 18.195 17.0012 17.8465 16.7227C17.4442 16.4009 16.9434 16.0003 15.9941 16.0003C15.0465 16.0003 14.5464 16.4009 14.144 16.7227C13.7962 17.0012 13.5662 17.1855 13.0335 17.1855C12.5013 17.1855 12.2708 17.0012 11.923 16.7233C11.5206 16.4009 11.0199 16.0003 10.0711 16.0003C9.12357 16.0003 8.62283 16.4009 8.22046 16.7227C7.8732 17.0012 7.64267 17.1849 7.11111 17.1855V15.4078C7.11111 14.4276 7.90874 13.63 8.88889 13.63ZM15.4074 9.48196H16.5926V12.4449H15.4074V9.48196ZM31.4074 30.8148H29.6296V24.2965C29.6296 22.6627 28.3004 21.3336 26.6667 21.3336H26.0741V15.4078C26.0741 13.774 24.7449 12.4449 23.1111 12.4449H17.7778V8.88937C17.7778 8.56168 17.5129 8.29679 17.1852 8.29679H14.8148C14.4871 8.29679 14.2222 8.56168 14.2222 8.88937V12.4449H8.88889C7.25511 12.4449 5.92593 13.774 5.92593 15.4078V21.3336H5.33333C3.69956 21.3336 2.37037 22.6627 2.37037 24.2965V30.8148H0.592593C0.264889 30.8148 0 31.0797 0 31.4074C0 31.7351 0.264889 32 0.592593 32H31.4074C31.7351 32 32 31.7351 32 31.4074C32 31.0797 31.7351 30.8148 31.4074 30.8148Z" fill="#424242"/>
<path d="M15.2836 3.63734C15.7025 3.27231 16.2056 2.83261 16.4883 2.24063C17.0276 3.15972 17.4596 4.29866 17.2172 5.0542C17.1627 5.22427 16.9991 5.73566 15.9555 5.92529C15.6634 5.91403 14.4379 5.80559 14.4379 4.74131C14.4379 4.3988 14.7573 4.0954 15.2836 3.63734ZM16 7.11163C16.0326 7.11163 16.0652 7.10867 16.0972 7.10334C17.5887 6.85504 18.1428 6.04854 18.3461 5.41626C18.9144 3.64208 17.3712 1.12658 16.4189 0.1743C16.2252 -0.0200659 15.9235 -0.0562182 15.6906 0.0877788C15.4566 0.231183 15.3517 0.515621 15.4364 0.776357C15.715 1.63501 15.2865 2.06226 14.5049 2.74373C13.9176 3.25512 13.2527 3.83526 13.2527 4.74131C13.2527 6.61624 15.0495 7.11163 16 7.11163Z" fill="#424242"/>
</svg>
