<svg width="32" height="32" viewBox="0 0 32 32" fill="none" xmlns="http://www.w3.org/2000/svg">
<path d="M18.4132 16.0333C18.4132 17.3378 17.3524 18.3987 16.0479 18.3987C14.7434 18.3987 13.6826 17.3378 13.6826 16.0333C13.6826 14.7288 14.7434 13.668 16.0479 13.668C17.3524 13.668 18.4132 14.7288 18.4132 16.0333ZM12.4999 16.0333C12.4999 17.99 14.0912 19.5813 16.0479 19.5813C18.0046 19.5813 19.5959 17.99 19.5959 16.0333C19.5959 14.0766 18.0046 12.4853 16.0479 12.4853C14.0912 12.4853 12.4999 14.0766 12.4999 16.0333Z" fill="#424242"/>
<path d="M5.18519 11.3127C5.26916 11.3547 5.35903 11.3742 5.44714 11.3742C5.66475 11.3742 5.87408 11.2541 5.97756 11.0454C6.85923 9.26962 8.20097 7.75106 9.85846 6.65532C10.1305 6.47496 10.2056 6.10834 10.0252 5.83573C9.84545 5.56313 9.47824 5.48861 9.20563 5.66897C7.37488 6.88003 5.89242 8.55706 4.9185 10.5203C4.77303 10.8124 4.89248 11.1672 5.18519 11.3127Z" fill="#424242"/>
<path d="M10.9861 26.0665C9.27422 25.2014 7.80123 23.901 6.7256 22.3056C6.54288 22.0354 6.17565 21.9644 5.90482 22.1465C5.634 22.3287 5.56245 22.6971 5.74517 22.9679C6.93315 24.7295 8.56107 26.1659 10.4527 27.1221C10.5379 27.1652 10.6289 27.1853 10.7188 27.1853C10.9347 27.1853 11.1428 27.0671 11.2469 26.8613C11.3941 26.5692 11.2776 26.2138 10.9861 26.0665Z" fill="#424242"/>
<path d="M26.7693 21.0662C26.4813 20.9136 26.1224 21.0224 25.9692 21.3098C25.1077 22.9259 23.8487 24.3239 22.329 25.3498C22.0582 25.5326 21.9872 25.901 22.1699 26.1712C22.2841 26.3403 22.4703 26.4314 22.6607 26.4314C22.7743 26.4314 22.8896 26.3983 22.9907 26.3303C24.6701 25.1955 26.0609 23.6527 27.0129 21.8663C27.1667 21.5783 27.0579 21.2199 26.7693 21.0662Z" fill="#424242"/>
<path d="M21.7501 6.35078C23.1776 7.19344 24.4241 8.36429 25.3554 9.73796C25.4695 9.90708 25.6558 9.99755 25.845 9.99755C25.9592 9.99755 26.0751 9.96444 26.1762 9.89584C26.4464 9.71253 26.5174 9.34413 26.3341 9.07389C25.3057 7.55711 23.928 6.26327 22.3509 5.33191C22.07 5.16693 21.7069 5.25977 21.5413 5.54066C21.3752 5.82213 21.4686 6.18462 21.7501 6.35078Z" fill="#424242"/>
<path d="M14.8712 11.3872C14.9179 11.7095 15.2112 11.9318 15.5405 11.8875C15.8634 11.8413 16.0881 11.5421 16.042 11.2187C16.0166 11.0401 15.3868 6.81498 12.8547 4.9162C11.9932 4.26987 11.6052 3.34621 11.8891 2.61709C12.3213 1.50892 14.0746 0.995043 16.5801 1.24695C17.5457 1.34334 18.2039 1.72239 18.5906 2.4042C19.8283 4.58742 18.0691 9.38611 17.2867 11.0507C17.1478 11.3464 17.2749 11.6988 17.5706 11.8378C17.6516 11.8762 17.7373 11.894 17.8219 11.894C18.0436 11.894 18.2559 11.7686 18.357 11.5545C18.4824 11.2879 21.4113 4.98301 19.6195 1.82173C19.0377 0.795169 18.0549 0.205614 16.6984 0.0701983C12.2799 -0.373895 11.0932 1.40367 10.7874 2.18719C10.3079 3.41717 10.8537 4.89373 12.1451 5.86234C14.2834 7.46604 14.8652 11.3476 14.8712 11.3872Z" fill="#424242"/>
<path d="M2.40415 14.0009C4.58675 12.7638 9.38539 14.5219 11.0506 15.3054C11.3456 15.4432 11.6987 15.3172 11.837 15.0215C11.976 14.7259 11.8495 14.3735 11.5538 14.2345C11.2871 14.1091 4.98175 11.1802 1.82169 12.972C0.79514 13.5539 0.205592 14.5372 0.0695857 15.8938C-0.372137 20.3116 1.40304 21.4991 2.18714 21.8048C2.48458 21.9201 2.7962 21.9763 3.11138 21.9763C4.10127 21.9763 5.12781 21.4257 5.86165 20.4465C7.46534 18.3088 11.3474 17.7257 11.3864 17.721C11.7093 17.6737 11.9334 17.3745 11.8873 17.051C11.8412 16.7281 11.5443 16.5058 11.2185 16.5496C11.0399 16.5756 6.81488 17.2048 4.91612 19.7375C4.2698 20.599 3.34378 20.9875 2.61645 20.7025C1.50829 20.2703 0.996194 18.5169 1.24692 16.0114C1.3433 15.0458 1.72176 14.3882 2.40415 14.0009Z" fill="#424242"/>
<path d="M29.8129 10.1962C28.5835 9.71844 27.1069 10.2631 26.1383 11.5545C24.5346 13.6922 20.6532 14.2747 20.6141 14.28C20.2907 14.3267 20.0666 14.6265 20.1133 14.95C20.1594 15.2734 20.4586 15.4982 20.7815 15.4514C20.9607 15.4254 25.1851 14.7957 27.0845 12.2635C27.7308 11.402 28.6544 11.0129 29.3836 11.2985C30.4917 11.7307 31.0038 13.4835 30.7537 15.9896C30.6573 16.9552 30.2782 17.6128 29.5964 17.9995C27.4127 19.2366 22.6146 17.4785 20.95 16.6956C20.6538 16.5566 20.3013 16.6838 20.163 16.9795C20.024 17.2751 20.1505 17.627 20.4462 17.7665C20.6508 17.8623 24.4063 19.6079 27.5723 19.6079C28.5344 19.6074 29.4421 19.4459 30.1783 19.0284C31.2054 18.4471 31.7944 17.4638 31.9304 16.1072C32.3721 11.6888 30.597 10.502 29.8129 10.1962Z" fill="#424242"/>
<path d="M20.4462 26.1387C18.3085 24.535 17.7261 20.6534 17.7202 20.6138C17.6735 20.2909 17.3778 20.0656 17.0508 20.113C16.7279 20.1597 16.5038 20.4583 16.5499 20.7818C16.5754 20.9609 17.2045 25.186 19.7366 27.0842C20.5982 27.7305 20.9867 28.6548 20.7022 29.3839C20.2706 30.4921 18.5161 31.0054 16.0112 30.7541C15.0456 30.6571 14.388 30.2786 14.0013 29.5968C12.7631 27.4136 14.5223 22.6149 15.3046 20.9497C15.4436 20.654 15.317 20.3022 15.0213 20.1626C14.7263 20.0237 14.3738 20.1508 14.2349 20.4465C14.1089 20.7132 11.1801 27.0174 12.9718 30.1793C13.5537 31.2052 14.5365 31.7948 15.8936 31.9308C16.3708 31.9787 16.8107 32 17.2158 32C20.5574 32 21.5319 30.5122 21.8039 29.8138C22.2835 28.5839 21.7377 27.1073 20.4462 26.1387Z" fill="#424242"/>
</svg>
