<svg width="30" height="31" viewBox="0 0 30 31" fill="none" xmlns="http://www.w3.org/2000/svg">
<path d="M3.78368 8.70323C3.8291 7.39382 4.36373 6.14089 5.25075 5.26736C5.48127 5.0408 5.4899 4.66441 5.27087 4.42655C5.05185 4.1881 4.68795 4.17977 4.458 4.40573C3.35483 5.49274 2.69087 7.04356 2.63453 8.6604C2.57417 10.414 3.2278 12.1254 4.47526 13.48C4.58794 13.6025 4.7397 13.6643 4.89089 13.6643C5.03346 13.6643 5.17602 13.6102 5.28755 13.5002C5.51749 13.2742 5.52668 12.8978 5.30708 12.6594C3.98431 11.2233 3.74861 9.71531 3.78368 8.70323Z" fill="#424242"/>
<path d="M27.7177 29.2619L27.3263 29.6478C27.105 29.8654 26.7238 29.8559 26.5134 29.6276L21.7322 24.4357C21.3798 24.0522 21.0165 23.2559 20.9556 22.7321L20.9366 22.5727C20.924 22.4633 20.9395 22.3735 20.9809 22.3259C21.0188 22.2807 21.0866 22.2712 21.1367 22.2712C21.17 22.2712 21.2039 22.2754 21.2396 22.2825L21.339 22.3039C21.8449 22.4098 22.6009 22.8421 22.9567 23.2292L27.7373 28.421C27.9563 28.6589 27.9477 29.0359 27.7177 29.2619ZM16.0709 17.0181C16.4498 16.6453 16.7723 16.2308 17.0562 15.7932C17.1011 16.7755 17.1919 17.6996 17.2684 18.3377C16.5078 18.1896 15.6001 18.1004 14.7349 18.0463C15.2115 17.7602 15.6611 17.4219 16.0709 17.0181ZM3.40886 14.1198C0.0843978 10.5092 0.761593 5.72643 3.337 3.18849C4.62701 1.91773 6.42233 1.18929 8.26249 1.18929C10.3441 1.18929 12.3418 2.11457 13.8893 3.79504C15.5811 5.63249 16.7343 7.97122 17.0534 10.2112C17.2919 11.8905 17.1776 14.2851 15.2782 16.1571C14.1279 17.2905 12.6941 17.8649 11.0178 17.8649C8.4516 17.8649 5.53588 16.43 3.40886 14.1198ZM23.7891 22.4092C23.2757 21.8496 22.299 21.2918 21.5678 21.1384L21.4678 21.117C21.1597 21.0528 20.8786 21.0837 20.6308 21.1812C20.6072 21.136 20.5865 21.0897 20.5509 21.051L18.494 18.8449C18.3796 18.0195 17.9404 14.5676 18.3428 12.6076C18.3756 12.4459 18.3416 12.286 18.26 12.1575C18.3135 11.476 18.2945 10.7684 18.1905 10.0382C17.8381 7.5609 16.5739 4.98611 14.7217 2.97502C12.9557 1.0561 10.6608 0 8.26249 0C6.1303 0 4.04639 0.847971 2.54426 2.32744C-0.440459 5.26855 -1.2447 10.7898 2.57645 14.9399C4.94836 17.5164 8.10381 19.0542 11.0178 19.0542C11.1115 19.0542 11.2029 19.0447 11.2955 19.0417C11.3892 19.1065 11.4967 19.1541 11.6186 19.1583C11.6623 19.1559 15.8007 19.0988 17.6489 19.6512L19.7231 21.8764C19.7673 21.9239 19.8208 21.9543 19.8737 21.9828C19.7961 22.207 19.7645 22.4538 19.7949 22.7154L19.8133 22.8754C19.9041 23.646 20.3813 24.6914 20.8998 25.2551L25.6804 30.447C26.0035 30.7984 26.4588 31 26.9296 31C27.3757 31 27.7977 30.8258 28.119 30.5088L28.5105 30.1235C29.1992 29.445 29.2256 28.314 28.5703 27.601L23.7891 22.4092Z" fill="#424242"/>
<path d="M24.8262 1.24579C24.8963 1.24579 24.9642 1.25293 25.0331 1.2565C24.8659 1.36829 24.7227 1.49791 24.6072 1.65251C24.0829 2.3536 24.2594 3.24972 24.4295 4.11671C24.5934 4.95219 24.748 5.7419 24.3519 6.34071C23.3223 7.89689 21.2792 6.92404 21.1901 6.88004C21.1464 6.85863 21.0999 6.85448 21.0545 6.84496C20.8941 6.39601 20.8021 5.91374 20.8021 5.40829C20.8021 3.11297 22.6078 1.24579 24.8262 1.24579ZM28.8503 5.40829C28.8503 7.70362 27.0446 9.5708 24.8262 9.5708C23.7155 9.5708 22.709 9.10283 21.98 8.34763C22.195 8.38152 22.4163 8.4059 22.6457 8.4059C23.5873 8.4059 24.5997 8.0717 25.3004 7.01264C25.9719 5.99818 25.7414 4.82375 25.5563 3.88005C25.4321 3.24735 25.3148 2.65032 25.5166 2.37976C25.6316 2.22575 25.9472 2.03251 26.7991 1.98494C26.879 1.98078 26.9543 1.95877 27.0216 1.92428C28.1213 2.66818 28.8503 3.95082 28.8503 5.40829ZM24.8262 10.7601C27.6793 10.7601 30 8.35892 30 5.40829C30 2.45767 27.6793 0.056498 24.8262 0.056498C21.9731 0.056498 19.6524 2.45767 19.6524 5.40829C19.6524 8.35892 21.9731 10.7601 24.8262 10.7601Z" fill="#424242"/>
</svg>
