<svg width="32" height="31" viewBox="0 0 32 31" fill="none" xmlns="http://www.w3.org/2000/svg">
<path d="M8.60632 23.4481L7.75607 24.2756C7.52998 24.4957 7.13012 24.4946 6.90523 24.2762C6.67072 24.0478 6.67072 23.6759 6.90523 23.4481L7.75607 22.6195C7.86851 22.5094 8.01946 22.4491 8.18121 22.4491C8.34296 22.4491 8.49388 22.51 8.60632 22.6195C8.84083 22.8479 8.84083 23.2191 8.60632 23.4481ZM9.45657 21.7909C8.7765 21.1292 7.58472 21.1303 6.90585 21.7915L6.05501 22.6195C5.35208 23.3046 5.35208 24.419 6.05501 25.1042C6.39474 25.435 6.84751 25.6172 7.33096 25.6172C7.8138 25.6172 8.26658 25.435 8.60632 25.1042L9.45657 24.2762C10.1595 23.591 10.1595 22.4766 9.45657 21.7909Z" fill="#424242"/>
<path d="M22.4766 14.434C21.9823 14.4961 21.268 14.2466 20.9367 13.924L17.5351 10.6113C17.1996 10.2845 16.95 9.56949 17.0114 9.11155L17.9734 1.9286L29.8522 13.4971L22.4766 14.434ZM19.6613 15.166L14.5586 20.1354L11.157 16.8227L16.2597 11.8539C16.3722 11.7438 16.5231 11.6835 16.6848 11.6835C16.846 11.6835 16.9969 11.7438 17.1099 11.8533L19.6613 14.338C19.8952 14.5664 19.8952 14.9376 19.6613 15.166ZM4.7796 29.659C4.55411 29.8774 4.15487 29.8774 3.92938 29.659L1.37803 27.1743C1.14352 26.9465 1.14352 26.5747 1.37803 26.3463L3.07854 24.6896L6.48069 28.0023L4.7796 29.659ZM7.33094 27.1743L3.92938 23.8616L10.3068 17.6507L13.7084 20.9634L7.33094 27.1743ZM18.811 1.08709C18.4412 0.72812 18.0925 0.652582 17.8652 0.652582C17.4341 0.652582 16.8923 0.942461 16.784 1.75878L15.819 8.95986C15.7492 9.47753 15.8701 10.0895 16.119 10.6195C15.8562 10.6997 15.6097 10.8303 15.4095 11.0253L0.527193 25.5182C-0.175731 26.2034 -0.175731 27.3172 0.527193 28.0023L3.07912 30.4876C3.41826 30.8179 3.87164 31 4.35449 31C4.83673 31 5.29012 30.8179 5.62985 30.4876L20.5115 15.9941C20.7172 15.7938 20.8549 15.5549 20.9403 15.3031C21.3786 15.4957 21.8717 15.614 22.3269 15.614C22.4321 15.614 22.5343 15.6076 22.6317 15.5953L30.026 14.656C30.5744 14.5869 30.9694 14.3163 31.1101 13.914C31.2508 13.5117 31.1071 13.0631 30.7163 12.6819L18.811 1.08709Z" fill="#424242"/>
<path d="M23.4062 3.73808C23.4339 3.74159 23.4615 3.74334 23.4886 3.74334C23.7844 3.74334 24.043 3.53077 24.0839 3.2368L24.4447 0.664862C24.4892 0.343954 24.2589 0.048827 23.93 0.00549275C23.5999 -0.0384271 23.2974 0.185845 23.2523 0.506167L22.8921 3.07871C22.8476 3.39903 23.0773 3.69416 23.4062 3.73808Z" fill="#424242"/>
<path d="M31.3152 7.16265L28.5065 7.54681C28.1776 7.5919 27.9479 7.8882 27.9942 8.20852C28.0369 8.50074 28.2936 8.71214 28.5889 8.71214C28.6165 8.71214 28.6448 8.71039 28.6731 8.70688L31.4818 8.32273C31.8107 8.27763 32.0404 7.98132 31.9941 7.66158C31.9472 7.34126 31.6441 7.11639 31.3152 7.16265Z" fill="#424242"/>
<path d="M26.0388 6.22803C26.1927 6.22803 26.3466 6.17064 26.4639 6.05644L28.5895 3.98578C28.8246 3.7574 28.8246 3.38612 28.5895 3.15774C28.355 2.92877 27.9743 2.92877 27.7392 3.15774L25.6136 5.22843C25.3791 5.45681 25.3791 5.82806 25.6136 6.05644C25.7315 6.17064 25.8848 6.22803 26.0388 6.22803Z" fill="#424242"/>
</svg>
