<svg width="25" height="33" viewBox="0 0 25 33" fill="none" xmlns="http://www.w3.org/2000/svg">
<path d="M22.093 31.7778H13.9535C13.7727 31.7778 13.5948 31.7478 13.4256 31.691C13.7558 31.1948 13.9535 30.5947 13.9535 29.9444V23.5657C15.0378 22.9546 16.5686 22.3184 17.9093 22.5989C20.1209 23.0664 22.5547 21.9554 23.8372 21.2324V29.9444C23.8372 30.9552 23.0547 31.7778 22.093 31.7778ZM2.90698 31.7778C1.94535 31.7778 1.16279 30.9552 1.16279 29.9444V26.8895L3.29127 26.8919C4.05871 28.0445 5.19826 28.7222 6.39535 28.7222C7.67035 28.7222 8.79013 28.0592 9.51513 26.8889H12.7907V29.9444C12.7907 30.9552 12.0081 31.7778 11.0465 31.7778H2.90698ZM2.04652 16.3381L4.25174 11.0397C4.78953 9.74722 5.26862 7.54722 5.31804 6.13555C5.32327 5.99499 5.33952 5.35028 5.24999 4.88889H8.71687C8.66687 5.32033 8.67615 6.03594 8.67789 6.12333C8.70289 7.53805 9.16278 9.74355 9.70232 11.0397L11.907 16.3381C12.386 17.4888 12.7907 19.5219 12.7907 20.7778L9.50292 20.779C8.73431 19.624 7.59419 18.9444 6.39535 18.9444C5.19651 18.9444 4.05697 19.6234 3.28894 20.7778H1.16279C1.16279 19.5219 1.56745 17.4888 2.04652 16.3381ZM4.65116 1.83333C4.65116 1.496 4.91163 1.22222 5.23256 1.22222H8.72093C9.04186 1.22222 9.30233 1.496 9.30233 1.83333V3.05556C9.30233 3.35989 9.23197 3.57133 9.18255 3.66667H4.77093C4.72152 3.57133 4.65116 3.35989 4.65116 3.05556V1.83333ZM1.16279 22H3.60465C3.8093 22 3.99826 21.8869 4.10349 21.703C4.66105 20.727 5.49651 20.1661 6.39535 20.1661C7.29477 20.1661 8.13024 20.7264 8.68896 21.7048C8.7942 21.8882 8.98313 22 9.18778 22C9.18836 22 9.18896 22 9.18954 22L12.7907 21.9988V25.6667H9.18605C8.97384 25.6667 8.77791 25.7883 8.67616 25.9851C8.15988 26.9763 7.37151 27.5 6.39535 27.5C5.49767 27.5 4.66338 26.9408 4.10466 25.9661C3.99942 25.7828 3.81105 25.6703 3.60698 25.6703L1.16279 25.6673V22ZM23.8692 13.5471C23.5413 13.3179 23.2552 12.8657 23.2041 12.6005L23.2477 12.3224C23.3006 11.9894 23.0866 11.6747 22.7698 11.6197C22.4523 11.5616 22.1535 11.789 22.1012 12.122L22.043 12.4887C22.0355 12.5363 22.0331 12.584 22.0366 12.6317C22.0808 13.2904 22.5913 14.1209 23.2238 14.564C23.4401 14.718 23.8372 15.8021 23.8372 17.1111V19.8263C23.0151 20.3414 20.3459 21.8637 18.1372 21.4011C16.6907 21.0949 15.1552 21.6009 13.9535 22.1986V20.7778C13.9535 19.3594 13.5134 17.1484 12.9727 15.8492L12.5913 14.9331C12.5977 14.9209 12.607 14.9117 12.6128 14.8989C12.7349 14.6288 12.8221 14.5646 12.8227 14.564C13.4424 14.1295 13.9762 13.3179 14.0639 12.6751C14.0767 12.5816 14.0686 12.4856 14.0395 12.3952L13.9233 12.0291C13.8215 11.7089 13.4924 11.5353 13.1884 11.6429C12.8831 11.7498 12.7192 12.0957 12.8209 12.4153L12.8849 12.6176C12.7907 12.9012 12.4994 13.3216 12.1767 13.5471C12.1355 13.5764 12.0965 13.6131 12.057 13.6492L10.7675 10.5508C10.2872 9.39705 9.86278 7.359 9.84068 6.10012C9.83487 5.7915 9.84011 5.21583 9.87557 4.9891C9.89243 4.88399 9.875 4.78439 9.84361 4.69028C10.2209 4.39756 10.4651 3.80172 10.4651 3.05556V1.83333C10.4651 0.822556 9.68256 0 8.72093 0H5.23256C4.27093 0 3.48837 0.822556 3.48837 1.83333V3.05556C3.48837 3.80294 3.73314 4.39878 4.11104 4.69089C4.07035 4.81433 4.05756 4.94877 4.1 5.08199C4.14942 5.23783 4.1692 5.72916 4.15641 6.09033C4.11164 7.35166 3.66743 9.39461 3.18604 10.5508L0.981389 15.8492C0.440109 17.1484 0 19.3594 0 20.7778V29.9444C0 31.6293 1.30407 33 2.90698 33H11.0465C11.5773 33 12.0686 32.8387 12.4971 32.5765C12.9401 32.8491 13.4366 33 13.9535 33H22.093C23.6959 33 25 31.6293 25 29.9444V17.1111C25 15.7337 24.6116 14.0672 23.8692 13.5471Z" fill="#424242"/>
<path d="M12.7907 11H23.2558C23.5773 11 23.8372 10.7268 23.8372 10.3889C23.8372 10.0509 23.5773 9.77778 23.2558 9.77778H12.7907C12.4692 9.77778 12.2093 10.0509 12.2093 10.3889C12.2093 10.7268 12.4692 11 12.7907 11Z" fill="#424242"/>
</svg>
