<svg width="31" height="29" viewBox="0 0 31 29" fill="none" xmlns="http://www.w3.org/2000/svg">
<path d="M27.8159 20.1567C27.3608 19.4773 26.5706 18.1981 26.17 17.5446C27.5444 16.7367 28.3543 15.7769 29.0791 14.1085C29.2782 13.721 29.456 13.6247 29.4774 13.6175C29.5498 13.6497 29.8421 14.0273 29.8421 15.1771C29.8421 15.7886 29.4815 17.1519 27.8159 20.1567ZM22.734 25.7337C22.5447 24.6809 22.0897 22.8069 21.2734 19.6813C21.2323 19.5247 21.197 19.3897 21.1645 19.2662C22.3409 19.0148 23.783 18.2134 24.8471 17.5818C24.8627 17.6042 24.8772 17.6303 24.8847 17.6485C24.8986 17.6888 24.9166 17.7273 24.9386 17.7633C25.0023 17.868 26.5069 20.3401 27.0528 21.1059C27.3076 21.4638 27.3041 21.6844 27.3041 21.728C26.2666 23.2722 24.6885 24.6502 22.734 25.7337ZM21.6445 26.8798C20.0571 27.5169 18.2861 27.8309 16.3681 27.8149L16.6802 26.5392C17.4021 26.3327 17.981 25.6799 18.0522 24.8999L18.6005 18.9237C18.7626 18.9214 19.1857 18.9083 19.7878 18.8487C19.8231 18.8676 19.8822 18.9155 19.9094 19.0337C19.9366 19.152 20.0269 19.4992 20.1543 19.9864C20.541 21.4668 21.718 25.971 21.6815 26.6226C21.6757 26.755 21.6584 26.8361 21.6445 26.8798ZM5.37306 26.6132H15.4684L15.179 27.796H5.66253L5.37306 26.6132ZM3.51238 20.1082L6.17083 20.1096C6.9356 21.2254 8.07088 21.8819 9.26289 21.8819C10.5522 21.8819 11.644 21.2549 12.3706 20.1077H17.3291L16.8996 24.7893C16.8683 25.1305 16.5458 25.4303 16.2101 25.4303H4.63145C4.29567 25.4303 3.97321 25.1305 3.94195 24.7886L3.51238 20.1082ZM18.469 7.68824L17.926 13.6023H12.3561C11.5913 12.4851 10.4561 11.8281 9.26289 11.8281C8.06972 11.8281 6.93444 12.4851 6.16967 13.6023H2.91551L2.37246 7.68824H18.469ZM1.6598 3.54842H19.1817L19.5951 6.50544H1.24645L1.6598 3.54842ZM4.36746 1.18281H16.4735L16.6778 2.36561H4.16367L4.36746 1.18281ZM3.02376 14.7851H6.48403C6.68723 14.7851 6.87539 14.6756 6.98018 14.4977C7.53595 13.5531 8.36787 13.0102 9.26289 13.0102C10.1585 13.0102 10.991 13.5526 11.5468 14.4993C11.6516 14.6775 11.8403 14.7851 12.0435 14.7851C12.047 14.7851 12.051 14.7851 12.0551 14.7851L17.8177 14.7839L17.438 18.9249H12.0418C11.8304 18.9249 11.6359 19.0425 11.534 19.2324C11.0199 20.1923 10.2343 20.6991 9.26289 20.6991C8.3696 20.6991 7.53769 20.1581 6.98133 19.2146C6.87713 19.0379 6.69071 18.9295 6.48866 18.9284L3.40412 18.9254L3.02376 14.7851ZM29.7576 12.4703C29.1225 12.3111 28.4857 12.7182 28.0376 13.5933C27.373 15.1203 26.7211 15.8845 25.4857 16.584C25.4098 16.5285 25.3271 16.477 25.2292 16.441C25.0104 16.3588 24.6624 16.3151 24.2468 16.5639C23.6748 16.9077 21.9333 17.9532 20.7853 18.1418C20.7703 18.1443 20.7593 18.1538 20.7448 18.1573C20.4814 17.8313 20.1254 17.6906 19.8967 17.6629C19.8539 17.6569 19.8116 17.658 19.7693 17.6617C19.2876 17.7118 18.9166 17.7308 18.7099 17.738L19.6321 7.68824H20.2626C20.266 7.68754 20.2701 7.68754 20.2742 7.68824C20.5937 7.68824 20.8531 7.42371 20.8531 7.09684C20.8531 7.02706 20.8415 6.96005 20.8195 6.89819L20.2568 2.87292C20.2157 2.58207 19.9719 2.36561 19.6836 2.36561H17.8536L17.5294 0.488381C17.4802 0.206281 17.24 0 16.9592 0H3.88232C3.60096 0 3.3607 0.206281 3.31207 0.488381L2.98788 2.36561H1.15787C0.869563 2.36561 0.625839 2.58207 0.584735 2.87292L0.00580501 7.01274C-0.0179311 7.18325 0.0318484 7.35535 0.141845 7.48427C0.251842 7.61361 0.41105 7.68824 0.57894 7.68824H1.20939L2.78929 24.8993C2.8605 25.6799 3.43943 26.3327 4.16135 26.5392L4.64882 28.5304C4.71308 28.7942 4.94465 28.9788 5.21038 28.9788H15.6271C15.9189 28.9924 16.2078 29 16.4943 29C18.5015 29 20.3662 28.6607 22.0497 27.9882C22.2807 27.9272 22.6952 27.7084 22.8081 26.9639C22.8961 26.9627 22.9853 26.9414 23.0687 26.8971C25.3137 25.6928 27.1246 24.1133 28.3045 22.3296C28.3184 22.3084 28.3311 22.2864 28.3427 22.2633C28.3693 22.2084 28.521 21.8475 28.4035 21.3118C28.4944 21.261 28.5743 21.1863 28.6298 21.0877C30.2248 18.2596 31 16.3262 31 15.1771C31 13.0167 30.131 12.5643 29.7576 12.4703Z" fill="#424242"/>
</svg>
