<svg width="33" height="25" viewBox="0 0 33 25" fill="none" xmlns="http://www.w3.org/2000/svg">
<path d="M22.583 18.1424C22.8666 18.3224 23.2442 18.241 23.4276 17.9587C24.2764 16.6418 24.7244 15.1157 24.7244 13.5445C24.7244 9.03058 21.0351 5.35848 16.5 5.35848C11.965 5.35848 8.27568 9.03058 8.27568 13.5445C8.27568 15.2039 8.7719 16.8018 9.71057 18.1655C9.82912 18.3377 10.0198 18.4301 10.2154 18.4301C10.3339 18.4301 10.4543 18.3961 10.56 18.3237C10.8381 18.1339 10.9096 17.7555 10.7189 17.4782C9.91957 16.3176 9.4979 14.9575 9.4979 13.5445C9.4979 9.7015 12.639 6.57501 16.5 6.57501C20.361 6.57501 23.5021 9.7015 23.5021 13.5445C23.5021 14.8821 23.1208 16.1814 22.3985 17.3018C22.2164 17.5852 22.2989 17.9611 22.583 18.1424Z" fill="#424242"/>
<path d="M14.4888 8.31222C12.8877 8.92231 11.6295 10.2593 11.1235 11.8876C11.0238 12.2088 11.2041 12.5494 11.5262 12.6486C11.5867 12.6674 11.6478 12.6759 11.7071 12.6759C11.968 12.6759 12.2094 12.508 12.2907 12.2471C12.6873 10.9722 13.6718 9.92596 14.9258 9.44847C15.2405 9.32804 15.3988 8.97645 15.2778 8.66319C15.1574 8.34872 14.8023 8.193 14.4888 8.31222Z" fill="#424242"/>
<path d="M4.22828 14.9691C4.75261 15.1242 5.26596 15.2866 5.76707 15.4539C5.99807 15.5323 6.29567 15.6941 6.3965 16.0165C6.48694 16.3067 6.39407 16.668 6.14107 17.008C5.9333 17.286 5.7261 17.567 5.51955 17.8492C5.32033 18.1205 5.38082 18.5007 5.65338 18.699C5.92654 18.8973 6.30852 18.8371 6.50652 18.5658C6.71185 18.286 6.91656 18.0086 7.12189 17.7324C7.61078 17.0773 7.7715 16.3201 7.56373 15.6552C7.36634 15.0232 6.86766 14.5427 6.15877 14.3012C5.64177 14.1285 5.11439 13.9624 4.57051 13.8012C4.31995 13.7307 4.19649 13.654 4.14088 13.6096C4.19343 13.5421 4.33094 13.4083 4.66277 13.2514C5.19627 12.9995 5.72367 12.7599 6.24494 12.5293C7.00822 12.1917 7.53928 11.6054 7.70245 10.9199C7.85401 10.2794 7.68044 9.61635 7.21294 9.05066C6.8701 8.6413 6.52179 8.23194 6.16674 7.81893C5.95774 7.57805 5.92351 7.43814 5.90457 7.42536C5.95896 7.39191 6.1545 7.32928 6.53889 7.3676C7.10295 7.42356 7.65966 7.48437 8.20966 7.54945C9.01877 7.64313 9.75701 7.40894 10.2398 6.9059C10.6981 6.42781 10.8839 5.7648 10.7629 5.03914C10.6749 4.5136 10.5789 3.98504 10.4757 3.45037C10.4256 3.19429 10.4372 3.0477 10.4525 2.97653C10.5301 2.99234 10.6883 3.04646 10.9371 3.22468C11.3942 3.55253 11.8458 3.88102 12.2919 4.2107C12.9513 4.69732 13.7121 4.85729 14.3794 4.64926C15.0144 4.45279 15.4972 3.95766 15.7398 3.25147C15.9127 2.73687 16.0802 2.21255 16.2421 1.66998C16.313 1.4212 16.3894 1.29832 16.4352 1.24297C16.5024 1.29589 16.6369 1.43215 16.794 1.76243C17.0476 2.29406 17.2883 2.81838 17.5199 3.33662C17.8591 4.09695 18.4482 4.62554 19.1369 4.78734C19.7792 4.9388 20.4466 4.76605 21.0143 4.30073C21.4256 3.9601 21.8368 3.61277 22.2524 3.25937C22.495 3.05134 22.635 3.01728 22.6478 2.99842C22.6814 3.05255 22.7449 3.24476 22.7058 3.62979C22.6496 4.19122 22.5879 4.74534 22.5231 5.29278C22.4284 6.0963 22.6637 6.83231 23.1691 7.31224C23.65 7.76904 24.3185 7.95335 25.0445 7.83413C25.5725 7.74593 26.1042 7.65103 26.6414 7.54824C26.8993 7.49836 27.0459 7.51054 27.1181 7.52453C27.1022 7.60239 27.0478 7.75932 26.8687 8.00749C26.5387 8.46187 26.2087 8.91198 25.8781 9.35601C25.3892 10.0111 25.2279 10.7684 25.4363 11.4332C25.6337 12.0652 26.1317 12.5458 26.8412 12.7873C27.3582 12.9606 27.885 13.126 28.4295 13.2872C28.6801 13.3584 28.8035 13.4344 28.8591 13.4795C28.8066 13.5464 28.6691 13.6802 28.3372 13.8377C27.8037 14.0889 27.2763 14.3292 26.7551 14.5597C25.9918 14.8973 25.4607 15.4843 25.2982 16.1692C25.146 16.8097 25.3196 17.4721 25.7871 18.0378L26.2729 18.6144C26.3933 18.7568 26.5662 18.8298 26.7404 18.8298C26.8791 18.8298 27.0197 18.7829 27.1339 18.6868C27.3918 18.4697 27.4242 18.0858 27.2067 17.8291L26.7288 17.2616C26.5082 16.9952 26.4251 16.7142 26.488 16.449C26.5619 16.137 26.8406 15.8535 27.2519 15.6716C27.7811 15.4369 28.3171 15.1923 28.8622 14.9362C30.0117 14.3906 30.1345 13.7209 30.1046 13.3699C30.0765 13.0366 29.865 12.4296 28.7717 12.1194C28.248 11.9643 27.7341 11.8024 27.2329 11.6352C27.0019 11.5561 26.7037 11.3943 26.6029 11.0719C26.5124 10.7818 26.6059 10.4205 26.8589 10.0811C27.1932 9.63277 27.5269 9.1784 27.86 8.71855C28.5566 7.75445 28.3531 7.13463 28.171 6.85057C27.9919 6.57259 27.5251 6.13769 26.4092 6.35362C25.883 6.45459 25.3611 6.54765 24.8441 6.63403C24.4982 6.69059 24.211 6.62125 24.013 6.43269C23.7881 6.21918 23.6879 5.85543 23.7374 5.43451C23.8028 4.88099 23.8645 4.32019 23.9226 3.75207C24.0448 2.53797 23.5369 2.08418 23.2228 1.92178C22.9258 1.76728 22.297 1.61401 21.4561 2.33663C21.0467 2.68456 20.6397 3.02762 20.2345 3.36338C19.9674 3.58235 19.6882 3.6657 19.4175 3.60366C19.1046 3.53006 18.8198 3.25267 18.6364 2.8427C18.4006 2.31533 18.1561 1.78189 17.8982 1.24054C17.3507 0.0957811 16.6791 -0.0240675 16.3252 0.00330451C15.9897 0.0312847 15.3804 0.24114 15.0682 1.32994C14.9123 1.85183 14.7504 2.36278 14.5817 2.86156C14.5023 3.09148 14.3403 3.3877 14.0164 3.48806C13.7262 3.57869 13.3613 3.48565 13.0203 3.23383C12.57 2.9005 12.1134 2.56897 11.6508 2.23746C10.6841 1.54526 10.0601 1.74599 9.77474 1.92787C9.49546 2.1067 9.05849 2.57142 9.27543 3.6815C9.37688 4.20522 9.47039 4.72467 9.55778 5.23926C9.61461 5.58232 9.54433 5.86821 9.35549 6.06651C9.14038 6.29035 8.7774 6.39134 8.35268 6.34085C7.79718 6.27577 7.23311 6.21432 6.66111 6.15653C5.4395 6.03488 4.98544 6.54036 4.82289 6.85301C4.66767 7.15045 4.51491 7.77512 5.23968 8.61148C5.58924 9.01841 5.9345 9.42473 6.27183 9.8268C6.49183 10.0938 6.57556 10.3749 6.51201 10.6401C6.43806 10.9521 6.16001 11.2356 5.74812 11.4174C5.2189 11.6522 4.68295 11.8961 4.13783 12.1522C2.98833 12.6984 2.8655 13.3675 2.89544 13.7185C2.92355 14.0524 3.135 14.6589 4.22828 14.9691Z" fill="#424242"/>
<path d="M0.611111 20.1339C1.43122 20.1339 1.804 20.3626 2.27639 20.6521C2.8105 20.9794 3.41612 21.3504 4.58151 21.3504C5.7469 21.3504 6.35311 20.9794 6.88783 20.6521C7.35961 20.3626 7.7324 20.1339 8.55251 20.1339C9.37201 20.1339 9.74477 20.3626 10.2172 20.6521C10.7519 20.9794 11.3569 21.3504 12.5229 21.3504C13.6889 21.3504 14.2951 20.9794 14.8298 20.6521C15.3016 20.3626 15.6744 20.1339 16.4945 20.1339C17.314 20.1339 17.6868 20.3626 18.1592 20.6521C18.6933 20.9794 19.2989 21.3504 20.4643 21.3504C21.6309 21.3504 22.2371 20.9794 22.7718 20.6521C23.2436 20.3626 23.617 20.1339 24.4371 20.1339C25.2584 20.1339 25.6318 20.3626 26.1055 20.6521C26.6402 20.9794 27.2464 21.3504 28.413 21.3504C29.5796 21.3504 30.1864 20.9794 30.7212 20.6521C31.1942 20.3626 31.5676 20.1339 32.3889 20.1339C32.7268 20.1339 33 19.8614 33 19.5256C33 19.1898 32.7268 18.9173 32.3889 18.9173C31.2223 18.9173 30.6161 19.2884 30.0813 19.6156C29.6077 19.9052 29.2343 20.1339 28.413 20.1339C27.5917 20.1339 27.2183 19.9052 26.7453 19.6156C26.2106 19.2884 25.6037 18.9173 24.4371 18.9173C23.2711 18.9173 22.6655 19.2884 22.1308 19.6156C21.6578 19.9052 21.285 20.1339 20.4643 20.1339C19.6448 20.1339 19.272 19.9052 18.8002 19.6156C18.2661 19.2884 17.6599 18.9173 16.4945 18.9173C15.3291 18.9173 14.7235 19.2884 14.1888 19.6156C13.7164 19.9052 13.343 20.1339 12.5229 20.1339C11.7028 20.1339 11.33 19.9052 10.8582 19.6156C10.3241 19.2884 9.7179 18.9173 8.55251 18.9173C7.38712 18.9173 6.78151 19.2884 6.24679 19.6156C5.7744 19.9052 5.40162 20.1339 4.58151 20.1339C3.76201 20.1339 3.38922 19.9052 2.91683 19.6156C2.38211 19.2884 1.77711 18.9173 0.611111 18.9173C0.273167 18.9173 0 19.1898 0 19.5256C0 19.8614 0.273167 20.1339 0.611111 20.1339Z" fill="#424242"/>
<path d="M32.3889 22.5669C31.2223 22.5669 30.6161 22.938 30.0813 23.2652C29.6077 23.5548 29.2343 23.7835 28.413 23.7835C27.5917 23.7835 27.2183 23.5548 26.7453 23.2652C26.2106 22.938 25.6037 22.5669 24.4371 22.5669C23.2711 22.5669 22.6655 22.938 22.1308 23.2652C21.6578 23.5548 21.285 23.7835 20.4643 23.7835C19.6448 23.7835 19.272 23.5548 18.8002 23.2652C18.2661 22.938 17.6599 22.5669 16.4945 22.5669C15.3291 22.5669 14.7235 22.938 14.1888 23.2652C13.7164 23.5548 13.343 23.7835 12.5229 23.7835C11.7028 23.7835 11.33 23.5548 10.8582 23.2652C10.3241 22.938 9.7179 22.5669 8.55251 22.5669C7.38712 22.5669 6.78151 22.938 6.24679 23.2652C5.7744 23.5548 5.40162 23.7835 4.58151 23.7835C3.76201 23.7835 3.38922 23.5548 2.91683 23.2652C2.38211 22.938 1.77711 22.5669 0.611111 22.5669C0.273167 22.5669 0 22.8394 0 23.1752C0 23.511 0.273167 23.7835 0.611111 23.7835C1.43122 23.7835 1.804 24.0122 2.27639 24.3017C2.8105 24.629 3.41612 25 4.58151 25C5.7469 25 6.35311 24.629 6.88783 24.3017C7.35961 24.0122 7.7324 23.7835 8.55251 23.7835C9.37201 23.7835 9.74477 24.0122 10.2172 24.3017C10.7519 24.629 11.3569 25 12.5229 25C13.6889 25 14.2951 24.629 14.8298 24.3017C15.3016 24.0122 15.6744 23.7835 16.4945 23.7835C17.314 23.7835 17.6868 24.0122 18.1592 24.3017C18.6933 24.629 19.2989 25 20.4643 25C21.6309 25 22.2371 24.629 22.7718 24.3017C23.2436 24.0122 23.617 23.7835 24.4371 23.7835C25.2584 23.7835 25.6318 24.0122 26.1055 24.3017C26.6402 24.629 27.2464 25 28.413 25C29.5796 25 30.1864 24.629 30.7212 24.3017C31.1942 24.0122 31.5676 23.7835 32.3889 23.7835C32.7268 23.7835 33 23.511 33 23.1752C33 22.8394 32.7268 22.5669 32.3889 22.5669Z" fill="#424242"/>
</svg>
