<svg width="32" height="30" viewBox="0 0 32 30" fill="none" xmlns="http://www.w3.org/2000/svg">
<path d="M29.037 18.2353H21.3333C21.1431 18.2353 20.9641 18.3258 20.8527 18.4793C20.7413 18.6328 20.7111 18.8306 20.771 19.0094C21.344 20.7158 21.9259 24.7888 21.9259 26.4706C21.9259 28.5388 21.0714 28.8235 20.1481 28.8235C19.3067 28.8235 18.963 28.3123 18.963 27.0588C18.963 22.7753 12.576 15.233 12.304 14.9141C12.1914 14.7824 12.0261 14.7059 11.8519 14.7059H10.6667V2.71647L12.1167 1.997C12.9144 1.60065 15.2604 1.17647 17.4815 1.17647H26.0741C27.0542 1.17647 27.8519 1.83594 27.8519 2.64706C27.8519 3.45818 27.187 4.11765 26.3704 4.11765C26.0433 4.11765 25.7778 4.38053 25.7778 4.70588C25.7778 5.03124 26.0433 5.29412 26.3704 5.29412H26.8936C26.9588 5.29412 27.0187 5.27712 27.0773 5.25759C27.1354 5.27641 27.1947 5.29412 27.2593 5.29412H27.8519C28.832 5.29412 29.6296 6.08594 29.6296 7.05882C29.6296 8.03171 28.832 8.82353 27.8519 8.82353H27.2593C26.9321 8.82353 26.6667 9.08641 26.6667 9.41177C26.6667 9.73688 26.9321 10 27.2593 10H27.8519C27.987 10 28.1161 9.97771 28.2465 9.96047C28.3093 9.9823 28.3745 10 28.4444 10H29.037C30.0172 10 30.8148 10.7918 30.8148 11.7647C30.8148 12.7376 30.0172 13.5294 29.037 13.5294H27.8519C27.5247 13.5294 27.2593 13.7923 27.2593 14.1176C27.2593 14.4428 27.5247 14.7059 27.8519 14.7059H29.037C30.0172 14.7059 30.8148 15.4977 30.8148 16.4706C30.8148 17.4435 30.0172 18.2353 29.037 18.2353ZM8.88889 15.8824H1.77778C1.45126 15.8824 1.18519 15.6188 1.18519 15.2941V1.76471C1.18519 1.44 1.45126 1.17647 1.77778 1.17647H8.88889C9.21541 1.17647 9.48148 1.44 9.48148 1.76471V15.2941C9.48148 15.6188 9.21541 15.8824 8.88889 15.8824ZM30.7964 14.1176C31.5224 13.5811 32 12.73 32 11.7647C32 10.4977 31.184 9.42529 30.0504 9.01241C30.5203 8.49106 30.8148 7.81112 30.8148 7.05882C30.8148 5.66777 29.8341 4.50529 28.5245 4.20129C28.8456 3.764 29.037 3.22818 29.037 2.64706C29.037 1.18771 27.7079 0 26.0741 0H17.4815C15.2427 0 12.6536 0.414766 11.587 0.944178L10.6317 1.41888C10.4687 0.610528 9.74993 0 8.88889 0H1.77778C0.79763 0 0 0.791824 0 1.76471V15.2941C0 16.267 0.79763 17.0588 1.77778 17.0588H8.88889C9.66044 17.0588 10.3123 16.5652 10.5576 15.8824H11.5733C12.5967 17.1206 17.7778 23.5664 17.7778 27.0588C17.7778 29.6181 19.2628 30 20.1481 30C21.4999 30 23.1111 29.3876 23.1111 26.4706C23.1111 24.8911 22.6489 21.4653 22.1209 19.4118H29.037C30.6708 19.4118 32 18.0924 32 16.4706C32 15.5053 31.5224 14.6542 30.7964 14.1176Z" fill="#424242"/>
</svg>
