<svg width="28" height="32" viewBox="0 0 28 32" fill="none" xmlns="http://www.w3.org/2000/svg">
<path d="M14 27.2593C12.5278 27.2593 11.3297 26.0628 11.3297 24.5926C11.3297 23.1224 12.5278 21.9259 14 21.9259C15.4722 21.9259 16.6703 23.1224 16.6703 24.5926C16.6703 26.0628 15.4722 27.2593 14 27.2593ZM14 20.7407C11.8733 20.7407 10.1429 22.4687 10.1429 24.5926C10.1429 26.7164 11.8733 28.4444 14 28.4444C16.1267 28.4444 17.8571 26.7164 17.8571 24.5926C17.8571 22.4687 16.1267 20.7407 14 20.7407Z" fill="#424242"/>
<path d="M14 18.3704C12.5278 18.3704 11.3297 17.1739 11.3297 15.7037C11.3297 14.2335 12.5278 13.037 14 13.037C15.4722 13.037 16.6703 14.2335 16.6703 15.7037C16.6703 17.1739 15.4722 18.3704 14 18.3704ZM14 11.8519C11.8733 11.8519 10.1429 13.5799 10.1429 15.7037C10.1429 17.8276 11.8733 19.5556 14 19.5556C16.1267 19.5556 17.8571 17.8276 17.8571 15.7037C17.8571 13.5799 16.1267 11.8519 14 11.8519Z" fill="#424242"/>
<path d="M14 9.48151C12.5278 9.48151 11.3297 8.28506 11.3297 6.81484C11.3297 5.34462 12.5278 4.14817 14 4.14817C15.4722 4.14817 16.6703 5.34462 16.6703 6.81484C16.6703 8.28506 15.4722 9.48151 14 9.48151ZM14 2.96299C11.8733 2.96299 10.1429 4.69099 10.1429 6.81484C10.1429 8.93869 11.8733 10.6667 14 10.6667C16.1267 10.6667 17.8571 8.93869 17.8571 6.81484C17.8571 4.69099 16.1267 2.96299 14 2.96299Z" fill="#424242"/>
<path d="M26.685 21.3333L22.6042 26.2696V21.3333H26.685ZM21.4175 29.037C21.4175 30.0172 20.6187 30.8148 19.6373 30.8148H8.36273C7.38125 30.8148 6.58254 30.0172 6.58254 29.037V2.96296C6.58254 1.98281 7.38125 1.18519 8.36273 1.18519H19.6373C20.6187 1.18519 21.4175 1.98281 21.4175 2.96296V29.037ZM1.31496 21.3333H5.39575V26.2696L1.31496 21.3333ZM1.31496 12.4444H5.39575V17.3807L1.31496 12.4444ZM1.31496 3.55556H5.39575V8.49185L1.31496 3.55556ZM22.6042 8.49185V3.55556H26.685L22.6042 8.49185ZM26.685 12.4444L22.6042 17.3807V12.4444H26.685ZM27.6469 13.1431C28.1442 12.541 27.997 12.051 27.911 11.8679C27.825 11.6847 27.5395 11.2593 26.758 11.2593H22.6042V10.3532L27.6469 4.25422C28.1442 3.65215 27.997 3.16208 27.911 2.97896C27.825 2.79585 27.5395 2.37037 26.758 2.37037H22.5443C22.2684 1.01985 21.0697 0 19.6373 0H8.36273C6.93027 0 5.73161 1.01985 5.45568 2.37037H1.24197C0.460468 2.37037 0.175048 2.79585 0.0890055 2.97896C0.00296305 3.16208 -0.144202 3.65215 0.353064 4.25422L5.39575 10.3532V11.2593H1.24197C0.460468 11.2593 0.175048 11.6847 0.0890055 11.8679C0.00296305 12.051 -0.144202 12.541 0.353064 13.1431L5.39575 19.2421V20.1481H1.24197C0.460468 20.1481 0.175048 20.5736 0.0890055 20.7567C0.00296305 20.9399 -0.144202 21.4299 0.353064 22.032L5.39575 28.131V29.037C5.39575 30.6708 6.72673 32 8.36273 32H19.6373C21.2733 32 22.6042 30.6708 22.6042 29.037V28.131L27.6469 22.032C28.1442 21.4299 27.997 20.9399 27.911 20.7567C27.825 20.5736 27.5395 20.1481 26.758 20.1481H22.6042V19.2421L27.6469 13.1431Z" fill="#424242"/>
</svg>
