<svg width="33" height="23" viewBox="0 0 33 23" fill="none" xmlns="http://www.w3.org/2000/svg">
<path d="M14.6667 21.4812C14.6667 21.5857 14.4283 21.785 14.0555 21.785C13.6657 21.785 13.2244 21.4429 13.1291 21.0638L13.1114 20.994C12.8804 20.0754 11.9533 19.3549 11 19.3549H4.88889C3.93555 19.3549 3.0085 20.0754 2.77811 20.9915L2.75917 21.0663C2.66444 21.4429 2.22322 21.785 1.83333 21.785C1.46055 21.785 1.22222 21.5857 1.22222 21.4812V13.2797C1.22222 12.9444 1.49661 12.6722 1.83333 12.6722H14.0555C14.3923 12.6722 14.6667 12.9444 14.6667 13.2797V21.4812ZM2.68705 2.49143C5.97911 0.789163 9.90916 0.788554 13.1975 2.4896C13.3167 2.55278 13.4444 2.77028 13.4444 2.87599V7.91717C13.2483 7.85277 13.0442 7.81207 12.8333 7.81207H12.2222V5.98952C12.2222 4.98468 11.3997 4.16696 10.3889 4.16696H5.5C4.48922 4.16696 3.66666 4.98468 3.66666 5.98952V7.81207H3.05555C2.84533 7.81207 2.64061 7.85277 2.44444 7.91717V2.87721C2.44444 2.77028 2.57216 2.55279 2.68705 2.49143ZM11 7.81207H4.88889V5.98952C4.88889 5.65417 5.16327 5.382 5.5 5.382H10.3889C10.7256 5.382 11 5.65417 11 5.98952V7.81207ZM2.23544 9.71786C2.29716 9.3497 2.68033 9.0271 3.05555 9.0271H12.8333C13.2092 9.0271 13.5923 9.3497 13.6541 9.71786L13.9455 11.4572H1.94334L2.23544 9.71786ZM15.2613 11.9177L14.8592 9.51859C14.8262 9.32115 14.7559 9.13645 14.6667 8.96149V2.87477C14.666 2.31161 14.2798 1.68464 13.7653 1.4143C10.1206 -0.472042 5.76828 -0.471432 2.11934 1.41612C1.60906 1.68465 1.22283 2.31161 1.22222 2.87599V8.96209C1.133 9.13645 1.06272 9.32115 1.02972 9.51859L0.627612 11.9177C0.245668 12.2518 0 12.7354 0 13.2797V21.4812C0 22.319 0.822555 23 1.83333 23C2.78667 23 3.71372 22.2795 3.94411 21.3634L3.96305 21.2886C4.05777 20.912 4.499 20.5699 4.88889 20.5699H11C11.3899 20.5699 11.8311 20.912 11.9264 21.2911L11.9442 21.3609C12.1752 22.2795 13.1022 23 14.0555 23C15.0663 23 15.8889 22.319 15.8889 21.4812V13.2797C15.8889 12.7354 15.6432 12.2518 15.2613 11.9177Z" fill="#424242"/>
<path d="M31.7778 21.4812C31.7778 21.5857 31.5394 21.785 31.1667 21.785C30.7768 21.785 30.3356 21.4429 30.2402 21.0638L30.2225 20.994C29.9915 20.0754 29.0644 19.3549 28.1111 19.3549H22C21.0467 19.3549 20.1196 20.0754 19.8892 20.9915L19.8703 21.0663C19.7756 21.4429 19.3343 21.785 18.9445 21.785C18.5717 21.785 18.3333 21.5857 18.3333 21.4812V13.2797C18.3333 12.9444 18.6077 12.6722 18.9445 12.6722H31.1667C31.5034 12.6722 31.7778 12.9444 31.7778 13.2797V21.4812ZM19.7982 2.49143C23.0902 0.789163 27.0203 0.788554 30.3087 2.4896C30.4278 2.55278 30.5556 2.77028 30.5556 2.87599V7.91717C30.3594 7.85277 30.1547 7.81207 29.9444 7.81207H29.3333V5.98952C29.3333 4.98468 28.5108 4.16696 27.5 4.16696H22.6111C21.6003 4.16696 20.7778 4.98468 20.7778 5.98952V7.81207H20.1667C19.9565 7.81207 19.7517 7.85277 19.5556 7.91717V2.87721C19.5556 2.77028 19.6833 2.55279 19.7982 2.49143ZM28.1111 7.81207H22V5.98952C22 5.65417 22.2744 5.382 22.6111 5.382H27.5C27.8367 5.382 28.1111 5.65417 28.1111 5.98952V7.81207ZM19.3466 9.71845C19.4083 9.34969 19.7915 9.0271 20.1667 9.0271H29.9444C30.3197 9.0271 30.7028 9.3497 30.7646 9.71786L31.0567 11.4572H19.0545L19.3466 9.71845ZM32.3724 11.9177L31.9703 9.51859C31.9373 9.32115 31.867 9.13645 31.7778 8.96209V2.87477C31.7772 2.31161 31.3909 1.68464 30.8764 1.4143C27.2317 -0.472042 22.8788 -0.471432 19.2305 1.41612C18.7202 1.68465 18.334 2.31161 18.3333 2.87599V8.9627C18.2441 9.13706 18.1738 9.32175 18.1408 9.51859L17.7387 11.9177C17.3568 12.2518 17.1111 12.7354 17.1111 13.2797V21.4812C17.1111 22.319 17.9337 23 18.9445 23C19.8978 23 20.8248 22.2795 21.0552 21.3634L21.0742 21.2886C21.1689 20.912 21.6101 20.5699 22 20.5699H28.1111C28.501 20.5699 28.9422 20.912 29.0376 21.2911L29.0553 21.3609C29.2863 22.2795 30.2133 23 31.1667 23C32.1774 23 33 22.319 33 21.4812V13.2797C33 12.7354 32.7543 12.2518 32.3724 11.9177Z" fill="#424242"/>
</svg>
