<svg width="32" height="32" viewBox="0 0 32 32" fill="none" xmlns="http://www.w3.org/2000/svg">
<path d="M30.6786 16.6192C30.5563 16.8341 30.3266 16.9806 30.0299 17.0315L27.1759 17.5212C27.0204 16.3807 26.6789 15.2468 26.1672 14.1359L28.633 14.2903C29.4064 14.3387 30.3407 15.0028 30.6313 15.7111L30.6915 15.8595C30.8039 16.1343 30.7996 16.4043 30.6786 16.6192ZM23.8906 24.2052C22.4771 25.5982 20.6158 26.3343 18.5088 26.3343C15.5209 26.3343 12.3837 24.865 9.6759 22.1965C7.31886 19.8737 5.85008 17.1543 5.53987 14.5397C5.24623 12.0662 5.99136 9.81052 7.63767 8.18811C9.05116 6.79514 10.9125 6.05839 13.0195 6.05839C16.0074 6.05839 19.144 7.52826 21.8524 10.1968C24.2088 12.5196 25.6782 15.2389 25.9884 17.8536C26.2814 20.3271 25.5369 22.5828 23.8906 24.2052ZM16.5419 30.0017C16.5148 30.2959 16.3864 30.5326 16.18 30.6676C15.9742 30.8026 15.7027 30.8286 15.4164 30.7378L14.9852 30.6028C14.2628 30.3764 13.5871 29.5246 13.5392 28.7794L13.3807 26.3186C14.4999 26.8513 15.6419 27.2157 16.782 27.401L16.5419 30.0017ZM3.44881 18.9965C2.67173 18.8639 1.76257 18.1024 1.50395 17.3681L1.28958 16.7608C1.19375 16.4884 1.2091 16.2378 1.33319 16.0556C1.45728 15.8734 1.6864 15.7644 1.9788 15.7481L4.47835 15.6131C4.74557 16.9074 5.25238 18.1871 5.97233 19.4294L3.44881 18.9965ZM4.22835 8.51321C4.20132 8.48597 4.17122 8.46174 4.13989 8.44055C2.34616 7.23646 2.01322 3.82275 2.29395 3.21616C2.56547 3.08056 3.62388 2.97704 4.81315 3.25128C5.54293 3.41897 6.85812 3.85846 7.47426 4.91908C7.5019 4.96509 7.53509 5.00806 7.57318 5.04559L8.54129 5.99968C7.90304 6.36291 7.30656 6.8024 6.76905 7.3321C6.12282 7.96896 5.60683 8.693 5.20446 9.47454L4.22835 8.51321ZM15.4201 1.98362C15.4429 1.69122 15.5645 1.45815 15.7629 1.32678C15.9638 1.19602 16.2286 1.1736 16.5111 1.26441L17.1322 1.46358C17.8546 1.69544 18.5303 2.55387 18.5795 3.30091L18.7809 6.39619C17.6015 5.76236 16.3907 5.31743 15.1787 5.07226L15.4201 1.98362ZM31.831 15.4072L31.7702 15.2589C31.3021 14.116 29.958 13.1601 28.711 13.082L25.6156 12.8883C25.5818 12.8865 25.5517 12.8979 25.5191 12.9016C24.7942 11.666 23.8654 10.4686 22.721 9.34075C21.8579 8.4902 20.9506 7.75526 20.0163 7.13657C20.0384 7.06755 20.0513 6.99431 20.0464 6.91803L19.8056 3.22343C19.7245 1.97696 18.7164 0.6984 17.5124 0.312775L16.8914 0.113604C16.2519 -0.0916188 15.5915 -0.0165568 15.0798 0.320638C14.5687 0.657833 14.2468 1.23053 14.1952 1.8916L13.9606 4.89487C13.6461 4.86642 13.3322 4.84763 13.0195 4.84763C11.837 4.84763 10.722 5.05347 9.69678 5.44636C9.68142 5.42759 9.67404 5.404 9.65623 5.38644L8.49708 4.24409C7.44111 2.51695 5.23762 2.05443 4.3297 1.93517C3.31919 1.8026 1.94933 1.83349 1.41613 2.35956C0.95295 2.81601 0.941875 3.81245 1.01375 4.56735C1.16425 6.14678 1.87929 8.35097 3.39905 9.40735L4.48759 10.4801C4.5527 10.5442 4.62948 10.5878 4.71057 10.6169C4.31435 11.7901 4.17858 13.0723 4.30144 14.4096L1.91185 14.5391C1.2349 14.5761 0.651949 14.883 0.31286 15.3812C-0.0262295 15.8794 -0.0932018 16.5266 0.129172 17.158L0.343575 17.7652C0.748393 18.916 2.01997 19.9809 3.23873 20.1897L6.6198 20.769C6.65481 20.7751 6.69042 20.7781 6.72544 20.7781C6.76414 20.7781 6.79977 20.7654 6.83663 20.7582C7.40792 21.5458 8.05908 22.3152 8.80729 23.0525C9.86203 24.092 10.9825 24.9607 12.138 25.6514C12.1275 25.7017 12.1128 25.7513 12.1165 25.8052L12.313 28.8563C12.3935 30.104 13.404 31.3783 14.6129 31.7566L15.0448 31.8916C15.277 31.9643 15.5123 32 15.7426 32C16.1456 32 16.532 31.8904 16.86 31.6761C17.3742 31.3389 17.7053 30.7687 17.7655 30.1112L18.0039 27.5305C18.1728 27.5384 18.3411 27.545 18.5088 27.545C20.9488 27.545 23.1099 26.6866 24.7592 25.0612C26.4455 23.4 27.3196 21.1813 27.2766 18.7332L30.2412 18.2247C30.9003 18.1115 31.452 17.7404 31.7523 17.207C32.0527 16.6737 32.081 16.0175 31.831 15.4072Z" fill="#424242"/>
<path d="M15.672 19.7902L11.6263 15.8031L14.7506 12.7242L18.7963 16.7112L15.672 19.7902ZM22.5564 13.8617C22.3162 13.625 21.928 13.625 21.6878 13.8617L19.6649 15.8552L15.6192 11.8682L17.642 9.87468C17.8822 9.63798 17.8822 9.2554 17.642 9.0187C17.4018 8.782 17.0136 8.782 16.7734 9.0187L14.7506 11.0122L13.342 9.62407C13.1018 9.38737 12.7136 9.38737 12.4734 9.62407C12.2332 9.86078 12.2332 10.2434 12.4734 10.4801L13.8819 11.8682L10.7576 14.9471L9.04192 13.2563C8.80173 13.0196 8.41352 13.0196 8.17333 13.2563C7.93314 13.493 7.93314 13.8756 8.17333 14.1123L9.88903 15.8031L8.17333 17.494C7.93314 17.7307 7.93314 18.1133 8.17333 18.35C8.29312 18.468 8.45037 18.5273 8.60763 18.5273C8.76488 18.5273 8.92213 18.468 9.04192 18.35L10.7576 16.6592L14.8034 20.6462L13.0877 22.337C12.8475 22.5737 12.8475 22.9563 13.0877 23.193C13.2075 23.311 13.3647 23.3704 13.522 23.3704C13.6792 23.3704 13.8365 23.311 13.9563 23.193L15.672 21.5022L17.3877 23.193C17.5075 23.311 17.6648 23.3704 17.822 23.3704C17.9793 23.3704 18.1365 23.311 18.2563 23.193C18.4965 22.9563 18.4965 22.5737 18.2563 22.337L16.5406 20.6462L19.6649 17.5672L21.6878 19.5607C21.8076 19.6788 21.9648 19.7381 22.1221 19.7381C22.2793 19.7381 22.4366 19.6788 22.5564 19.5607C22.7965 19.324 22.7965 18.9414 22.5564 18.7047L20.5335 16.7112L22.5564 14.7177C22.7965 14.481 22.7965 14.0984 22.5564 13.8617Z" fill="#424242"/>
</svg>
