<svg width="33" height="32" viewBox="0 0 33 32" fill="none" xmlns="http://www.w3.org/2000/svg">
<path d="M32.3889 19.3208H0.611139C0.273806 19.3208 2.79767e-05 19.5906 2.79767e-05 19.9245C2.79767e-05 20.2584 0.273806 20.5283 0.611139 20.5283H32.3889C32.7262 20.5283 33 20.2584 33 19.9245C33 19.5906 32.7262 19.3208 32.3889 19.3208Z" fill="#424242"/>
<path d="M16.5 4.83019C23.7081 4.83019 29.6102 10.4646 29.931 17.5094H3.06902C3.38986 10.4646 9.29197 4.83019 16.5 4.83019ZM15.2778 2.4151C15.2778 1.74913 15.826 1.20755 16.5 1.20755C17.1741 1.20755 17.7222 1.74913 17.7222 2.4151C17.7222 3.08106 17.1741 3.62264 16.5 3.62264C15.826 3.62264 15.2778 3.08106 15.2778 2.4151ZM2.44447 18.717H30.5556C30.5592 18.717 30.5635 18.717 30.5678 18.717C30.9051 18.717 31.1789 18.4471 31.1789 18.1132C31.1789 18.0709 31.1746 18.0293 31.1661 17.99C31.1049 10.7345 25.6178 4.73721 18.5265 3.76392C18.7905 3.37872 18.9445 2.91442 18.9445 2.4151C18.9445 1.08317 17.8481 0 16.5 0C15.1519 0 14.0556 1.08317 14.0556 2.4151C14.0556 2.91442 14.2096 3.37872 14.4736 3.76392C7.34252 4.74264 1.83336 10.8027 1.83336 18.1132C1.83336 18.4471 2.10714 18.717 2.44447 18.717Z" fill="#424242"/>
<path d="M12.1862 7.45902C8.77131 8.81087 6.18203 11.7132 5.26048 15.2254C5.17553 15.5478 5.3717 15.8774 5.69865 15.9614C5.74998 15.9746 5.80131 15.9807 5.85203 15.9807C6.12398 15.9807 6.37209 15.8001 6.44298 15.5285C7.26798 12.387 9.5847 9.78959 12.6409 8.58083C12.9537 8.45645 13.1065 8.10506 12.9806 7.79532C12.8554 7.48619 12.4997 7.33585 12.1862 7.45902Z" fill="#424242"/>
<path d="M18.3334 28.9811H10.3889C10.2985 28.9811 10.2093 29.0011 10.1274 29.0397C10.0809 29.0608 9.09703 29.5348 8.63137 30.7925H1.67937C3.42776 27.9837 7.22154 22.9434 10.3889 22.9434H21.3522C21.304 23.1879 21.2019 23.4717 20.9941 23.6969C20.7142 23.9982 20.2718 24.1509 19.6778 24.1509H13.4445C13.2367 24.1509 13.043 24.2554 12.9305 24.4287C12.8181 24.6014 12.8022 24.8187 12.889 25.0059C12.9886 25.2214 14.0073 27.1161 18.9377 27.1698L19.0343 27.1704C22.9057 27.1704 25.3911 24.6768 25.495 24.5706C25.5384 24.5265 25.5744 24.4758 25.6025 24.4208C25.6092 24.4069 26.3377 23.008 28.0824 23.008C28.1826 23.008 28.2853 23.0128 28.3892 23.0225C27.3436 24.707 24.1151 28.9811 18.3334 28.9811ZM29.499 22.0045C29.0125 21.8699 28.5359 21.8004 28.0824 21.8004C25.8775 21.8004 24.8105 23.363 24.5642 23.7814C24.2122 24.1129 22.1076 25.9623 19.0343 25.9623H18.9512C17.1637 25.9623 15.9959 25.6658 15.246 25.3585H19.6778C20.6354 25.3585 21.3852 25.0699 21.9053 24.5011C22.7321 23.5973 22.6136 22.3324 22.6081 22.2786C22.5763 21.9707 22.3135 21.7358 22 21.7358H10.3889C5.40165 21.7358 0.292153 30.7206 0.0770417 31.1034C-0.0280693 31.29 -0.0256251 31.5182 0.0843748 31.7023C0.194375 31.8871 0.394819 32 0.611152 32H9.08786C9.37448 32 9.62259 31.8038 9.68431 31.5272C9.8652 30.7254 10.3468 30.3269 10.5539 30.1887H18.3334C25.3269 30.1887 29.2331 24.3768 29.8962 22.8202C29.9646 22.6608 29.9597 22.4797 29.884 22.3245C29.8076 22.1681 29.6676 22.0516 29.499 22.0045Z" fill="#424242"/>
</svg>
