<svg width="32" height="32" viewBox="0 0 32 32" fill="none" xmlns="http://www.w3.org/2000/svg">
<path d="M14.6631 26.8402C14.6607 26.2761 14.653 25.6165 14.6412 24.8888H17.3695C17.3481 25.7712 17.3315 26.4426 17.3215 26.8396C16.4355 26.8053 15.549 26.8059 14.6631 26.8402ZM16 1.18518C16.7253 1.18518 17.7778 2.57007 17.7778 4.74073C17.7778 6.93687 17.6397 13.4097 17.5135 18.8539C16.9262 18.4995 16.3265 18.3425 15.7197 18.3934C15.2486 18.4331 14.8462 18.5979 14.5114 18.7952C14.4901 17.9265 14.4681 17.0453 14.4462 16.17C14.336 11.7659 14.2222 7.21242 14.2222 4.74073C14.2222 2.57007 15.2747 1.18518 16 1.18518ZM14.5464 20.2696C14.755 20.0432 15.2184 19.6219 15.8275 19.5739C16.3508 19.53 16.909 19.7914 17.4791 20.3205C17.4501 21.5591 17.4228 22.7081 17.3985 23.7036H14.621C14.6009 22.6435 14.5748 21.4814 14.5464 20.2696ZM21.5401 27.2402C21.5443 27.2023 21.6456 26.2808 21.8056 24.8384L24.6548 25.2414C24.4551 26.4367 24.3016 27.3445 24.221 27.8198C23.338 27.594 22.4373 27.4186 21.5312 27.2681C21.5324 27.258 21.5389 27.2503 21.5401 27.2402ZM24.029 5.77183C24.3217 3.61658 25.5306 2.35674 26.2287 2.45274C26.9368 2.53985 27.8073 4.04444 27.5579 6.20325C27.1952 9.34991 26.3792 14.6447 25.6373 19.2521C25.066 18.7727 24.4509 18.5042 23.7979 18.4633C23.3025 18.4361 22.8616 18.5439 22.4942 18.6927C23.0417 13.8577 23.6859 8.29093 24.029 5.77183ZM22.3306 20.1416C22.5351 19.9768 23.0785 19.5999 23.7339 19.6473C24.3081 19.687 24.8687 20.048 25.402 20.7057C25.2041 21.9235 25.0162 23.0636 24.8491 24.0716L21.9366 23.6604C22.0521 22.6257 22.186 21.4281 22.3306 20.1416ZM31.7125 30.8995C29.7611 29.7273 27.6141 28.823 25.3659 28.1534C25.703 26.1724 28.0408 12.3597 28.7347 6.33896C29.0346 3.7446 27.975 1.47376 26.3733 1.27584C24.794 1.08739 23.2065 3.0246 22.8539 5.61185C22.3662 9.19702 21.2729 18.9125 20.7105 23.9638C20.6963 24.0023 20.6755 24.0373 20.6696 24.0793C20.6613 24.1362 20.6714 24.1896 20.6791 24.2441C20.4983 25.8713 20.3798 26.9487 20.3644 27.0861C19.7475 27.0061 19.1277 26.9475 18.5061 26.9019C18.5707 24.2986 18.9629 8.45331 18.9629 4.74073C18.9629 2.12681 17.6338 0 16 0C14.3662 0 13.0371 2.12681 13.0371 4.74073C13.0371 7.22783 13.1508 11.789 13.261 16.1997C13.3636 20.2797 13.4685 24.4876 13.4779 26.903C12.7159 26.9599 11.958 27.0453 11.2036 27.1537L8.88181 12.3526C8.83085 12.0296 8.53339 11.8074 8.2045 11.8589C7.88154 11.9099 7.6605 12.2127 7.71087 12.5362L7.74938 12.784C7.20953 13.546 5.27237 16.4195 5.59355 17.978C5.67533 18.3727 5.88925 18.6844 6.2134 18.8782C6.62525 19.1253 7.00925 19.2491 7.36125 19.2491C7.57102 19.2491 7.77012 19.2053 7.95679 19.117C8.25308 18.9771 8.37931 18.6239 8.23945 18.3282C8.0996 18.0325 7.74701 17.9057 7.45071 18.0456C7.33694 18.0983 7.10345 18.0302 6.82375 17.8625C6.8036 17.8506 6.77457 17.8328 6.75442 17.7386C6.62761 17.1247 7.28895 15.7386 8.02317 14.5292L10.032 27.3362C9.54078 27.4245 9.05605 27.533 8.57131 27.6438L3.57814 14.8764C3.45903 14.5718 3.11651 14.4207 2.81015 14.541C2.50555 14.6601 2.35504 15.0038 2.47415 15.3084L2.55355 15.5111C2.16481 16.3371 0.748528 19.5312 1.34349 21.0162C1.49341 21.3902 1.75889 21.6592 2.11148 21.7931C2.44037 21.9181 2.74318 21.9804 3.01755 21.9804C3.34111 21.9804 3.62615 21.8939 3.86911 21.7208C4.13577 21.5312 4.1986 21.1608 4.00956 20.8942C3.81934 20.6287 3.44955 20.5659 3.18289 20.7549C3.08037 20.8272 2.83861 20.8011 2.53283 20.685C2.5115 20.6773 2.47948 20.6648 2.44334 20.576C2.20334 19.9774 2.63889 18.4302 3.16807 17.0832L7.40922 27.9264C4.8765 28.6085 2.4629 29.5934 0.287504 30.8995C0.00720931 31.0678 -0.0840448 31.4322 0.0848431 31.7125C0.252546 31.9928 0.616972 32.084 0.897859 31.9152C9.64862 26.6607 22.3514 26.6607 31.1021 31.9152C31.1975 31.9726 31.303 31.9999 31.4067 31.9999C31.6082 31.9999 31.8043 31.8974 31.9152 31.7125C32.084 31.4322 31.9928 31.0678 31.7125 30.8995Z" fill="#424242"/>
</svg>
