<svg width="32" height="31" viewBox="0 0 32 31" fill="none" xmlns="http://www.w3.org/2000/svg">
<path d="M30.5256 26.6217C30.4628 26.7013 30.355 26.7451 30.2222 26.7451H1.77778C1.45114 26.7451 1.18519 26.4728 1.18519 26.1373C1.18613 24.1776 1.58216 18.6881 3.38193 16.8415C3.49304 16.7278 3.55556 16.5728 3.55556 16.4118V3.64706C3.55556 3.31214 3.82151 3.03922 4.14815 3.03922H8.29606C9.15277 3.03922 10.1292 2.53105 10.5669 1.85695C10.7849 1.52142 11.3972 1.21569 11.8516 1.21569H13.037C13.3637 1.21569 13.6296 1.48861 13.6296 1.82353V5.47059H12.4444C12.1172 5.47059 11.8519 5.7429 11.8519 6.07843C11.8519 6.41396 12.1172 6.68627 12.4444 6.68627H13.6296V7.29412C13.6296 7.99435 13.7259 9.12433 13.8447 9.81302C13.8579 9.89021 13.934 10.3145 14.0852 10.9412H13.037C12.7097 10.9412 12.4444 11.2135 12.4444 11.549C12.4444 11.8845 12.7097 12.1569 13.037 12.1569H14.412C14.6315 12.8972 14.9223 13.7415 15.2935 14.5895L13.9412 15.3365C13.653 15.4957 13.5454 15.8641 13.7004 16.1595C13.8076 16.3638 14.0118 16.4792 14.2229 16.4792C14.3176 16.4792 14.4136 16.4561 14.5032 16.4069L15.8194 15.6799C16.2393 16.4646 16.7384 17.2074 17.3227 17.8256L16.944 18.4566C16.7722 18.7429 16.859 19.1173 17.1377 19.2929C17.2347 19.3543 17.3419 19.3835 17.4479 19.3835C17.647 19.3835 17.8412 19.2808 17.9532 19.0942L18.234 18.6261C18.9591 19.1373 19.7898 19.451 20.7407 19.451H20.9086L20.8738 19.9476C20.8505 20.2825 21.0963 20.5737 21.4227 20.5974C21.4373 20.5986 21.4514 20.5992 21.4655 20.5992C21.7739 20.5992 22.0338 20.3549 22.0563 20.0345L22.0966 19.451H26.0741C28.5932 19.451 30.1807 24.3891 30.5796 26.291C30.6074 26.4248 30.5884 26.5421 30.5256 26.6217ZM31.4607 27.3639C31.7369 27.0004 31.8394 26.5196 31.7387 26.0363C31.6723 25.7184 30.0628 18.2353 26.0741 18.2353H20.7407C16.5521 18.2353 15.0266 9.6878 15.0118 9.60149C14.9051 8.98149 14.8148 7.92506 14.8148 7.29412V1.82353C14.8148 0.818157 14.0174 0 13.037 0H11.8516C10.9951 0 10.019 0.508169 9.5808 1.18227C9.36273 1.5184 8.75069 1.82353 8.29606 1.82353H4.14815C3.16782 1.82353 2.37037 2.64169 2.37037 3.64706V16.1717C0.0277926 18.9003 0 25.8364 0 26.1373C0 26.6168 0.184948 27.0502 0.481008 27.376C0.209008 27.4313 0 27.6654 0 27.9608V29.1765C0 30.1818 0.797452 31 1.77778 31H9.48148C9.80877 31 10.0741 30.7283 10.0741 30.3922C10.0741 30.056 9.80877 29.7843 9.48148 29.7843H1.77778C1.45114 29.7843 1.18519 29.512 1.18519 29.1765V27.9608C1.18519 27.9182 1.16966 27.8811 1.1616 27.841C1.35437 27.9146 1.56041 27.9608 1.77778 27.9608H30.2222C30.4409 27.9608 30.6483 27.9134 30.8397 27.8343C30.8308 27.8763 30.8148 27.9158 30.8148 27.9608V29.1765C30.8148 29.512 30.5487 29.7843 30.2222 29.7843H15.4074C15.0801 29.7843 14.8148 30.056 14.8148 30.3922C14.8148 30.7283 15.0801 31 15.4074 31H30.2222C31.2024 31 32 30.1818 32 29.1765V27.9608C32 27.6441 31.7618 27.3931 31.4607 27.3639Z" fill="#424242"/>
<path d="M10.6667 7.90195C10.994 7.90195 11.2593 7.62964 11.2593 7.29411C11.2593 6.95858 10.994 6.68626 10.6667 6.68626C10.34 6.68626 10.0741 6.41334 10.0741 6.07842C10.0741 5.7435 10.34 5.47058 10.6667 5.47058C10.994 5.47058 11.2593 5.19826 11.2593 4.86273C11.2593 4.52721 10.994 4.25489 10.6667 4.25489C9.68634 4.25489 8.88889 5.07305 8.88889 6.07842C8.88889 7.08379 9.68634 7.90195 10.6667 7.90195Z" fill="#424242"/>
<path d="M10.6667 13.3725C10.994 13.3725 11.2593 13.1002 11.2593 12.7647C11.2593 12.4292 10.994 12.1569 10.6667 12.1569C10.34 12.1569 10.0741 11.8839 10.0741 11.549C10.0741 11.2141 10.34 10.9412 10.6667 10.9412C10.994 10.9412 11.2593 10.6689 11.2593 10.3333C11.2593 9.99779 10.994 9.72548 10.6667 9.72548C9.68634 9.72548 8.88889 10.5436 8.88889 11.549C8.88889 12.5544 9.68634 13.3725 10.6667 13.3725Z" fill="#424242"/>
<path d="M12.6472 17.2913C12.3542 17.4415 11.9977 17.3193 11.8518 17.0196C11.781 16.8743 11.7696 16.7096 11.8197 16.5558C11.8699 16.4014 11.9755 16.2768 12.1169 16.2045C12.4095 16.0544 12.5285 15.689 12.3819 15.3888C12.2357 15.0891 11.8803 14.9669 11.5868 15.1171C11.1622 15.3347 10.8456 15.7091 10.6953 16.1711C10.5451 16.633 10.5796 17.1278 10.7916 17.5636C11.103 18.2013 11.7324 18.5708 12.3852 18.5708C12.6518 18.5708 12.9224 18.5094 13.1768 18.3787C13.4697 18.2292 13.5887 17.8639 13.4421 17.5636C13.2956 17.264 12.941 17.1412 12.6472 17.2913Z" fill="#424242"/>
<path d="M16.7081 20.7475C16.588 20.894 16.2676 20.897 16 20.6667C15.8657 20.5506 15.7734 20.3968 15.7469 20.2448C15.7354 20.1786 15.7273 20.0552 15.8012 19.9646C16.0118 19.7081 15.9796 19.3246 15.7292 19.1088C15.4792 18.8924 15.1053 18.9252 14.8944 19.1823C14.6134 19.5251 14.4988 19.9895 14.5801 20.4582C14.6556 20.8922 14.8889 21.2964 15.2373 21.5967C15.5986 21.9085 16.0335 22.0635 16.45 22.0635C16.8979 22.0635 17.3243 21.8842 17.6148 21.5298C17.8255 21.2733 17.7935 20.8898 17.5428 20.674C17.2926 20.4576 16.9187 20.4904 16.7081 20.7475Z" fill="#424242"/>
<path d="M22.6133 21.1797C22.2904 21.1371 21.9923 21.3742 21.952 21.7073C21.9461 21.7547 21.7269 21.931 21.3331 21.8823C20.9412 21.8319 20.7699 21.604 20.7757 21.5559C20.8162 21.2234 20.5859 20.9195 20.2609 20.8782C19.9354 20.8332 19.6401 21.0721 19.5998 21.4058C19.5002 22.2234 20.1972 22.9619 21.1864 23.0883C21.2828 23.1011 21.3787 23.1071 21.4722 23.1071C22.3348 23.1071 23.0376 22.5947 23.1277 21.858C23.1686 21.5249 22.9381 21.221 22.6133 21.1797Z" fill="#424242"/>
<path d="M4.90371 16.4355C4.58957 16.3425 4.26086 16.5297 4.17109 16.8524C4.08101 17.1752 4.26317 17.5119 4.57778 17.6037C4.61529 17.6147 8.2963 18.772 8.2963 25.5294C8.2963 25.8655 8.5616 26.1372 8.88889 26.1372C9.21618 26.1372 9.48149 25.8655 9.48149 25.5294C9.48149 17.8651 5.09049 16.4896 4.90371 16.4355Z" fill="#424242"/>
</svg>
