<svg width="30" height="28" viewBox="0 0 30 28" fill="none" xmlns="http://www.w3.org/2000/svg">
<path d="M24.7262 24.2978C24.7262 25.7333 23.7364 26.7752 22.3727 26.7752C22.2318 26.7752 22.088 26.7643 21.9442 26.7417L20.835 26.5671C18.9065 26.2632 16.3499 26.0157 15.1359 26.0157C13.923 26.0157 11.3669 26.2452 9.43729 26.5273L7.72312 26.778C6.90214 26.8968 6.14578 26.6481 5.62 26.1051C5.17457 25.6455 4.92945 25.0035 4.92945 24.2978V23.877C4.92945 22.1483 5.97111 20.2134 7.20375 19.6532C8.76653 18.9425 10.4312 17.0374 10.9151 15.4072C11.2731 14.2032 13.0048 13.1475 14.6217 13.1475H15.0334C16.6503 13.1475 18.3825 14.2032 18.7406 15.4072C19.2157 17.0094 20.881 18.8943 22.4519 19.6096C23.6636 20.161 24.7262 22.1542 24.7262 23.877V24.2978ZM22.9247 18.5199C21.6664 17.9471 20.2318 16.3304 19.855 15.0603C19.3461 13.3484 17.1831 11.9553 15.0334 11.9553H14.6217C12.4726 11.9553 10.3095 13.3484 9.80063 15.0603C9.41576 16.3579 7.98106 17.9948 6.73095 18.5634C5.06744 19.32 3.76494 21.6543 3.76494 23.877V24.2978C3.76494 25.3202 4.13002 26.2601 4.79321 26.9445C5.45175 27.6251 6.34957 28 7.32194 28C7.50884 28 7.69926 27.9862 7.88791 27.959L9.60207 27.708C11.4863 27.4321 13.9684 27.2079 15.1359 27.2079C16.3004 27.2079 18.7779 27.4486 20.658 27.7451L21.7672 27.9196C21.9692 27.9518 22.173 27.9674 22.3727 27.9674C24.378 27.9674 25.8907 26.3901 25.8907 24.2978V23.877C25.8907 21.6673 24.5603 19.2638 22.9247 18.5199Z" fill="#424242"/>
<path d="M8.7834 2.34804C9.09491 1.73705 9.58692 1.35103 10.2064 1.2299C10.3316 1.20546 10.4586 1.19217 10.5832 1.19217C11.7902 1.19217 12.7823 2.32968 13.1107 4.08879C13.3145 5.18248 13.247 6.36208 12.9244 7.32535C12.6292 8.21107 12.1582 8.77807 11.6341 8.88054C10.4329 9.11736 8.93946 7.14539 8.53538 4.98411C8.34323 3.95401 8.42881 3.0426 8.7834 2.34804ZM11.4461 10.0906C11.5823 10.0906 11.718 10.0781 11.8525 10.052C12.8126 9.8636 13.5847 9.03325 14.0267 7.71233C14.4127 6.55837 14.4959 5.15637 14.2549 3.86525C13.817 1.51727 12.3754 0 10.5832 0C10.3852 0 10.1849 0.0205064 9.98809 0.058477C9.02038 0.247555 8.2262 0.865039 7.75166 1.79618C7.27362 2.73132 7.14959 3.91115 7.39181 5.20764C7.82967 7.5561 9.50482 10.0906 11.4461 10.0906Z" fill="#424242"/>
<path d="M1.52557 11.6631C0.802409 9.88156 1.1803 8.31683 2.46651 7.76897C2.72038 7.66114 2.98355 7.60618 3.24906 7.60618C4.29654 7.60618 5.26017 8.43837 5.82729 9.83148C6.6308 11.8093 6.35423 14.2043 5.26948 14.6667C5.13614 14.7233 4.99001 14.7515 4.83338 14.7515C3.70206 14.7515 2.21846 13.3656 1.52557 11.6631ZM5.71667 15.7672C7.61716 14.9578 7.86694 11.7478 6.90213 9.37369C6.14927 7.52028 4.78331 6.41401 3.24906 6.41401C2.82925 6.41401 2.41584 6.49991 2.01933 6.66854C0.120002 7.47695 -0.524568 9.71877 0.451297 12.1204C1.33633 14.3003 3.22053 15.9437 4.83338 15.9437C5.14431 15.9437 5.44126 15.8845 5.71667 15.7672Z" fill="#424242"/>
<path d="M17.5802 3.69483C18.0408 2.17064 18.9881 1.2234 20.053 1.2234C20.2766 1.2234 20.5025 1.26507 20.7244 1.34727C22.0455 1.83671 22.569 3.50038 21.9978 5.39296C21.3765 7.45177 19.6647 9.15598 18.5514 8.74105C17.4189 8.32146 16.938 5.82208 17.5802 3.69483ZM18.1543 9.86246C18.3953 9.95188 18.6492 9.997 18.9112 9.997H18.9118C20.5462 9.997 22.3908 8.12893 23.1105 5.74459C23.8744 3.21307 23.0563 0.943776 21.1215 0.22609C20.7715 0.0966795 20.4123 0.0312304 20.053 0.0312304C18.4582 0.0312304 17.0841 1.30024 16.4675 3.34302C15.7111 5.85004 16.2177 9.1446 18.1543 9.86246Z" fill="#424242"/>
<path d="M28.4446 12.0207C27.7161 13.7047 26.1609 15.1271 25.0482 15.1264C24.9132 15.1264 24.7868 15.105 24.6738 15.0614C24.3838 14.9499 24.155 14.6935 23.992 14.2972C23.5931 13.3263 23.7038 11.7978 24.2669 10.496C24.8672 9.10776 25.8954 8.24463 26.9499 8.24463C27.1857 8.24463 27.418 8.28862 27.6404 8.37339C28.1161 8.55573 28.4707 8.90217 28.6646 9.37487C28.9552 10.0811 28.8766 11.0211 28.4446 12.0207ZM29.7377 8.9129C29.421 8.14079 28.8206 7.55264 28.0486 7.25692C27.6957 7.12161 27.3255 7.05246 26.9499 7.05246C25.4046 7.05246 24.0037 8.15939 23.2025 10.0126C22.5067 11.6213 22.3949 13.4841 22.9189 14.7592C23.2065 15.4603 23.6718 15.9502 24.2657 16.1779C24.5102 16.2715 24.7734 16.3185 25.0482 16.3185C26.6512 16.3185 28.5685 14.6782 29.5089 12.5036C30.0725 11.1999 30.1541 9.92482 29.7377 8.9129Z" fill="#424242"/>
<path d="M15.0136 14.5822C14.8244 14.5578 13.1469 14.3862 12.5681 15.4876C12.3498 15.9025 12.2089 16.2857 12.1052 16.5647C12.0616 16.6828 12.0086 16.8259 11.9771 16.892C11.7786 17.0881 11.739 17.4076 11.8979 17.6514C12.0103 17.823 12.1949 17.9161 12.3829 17.9161C12.4936 17.9161 12.6065 17.8833 12.7055 17.816C12.9495 17.6491 13.052 17.3712 13.194 16.9868C13.2913 16.7244 13.4118 16.3984 13.594 16.0526C13.7338 15.7882 14.4424 15.716 14.8756 15.7665C15.1999 15.8061 15.4846 15.5716 15.5225 15.2456C15.5609 14.9189 15.3332 14.622 15.0136 14.5822Z" fill="#424242"/>
</svg>
