<svg width="25" height="31" viewBox="0 0 25 31" fill="none" xmlns="http://www.w3.org/2000/svg">
<path d="M16.1861 10.93C16.148 10.9224 16.1122 10.9076 16.0712 10.9076H4.16647C4.12718 10.9076 4.09325 10.922 4.05634 10.9289L1.92123 8.61179L18.3164 8.62097L16.1861 10.93ZM10.1188 17.5065L5.09504 12.0557H15.148L10.1188 17.5065ZM2.976 4.59285C2.976 4.23744 3.14801 3.92348 3.4117 3.71222C3.41944 3.70752 3.42778 3.70643 3.43492 3.70126C3.4504 3.69093 3.45813 3.67549 3.47241 3.66401C3.66825 3.52743 3.90694 3.44471 4.16647 3.44471C4.82301 3.44471 5.35694 3.95959 5.35694 4.59285C5.35694 5.2261 4.82301 5.74098 4.16647 5.74098C3.50992 5.74098 2.976 5.2261 2.976 4.59285ZM19.6432 7.47352L6.86168 7.46658L5.91169 6.14283C6.30276 5.73358 6.54741 5.19223 6.54741 4.59285C6.54741 3.32651 5.47956 2.29657 4.16647 2.29657C3.8504 2.29657 3.5498 2.35915 3.27361 2.46764L1.67959 0.247667C1.49209 -0.0129028 1.12184 -0.0788641 0.851604 0.102542C0.581368 0.282627 0.513494 0.640272 0.700994 0.900842L2.32182 3.15883C1.99146 3.55327 1.78553 4.04748 1.78553 4.59285C1.78553 5.85919 2.85338 6.88912 4.16647 6.88912C4.42718 6.88912 4.6742 6.83866 4.90932 6.76334L5.41289 7.46543L0.595636 7.46319C0.595041 7.46319 0.595055 7.46319 0.595055 7.46319C0.360532 7.46319 0.148026 7.59574 0.0521929 7.80178C-0.04364 8.00787 -0.00555075 8.24961 0.150401 8.4185L9.52359 18.5887V27.5556C9.52359 27.8729 9.78966 28.1297 10.1188 28.1297C11.8843 28.1297 13.0825 29.1044 13.742 29.8519H6.44324C6.81288 29.4018 7.37776 28.8638 8.15693 28.5084C8.45454 28.3729 8.58132 28.031 8.44144 27.7444C8.30037 27.4585 7.94679 27.3334 7.64918 27.4706C5.70692 28.3553 4.85158 30.1113 4.81646 30.186C4.73134 30.3638 4.74683 30.5712 4.85575 30.7354C4.96528 30.9 5.15396 31 5.35694 31H14.8807C15.089 31 15.2819 30.8948 15.389 30.7244C15.4974 30.5529 15.5051 30.3391 15.4093 30.1613C15.3426 30.0389 13.845 27.3248 10.7141 27.0114V18.5892L20.0872 8.42923C20.2432 8.25994 20.2813 8.01889 20.1854 7.81211C20.0896 7.60602 19.8777 7.47352 19.6432 7.47352Z" fill="#424242"/>
<path d="M24.614 4.05489L19.8521 2.33268C19.614 2.24766 19.348 2.31494 19.1849 2.50266L16.2087 5.94708C15.9986 6.19105 16.0331 6.55317 16.2849 6.75657C16.3968 6.84538 16.5313 6.88912 16.6658 6.88912C16.8367 6.88912 17.0057 6.81914 17.1242 6.68303L19.8289 3.55143L24.195 5.1308C24.5027 5.24045 24.8462 5.09177 24.9622 4.79492C25.0771 4.49755 24.9211 4.16677 24.614 4.05489Z" fill="#424242"/>
</svg>
