<svg width="32" height="32" viewBox="0 0 32 32" fill="none" xmlns="http://www.w3.org/2000/svg">
<path d="M5.33333 30.2222C5.33333 30.5487 5.06726 30.8148 4.74074 30.8148H2.37037C2.04385 30.8148 1.77778 30.5487 1.77778 30.2222V23.1111C1.77778 22.7846 2.04385 22.5185 2.37037 22.5185H4.74074C5.06726 22.5185 5.33333 22.7846 5.33333 23.1111V30.2222ZM2.67023 17.485C2.98134 17.1455 3.29659 16.8012 3.55556 16.435C3.81452 16.8012 4.12977 17.1455 4.44089 17.485C5.20474 18.32 5.92593 19.1082 5.92593 20.1482C5.92593 21.0483 5.51763 21.4951 5.50696 21.507C5.50518 21.5088 5.50519 21.5105 5.50341 21.5123C5.27171 21.4009 5.01511 21.3333 4.74074 21.3333H2.37037C2.09659 21.3333 1.84059 21.4003 1.60888 21.5111C1.58399 21.4844 1.18519 21.0388 1.18519 20.1482C1.18519 19.1082 1.90637 18.32 2.67023 17.485ZM7.11111 20.1482C7.11111 18.6477 6.15703 17.6047 5.31496 16.685C4.68918 16.0006 4.14815 15.4098 4.14815 14.8148C4.14815 14.4877 3.88267 14.2222 3.55556 14.2222C3.22844 14.2222 2.96296 14.4877 2.96296 14.8148C2.96296 15.4098 2.42193 16.0006 1.79615 16.685C0.954077 17.6047 0 18.6477 0 20.1482C0 21.539 0.687996 22.2667 0.766218 22.3449C0.767996 22.3467 0.769779 22.3467 0.771557 22.3484C0.660149 22.5801 0.592593 22.8373 0.592593 23.1111V30.2222C0.592593 31.2024 1.39022 32 2.37037 32H4.74074C5.72089 32 6.51852 31.2024 6.51852 30.2222V23.1111C6.51852 22.8367 6.45096 22.5801 6.33955 22.3484C6.34133 22.3467 6.34311 22.3467 6.34489 22.3449C6.42311 22.2667 7.11111 21.539 7.11111 20.1482Z" fill="#424242"/>
<path d="M22.5185 30.2222C22.5185 30.5487 22.2525 30.8148 21.9259 30.8148H18.963V22.5185C18.963 20.5576 17.6338 18.963 16 18.963C14.3662 18.963 13.037 20.5576 13.037 22.5185V30.8148H10.0741C9.74756 30.8148 9.48149 30.5487 9.48149 30.2222V17.1852C9.48149 16.8587 9.74756 16.5926 10.0741 16.5926H21.9259C22.2525 16.5926 22.5185 16.8587 22.5185 17.1852V30.2222ZM21.9259 15.4074H10.0741C9.09394 15.4074 8.29631 16.205 8.29631 17.1852V30.2222C8.29631 31.2024 9.09394 32 10.0741 32H13.6296C13.9567 32 14.2222 31.7345 14.2222 31.4074V22.5185C14.2222 21.2338 15.0365 20.1482 16 20.1482C16.9636 20.1482 17.7778 21.2338 17.7778 22.5185V31.4074C17.7778 31.7345 18.0433 32 18.3704 32H21.9259C22.9061 32 23.7037 31.2024 23.7037 30.2222V17.1852C23.7037 16.205 22.9061 15.4074 21.9259 15.4074Z" fill="#424242"/>
<path d="M30.2222 30.2222C30.2222 30.5487 29.9561 30.8148 29.6296 30.8148H27.2593C26.9327 30.8148 26.6667 30.5487 26.6667 30.2222V23.1111C26.6667 22.7846 26.9327 22.5185 27.2593 22.5185H29.6296C29.9561 22.5185 30.2222 22.7846 30.2222 23.1111V30.2222ZM27.5591 17.485C27.8702 17.1455 28.1855 16.8012 28.4444 16.435C28.7034 16.8012 29.0187 17.1455 29.3298 17.485C30.0936 18.32 30.8148 19.1082 30.8148 20.1482C30.8148 21.0483 30.4065 21.4951 30.3958 21.507C30.3941 21.5088 30.3941 21.5105 30.3923 21.5123C30.1606 21.4009 29.904 21.3333 29.6296 21.3333H27.2593C26.9855 21.3333 26.7295 21.4003 26.4978 21.5111C26.4729 21.4844 26.0741 21.0388 26.0741 20.1482C26.0741 19.1082 26.7953 18.32 27.5591 17.485ZM31.2338 22.3449C31.312 22.2667 32 21.539 32 20.1482C32 18.6477 31.0459 17.6047 30.2038 16.685C29.5781 16.0006 29.037 15.4098 29.037 14.8148C29.037 14.4877 28.7716 14.2222 28.4444 14.2222C28.1173 14.2222 27.8519 14.4877 27.8519 14.8148C27.8519 15.4098 27.3108 16.0006 26.685 16.685C25.843 17.6047 24.8889 18.6477 24.8889 20.1482C24.8889 21.539 25.5769 22.2667 25.6551 22.3449C25.6569 22.3467 25.6587 22.3467 25.6604 22.3484C25.549 22.5801 25.4815 22.8373 25.4815 23.1111V30.2222C25.4815 31.2024 26.2791 32 27.2593 32H29.6296C30.6098 32 31.4074 31.2024 31.4074 30.2222V23.1111C31.4074 22.8367 31.3399 22.5801 31.2284 22.3484C31.2302 22.3467 31.232 22.3467 31.2338 22.3449Z" fill="#424242"/>
<path d="M22.9274 13.037H9.0726C8.84504 12.8456 8.2963 12.2222 8.2963 10.6667C8.2963 9.088 10.5351 7.25274 12.5108 5.63319C13.9099 4.48652 15.2569 3.38252 16 2.27141C16.7431 3.38252 18.0901 4.48652 19.4892 5.63319C21.4649 7.25274 23.7037 9.088 23.7037 10.6667C23.7037 12.2222 23.155 12.8456 22.9274 13.037ZM20.2406 4.71643C18.4468 3.2468 16.5926 1.72622 16.5926 0.592592C16.5926 0.265481 16.3271 0 16 0C15.6729 0 15.4074 0.265481 15.4074 0.592592C15.4074 1.72622 13.5532 3.2468 11.7594 4.71643C9.47437 6.59021 7.11111 8.52741 7.11111 10.6667C7.11111 13.3262 8.46933 14.0824 8.624 14.16C8.70578 14.2009 8.79704 14.2222 8.88889 14.2222H23.1111C23.203 14.2222 23.2942 14.2009 23.376 14.16C23.5307 14.0824 24.8889 13.3262 24.8889 10.6667C24.8889 8.52741 22.5256 6.59021 20.2406 4.71643Z" fill="#424242"/>
</svg>
