<svg width="32" height="32" viewBox="0 0 32 32" fill="none" xmlns="http://www.w3.org/2000/svg">
<path d="M14.2222 25.4815C14.5495 25.4815 14.8148 25.216 14.8148 24.8889V17.7778C14.8148 17.4507 14.5495 17.1852 14.2222 17.1852C13.8949 17.1852 13.6296 17.4507 13.6296 17.7778V24.8889C13.6296 25.216 13.8949 25.4815 14.2222 25.4815Z" fill="#424242"/>
<path d="M17.7778 25.4815C18.105 25.4815 18.3704 25.216 18.3704 24.8889V17.7778C18.3704 17.4507 18.105 17.1852 17.7778 17.1852C17.4505 17.1852 17.1852 17.4507 17.1852 17.7778V24.8889C17.1852 25.216 17.4505 25.4815 17.7778 25.4815Z" fill="#424242"/>
<path d="M21.3333 25.4815C21.6606 25.4815 21.9259 25.216 21.9259 24.8889V17.7778C21.9259 17.4507 21.6606 17.1852 21.3333 17.1852C21.006 17.1852 20.7407 17.4507 20.7407 17.7778V24.8889C20.7407 25.216 21.006 25.4815 21.3333 25.4815Z" fill="#424242"/>
<path d="M10.6666 25.4815C10.9939 25.4815 11.2592 25.216 11.2592 24.8889V17.7778C11.2592 17.4507 10.9939 17.1852 10.6666 17.1852C10.3394 17.1852 10.0741 17.4507 10.0741 17.7778V24.8889C10.0741 25.216 10.3394 25.4815 10.6666 25.4815Z" fill="#424242"/>
<path d="M16 12.493L24.6477 16.0539C24.4415 16.1464 24.2963 16.352 24.2963 16.5926V26.0741H7.7037V16.5926C7.7037 16.352 7.55858 16.1464 7.3523 16.0539L16 12.493ZM10.6667 9.48148H21.3333V13.4068L16.2257 11.3037C16.081 11.2444 15.919 11.2444 15.7743 11.3037L10.6667 13.4068V9.48148ZM16 3.55555C18.4444 3.55555 21.0475 4.81481 21.3114 8.29629H10.6887C10.9525 4.81481 13.5556 3.55555 16 3.55555ZM31.5473 19.8263L25.6213 18.3869C25.5739 18.3757 25.5283 18.3816 25.4815 18.3816V16.5926C25.4815 16.5167 25.4643 16.4456 25.4382 16.3792L25.8483 16.5481C25.9224 16.5784 25.9988 16.5926 26.0741 16.5926C26.307 16.5926 26.528 16.4545 26.6222 16.2258C26.7467 15.923 26.6027 15.5769 26.2999 15.4518L22.5185 13.8951V8.88888C22.5185 5.12948 20.2097 2.63764 16.5877 2.39467C16.5882 2.38579 16.5926 2.37867 16.5926 2.37037V0.592592C16.5926 0.265481 16.3273 0 16 0C15.6727 0 15.4074 0.265481 15.4074 0.592592V2.37037C15.4074 2.37867 15.4118 2.38579 15.4123 2.39467C11.7903 2.63764 9.48148 5.12948 9.48148 8.88888V13.8951L5.70021 15.4518C5.39769 15.5769 5.25345 15.923 5.37802 16.2258C5.50252 16.5286 5.84954 16.672 6.15165 16.5481L6.5616 16.3792C6.53588 16.4456 6.51852 16.5167 6.51852 16.5926V18.4101L0.457896 19.8252C0.189807 19.888 0 20.1268 0 20.4024V29.037C0 29.3641 0.265304 29.6296 0.592593 29.6296H2.96296C3.29025 29.6296 3.55556 29.3641 3.55556 29.037C3.55556 28.7099 3.29025 28.4444 2.96296 28.4444H1.18519V20.8723L6.51852 19.6267V26.6667C6.51852 26.9938 6.78382 27.2592 7.11111 27.2592H24.8889C25.216 27.2592 25.4815 26.9938 25.4815 26.6667V19.5727L30.8148 20.8681V28.4444H29.037C28.7099 28.4444 28.4444 28.7099 28.4444 29.037C28.4444 29.3641 28.7099 29.6296 29.037 29.6296H31.4074C31.7345 29.6296 32 29.3641 32 29.037V20.4024C32 20.1286 31.8133 19.8909 31.5473 19.8263Z" fill="#424242"/>
<path d="M26.6667 29.6296C26.9938 29.6296 27.2593 29.3641 27.2593 29.037C27.2593 28.7099 26.9938 28.4444 26.6667 28.4444H5.33334C5.00605 28.4444 4.74075 28.7099 4.74075 29.037C4.74075 29.3641 5.00605 29.6296 5.33334 29.6296H26.6667Z" fill="#424242"/>
<path d="M28.4445 30.8148H3.55556C3.22828 30.8148 2.96297 31.0803 2.96297 31.4074C2.96297 31.7345 3.22828 32 3.55556 32H28.4445C28.7716 32 29.037 31.7345 29.037 31.4074C29.037 31.0803 28.7716 30.8148 28.4445 30.8148Z" fill="#424242"/>
</svg>
