<svg width="18" height="32" viewBox="0 0 18 32" fill="none" xmlns="http://www.w3.org/2000/svg">
<path d="M11.4 23.7037H6.6V22.5185H11.4V23.7037ZM6 21.3333C5.6688 21.3333 5.4 21.5982 5.4 21.9259V24.2963C5.4 24.624 5.6688 24.8889 6 24.8889H12C12.3312 24.8889 12.6 24.624 12.6 24.2963V21.9259C12.6 21.5982 12.3312 21.3333 12 21.3333H6Z" fill="#424242"/>
<path d="M16.8 29.037C16.8 30.0172 15.9924 30.8148 15 30.8148H3C2.0076 30.8148 1.2 30.0172 1.2 29.037V21.3333C1.2 17.5117 3.8736 14.9138 9.1458 13.6118C12.9924 12.6619 13.8 10.5191 13.8 8.88889C13.8 6.27496 11.6466 4.14815 9 4.14815C6.648 4.14815 4.6074 5.87792 4.2498 8.20385C4.248 8.2157 4.24739 8.22933 4.25399 8.23052C4.21199 8.25007 4.0788 8.2963 3.7656 8.2963H1.68721C1.44181 8.2963 1.3008 8.27081 1.2264 8.25067C1.5564 4.28385 4.9602 1.18519 9 1.18519C13.3008 1.18519 16.8 4.64118 16.8 8.88889V29.037ZM9 0C4.3176 0 0.374995 3.60889 0.0251953 8.21511C0.0155953 8.34015 -0.0125936 8.72059 0.291606 9.04474C0.571806 9.34282 1.01461 9.48148 1.68721 9.48148H3.7656C4.7832 9.48148 5.3304 9.11822 5.4408 8.34963C5.7054 6.62993 7.236 5.33333 9 5.33333C10.9854 5.33333 12.6 6.928 12.6 8.88889C12.6 10.6465 11.34 11.8483 8.8542 12.4622C3.0618 13.8922 0 16.96 0 21.3333V29.037C0 30.6708 1.3458 32 3 32H15C16.6542 32 18 30.6708 18 29.037V8.88889C18 3.98756 13.9626 0 9 0Z" fill="#424242"/>
<path d="M9 27.8519C6.3534 27.8519 4.2 25.7251 4.2 23.1111C4.2 20.4972 6.3534 18.3704 9 18.3704C11.6466 18.3704 13.8 20.4972 13.8 23.1111C13.8 25.7251 11.6466 27.8519 9 27.8519ZM9 17.1852C5.6916 17.1852 3 19.8436 3 23.1111C3 26.3787 5.6916 29.0371 9 29.0371C12.3084 29.0371 15 26.3787 15 23.1111C15 19.8436 12.3084 17.1852 9 17.1852Z" fill="#424242"/>
</svg>
