<svg width="21" height="32" viewBox="0 0 21 32" fill="none" xmlns="http://www.w3.org/2000/svg">
<path d="M14.5231 16.2767C13.938 15.8998 13.4331 15.5739 13.0737 15.3013C12.2032 14.6412 11.6439 13.4637 11.6388 13.4519C11.5006 13.1585 11.1585 13.0359 10.8737 13.1763C10.5889 13.3191 10.4691 13.6723 10.6061 13.9668C10.6336 14.0255 11.2903 15.4193 12.3964 16.2578C12.7901 16.5559 13.3116 16.8925 13.9162 17.2824C14.3666 17.5722 14.8709 17.8987 15.393 18.256C15.5179 19.4104 15.6429 20.6927 15.7638 22.0681C16.1437 26.3923 14.9517 27.6071 13.0451 28.1013C12.8915 28.141 12.7609 28.2447 12.6841 28.3876C12.6067 28.5304 12.5906 28.6998 12.6382 28.8557C12.8239 29.4601 13.2153 30.2252 13.5442 30.8148H11.4342C11.7379 30.5559 11.9878 30.2874 12.0932 30.0421C12.2187 29.7511 12.3121 29.1639 11.527 28.5084C11.4158 28.4154 11.2731 28.3668 11.1304 28.3781C10.8611 28.3964 10.5803 28.4065 10.3001 28.4166C10.7642 28.0278 11.1207 27.5502 11.354 26.9748C12.2875 24.6744 10.9958 21.5455 9.89946 20.0036C8.35731 17.8347 8.40488 16.7698 8.49027 14.8373C8.51778 14.2151 8.54929 13.5099 8.52866 12.675C8.50001 11.5271 8.13151 10.7419 7.43408 10.3419C6.89023 10.0296 6.24668 10.0267 5.65183 10.1446C6.24955 9.29955 6.76931 8.4557 7.01115 7.47792C7.28279 6.38103 6.59969 5.60532 6.09996 5.0388C5.92288 4.83791 5.75496 4.64772 5.64665 4.47112C5.48676 4.21157 5.38648 3.95614 5.34063 3.69065C5.30682 3.49391 5.17271 3.344 4.99849 3.27052C4.31997 2.70163 3.50162 2.40297 2.67238 2.2329C3.38242 2.1932 4.33143 2.21097 5.51082 2.33067C5.67071 2.34667 5.82489 2.29512 5.94351 2.18727C6.62892 1.56919 7.73667 1.18519 8.83412 1.18519C10.7883 1.18519 11.417 2.11142 12.0863 4.18845C12.3121 4.88949 12.382 5.28119 12.4628 5.73452C12.5196 6.05037 12.5792 6.384 12.6921 6.8397C12.9328 7.81155 13.197 8.37451 13.4531 8.9191C13.5712 9.17095 13.6921 9.43468 13.8153 9.74282C13.8193 9.76534 13.8153 9.78726 13.8216 9.80978C13.8503 9.90697 14.5391 12.2157 16.1403 13.6427C18.4252 15.6794 19.3077 18.4172 19.6464 20.3508C18.1455 18.6121 16.0452 17.2581 14.5231 16.2767ZM7.26674 30.8148H5.51485C5.85297 30.5683 6.11659 30.3135 6.22031 30.0717C6.32633 29.8258 6.31832 29.5627 6.25356 29.3008C6.53494 29.3802 6.8272 29.4453 7.13036 29.4957C7.03293 29.9402 7.11029 30.403 7.26674 30.8148ZM2.08897 20.7052C1.85401 16.2501 3.07297 13.8228 4.40079 11.8874C4.84206 11.6237 6.20082 10.9896 6.87877 11.379C7.19568 11.5609 7.36531 12.0077 7.38251 12.7058C7.40256 13.4981 7.3722 14.1807 7.34526 14.7828C7.25758 16.7662 7.19397 18.1985 8.97624 20.7058C9.94875 22.0735 11.0015 24.7804 10.2972 26.5161C9.89602 27.5046 8.94184 28.1162 7.46044 28.3354C7.45184 28.3366 7.44554 28.3419 7.43752 28.3437C4.05005 27.8424 2.33654 25.3807 2.08897 20.7052ZM16.8893 12.7455C16.0572 12.0042 15.5036 10.9345 15.2004 10.2205C15.1999 10.2175 15.2004 10.2139 15.1993 10.2104C14.9483 9.39021 14.7013 8.86459 14.4835 8.40119C14.2325 7.86489 14.0148 7.40149 13.8027 6.5452C13.6973 6.12268 13.6428 5.81275 13.5901 5.51942C13.5047 5.04297 13.4251 4.59318 13.1735 3.81392C12.5517 1.88444 11.7047 0 8.83412 0C7.56876 0 6.27418 0.427854 5.38706 1.1283C3.47011 0.949928 1.1268 0.925625 0.335376 1.72859C0.0923912 1.97511 -0.0222267 2.28562 0.00356182 2.62636C0.0259119 2.91851 0.251118 3.14962 0.534219 3.17095C2.10273 3.2865 3.38129 3.43705 4.27758 4.19201C4.36297 4.5055 4.49821 4.81186 4.6793 5.10697C4.84091 5.37008 5.05007 5.60711 5.25294 5.83704C5.72802 6.3763 6.01342 6.72948 5.90109 7.184C5.65123 8.19081 5.00196 9.07791 4.24893 10.1055C2.64145 12.2998 0.64138 15.0305 0.945112 20.7698C1.1434 24.5179 2.29645 27.0821 4.37787 28.4528C4.40022 28.4883 4.41569 28.5268 4.44607 28.557C4.78418 28.9037 5.11655 29.3979 5.15609 29.6047C4.93259 29.8602 3.95721 30.429 2.99043 30.864C2.74114 30.9754 2.60246 31.2533 2.65805 31.5283C2.71249 31.8027 2.94744 32 3.21851 32H8.26104C8.48282 32 8.6834 31.8673 8.77796 31.6604C8.87309 31.4536 8.84386 31.2077 8.70288 31.0305C8.54929 30.8362 8.04441 30.0379 8.30917 29.6095C8.48109 29.6172 8.64958 29.6296 8.82723 29.6296C8.86162 29.6296 8.89602 29.6296 8.9304 29.6296C9.59231 29.6296 10.2909 29.6136 10.9602 29.5763C10.9769 29.5947 10.99 29.6107 10.9998 29.6249C10.7803 29.8916 10.0124 30.4486 9.24445 30.8889C9.01579 31.0204 8.90232 31.2942 8.96765 31.5556C9.03355 31.8175 9.26105 32 9.52237 32H14.5649C14.7752 32 14.9689 31.8809 15.0686 31.6895C15.1689 31.4981 15.1598 31.2658 15.0451 31.0839C14.8216 30.7301 14.2835 29.821 13.946 29.0572C16.3701 28.1606 17.2595 25.9929 16.9053 21.9609C16.8182 20.9748 16.73 20.0385 16.6406 19.1597C17.9747 20.1884 19.2527 21.4151 19.9117 22.8172C20.0091 23.0246 20.212 23.1502 20.4269 23.1502C20.4699 23.1502 20.5129 23.1455 20.5559 23.1354C20.816 23.0738 21 22.8338 21 22.5576C21 21.5313 20.8023 16.2341 16.8893 12.7455Z" fill="#424242"/>
</svg>
