<svg width="32" height="32" viewBox="0 0 32 32" fill="none" xmlns="http://www.w3.org/2000/svg">
<path d="M30.4975 15.2818C30.485 15.3333 30.3894 15.4074 30.3356 15.4074H27.9464C27.8926 15.4074 27.797 15.3333 27.7839 15.2812L27.5163 14.2222H30.7657L30.4975 15.2818ZM28.1082 22.9855C28.0957 23.037 28.0001 23.1111 27.9464 23.1111H25.5571C25.5033 23.1111 25.4077 23.037 25.3946 22.9849L25.127 21.9259H28.3764L28.1082 22.9855ZM14.2079 14.8148C14.2079 13.8347 15.0119 13.037 15.9999 13.037C16.9879 13.037 17.7919 13.8347 17.7919 14.8148C17.7919 15.795 16.9879 16.5926 15.9999 16.5926C15.0119 16.5926 14.2079 15.795 14.2079 14.8148ZM17.6246 27.2593L17.3564 28.3188C17.3439 28.3704 17.2483 28.4444 17.1945 28.4444H14.8052C14.7515 28.4444 14.6559 28.3704 14.6428 28.3182L14.3751 27.2593H17.6246ZM24.7973 6.9849L24.5297 5.92593H27.7791L27.5109 6.98547C27.4984 7.03703 27.4028 7.11111 27.349 7.11111H24.9597C24.906 7.11111 24.8104 7.03704 24.7973 6.9849ZM17.3564 2.24473C17.3439 2.29629 17.2483 2.37037 17.1945 2.37037H14.8052C14.7515 2.37037 14.6559 2.2963 14.6428 2.24416L14.3751 1.18519H17.6246L17.3564 2.24473ZM7.2019 6.98547C7.18936 7.03703 7.09379 7.11111 7.04003 7.11111H4.65073C4.59697 7.11111 4.50139 7.03704 4.48825 6.9849L4.22065 5.92593H7.47011L7.2019 6.98547ZM4.21528 15.2818C4.20274 15.3333 4.10717 15.4074 4.05341 15.4074H1.66412C1.61036 15.4074 1.51477 15.3333 1.50163 15.2812L1.23403 14.2222H4.48349L4.21528 15.2818ZM6.60458 22.9855C6.59203 23.037 6.49646 23.1111 6.4427 23.1111H4.05341C3.99965 23.1111 3.90407 23.037 3.89093 22.9849L3.62333 21.9259H6.87279L6.60458 22.9855ZM31.783 13.4335C31.5841 13.1816 31.2746 13.037 30.933 13.037H29.6165C29.3895 11.3185 28.8322 9.64504 27.9768 8.13452C28.3125 7.95615 28.5777 7.64386 28.6703 7.27231L28.9791 6.05156C29.061 5.72267 28.9947 5.38903 28.7963 5.13718C28.5974 4.88533 28.288 4.74074 27.9464 4.74074H25.2536C23.4234 3.08504 21.1918 1.96562 18.7834 1.47318L18.8246 1.31082C18.9065 0.981933 18.8402 0.648293 18.6418 0.396441C18.4429 0.144589 18.1335 0 17.7919 0H14.2079C13.8662 0 13.5568 0.144589 13.3579 0.396441C13.1596 0.648293 13.0933 0.981326 13.1757 1.3114L13.217 1.47378C10.8504 1.95734 8.65221 3.0471 6.83934 4.65718C6.81186 4.68147 6.7981 4.71289 6.7766 4.74074H4.05341C3.71174 4.74074 3.40233 4.88533 3.20342 5.13718C3.00511 5.38903 2.93882 5.72207 3.02125 6.05214L3.32886 7.2717C3.42205 7.64385 3.68724 7.95614 4.02413 8.1351C3.16876 9.64502 2.60968 11.3209 2.3833 13.037H1.06679C0.725123 13.037 0.415711 13.1816 0.216802 13.4335C0.0184907 13.6853 -0.0478006 14.0184 0.0346301 14.3484L0.342246 15.568C0.48859 16.1523 1.05724 16.5926 1.66412 16.5926H2.38927C2.57982 18.0421 3.00331 19.4311 3.64304 20.7407H3.45609C3.11442 20.7407 2.80501 20.8853 2.6061 21.1372C2.40778 21.389 2.34149 21.7221 2.42392 22.0521L2.73154 23.2717C2.87788 23.856 3.44653 24.2963 4.05341 24.2963H6.13509C6.37999 24.547 6.63444 24.7923 6.91458 25.0376L7.07348 25.1615C7.18279 25.2468 7.313 25.2883 7.44203 25.2883C7.61943 25.2883 7.79445 25.2107 7.91213 25.0619C8.11581 24.8047 8.0716 24.432 7.81177 24.2299L7.67976 24.1286C7.59016 24.0492 7.50593 23.9579 7.41753 23.875C7.58239 23.7079 7.70665 23.5022 7.76399 23.2723L8.0728 22.0516C8.15464 21.7227 8.08833 21.389 7.89002 21.1372C7.69111 20.8853 7.3817 20.7407 7.04003 20.7407H4.9715C4.26248 19.4447 3.8073 18.0504 3.59705 16.5926H4.05341C4.66089 16.5926 5.22895 16.1523 5.3747 15.5686L5.68351 14.3479C5.76534 14.019 5.69904 13.6853 5.50072 13.4335C5.30182 13.1816 4.9924 13.037 4.65073 13.037H3.58809C3.83061 11.3464 4.41001 9.75467 5.31674 8.2963H7.04003C7.64751 8.2963 8.21557 7.85601 8.36132 7.27231L8.67013 6.05156C8.75196 5.72267 8.68565 5.38903 8.48734 5.13718C8.43896 5.07555 8.38342 5.02103 8.32249 4.97303C9.84925 3.79911 11.6239 2.99911 13.515 2.62222C13.6954 3.15911 14.2312 3.55556 14.8052 3.55556H17.1945C17.7698 3.55556 18.305 3.15853 18.4848 2.62164C20.3771 2.99912 22.1493 3.80148 23.6749 4.97541C23.6152 5.02281 23.5602 5.07674 23.5124 5.13718C23.3141 5.38903 23.2478 5.72207 23.3302 6.05214L23.6379 7.2717C23.7842 7.856 24.3529 8.2963 24.9597 8.2963H26.6812C27.5766 9.73748 28.1692 11.3606 28.4129 13.037H27.349C27.0074 13.037 26.6979 13.1816 26.499 13.4335C26.3007 13.6853 26.2344 14.0184 26.3169 14.3484L26.6245 15.568C26.7708 16.1523 27.3395 16.5926 27.9464 16.5926H28.4021C28.1924 18.051 27.7325 19.4441 27.0229 20.7407H24.9597C24.6181 20.7407 24.3087 20.8853 24.1097 21.1372C23.9114 21.389 23.8451 21.7221 23.9276 22.0521L24.2352 23.2717C24.2937 23.5052 24.4215 23.7132 24.59 23.8815C24.0835 24.3544 23.5357 24.781 22.9581 25.1644L18.4298 16.525C18.7774 16.0409 18.9865 15.453 18.9865 14.8148C18.9865 13.181 17.6467 11.8519 15.9999 11.8519C14.3531 11.8519 13.0133 13.181 13.0133 14.8148C13.0133 15.453 13.2223 16.0409 13.57 16.525L5.91229 31.1342C5.76057 31.4246 5.87466 31.7819 6.16735 31.933C6.25575 31.9787 6.34954 32 6.44212 32C6.65776 32 6.8662 31.8838 6.97312 31.6806L9.52012 26.8213C10.7327 27.4673 12.0253 27.9283 13.3782 28.1878L13.4834 28.605C13.6297 29.1893 14.1984 29.6296 14.8052 29.6296H17.1945C17.802 29.6296 18.3701 29.1893 18.5158 28.6056L18.6203 28.192C19.4208 28.0391 20.2092 27.8181 20.9666 27.5259C21.2748 27.4074 21.4272 27.0643 21.3083 26.7591C21.1882 26.4539 20.8406 26.3016 20.5354 26.4213C19.9858 26.6329 19.416 26.7911 18.8401 26.9233C18.8115 26.7585 18.7458 26.6033 18.6418 26.4705C18.4429 26.2187 18.1335 26.0741 17.7919 26.0741H14.2079C13.8662 26.0741 13.5568 26.2187 13.3579 26.4705C13.2528 26.6038 13.1877 26.7609 13.159 26.9268C12.0814 26.6791 11.0475 26.2921 10.0709 25.7707L14.4833 17.3529C14.9295 17.6166 15.4438 17.7778 15.9999 17.7778C16.556 17.7778 17.0703 17.6166 17.5165 17.3529L25.0266 31.6806C25.1336 31.8838 25.342 32 25.5576 32C25.6502 32 25.7446 31.9787 25.8324 31.933C26.1251 31.7819 26.2392 31.4246 26.0875 31.1342L23.513 26.2228C24.3654 25.6693 25.1545 25.0228 25.8635 24.2963H27.9464C28.5538 24.2963 29.1219 23.856 29.2676 23.2723L29.5765 22.0516C29.6583 21.7227 29.592 21.389 29.3937 21.1372C29.1948 20.8853 28.8853 20.7407 28.5437 20.7407H28.3722C29.0108 19.4323 29.4283 18.0415 29.6183 16.5926H30.3356C30.9431 16.5926 31.5112 16.1523 31.6569 15.5686L31.9657 14.3479C32.0476 14.019 31.9813 13.6853 31.783 13.4335Z" fill="#424242"/>
</svg>
