<svg width="23" height="32" viewBox="0 0 23 32" fill="none" xmlns="http://www.w3.org/2000/svg">
<path d="M21.85 30.2222C21.85 30.5487 21.5918 30.8148 21.275 30.8148H15.525V24.8889C15.525 22.6015 13.7195 20.7407 11.5 20.7407C9.2805 20.7407 7.475 22.6015 7.475 24.8889V30.8148H1.725C1.40818 30.8148 1.15 30.5487 1.15 30.2222V21.3333C1.15 20.8581 1.47258 20.1487 1.82678 19.8447L6.9598 15.4365C7.34505 15.1052 8.12302 14.8148 8.625 14.8148H14.375C14.877 14.8148 15.6549 15.1052 16.0402 15.4359L21.1732 19.8447C21.5274 20.1487 21.85 20.8581 21.85 21.3333V30.2222ZM21.9098 18.9345L16.7768 14.5256C16.1914 14.0231 15.1363 13.6296 14.375 13.6296H8.625C7.8637 13.6296 6.80857 14.0231 6.22322 14.5256L1.0902 18.9339C0.468623 19.4678 0 20.4996 0 21.3333V30.2222C0 31.2024 0.77395 32 1.725 32H8.05C8.3674 32 8.625 31.7345 8.625 31.4074V24.8889C8.625 23.2551 9.91472 21.9259 11.5 21.9259C13.0853 21.9259 14.375 23.2551 14.375 24.8889V31.4074C14.375 31.7345 14.6326 32 14.95 32H21.275C22.2261 32 23 31.2024 23 30.2222V21.3333C23 20.4996 22.5314 19.4679 21.9098 18.9345Z" fill="#424242"/>
<path d="M11.5 6.59022C14.1714 8.00711 15.525 9.37777 15.525 10.6667C15.525 11.2492 15.3588 11.6421 15.2375 11.8518H7.7625C7.64117 11.6421 7.475 11.2492 7.475 10.6667C7.475 9.37777 8.82855 8.00711 11.5 6.59022ZM7.475 13.037H15.525C15.6774 13.037 15.824 12.9748 15.9315 12.8634C16.0074 12.7852 16.675 12.0575 16.675 10.6667C16.675 8.1357 13.5131 6.31645 12.075 5.56148V2.96296H13.225C13.5424 2.96296 13.8 2.69748 13.8 2.37037C13.8 2.04326 13.5424 1.77778 13.225 1.77778H12.075V0.592592C12.075 0.265481 11.8174 0 11.5 0C11.1826 0 10.925 0.265481 10.925 0.592592V1.77778H9.775C9.4576 1.77778 9.2 2.04326 9.2 2.37037C9.2 2.69748 9.4576 2.96296 9.775 2.96296H10.925V5.56148C9.48692 6.31645 6.325 8.1357 6.325 10.6667C6.325 12.0575 6.99257 12.7852 7.06847 12.8634C7.17599 12.9748 7.32262 13.037 7.475 13.037Z" fill="#424242"/>
</svg>
