<svg width="17" height="32" viewBox="0 0 17 32" fill="none" xmlns="http://www.w3.org/2000/svg">
<path d="M8.5 30.8148C4.48254 30.8148 1.21429 27.6249 1.21429 23.7037C1.21429 20.8664 2.93797 18.3046 5.60575 17.1757C5.62093 17.1698 5.63003 17.1573 5.644 17.1496C5.88989 17.0738 6.07143 16.8581 6.07143 16.5926V3.55556C6.07143 2.2483 7.16064 1.18519 8.5 1.18519C9.83936 1.18519 10.9286 2.2483 10.9286 3.55556V16.5926C10.9286 16.8468 11.0943 17.0596 11.3244 17.1437C11.3287 17.1455 11.3311 17.149 11.3354 17.1508C14.039 18.2673 15.7857 20.8391 15.7857 23.7037C15.7857 27.6249 12.5175 30.8148 8.5 30.8148ZM12.1429 16.2122V3.55556C12.1429 1.59467 10.509 0 8.5 0C6.49096 0 4.85714 1.59467 4.85714 3.55556V16.2122C1.89854 17.584 0 20.4907 0 23.7037C0 28.2785 3.81286 32 8.5 32C13.1871 32 17 28.2785 17 23.7037C17 20.483 15.1033 17.5834 12.1429 16.2122Z" fill="#424242"/>
<path d="M8.49999 26.6667C6.8261 26.6667 5.46428 25.3375 5.46428 23.7037C5.46428 22.0699 6.8261 20.7407 8.49999 20.7407C10.1739 20.7407 11.5357 22.0699 11.5357 23.7037C11.5357 25.3375 10.1739 26.6667 8.49999 26.6667ZM9.10713 19.603V9.48149H7.89285V19.603C5.83646 19.8922 4.24999 21.6184 4.24999 23.7037C4.24999 25.9905 6.15642 27.8519 8.49999 27.8519C10.8436 27.8519 12.75 25.9905 12.75 23.7037C12.75 21.6184 11.1635 19.8922 9.10713 19.603Z" fill="#424242"/>
<path d="M13.9643 5.33333H16.3928C16.728 5.33333 17 5.06844 17 4.74074C17 4.41304 16.728 4.14815 16.3928 4.14815H13.9643C13.6291 4.14815 13.3571 4.41304 13.3571 4.74074C13.3571 5.06844 13.6291 5.33333 13.9643 5.33333Z" fill="#424242"/>
<path d="M16.3928 6.51851H13.9643C13.6291 6.51851 13.3571 6.7834 13.3571 7.1111C13.3571 7.4388 13.6291 7.70369 13.9643 7.70369H16.3928C16.728 7.70369 17 7.4388 17 7.1111C17 6.7834 16.728 6.51851 16.3928 6.51851Z" fill="#424242"/>
<path d="M16.3928 8.8889H13.9643C13.6291 8.8889 13.3571 9.15379 13.3571 9.48149C13.3571 9.80919 13.6291 10.0741 13.9643 10.0741H16.3928C16.728 10.0741 17 9.80919 17 9.48149C17 9.15379 16.728 8.8889 16.3928 8.8889Z" fill="#424242"/>
<path d="M16.3928 11.2593H13.9643C13.6291 11.2593 13.3571 11.5241 13.3571 11.8519C13.3571 12.1796 13.6291 12.4444 13.9643 12.4444H16.3928C16.728 12.4444 17 12.1796 17 11.8519C17 11.5241 16.728 11.2593 16.3928 11.2593Z" fill="#424242"/>
<path d="M16.3928 13.6296H13.9643C13.6291 13.6296 13.3571 13.8945 13.3571 14.2222C13.3571 14.5499 13.6291 14.8148 13.9643 14.8148H16.3928C16.728 14.8148 17 14.5499 17 14.2222C17 13.8945 16.728 13.6296 16.3928 13.6296Z" fill="#424242"/>
</svg>
