<svg width="33" height="32" viewBox="0 0 33 32" fill="none" xmlns="http://www.w3.org/2000/svg">
<path d="M31.757 19.1567L31.1814 25.5407C31.1234 26.2157 30.7447 26.7721 30.4375 27.1194C30.3696 27.1958 30.3246 27.2871 30.3036 27.3831C30.2697 27.453 30.2277 27.5609 30.2277 27.6978V30.3473C30.2277 30.5701 29.9051 30.8148 29.6108 30.8148H27.15C26.8527 30.8148 26.5264 30.5701 26.5264 30.3473V27.2593C26.5264 26.9316 26.25 26.6667 25.9095 26.6667H11.1041C10.7635 26.6667 10.4872 26.9316 10.4872 27.2593V30.3473C10.4872 30.5701 10.1645 30.8148 9.87027 30.8148H7.4027C7.10845 30.8148 6.78581 30.5701 6.78581 30.3473V27.6978C6.78581 27.3582 6.52795 27.1834 6.35954 27.0945C5.95116 26.6329 5.44962 26.0616 5.40521 25.5425L4.83335 19.168C4.72416 17.9076 5.56498 16.861 6.8327 16.6803C7.16767 16.6329 7.39715 16.317 7.35089 15.9953C7.31696 15.7582 7.3003 15.6184 7.35027 15.5064C7.36939 15.4637 7.37063 15.4198 7.37865 15.376C7.59086 15.3926 7.80307 15.4074 8.0196 15.4074C12.4415 15.4074 16.0392 11.9514 16.0392 7.7037H23.8404C24.5813 7.7037 27.0624 7.84534 27.8336 9.61719L29.7638 15.6557C29.8292 15.8074 29.8514 15.9745 29.8292 16.1541C29.7953 16.4267 29.9612 16.6856 30.2296 16.7804C31.2357 17.1342 31.8489 18.0895 31.757 19.1567ZM6.51932 27.6154C6.54153 27.5046 6.52425 27.3855 6.4786 27.2788C6.5224 27.373 6.54461 27.4892 6.51932 27.6154ZM1.23378 7.7037C1.23378 4.10963 4.27815 1.18519 8.0196 1.18519C11.761 1.18519 14.8054 4.10963 14.8054 7.7037C14.8054 11.2978 11.761 14.2222 8.0196 14.2222C4.27815 14.2222 1.23378 11.2978 1.23378 7.7037ZM31.0654 15.84C31.0482 15.6255 30.9988 15.4252 30.9229 15.2539L28.9927 9.21541C28.2604 7.52652 26.3339 6.51852 23.8404 6.51852H15.9343C15.3378 2.83319 12.0214 0 8.0196 0C3.59771 0 0 3.456 0 7.7037C0 11.3381 2.63659 14.3852 6.16707 15.1917C6.11895 15.3434 6.08934 15.4922 6.08626 15.6332C4.49838 16.1132 3.4583 17.587 3.60389 19.2681L4.17574 25.6421C4.25223 26.5286 4.88394 27.2563 5.41632 27.8584C5.45148 27.9046 5.49589 27.9508 5.55203 27.9964V30.3473C5.55203 31.2273 6.41691 32 7.4027 32H9.87027C10.8561 32 11.7209 31.2273 11.7209 30.3473V27.8519H25.2926V30.3473C25.2926 31.2273 26.1605 32 27.15 32H29.6108C30.5966 32 31.4615 31.2273 31.4615 30.3473V27.8056C31.4658 27.7956 31.4707 27.7849 31.4751 27.7736C32.0247 27.1141 32.348 26.3787 32.4109 25.6403L32.9864 19.2569C33.1123 17.7985 32.3529 16.4764 31.0654 15.84Z" fill="#424242"/>
<path d="M9.87027 16.5926H27.1433C27.4838 16.5926 27.7601 16.3277 27.7601 16C27.7601 15.6723 27.4838 15.4074 27.1433 15.4074H9.87027C9.52975 15.4074 9.25338 15.6723 9.25338 16C9.25338 16.3277 9.52975 16.5926 9.87027 16.5926Z" fill="#424242"/>
<path d="M27.9779 22.3354C27.2531 22.3354 26.6639 21.7695 26.6639 21.0738C26.6639 20.3775 27.2531 19.8116 27.9779 19.8116C28.7022 19.8116 29.2919 20.3775 29.2919 21.0738C29.2919 21.7695 28.7022 22.3354 27.9779 22.3354ZM27.9779 18.6264C26.5733 18.6264 25.4302 19.7239 25.4302 21.0738C25.4302 22.4231 26.5733 23.5206 27.9779 23.5206C29.3826 23.5206 30.5257 22.4231 30.5257 21.0738C30.5257 19.7239 29.3826 18.6264 27.9779 18.6264Z" fill="#424242"/>
<path d="M8.66921 22.3354C7.94436 22.3354 7.35523 21.7695 7.35523 21.0738C7.35523 20.3775 7.94436 19.8116 8.66921 19.8116C9.39344 19.8116 9.98318 20.3775 9.98318 21.0738C9.98318 21.7695 9.39344 22.3354 8.66921 22.3354ZM8.66921 18.6264C7.26393 18.6264 6.12144 19.7239 6.12144 21.0738C6.12144 22.4231 7.26393 23.5206 8.66921 23.5206C10.0739 23.5206 11.217 22.4231 11.217 21.0738C11.217 19.7239 10.0739 18.6264 8.66921 18.6264Z" fill="#424242"/>
<path d="M22.3944 21.1366L22.0582 22.4284C21.8818 23.1076 21.0872 23.7037 20.3574 23.7037H16.6561C15.9263 23.7037 15.1318 23.1076 14.9553 22.4284L14.6191 21.1366C14.5469 20.8587 14.587 20.6062 14.7332 20.4273C14.8794 20.2471 15.1244 20.1481 15.4223 20.1481H21.5912C21.8892 20.1481 22.1341 20.2471 22.2803 20.4273C22.4265 20.6062 22.4666 20.8587 22.3944 21.1366ZM21.5912 18.963H15.4223C14.7462 18.963 14.1404 19.2308 13.761 19.6972C13.3816 20.1641 13.2583 20.7935 13.4217 21.4234L13.7579 22.7153C14.075 23.9342 15.3477 24.8889 16.6561 24.8889H20.3574C21.6659 24.8889 22.9385 23.9342 23.2556 22.7153L23.5918 21.4234C23.7553 20.7935 23.6319 20.1641 23.2525 19.6972C22.8731 19.2308 22.2673 18.963 21.5912 18.963Z" fill="#424242"/>
<path d="M11.7209 11.2C11.8992 11.2 12.0769 11.1259 12.1984 10.9825C12.4143 10.7289 12.3755 10.3562 12.1108 10.1487L8.63649 7.42223V3.55556C8.63649 3.22786 8.36012 2.96297 8.0196 2.96297C7.67907 2.96297 7.40271 3.22786 7.40271 3.55556V7.70371C7.40271 7.88149 7.48599 8.05037 7.62972 8.16237L11.3311 11.0667C11.4452 11.1562 11.5834 11.2 11.7209 11.2Z" fill="#424242"/>
</svg>
