<svg width="32" height="32" viewBox="0 0 32 32" fill="none" xmlns="http://www.w3.org/2000/svg">
<path d="M26.0031 4.12503C27.0076 4.12503 27.8256 4.93333 27.8256 5.92593C27.8256 6.91852 27.0076 7.72682 26.0031 7.72682C24.9986 7.72682 24.1807 6.91852 24.1807 5.92593C24.1807 4.93333 24.9986 4.12503 26.0031 4.12503ZM26.0031 8.91201C27.6691 8.91201 29.0249 7.57215 29.0249 5.92593C29.0249 4.2797 27.6691 2.93984 26.0031 2.93984C24.3372 2.93984 22.9813 4.2797 22.9813 5.92593C22.9813 7.57215 24.3372 8.91201 26.0031 8.91201Z" fill="#424242"/>
<path d="M26.0031 2.37037C26.3342 2.37037 26.6028 2.10489 26.6028 1.77778V0.592592C26.6028 0.265481 26.3342 0 26.0031 0C25.6721 0 25.4035 0.265481 25.4035 0.592592V1.77778C25.4035 2.10489 25.6721 2.37037 26.0031 2.37037Z" fill="#424242"/>
<path d="M25.4035 10.0741V11.2593C25.4035 11.5864 25.6721 11.8519 26.0031 11.8519C26.3342 11.8519 26.6028 11.5864 26.6028 11.2593V10.0741C26.6028 9.74696 26.3342 9.48148 26.0031 9.48148C25.6721 9.48148 25.4035 9.74696 25.4035 10.0741Z" fill="#424242"/>
<path d="M20.606 6.51852H21.8053C22.1364 6.51852 22.405 6.25304 22.405 5.92593C22.405 5.59882 22.1364 5.33334 21.8053 5.33334H20.606C20.2749 5.33334 20.0063 5.59882 20.0063 5.92593C20.0063 6.25304 20.2749 6.51852 20.606 6.51852Z" fill="#424242"/>
<path d="M31.4003 5.33334H30.2009C29.8699 5.33334 29.6013 5.59882 29.6013 5.92593C29.6013 6.25304 29.8699 6.51852 30.2009 6.51852H31.4003C31.7313 6.51852 32 6.25304 32 5.92593C32 5.59882 31.7313 5.33334 31.4003 5.33334Z" fill="#424242"/>
<path d="M22.5807 8.46994L21.6674 9.37245C21.4329 9.60416 21.4329 9.97925 21.6674 10.2104C21.7843 10.3265 21.9379 10.384 22.0914 10.384C22.2443 10.384 22.3978 10.3265 22.5153 10.2104L23.4287 9.30784C23.6631 9.07614 23.6631 8.70164 23.4287 8.46994C23.1942 8.23823 22.8152 8.23823 22.5807 8.46994Z" fill="#424242"/>
<path d="M29.0016 3.55556C29.1551 3.55556 29.3086 3.49748 29.4255 3.38192L30.3389 2.47941C30.5733 2.2477 30.5733 1.87261 30.3389 1.6415C30.105 1.4098 29.7254 1.4098 29.4909 1.6415L28.5776 2.54402C28.3431 2.77572 28.3431 3.15022 28.5776 3.38192C28.6945 3.49748 28.848 3.55556 29.0016 3.55556Z" fill="#424242"/>
<path d="M22.5807 3.38192C22.6977 3.49748 22.8512 3.55556 23.0047 3.55556C23.1582 3.55556 23.3117 3.49748 23.4287 3.38192C23.6631 3.15022 23.6631 2.77572 23.4287 2.54402L22.5153 1.6415C22.2809 1.4098 21.9013 1.4098 21.6674 1.6415C21.4329 1.87261 21.4329 2.2477 21.6674 2.47941L22.5807 3.38192Z" fill="#424242"/>
<path d="M28.5776 8.46994C28.3431 8.70164 28.3431 9.07614 28.5776 9.30784L29.4909 10.2104C29.6084 10.3265 29.762 10.384 29.9149 10.384C30.0684 10.384 30.2219 10.3265 30.3389 10.2104C30.5733 9.97925 30.5733 9.60416 30.3389 9.37245L29.4255 8.46994C29.1911 8.23823 28.8121 8.23823 28.5776 8.46994Z" fill="#424242"/>
<path d="M30.2009 30.8148H23.0023C23.0197 30.5796 22.9795 30.3307 22.8728 30.0848L20.3667 24.2957C20.3979 24.2969 20.426 24.3016 20.459 24.3016C21.2704 24.3016 21.6974 23.8803 22.0086 23.5727C22.2779 23.3079 22.4092 23.1905 22.7109 23.1905C23.0119 23.1905 23.1432 23.3078 23.4113 23.5721C23.7225 23.8797 24.1489 24.3016 24.9591 24.3016C25.7693 24.3016 26.1956 23.8797 26.5069 23.5721C26.5297 23.5502 26.5447 23.539 26.565 23.5188L30.3143 30.6299C30.3659 30.7277 30.3713 30.7911 30.3808 30.781C30.3695 30.7899 30.3131 30.8148 30.2009 30.8148ZM1.20787 30.7609C1.19408 30.7401 1.19049 30.6649 1.23966 30.5511L7.01644 17.2077C7.22273 17.2545 7.36306 17.3802 7.59034 17.6047C7.91777 17.9277 8.36634 18.3704 9.2149 18.3704C10.0635 18.3704 10.512 17.9277 10.8394 17.6047C11.1345 17.3138 11.279 17.1852 11.6172 17.1852C11.9543 17.1852 12.0982 17.3138 12.392 17.6041C12.7195 17.9277 13.1674 18.3704 14.0154 18.3704C14.8627 18.3704 15.3089 17.9271 15.6357 17.6041C15.8294 17.4127 15.8462 17.293 16.004 17.2326L21.7699 30.5511C21.8191 30.6649 21.8155 30.7401 21.8017 30.7609C21.7879 30.7816 21.719 30.8148 21.5936 30.8148H1.41596C1.29063 30.8148 1.22167 30.7816 1.20787 30.7609ZM11.5051 6.83971L15.5692 16.2276C15.2501 16.3834 14.9641 16.5914 14.7872 16.7662C14.4933 17.0566 14.3518 17.1852 14.0154 17.1852C13.6784 17.1852 13.5344 17.0566 13.24 16.7662C12.9132 16.4427 12.4652 16 11.6172 16C10.7681 16 10.3195 16.4427 9.99209 16.7656C9.69764 17.0566 9.55312 17.1852 9.2149 17.1852C8.87667 17.1852 8.73214 17.0566 8.4377 16.7656C8.21162 16.5428 7.92377 16.2655 7.4902 16.1132L11.5051 6.83971ZM19.4743 22.0077L22.6299 16.1398C22.6377 16.125 22.6449 16.112 22.6521 16.1002C22.6593 16.112 22.6665 16.125 22.6743 16.1398L25.9929 22.4338C25.8676 22.5339 25.7561 22.6382 25.6589 22.7342C25.3909 22.9991 25.2601 23.1164 24.9591 23.1164C24.658 23.1164 24.5273 22.9991 24.2592 22.7342C23.948 22.4267 23.5216 22.0053 22.7109 22.0053C21.9001 22.0053 21.4731 22.4267 21.1613 22.7342C20.8926 22.9991 20.7613 23.1164 20.459 23.1164C20.1568 23.1164 20.0255 22.9991 19.7568 22.7336L19.6423 22.6228L19.4096 22.0853C19.4306 22.0587 19.4581 22.0385 19.4743 22.0077ZM23.7381 15.5923C23.4856 15.1141 23.0905 14.8397 22.6521 14.8397C22.2143 14.8397 21.8179 15.1141 21.5679 15.5881L18.8141 20.7093L12.5282 6.18965C12.2115 5.45958 11.7072 5.38135 11.5051 5.38135C11.3024 5.38135 10.7981 5.45958 10.482 6.18965L0.136834 30.0848C-0.067659 30.5565 -0.0418772 31.0412 0.206993 31.4139C0.455863 31.7861 0.896635 32 1.41596 32H21.5936C21.6416 32 21.6854 31.9893 21.7322 31.9852C21.7574 31.9887 21.7795 32 21.8053 32H30.2009C30.7299 32 31.1658 31.7837 31.3979 31.4062C31.6294 31.0281 31.6222 30.5458 31.3775 30.0824L23.7381 15.5923Z" fill="#424242"/>
</svg>
