<svg width="32" height="32" viewBox="0 0 32 32" fill="none" xmlns="http://www.w3.org/2000/svg">
<path d="M9.60341 16.5926H26.3289C26.6586 16.5926 26.9262 16.3277 26.9262 16C26.9262 15.6723 26.6586 15.4074 26.3289 15.4074H9.60341C9.27368 15.4074 9.00607 15.6723 9.00607 16C9.00607 16.3277 9.27368 16.5926 9.60341 16.5926Z" fill="#424242"/>
<path d="M30.7964 19.1567L30.2391 25.5407C30.1829 26.2157 29.8167 26.7721 29.5187 27.1194C29.453 27.1958 29.4094 27.2871 29.3891 27.3831C29.3562 27.453 29.3156 27.5609 29.3156 27.6978V30.3473C29.3156 30.5701 29.0032 30.8148 28.7182 30.8148H26.3355C26.0476 30.8148 25.7316 30.5701 25.7316 30.3473V27.2593C25.7316 26.9316 25.4639 26.6667 25.1342 26.6667H10.7981C10.4684 26.6667 10.2008 26.9316 10.2008 27.2593V30.3473C10.2008 30.5701 9.88834 30.8148 9.60341 30.8148H7.21406C6.92913 30.8148 6.61672 30.5701 6.61672 30.3473V27.6978C6.61672 27.3641 6.3748 27.1887 6.2171 27.0993C5.82167 26.6382 5.3408 26.0693 5.29719 25.5437L4.76079 19.168C4.65565 17.9105 5.48416 16.864 6.7314 16.6803C7.05576 16.6329 7.28037 16.3354 7.23617 16.0136C7.21048 15.8305 7.23138 15.6693 7.30187 15.5064C7.31023 15.4874 7.3174 15.4678 7.32397 15.4477L7.57485 14.6436C9.65479 13.8471 11.135 11.8572 11.135 9.52771C11.135 9.024 11.0609 8.53688 10.9307 8.06933C11.546 7.83407 12.2616 7.7037 13.0339 7.7037H23.1307C23.8481 7.7037 26.2506 7.84534 26.9973 9.61719L28.8664 15.6557C28.9297 15.8074 28.9512 15.9745 28.9297 16.1541C28.8969 16.4267 29.0575 16.6856 29.3174 16.7804C30.2916 17.1342 30.886 18.0895 30.7964 19.1567ZM1.19468 9.52771C1.19468 8.88948 1.33804 8.26845 1.62954 7.66519C2.77763 5.05482 4.6903 2.5683 5.55286 1.51348C6.42557 2.56534 8.36572 5.05481 9.52217 7.68414C9.79993 8.25777 9.9403 8.87763 9.9403 9.52771C9.9403 11.9022 7.97865 13.8341 5.56719 13.8341C3.15633 13.8341 1.19468 11.9022 1.19468 9.52771ZM30.1268 15.84C30.11 15.6255 30.0623 15.4252 29.9888 15.2539L28.1197 9.21541C27.4107 7.52652 25.5452 6.51852 23.1307 6.51852H13.0339C12.117 6.51852 11.2551 6.67793 10.5036 6.96534C8.89915 3.45067 6.11556 0.331843 5.9949 0.197917C5.882 0.0716944 5.72011 0 5.54927 0C5.38261 0.0165926 5.21418 0.0734757 5.10068 0.201476C4.98002 0.337772 2.11936 3.58756 0.543584 7.17215C0.182791 7.91763 0 8.71052 0 9.52771C0 12.5559 2.49747 15.0193 5.56719 15.0193C5.78821 15.0193 6.00565 15.0027 6.2195 14.9778L6.19141 15.0696C6.11734 15.248 6.06896 15.4323 6.04626 15.6202C4.46809 16.0889 3.42872 17.5733 3.57029 19.2664L4.1067 25.6421C4.18077 26.5274 4.80379 27.2788 5.28106 27.8376C5.31631 27.8892 5.36231 27.9407 5.42204 27.9917V30.3473C5.42204 31.2273 6.25951 32 7.21406 32H9.60341C10.558 32 11.3954 31.2273 11.3954 30.3473V27.8519H24.5369V30.3473C24.5369 31.2273 25.3773 32 26.3355 32H28.7182C29.6728 32 30.5103 31.2273 30.5103 30.3473V27.8056C30.5144 27.7956 30.5192 27.7849 30.5234 27.7736C31.0556 27.1141 31.3686 26.3787 31.4296 25.6403L31.9869 19.2569C32.1087 17.7985 31.3734 16.4764 30.1268 15.84Z" fill="#424242"/>
<path d="M27.1371 22.3354C26.4352 22.3354 25.8648 21.7695 25.8648 21.0738C25.8648 20.3775 26.4352 19.8116 27.1371 19.8116C27.8384 19.8116 28.4094 20.3775 28.4094 21.0738C28.4094 21.7695 27.8384 22.3354 27.1371 22.3354ZM27.1371 18.6264C25.7769 18.6264 24.6701 19.7239 24.6701 21.0738C24.6701 22.4231 25.7769 23.5206 27.1371 23.5206C28.4972 23.5206 29.6041 22.4231 29.6041 21.0738C29.6041 19.7239 28.4972 18.6264 27.1371 18.6264Z" fill="#424242"/>
<path d="M8.4404 22.3354C7.73853 22.3354 7.16807 21.7695 7.16807 21.0738C7.16807 20.3775 7.73853 19.8116 8.4404 19.8116C9.14168 19.8116 9.71274 20.3775 9.71274 21.0738C9.71274 21.7695 9.14168 22.3354 8.4404 22.3354ZM8.4404 18.6264C7.07966 18.6264 5.97339 19.7239 5.97339 21.0738C5.97339 22.4231 7.07966 23.5206 8.4404 23.5206C9.80054 23.5206 10.9074 22.4231 10.9074 21.0738C10.9074 19.7239 9.80054 18.6264 8.4404 18.6264Z" fill="#424242"/>
<path d="M21.7306 21.1366L21.405 22.4284C21.2342 23.1076 20.4648 23.7037 19.7582 23.7037H16.1741C15.4675 23.7037 14.6981 23.1076 14.5273 22.4284L14.2017 21.1366C14.1318 20.8587 14.1707 20.6062 14.3122 20.4273C14.4538 20.2471 14.6909 20.1481 14.9795 20.1481H20.9528C21.2414 20.1481 21.4785 20.2471 21.6201 20.4273C21.7616 20.6062 21.8005 20.8587 21.7306 21.1366ZM20.9528 18.963H14.9795C14.3248 18.963 13.7382 19.2308 13.3708 19.6972C13.0035 20.1641 12.884 20.7935 13.0423 21.4234L13.3678 22.7153C13.6749 23.9342 14.9072 24.8889 16.1741 24.8889H19.7582C21.0251 24.8889 22.2574 23.9342 22.5645 22.7153L22.89 21.4234C23.0483 20.7935 22.9288 20.1641 22.5615 19.6972C22.1941 19.2308 21.6075 18.963 20.9528 18.963Z" fill="#424242"/>
<path d="M4.46092 10.4901C3.67363 10.0699 3.8158 9.11409 3.85403 8.91854L4.35282 7.71735C4.47886 7.41572 4.33309 7.06905 4.02845 6.94401C3.72261 6.82075 3.37438 6.96299 3.24834 7.26639L2.72924 8.51498C2.71849 8.54164 2.70893 8.56891 2.70177 8.59736C2.52495 9.29839 2.54705 10.8148 3.89405 11.5342C3.98425 11.5822 4.08161 11.6048 4.17719 11.6048C4.38984 11.6048 4.59593 11.4922 4.70345 11.2931C4.85995 11.0045 4.75123 10.6454 4.46092 10.4901Z" fill="#424242"/>
<path d="M20.6566 14.144C20.7498 14.1974 20.8519 14.2222 20.9522 14.2222C21.1595 14.2222 21.3614 14.115 21.4713 13.9236L23.8607 9.77543C24.0244 9.49158 23.9252 9.12951 23.6385 8.96714C23.353 8.80359 22.9874 8.90314 22.8237 9.18758L20.4344 13.3357C20.2707 13.6196 20.3698 13.9817 20.6566 14.144Z" fill="#424242"/>
</svg>
