<svg width="32" height="32" viewBox="0 0 32 32" fill="none" xmlns="http://www.w3.org/2000/svg">
<path d="M30.8148 4.74074C30.8148 5.06785 30.5487 5.33333 30.2222 5.33333H1.77778C1.45114 5.33333 1.18519 5.06785 1.18519 4.74074V1.77778C1.18519 1.45067 1.45114 1.18519 1.77778 1.18519H30.2222C30.5487 1.18519 30.8148 1.45067 30.8148 1.77778V4.74074ZM30.2222 0H1.77778C0.797452 0 0 0.79763 0 1.77778V4.74074C0 5.72089 0.797452 6.51852 1.77778 6.51852H30.2222C31.2024 6.51852 32 5.72089 32 4.74074V1.77778C32 0.79763 31.2024 0 30.2222 0Z" fill="#424242"/>
<path d="M20.2953 19.667C20.1829 19.4738 19.9736 19.3653 19.7465 19.3742C19.5229 19.3885 19.3262 19.5277 19.2384 19.7339C19.2335 19.7452 18.9336 20.4445 18.4604 21.2812C18.4352 21.0963 18.4021 20.8942 18.3597 20.6738C17.756 17.5568 15.4678 16.3899 15.0424 16.2892C14.8486 16.2448 14.6437 16.2987 14.4986 16.4356C14.3537 16.573 14.2877 16.7745 14.3227 16.9707C14.3486 17.1159 14.4025 17.2699 14.4651 17.4471C14.7021 18.1227 15.06 19.1437 14.2232 20.4332C13.8035 21.0797 13.5819 21.6658 13.4685 22.1659C12.7665 21.6048 11.8991 21.2759 11.4384 21.2439C11.2069 21.2273 10.9857 21.3476 10.8748 21.5526C10.7639 21.7582 10.7836 22.0089 10.925 22.1938C11.2502 22.6205 11.1854 22.9932 11.0204 23.7298C10.8361 24.5511 10.6069 25.5733 11.2062 26.8996C12.1076 28.896 14.1262 29.235 14.9523 29.2883C14.9653 29.2889 14.9782 29.2895 14.991 29.2895C15.3009 29.2895 15.5616 29.0489 15.5819 28.7348C15.6028 28.4077 15.3551 28.1262 15.0287 28.1055C14.2678 28.0563 12.9002 27.7713 12.2861 26.4119C11.8502 25.4459 12.009 24.7384 12.1768 23.9888C12.2593 23.6208 12.347 23.2296 12.3403 22.8249C12.8292 23.1171 13.307 23.5413 13.3602 24C13.3875 24.2371 13.5553 24.435 13.7854 24.5013C14.0153 24.5677 14.2625 24.4883 14.4118 24.3016C14.5923 24.0759 14.5759 23.8211 14.5581 23.5514C14.528 23.0886 14.472 22.2276 15.2174 21.0779C15.9028 20.0219 15.9933 19.0572 15.9 18.2963C16.4155 18.8368 16.9581 19.6699 17.1958 20.8996C17.4185 22.0468 17.338 22.5535 17.2734 22.9606C17.259 23.0513 17.2454 23.1378 17.2352 23.2225C17.2037 23.4839 17.3484 23.7351 17.5905 23.8388C17.8324 23.9408 18.1141 23.8726 18.2812 23.6694C18.8863 22.9339 19.4044 22.051 19.7683 21.3594C19.8828 21.7245 19.9864 22.1825 20.1125 22.8557C20.1445 23.0252 20.8486 27.0193 17.0796 27.872C16.7604 27.9443 16.5602 28.2619 16.6326 28.5808C16.7046 28.9008 17.0227 29.0999 17.3412 29.0282C21.238 28.1458 21.6199 24.4616 21.2776 22.6371C20.9741 21.0175 20.7662 20.4753 20.2953 19.667Z" fill="#424242"/>
<path d="M7.11111 14.2222C7.11135 13.8127 7.47822 13.2924 7.86459 13.1526C13.1111 11.2794 18.8896 11.2794 24.1339 13.152C24.5215 13.2924 24.8889 13.8127 24.8889 14.2222V30.8148H7.11111V14.2222ZM31.4074 30.8148H29.6296V8.29629C29.6296 7.96859 29.3641 7.7037 29.037 7.7037C28.7099 7.7037 28.4444 7.96859 28.4444 8.29629V30.8148H26.0741V14.2222C26.0741 13.3078 25.3979 12.3484 24.5339 12.0373C19.0308 10.0705 12.9692 10.0699 7.46412 12.0373C6.60184 12.3484 5.92616 13.3078 5.92593 14.2222V30.8148H3.55556V8.29629C3.55556 7.96859 3.29025 7.7037 2.96296 7.7037C2.63567 7.7037 2.37037 7.96859 2.37037 8.29629V30.8148H0.592593C0.265304 30.8148 0 31.0797 0 31.4074C0 31.7351 0.265304 32 0.592593 32H31.4074C31.7345 32 32 31.7351 32 31.4074C32 31.0797 31.7345 30.8148 31.4074 30.8148Z" fill="#424242"/>
</svg>
