<svg width="33" height="32" viewBox="0 0 33 32" fill="none" xmlns="http://www.w3.org/2000/svg">
<path d="M31.7778 30.2222C31.7778 30.5487 31.504 30.8148 31.1667 30.8148H1.83333C1.496 30.8148 1.22222 30.5487 1.22222 30.2222V28.4444H31.7778V30.2222ZM3.63733 17.3659L7.21723 6.51852H13.4444C16.6289 6.51852 18.3688 4.03199 18.8803 2.64355L19.8825 1.18519H23.0505L21.6553 6.59734L17.7858 7.83229C17.5945 7.89333 17.446 8.04268 17.3898 8.23053C17.3336 8.41897 17.3776 8.62162 17.5059 8.77214L19.8342 11.5058L16.5135 13.2575C16.3197 13.3594 16.1981 13.555 16.1944 13.7689C16.1914 13.9828 16.3075 14.1819 16.4976 14.2898L19.6613 16.0788L18.0461 19.0844C17.9385 19.2841 17.9581 19.5259 18.095 19.7078C18.2325 19.8892 18.4629 19.9816 18.6939 19.9413L22.209 19.3452L22.935 22.1215C22.9833 22.3052 23.1195 22.4557 23.3017 22.5262C23.3744 22.5541 23.4514 22.5677 23.5278 22.5677C23.6421 22.5677 23.7557 22.5369 23.8547 22.4758L26.7233 20.7141C26.7453 20.72 26.766 20.7289 26.7887 20.7324C29.8271 21.2237 31.6354 22.4705 31.7692 27.2593H6.37328C6.82184 26.3538 7.94811 24.7704 10.6297 23.6557C13.5948 22.4231 15.6616 20.035 15.7483 19.9342C15.9635 19.6824 15.9274 19.309 15.6683 19.0999C15.4092 18.8913 15.0236 18.9244 14.8078 19.1769C14.7883 19.1994 12.8358 21.4495 10.1481 22.5665C6.60856 24.0373 5.41566 26.2856 5.0496 27.2593H1.24117C1.35484 25.2622 1.99467 21.0898 3.63733 17.3659ZM8.38995 2.96296H17.3763C16.8275 3.89748 15.6292 5.33333 13.4444 5.33333H7.60833L8.38995 2.96296ZM19.9314 14.8598L18.0504 13.7955L20.0964 12.7164C20.0084 13.1792 19.8978 13.9727 19.9314 14.8598ZM20.6293 10.5784L19.0178 8.68681L21.3052 7.95674L20.6293 10.5784ZM21.3266 18.2916L19.7022 18.5677L20.46 17.1567C20.6684 17.5781 20.9477 17.9668 21.3266 18.2916ZM25.3513 20.1535L23.9128 21.037L23.4777 19.3748L25.3513 20.1535ZM33 27.8519C33 22.6163 31.3335 20.2892 27.0624 19.5757L22.8378 17.8198C20.3158 16.8421 21.3602 12.6299 21.3706 12.5885L24.4261 0.736603C24.472 0.559418 24.431 0.371561 24.3149 0.228154C24.1994 0.0841539 24.0216 0 23.8333 0H19.5556C19.3514 0 19.1608 0.0989745 19.0471 0.263715L18.0064 1.77778H7.94444C7.67861 1.77778 7.44333 1.94431 7.36267 2.18964L6.24921 5.56563C6.16732 5.66637 6.11111 5.78785 6.11111 5.92593C6.11111 5.93837 6.11784 5.94904 6.11845 5.96149L2.49395 16.9517C0.676504 21.0625 0 25.8193 0 27.8519C0 27.9621 0.0397091 28.0599 0.0934869 28.1481C0.0397091 28.2364 0 28.3342 0 28.4444V30.2222C0 31.2024 0.822556 32 1.83333 32H31.1667C32.1774 32 33 31.2024 33 30.2222V28.4444C33 28.3342 32.9603 28.2364 32.9065 28.1481C32.9603 28.0599 33 27.9621 33 27.8519Z" fill="#424242"/>
</svg>
