<svg width="33" height="30" viewBox="0 0 33 30" fill="none" xmlns="http://www.w3.org/2000/svg">
<path d="M29.9444 20H29.3333C29.2612 20 29.1934 20.0177 29.1292 20.0393C28.9948 20.0223 28.8616 20 28.7222 20H28.1111C27.7738 20 27.5 20.2629 27.5 20.5882C27.5 20.9134 27.7738 21.1765 28.1111 21.1765H28.7222C29.733 21.1765 30.5556 21.9683 30.5556 22.9412C30.5556 23.9141 29.733 24.7059 28.7222 24.7059H28.1111C28.0445 24.7059 27.9834 24.7236 27.9235 24.7424C27.863 24.7229 27.8013 24.7059 27.7341 24.7059H27.1944C26.8571 24.7059 26.5833 24.9688 26.5833 25.2941C26.5833 25.6192 26.8571 25.8824 27.1944 25.8824C28.0366 25.8824 28.7222 26.5418 28.7222 27.3529C28.7222 28.1641 27.8997 28.8235 26.8889 28.8235H18.0278C15.7373 28.8235 13.3179 28.3994 12.4954 28.003L11 27.2835V15.2941H12.2222C12.4019 15.2941 12.5724 15.2176 12.6885 15.0859C12.969 14.767 19.5556 7.22471 19.5556 2.94118C19.5556 1.68771 19.91 1.17647 20.7778 1.17647C21.7299 1.17647 22.6111 1.46118 22.6111 3.52941C22.6111 5.21118 22.011 9.284 21.4201 10.9906C21.3583 11.1694 21.3895 11.3669 21.5044 11.5207C21.6193 11.6742 21.8038 11.7647 22 11.7647H29.9444C30.9552 11.7647 31.7778 12.5565 31.7778 13.5294C31.7778 14.5023 30.9552 15.2941 29.9444 15.2941H28.7222C28.3849 15.2941 28.1111 15.557 28.1111 15.8824C28.1111 16.2075 28.3849 16.4706 28.7222 16.4706H29.9444C30.9552 16.4706 31.7778 17.2624 31.7778 18.2353C31.7778 19.2082 30.9552 20 29.9444 20ZM9.77778 28.2353C9.77778 28.56 9.50339 28.8235 9.16667 28.8235H1.83333C1.49661 28.8235 1.22222 28.56 1.22222 28.2353V14.7059C1.22222 14.3812 1.49661 14.1176 1.83333 14.1176H9.16667C9.50339 14.1176 9.77778 14.3812 9.77778 14.7059V28.2353ZM31.7588 15.8824C32.5074 15.3458 33 14.4947 33 13.5294C33 11.9076 31.6293 10.5882 29.9444 10.5882H22.8122C23.3567 8.53471 23.8333 5.10894 23.8333 3.52941C23.8333 0.612353 22.1717 0 20.7778 0C19.8648 0 18.3333 0.381647 18.3333 2.94118C18.3333 6.43359 12.9904 12.8794 11.935 14.1176H10.8876C10.6346 13.4348 9.96233 12.9412 9.16667 12.9412H1.83333C0.822556 12.9412 0 13.733 0 14.7059V28.2353C0 29.2082 0.822556 30 1.83333 30H9.16667C10.0546 30 10.7959 29.3895 10.9639 28.5811L11.9491 29.0558C13.0491 29.5852 15.719 30 18.0278 30H26.8889C28.5737 30 29.9444 28.8123 29.9444 27.3529C29.9444 26.7718 29.7471 26.2358 29.4158 25.7987C30.7664 25.4947 31.7778 24.3322 31.7778 22.9412C31.7778 22.1889 31.4741 21.5087 30.9895 20.9876C32.1585 20.5747 33 19.5023 33 18.2353C33 17.27 32.5074 16.4189 31.7588 15.8824Z" fill="#424242"/>
</svg>
