<svg width="32" height="32" viewBox="0 0 32 32" fill="none" xmlns="http://www.w3.org/2000/svg">
<path d="M31.8262 30.9883L30.641 29.8031C30.5302 29.6917 30.3797 29.6295 30.2221 29.6295H27.8517H4.14825H1.7779C1.62027 29.6295 1.46977 29.6917 1.35895 29.8031L0.173776 30.9883C-0.0579254 31.22 -0.0579254 31.5945 0.173776 31.8262C0.405478 32.0579 0.779972 32.0579 1.01167 31.8262L2.02324 30.8147H29.9768L30.9883 31.8262C31.1039 31.9418 31.2556 31.9999 31.4073 31.9999C31.559 31.9999 31.7107 31.9418 31.8262 31.8262C32.0579 31.5945 32.0579 31.22 31.8262 30.9883Z" fill="#424242"/>
<path d="M7.11119 20.7407H24.8888V27.2591H18.9629V24.8888C18.9629 23.255 17.6338 21.9258 16 21.9258C14.3662 21.9258 13.0371 23.255 13.0371 24.8888V27.2591H7.11119V20.7407ZM5.62617 19.5555C6.26083 18.9309 6.68156 18.2074 6.89786 17.7777H25.1022C25.3185 18.2074 25.7392 18.9309 26.3738 19.5555H5.62617ZM9.48154 13.6296H22.5185V16.5925H9.48154V13.6296ZM9.86079 10.6667H22.1392C22.2933 10.973 22.5529 11.4287 22.9179 11.891C22.6868 11.9716 22.5185 12.1855 22.5185 12.4444H9.48154C9.48154 12.1855 9.31383 11.9716 9.08213 11.891C9.44716 11.4287 9.70672 10.973 9.86079 10.6667ZM11.2356 6.99381C13.7636 5.89811 15.2113 3.76537 15.9425 2.29694C16.5973 3.81633 17.9887 6.01722 20.7466 7.08032C20.7466 7.09099 20.7407 7.10047 20.7407 7.11114V9.48149H11.2593V7.11114C11.2593 7.06966 11.2439 7.03292 11.2356 6.99381ZM17.7778 27.2591H14.2222V24.8888C14.2222 23.9086 15.0199 23.111 16 23.111C16.9801 23.111 17.7778 23.9086 17.7778 24.8888V27.2591ZM5.57877 28.4443H26.4212L27.4328 29.4559C27.5484 29.5714 27.7 29.6295 27.8517 29.6295C28.0035 29.6295 28.1551 29.5714 28.2707 29.4559C28.5024 29.2241 28.5024 28.8497 28.2707 28.618L27.0855 27.4328C26.9747 27.3214 26.8242 27.2591 26.6666 27.2591H26.074V20.7407H29.0369C30.7945 20.7407 30.8147 19.6041 30.8147 19.5555C30.8147 19.2284 30.5498 18.9629 30.2221 18.9629C29.9329 18.9629 29.6917 19.1703 29.6402 19.4447C29.594 19.4755 29.4375 19.5555 29.0369 19.5555C27.1015 19.5555 26.0414 16.9896 26.0313 16.9641C25.9406 16.7401 25.7226 16.5925 25.4814 16.5925H23.7036V13.6296H26.074C27.8316 13.6296 27.8518 12.493 27.8518 12.4444C27.8518 12.1173 27.5869 11.8518 27.2592 11.8518C26.97 11.8518 26.7288 12.0592 26.6773 12.3336C26.631 12.3644 26.4746 12.4444 26.074 12.4444C24.1386 12.4444 23.0785 9.87852 23.0684 9.85304C22.9777 9.62905 22.7597 9.48149 22.5185 9.48149H21.9259V7.43825C22.6399 7.60358 23.4233 7.70372 24.2962 7.70372C24.6239 7.70372 24.8888 7.43825 24.8888 7.11114C24.8888 6.78403 24.6239 6.51855 24.2962 6.51855C17.7813 6.51855 16.6287 0.731921 16.5825 0.48659C16.5333 0.214592 16.3022 0.0125077 16.0255 0.000655964C15.7304 -0.012381 15.5011 0.170157 15.4282 0.436822C15.4116 0.497266 13.7002 6.51855 7.70378 6.51855C7.37608 6.51855 7.11119 6.78403 7.11119 7.11114C7.11119 7.43825 7.37608 7.70372 7.70378 7.70372C8.57074 7.70372 9.3571 7.59173 10.0741 7.40092V9.48149H9.48154C9.23918 9.48149 9.02169 9.62903 8.93103 9.85362C8.92095 9.8797 7.87267 12.4444 5.92602 12.4444C5.52543 12.4444 5.36898 12.3644 5.32275 12.3336C5.2712 12.0592 5.03003 11.8518 4.74084 11.8518C4.41314 11.8518 4.14826 12.1173 4.14826 12.4444C4.14826 12.493 4.16841 13.6296 5.92602 13.6296H8.29637V16.5925H6.51861C6.27624 16.5925 6.05876 16.7401 5.96809 16.9647C5.95802 16.9908 4.90973 19.5555 2.96308 19.5555C2.56249 19.5555 2.40604 19.4755 2.35982 19.4447C2.30826 19.1703 2.06709 18.9629 1.77791 18.9629C1.45021 18.9629 1.18532 19.2284 1.18532 19.5555C1.18532 19.6041 1.20547 20.7407 2.96308 20.7407H5.92602V27.2591H5.33343C5.1758 27.2591 5.0253 27.3214 4.91448 27.4328L3.72931 28.618C3.49761 28.8497 3.49761 29.2241 3.72931 29.4559C3.84486 29.5714 3.99655 29.6295 4.14825 29.6295C4.29995 29.6295 4.45165 29.5714 4.56721 29.4559L5.57877 28.4443Z" fill="#424242"/>
</svg>
