<svg width="32" height="30" viewBox="0 0 32 30" fill="none" xmlns="http://www.w3.org/2000/svg">
<path d="M27.8046 26.8765C27.1923 27.9773 25.5843 28.8 24.5563 28.8H7.44369C6.4151 28.7993 4.80773 27.9769 4.19962 26.8859C0.228877 19.4431 0.228888 10.5569 4.19535 3.12354C4.80713 2.02314 6.4151 1.20048 7.44369 1.2H24.5563C25.5849 1.20048 27.1929 2.02314 27.8004 3.11388C31.7711 10.5569 31.7711 19.4431 27.8046 26.8765ZM28.8779 2.54814C28.0968 1.14354 26.1582 0.00048 24.5563 0H7.44369C5.84182 0.00048 3.9032 1.14354 3.11725 2.55774C-1.0399 10.3488 -1.03989 19.6512 3.12214 27.4519C3.90443 28.8562 5.84243 29.9993 7.44369 30H24.5563C26.157 30 28.0956 28.8569 28.8828 27.4423C33.0399 19.6512 33.0399 10.3488 28.8779 2.54814Z" fill="#424242"/>
<path d="M18.4397 24.6H13.5553V19.2012C13.5553 19.0938 13.683 18.8662 13.7888 18.8135C14.4714 18.4793 15.236 18.303 16 18.303C16.7639 18.303 17.5285 18.4793 18.2075 18.8123C18.3169 18.8662 18.4446 19.0938 18.4446 19.2L18.4459 24.5951C18.4453 24.5958 18.4422 24.5993 18.4397 24.6ZM18.7569 17.7401C17.0561 16.9062 14.9476 16.9043 13.2393 17.7419C12.7241 17.9988 12.3342 18.6251 12.333 19.2V24.5988C12.3318 25.2551 12.8781 25.7939 13.5553 25.8H18.4501C19.1218 25.7939 19.6682 25.2551 19.667 24.6V19.1988C19.6657 18.6251 19.2758 17.9988 18.7569 17.7401Z" fill="#424242"/>
<path d="M9.27716 5.99998C8.93918 5.99998 8.66599 6.26812 8.66599 6.59998V14.4C8.66599 14.7316 8.93918 15 9.27716 15C9.61513 15 9.88832 14.7316 9.88832 14.4V6.59998C9.88832 6.26812 9.61513 5.99998 9.27716 5.99998Z" fill="#424242"/>
<path d="M22.7228 5.99998C22.3848 5.99998 22.1116 6.26812 22.1116 6.59998V14.4C22.1116 14.7316 22.3848 15 22.7228 15C23.0608 15 23.334 14.7316 23.334 14.4V6.59998C23.334 6.26812 23.0608 5.99998 22.7228 5.99998Z" fill="#424242"/>
</svg>
