<svg width="17" height="33" viewBox="0 0 17 33" fill="none" xmlns="http://www.w3.org/2000/svg">
<path d="M6.45117 22.594C5.6082 22.594 4.92236 21.8857 4.92236 21.0143C4.92236 20.7814 4.97219 20.5541 5.08005 20.3194C5.45933 19.4132 6.04612 18.5356 6.4465 17.9886C6.85274 18.5368 7.44948 19.4193 7.83462 20.3396C7.93076 20.5492 7.98 20.7766 7.98 21.0143C7.98 21.8857 7.29413 22.594 6.45117 22.594ZM8.90093 19.8311C8.2051 18.1689 6.93479 16.7212 6.88086 16.6583C6.77007 16.5287 6.61062 16.5 6.44355 16.5H6.44121C6.27355 16.5 6.11412 16.5305 6.00333 16.6619C5.95057 16.7243 4.70019 18.194 4.01374 19.8348C3.83905 20.2161 3.74995 20.6097 3.74995 21.0259C3.74995 22.5708 4.96162 23.8223 6.45117 23.8223C7.94072 23.8223 9.15241 22.5622 9.15241 21.0173C9.15241 20.595 9.06507 20.1874 8.90093 19.8311Z" fill="#424242"/>
<path d="M15.8276 25.6667C15.8276 26.6774 15.1704 27.5 14.3621 27.5H12.8966V13.4444H14.3621C15.1704 13.4444 15.8276 14.267 15.8276 15.2778V25.6667ZM11.1379 31.7778H1.75862C1.43503 31.7778 1.17241 31.504 1.17241 31.1667V28.7222H11.7241V31.1667C11.7241 31.504 11.4615 31.7778 11.1379 31.7778ZM1.17241 4.27778C1.17241 2.59294 2.7499 1.22222 4.68966 1.22222H8.2069C10.1467 1.22222 11.7241 2.59294 11.7241 4.27778V7.94444C11.7241 7.98722 11.7394 8.02451 11.7476 8.06485C11.5565 7.9909 11.3531 7.94444 11.1379 7.94444H1.75862C1.54348 7.94444 1.34007 7.9909 1.14897 8.06485C1.15718 8.02451 1.17241 7.98722 1.17241 7.94444V4.27778ZM1.17241 13.4444H11.7241V27.5H1.17241V13.4444ZM11.7241 12.2222H1.17241V9.77778C1.17241 9.44106 1.43503 9.16667 1.75862 9.16667H11.1379C11.4615 9.16667 11.7241 9.44106 11.7241 9.77778V12.2222ZM14.3621 12.2222H12.8966V9.77778C12.8966 9.29561 12.7136 8.8599 12.4205 8.53234C12.6896 8.47673 12.8966 8.24083 12.8966 7.94444V4.27778C12.8966 1.91889 10.7927 0 8.2069 0H4.68966C2.1039 0 0 1.91889 0 4.27778V7.94444C0 8.24083 0.206938 8.47673 0.476007 8.53234C0.182903 8.8599 0 9.29561 0 9.77778V31.1667C0 32.1774 0.789034 33 1.75862 33H11.1379C12.1075 33 12.8966 32.1774 12.8966 31.1667V28.7222H14.3621C15.8164 28.7222 17 27.3515 17 25.6667V15.2778C17 13.5929 15.8164 12.2222 14.3621 12.2222Z" fill="#424242"/>
<path d="M3.51548 6.72223H3.51722C3.83964 6.72223 4.10109 6.44968 4.10343 6.11357C4.10402 6.0384 4.12747 4.27779 5.27584 4.27779C5.60002 4.27779 5.86205 4.00401 5.86205 3.66667C5.86205 3.32934 5.60002 3.05556 5.27584 3.05556C3.42109 3.05556 2.93102 5.05449 2.93102 6.11172C2.93102 6.44844 3.19248 6.72223 3.51548 6.72223Z" fill="#424242"/>
</svg>
