<svg width="32" height="32" viewBox="0 0 32 32" fill="none" xmlns="http://www.w3.org/2000/svg">
<path d="M6.81482 22.7692C5.67129 22.7692 4.74074 21.8031 4.74074 20.6154C4.74074 19.4277 5.67129 18.4615 6.81482 18.4615C7.95834 18.4615 8.88889 19.4277 8.88889 20.6154C8.88889 21.8031 7.95834 22.7692 6.81482 22.7692ZM6.81482 17.2308C5.0176 17.2308 3.55556 18.7495 3.55556 20.6154C3.55556 22.4812 5.0176 24 6.81482 24C8.61203 24 10.0741 22.4812 10.0741 20.6154C10.0741 18.7495 8.61203 17.2308 6.81482 17.2308Z" fill="#424242"/>
<path d="M6.81482 2.46154C7.95834 2.46154 8.88889 3.42769 8.88889 4.61538C8.88889 5.80308 7.95834 6.76923 6.81482 6.76923C5.67129 6.76923 4.74074 5.80308 4.74074 4.61538C4.74074 3.42769 5.67129 2.46154 6.81482 2.46154ZM6.81482 8C8.61203 8 10.0741 6.48123 10.0741 4.61538C10.0741 2.74954 8.61203 1.23077 6.81482 1.23077C5.0176 1.23077 3.55556 2.74954 3.55556 4.61538C3.55556 6.48123 5.0176 8 6.81482 8Z" fill="#424242"/>
<path d="M30.8148 30.7692H30.2222C30.0533 30.7692 29.7487 30.6382 29.6296 30.5145L28.2714 29.104C28.2163 29.0468 28.1511 29.0018 28.0782 28.9705C28.0059 28.9391 27.9289 28.9231 27.8519 28.9231H3.55556C3.53612 28.9231 3.5197 28.9329 3.50068 28.9348C3.45949 28.9385 3.42086 28.9471 3.38128 28.9594C3.3456 28.9711 3.31247 28.9846 3.28012 29.0025C3.24699 29.0209 3.21736 29.0425 3.1875 29.0677C3.15579 29.0942 3.12824 29.1225 3.10252 29.1557C3.09025 29.1711 3.07336 29.1803 3.06252 29.1969L2.20604 30.5311C2.13452 30.6425 1.90649 30.7692 1.77778 30.7692H1.18519V26.4615C1.18519 26.1218 1.45114 25.8462 1.77778 25.8462H10.7514C11.016 26.896 11.9294 27.6923 13.0236 27.6923H26.0741C27.3884 27.6923 28.4456 26.5723 28.4444 25.2295V25.8462H30.2222C30.5487 25.8462 30.8148 26.1218 30.8148 26.4615V30.7692ZM27.2593 22.7692C27.2593 23.5895 27.2593 24.4105 27.2593 25.2308C27.2599 25.8997 26.7265 26.4535 26.0741 26.4615C21.7285 26.4615 17.3826 26.4615 13.037 26.4615C12.3847 26.4542 11.8511 25.8997 11.8519 25.2308C11.8519 24 11.8519 22.7692 11.8519 21.5385C11.8526 20.8702 12.3699 20.1766 13.0104 20.0431C14.3813 19.7742 15.7743 19.6499 17.1745 19.6499C20.1588 19.6499 23.1775 20.2148 26.0966 21.1471C26.7384 21.3594 27.2587 22.1009 27.2593 22.7692ZM26.4569 19.9957C23.2225 18.9625 20.1035 18.4615 17.175 18.4615H17.1745C15.6679 18.4615 14.1928 18.5797 12.7903 18.8554C11.5954 19.1034 10.6679 20.2683 10.6667 21.5372V24.6154H1.77778C1.56901 24.6154 1.37156 24.6597 1.18519 24.7286V14.0406C1.37156 14.1095 1.56901 14.1538 1.77778 14.1538H30.2222C30.4308 14.1538 30.6287 14.1095 30.8148 14.0406V24.7286C30.6287 24.6597 30.4308 24.6154 30.2222 24.6154H28.4444V22.7692C28.4433 21.5502 27.5887 20.3705 26.4569 19.9957ZM1.77778 9.84615H10.7514C11.016 10.896 11.9292 11.6923 13.0232 11.6923H26.0741C27.3884 11.6923 28.4456 10.5723 28.4444 9.22954V9.84615H30.2222C30.5487 9.84615 30.8148 10.1218 30.8148 10.4615V12.3077C30.8148 12.6474 30.5487 12.9231 30.2222 12.9231H1.77778C1.45114 12.9231 1.18519 12.6474 1.18519 12.3077V10.4615C1.18519 10.1218 1.45114 9.84615 1.77778 9.84615ZM11.8519 5.53846C11.8526 4.87077 12.3699 4.17661 13.0104 4.04307C14.3813 3.77415 15.7743 3.64985 17.1745 3.64985C20.1588 3.64985 23.1775 4.21476 26.0966 5.14707C26.7384 5.35938 27.2587 6.10092 27.2593 6.76923C27.2593 7.58954 27.2593 8.41046 27.2593 9.23077C27.2599 9.89908 26.7265 10.4542 26.0741 10.4615C21.7285 10.4615 17.3826 10.4615 13.037 10.4615C12.3847 10.4535 11.8511 9.89969 11.8519 9.23077C11.8519 8 11.8519 6.76923 11.8519 5.53846ZM31.4074 1.84615C31.0803 1.84615 30.8148 2.12123 30.8148 2.46154V8.72862C30.6287 8.6597 30.4308 8.61538 30.2222 8.61538H28.4444V6.76923C28.4433 5.55015 27.5887 4.36984 26.4569 3.99569C23.2225 2.96246 20.1035 2.46154 17.175 2.46154H17.1745C15.6679 2.46154 14.1928 2.57969 12.7903 2.85538C11.5954 3.10338 10.6679 4.26831 10.6667 5.53723V8.61538H1.77778C1.56901 8.61538 1.37156 8.6597 1.18519 8.72862V0.615385C1.18519 0.275077 0.919881 0 0.592593 0C0.265304 0 0 0.275077 0 0.615385V30.7692C0 31.448 0.531496 32 1.18519 32H1.77778C2.30489 32 2.90003 31.6695 3.19212 31.2142L3.87271 30.1538H27.6065L28.7917 31.3846C29.1348 31.7409 29.7369 32 30.2222 32H30.8148C31.4684 32 32 31.448 32 30.7692V2.46154C32 2.12123 31.7345 1.84615 31.4074 1.84615Z" fill="#424242"/>
</svg>
