<svg width="33" height="30" viewBox="0 0 33 30" fill="none" xmlns="http://www.w3.org/2000/svg">
<path d="M9.09087 28.8411C8.84643 28.7633 7.60406 28.1304 7.60406 27.0072C7.60406 26.2477 7.91206 25.8668 8.33862 25.339C8.7389 24.8428 9.19354 24.28 9.38115 23.3553C9.7087 21.7389 8.37344 20.4273 7.28382 20.1016C6.95749 20.0048 6.61894 20.1825 6.51994 20.495C6.42094 20.8094 6.60244 21.1416 6.9245 21.2379C7.36511 21.3692 8.38504 22.124 8.18154 23.1253C8.05077 23.7701 7.73849 24.157 7.37671 24.6051C6.91105 25.1827 6.38184 25.837 6.38184 27.0072C6.38184 28.6854 7.95054 29.7278 8.71015 29.9709C8.77309 29.9911 8.83728 30 8.90023 30C9.1575 30 9.39643 29.8419 9.48138 29.5911C9.58649 29.2797 9.4117 28.9434 9.09087 28.8411Z" fill="#424242"/>
<path d="M14.5909 28.8411C14.3464 28.7633 13.1041 28.1304 13.1041 27.0072C13.1041 26.2477 13.4121 25.8668 13.8386 25.339C14.2389 24.8428 14.6935 24.28 14.8811 23.3553C15.2087 21.7389 13.8734 20.4273 12.7838 20.1016C12.4575 20.0048 12.1189 20.1825 12.0199 20.495C11.9209 20.8094 12.1024 21.1416 12.4245 21.2379C12.8651 21.3692 13.885 22.124 13.6815 23.1253C13.5508 23.7701 13.2385 24.157 12.8767 24.6051C12.411 25.1827 11.8818 25.837 11.8818 27.0072C11.8818 28.6854 13.4505 29.7278 14.2101 29.9709C14.2731 29.9911 14.3373 30 14.4002 30C14.6575 30 14.8964 29.8419 14.9814 29.5911C15.0865 29.2797 14.9117 28.9434 14.5909 28.8411Z" fill="#424242"/>
<path d="M20.0909 28.8411C19.8464 28.7633 18.6041 28.1304 18.6041 27.0072C18.6041 26.2477 18.9121 25.8668 19.3386 25.339C19.7389 24.8428 20.1935 24.28 20.3811 23.3553C20.7087 21.7389 19.3734 20.4273 18.2838 20.1016C17.9569 20.0048 17.6189 20.1825 17.5199 20.495C17.4209 20.8094 17.6024 21.1416 17.9245 21.2379C18.3651 21.3692 19.385 22.124 19.1815 23.1253C19.0508 23.7701 18.7385 24.157 18.3767 24.6051C17.911 25.1827 17.3818 25.837 17.3818 27.0072C17.3818 28.6854 18.9505 29.7278 19.7101 29.9709C19.7731 29.9911 19.8373 30 19.9002 30C20.1575 30 20.3964 29.8419 20.4814 29.5911C20.5865 29.2797 20.4117 28.9434 20.0909 28.8411Z" fill="#424242"/>
<path d="M25.5909 28.8411C25.3464 28.7633 24.1041 28.1304 24.1041 27.0072C24.1041 26.2477 24.4121 25.8668 24.8386 25.339C25.2389 24.8428 25.6935 24.28 25.8811 23.3553C26.2087 21.7389 24.8734 20.4273 23.7838 20.1016C23.4569 20.0048 23.1189 20.1825 23.0199 20.495C22.9209 20.8094 23.1024 21.1416 23.4245 21.2379C23.8651 21.3692 24.885 22.124 24.6815 23.1253C24.5508 23.7701 24.2385 24.157 23.8767 24.6051C23.4111 25.1827 22.8818 25.837 22.8818 27.0072C22.8818 28.6854 24.4505 29.7278 25.2102 29.9709C25.2731 29.9911 25.3373 30 25.4002 30C25.6575 30 25.8964 29.8419 25.9814 29.5911C26.0865 29.2797 25.9117 28.9434 25.5909 28.8411Z" fill="#424242"/>
<path d="M29.9444 15.4514H3.05556C2.04478 15.4514 1.22222 14.6515 1.22222 13.6685V11.8857H31.7778V13.6685C31.7778 14.6515 30.9552 15.4514 29.9444 15.4514ZM3.05556 1.18857H29.9444C30.9552 1.18857 31.7778 1.98847 31.7778 2.97141V10.6971H1.22222V2.97141C1.22222 1.98847 2.04478 1.18857 3.05556 1.18857ZM29.9444 0H3.05556C1.37072 0 0 1.33298 0 2.97141V13.6685C0 15.3069 1.37072 16.6399 3.05556 16.6399H29.9444C31.6293 16.6399 33 15.3069 33 13.6685V2.97141C33 1.33298 31.6293 0 29.9444 0Z" fill="#424242"/>
<path d="M28.1111 13.0742H26.8889C26.5509 13.0742 26.2778 13.3399 26.2778 13.6685C26.2778 13.9972 26.5509 14.2628 26.8889 14.2628H28.1111C28.449 14.2628 28.7222 13.9972 28.7222 13.6685C28.7222 13.3399 28.449 13.0742 28.1111 13.0742Z" fill="#424242"/>
</svg>
