<svg width="30" height="32" viewBox="0 0 30 32" fill="none" xmlns="http://www.w3.org/2000/svg">
<path d="M11.0924 21.3333C9.94699 21.3333 9.14188 21.0151 8.62772 20.3686C9.04613 19.6036 9.23215 18.707 9.26447 17.7778H14.752C14.7568 17.7778 14.7611 17.7748 14.766 17.7748C14.7325 18.6329 14.5513 19.4406 14.1189 20.0676C13.5315 20.9197 12.5416 21.3333 11.0924 21.3333ZM4.38327 21.3333C3.16281 21.3333 2.32357 20.9754 1.81611 20.24C1.38001 19.6077 1.22081 18.7307 1.22325 17.7778H8.04281C8.04769 17.7778 8.05196 17.7748 8.05684 17.7748C8.02329 18.6329 7.84215 19.4406 7.40972 20.0676C6.82236 20.9197 5.83245 21.3333 4.38327 21.3333ZM2.36016 12.4444H7.01264C7.28406 13.1716 7.85861 14.8717 8.02146 16.5926H1.30071C1.4904 15.0181 1.98627 13.4151 2.36016 12.4444ZM8.69422 13.5348C8.83877 13.0785 8.97477 12.701 9.07235 12.4444H13.7218C13.9932 13.1716 14.5678 14.8717 14.7306 16.5926H9.24008C9.15042 15.5028 8.91195 14.4468 8.66676 13.5846C8.67408 13.5668 8.68873 13.5538 8.69422 13.5348ZM14.142 11.2593H8.65273C8.40572 11.2593 8.18248 11.4044 8.08855 11.6261C8.08612 11.632 8.06904 11.6729 8.04281 11.7381C8.01963 11.68 8.00377 11.6415 7.99707 11.6261C7.90314 11.4038 7.67991 11.2593 7.43289 11.2593H1.94357C1.69656 11.2593 1.47332 11.4038 1.3794 11.6261C1.27083 11.8821 -1.25 17.9218 0.801785 20.8996C1.44708 21.8353 2.44554 22.3686 3.77335 22.4907V30.8148H2.5535C2.21621 30.8148 1.94357 31.0797 1.94357 31.4074C1.94357 31.7351 2.21621 32 2.5535 32H6.21304C6.55033 32 6.82296 31.7351 6.82296 31.4074C6.82296 31.0797 6.55033 30.8148 6.21304 30.8148H4.99319V22.493C6.20389 22.3988 7.16756 22.0113 7.87934 21.3458C8.51427 22.0047 9.38647 22.3881 10.4825 22.4895V30.8148H9.26266C8.92537 30.8148 8.65273 31.0797 8.65273 31.4074C8.65273 31.7351 8.92537 32 9.26266 32H12.9222C13.2595 32 13.5321 31.7351 13.5321 31.4074C13.5321 31.0797 13.2595 30.8148 12.9222 30.8148H11.7024V22.493C13.2522 22.3721 14.4061 21.7813 15.1332 20.7265C17.2325 17.68 14.8105 11.872 14.7062 11.6261C14.6123 11.4038 14.3891 11.2593 14.142 11.2593Z" fill="#424242"/>
<path d="M21.7337 1.31911C21.8093 1.23259 21.9295 1.18519 22.071 1.18519H24.5107C24.6522 1.18519 24.7724 1.23259 24.848 1.31911C24.923 1.40504 24.9516 1.5277 24.9285 1.66459L24.7199 2.88178C24.6607 3.22608 24.5144 3.47141 24.429 3.55556H22.1527C22.0673 3.47141 21.921 3.22608 21.8618 2.88178L21.6532 1.66459C21.63 1.5277 21.6587 1.40504 21.7337 1.31911ZM20.659 3.07615C20.7962 3.87793 21.2964 4.74074 22.071 4.74074H24.5107C25.2853 4.74074 25.7854 3.87793 25.9227 3.07615L26.1313 1.85896C26.2136 1.38015 26.0849 0.903701 25.7781 0.552886C25.4719 0.201479 25.0096 0 24.5107 0H22.071C21.5721 0 21.1097 0.201479 20.8035 0.552886C20.4968 0.903701 20.3681 1.38015 20.4504 1.85896L20.659 3.07615Z" fill="#424242"/>
<path d="M26.9504 30.8148H19.6313C18.6225 30.8148 17.8015 30.0172 17.8015 29.037V27.8519H28.7802V29.037C28.7802 30.0172 27.9592 30.8148 26.9504 30.8148ZM28.7802 22.5185V26.6667H17.8015V22.5185H28.7802ZM29.0247 16.5458L26.6137 10.8545C26.1331 9.72148 25.7037 7.73036 25.675 6.50844C25.675 6.50666 25.6726 6.31111 25.722 6.02311C25.7775 5.70014 25.553 5.39496 25.2206 5.34162C24.887 5.28533 24.5741 5.50577 24.5192 5.82873C24.4503 6.22755 24.4546 6.50251 24.4552 6.53214C24.4875 7.89985 24.9498 10.0409 25.486 11.3061L27.897 16.9973C28.3757 18.1262 28.7802 20.112 28.7802 21.3333H17.8015C17.8015 20.112 18.2059 18.1262 18.6847 16.9973L21.0957 11.3061C21.6306 10.0444 22.1173 7.90992 22.1814 6.54814C22.1844 6.48948 22.19 6.17599 22.0393 5.73866C21.9326 5.42814 21.5873 5.26044 21.2683 5.36414C20.9481 5.46785 20.7761 5.80326 20.8828 6.11318C20.9609 6.34014 20.9622 6.49421 20.9628 6.49421C20.9054 7.72088 20.4498 9.71792 19.968 10.8545L17.557 16.5458C17.019 17.8145 16.5817 19.9621 16.5817 21.3333V29.037C16.5817 30.6708 17.9497 32 19.6313 32H26.9504C28.6319 32 30 30.6708 30 29.037V21.3333C30 19.9621 29.5627 17.8145 29.0247 16.5458Z" fill="#424242"/>
</svg>
