<svg width="32" height="33" viewBox="0 0 32 33" fill="none" xmlns="http://www.w3.org/2000/svg">
<path d="M29.9147 25.2542L31.9799 17.2688C32.064 16.9425 31.8768 16.6076 31.5603 16.5208C31.2415 16.431 30.9191 16.6277 30.835 16.9534L28.7698 24.9395C28.6714 25.3202 28.2341 25.6667 27.8519 25.6667H23.7037C23.3772 25.6667 23.1111 25.3929 23.1111 25.0556C23.1111 24.7182 23.3772 24.4444 23.7037 24.4444H27.8519C28.179 24.4444 28.4444 24.1713 28.4444 23.8333C28.4444 23.4954 28.179 23.2222 27.8519 23.2222H23.7037C22.7236 23.2222 21.9259 24.0448 21.9259 25.0556C21.9259 25.8592 22.4332 26.5357 23.1319 26.7832C23.1253 26.8186 23.1111 26.851 23.1111 26.8889V32.3889C23.1111 32.7268 23.3766 33 23.7037 33C24.0308 33 24.2963 32.7268 24.2963 32.3889V26.8889H27.8519C27.8524 26.8889 27.853 26.8889 27.8536 26.8889C27.8536 26.972 27.8678 27.0563 27.9028 27.137L30.2732 32.637C30.3716 32.8649 30.5879 33 30.8148 33C30.8954 33 30.9772 32.9835 31.0554 32.9474C31.3547 32.8099 31.4892 32.4494 31.3565 32.1408L28.9861 26.6408C28.9719 26.6084 28.947 26.5864 28.9286 26.5577C29.3997 26.2619 29.7754 25.795 29.9147 25.2542Z" fill="#424242"/>
<path d="M8.29628 23.2222H4.14813C3.82102 23.2222 3.55554 23.4954 3.55554 23.8333C3.55554 24.1713 3.82102 24.4444 4.14813 24.4444H8.29628C8.6228 24.4444 8.88888 24.7182 8.88888 25.0556C8.88888 25.3929 8.6228 25.6667 8.29628 25.6667H4.14813C3.76591 25.6667 3.32858 25.3202 3.23021 24.9395L1.16501 16.9534C1.08086 16.6277 0.757902 16.4316 0.439679 16.5208C0.123234 16.6076 -0.0640153 16.9425 0.0201329 17.2688L2.08531 25.2542C2.22457 25.795 2.60028 26.2619 3.07139 26.5577C3.05302 26.5864 3.02814 26.6084 3.01391 26.6408L0.643542 32.1408C0.510801 32.4494 0.64531 32.8099 0.94457 32.9474C1.02279 32.9835 1.10457 33 1.18517 33C1.41154 33 1.62842 32.8643 1.72679 32.637L4.09716 27.137C4.13213 27.0563 4.14635 26.8889 4.14635 26.8889C4.14694 26.8889 4.14754 26.8889 4.14813 26.8889H7.70369V32.3889C7.70369 32.7268 7.96917 33 8.29628 33C8.62339 33 8.88888 32.7268 8.88888 32.3889V26.7764C9.57688 26.5234 10.0741 25.8512 10.0741 25.0556C10.0741 24.0448 9.27643 23.2222 8.29628 23.2222Z" fill="#424242"/>
<path d="M20.7408 31.7778C19.3369 31.7778 17.1852 29.0406 17.1852 25.6667C17.1852 22.7547 19.715 20.1764 20.3728 19.5556H23.1111C23.4382 19.5556 23.7037 19.2824 23.7037 18.9444C23.7037 18.6065 23.4382 18.3333 23.1111 18.3333H8.88889C8.56178 18.3333 8.2963 18.6065 8.2963 18.9444C8.2963 19.2824 8.56178 19.5556 8.88889 19.5556H11.6273C12.285 20.1746 14.8148 22.7443 14.8148 25.6667C14.8148 29.0406 12.6631 31.7778 11.2593 31.7778C10.9322 31.7778 10.6667 32.0509 10.6667 32.3889C10.6667 32.7268 10.9322 33 11.2593 33C13.3932 33 16 29.6163 16 25.6667C16 23.0749 14.4124 20.8218 13.2966 19.5556H18.7034C17.5876 20.8218 16 23.0749 16 25.6667C16 29.6163 18.6068 33 20.7408 33C21.0679 33 21.3333 32.7268 21.3333 32.3889C21.3333 32.0509 21.0679 31.7778 20.7408 31.7778Z" fill="#424242"/>
<path d="M16 2.596L30.1647 8.93077C30.0113 9.4221 29.5639 9.77777 29.0371 9.77777H26.6667C26.0131 9.77777 25.4815 9.22961 25.4815 8.55555C25.4815 8.21761 25.216 7.94444 24.8889 7.94444C24.5618 7.94444 24.2963 8.21761 24.2963 8.55555C24.2963 9.22961 23.7648 9.77777 23.1111 9.77777H20.7408C20.0871 9.77777 19.5556 9.22961 19.5556 8.55555C19.5556 8.21761 19.2901 7.94444 18.963 7.94444C18.6359 7.94444 18.3704 8.21761 18.3704 8.55555C18.3704 9.22961 17.8388 9.77777 17.1852 9.77777H14.8148C14.1612 9.77777 13.6296 9.22961 13.6296 8.55555C13.6296 8.21761 13.3642 7.94444 13.037 7.94444C12.7099 7.94444 12.4444 8.21761 12.4444 8.55555C12.4444 9.22961 11.9129 9.77777 11.2593 9.77777H8.88889C8.23526 9.77777 7.7037 9.22961 7.7037 8.55555C7.7037 8.21761 7.43822 7.94444 7.11111 7.94444C6.784 7.94444 6.51852 8.21761 6.51852 8.55555C6.51852 9.22961 5.98696 9.77777 5.33333 9.77777H2.96296C2.43614 9.77777 1.98873 9.4221 1.83525 8.93077L16 2.596ZM2.96296 11H5.33333C6.04029 11 6.67674 10.6792 7.11111 10.1707C7.54548 10.6792 8.18192 11 8.88889 11H11.2593C11.9662 11 12.6027 10.6792 13.037 10.1707C13.4714 10.6792 14.1079 11 14.8148 11H15.4074V16.5C15.4074 16.8379 15.6729 17.1111 16 17.1111C16.3271 17.1111 16.5926 16.8379 16.5926 16.5V11H17.1852C17.8922 11 18.5286 10.6792 18.963 10.1707C19.3973 10.6792 20.0338 11 20.7408 11H23.1111C23.8181 11 24.4545 10.6792 24.8889 10.1707C25.3233 10.6792 25.9597 11 26.6667 11H29.0371C30.3443 11 31.4074 9.90366 31.4074 8.55555C31.4074 8.31233 31.2676 8.09172 31.0507 7.99517L16.5926 1.529V0.611111C16.5926 0.273167 16.3271 0 16 0C15.6729 0 15.4074 0.273167 15.4074 0.611111V1.529L0.949326 7.99517C0.732437 8.09172 0.592584 8.31233 0.592584 8.55555C0.592584 9.90366 1.6557 11 2.96296 11Z" fill="#424242"/>
</svg>
