<svg width="32" height="24" viewBox="0 0 32 24" fill="none" xmlns="http://www.w3.org/2000/svg">
<path d="M30.8148 22.4615C30.8148 22.5674 30.5837 22.7692 30.2222 22.7692C29.8441 22.7692 29.4163 22.4228 29.3239 22.0388L29.3067 21.968C29.0827 21.0375 28.1837 20.3077 27.2593 20.3077H21.3333C20.4089 20.3077 19.5099 21.0375 19.2865 21.9655L19.2681 22.0412C19.1763 22.4228 18.7484 22.7692 18.3704 22.7692C18.0089 22.7692 17.7778 22.5674 17.7778 22.4615V14.1539C17.7778 13.8142 18.0439 13.5385 18.3704 13.5385H30.2222C30.5487 13.5385 30.8148 13.8142 30.8148 14.1539V22.4615ZM19.1982 3.22586C22.3905 1.50155 26.2021 1.50093 29.3902 3.22401C29.5058 3.28801 29.6296 3.50832 29.6296 3.6154V8.72186C29.4394 8.65663 29.2415 8.6154 29.037 8.6154H28.4444V6.76925C28.4444 5.7514 27.6468 4.92309 26.6667 4.92309H21.9259C20.9458 4.92309 20.1482 5.7514 20.1482 6.76925V8.6154H19.5556C19.3517 8.6154 19.1532 8.65663 18.963 8.72186V3.61663C18.963 3.50833 19.0868 3.28801 19.1982 3.22586ZM27.2593 8.6154H21.3333V6.76925C21.3333 6.42955 21.5994 6.15386 21.9259 6.15386H26.6667C26.9932 6.15386 27.2593 6.42955 27.2593 6.76925V8.6154ZM18.7603 10.5459C18.8202 10.1729 19.1917 9.84617 19.5556 9.84617H29.037C29.4015 9.84617 29.773 10.1729 29.8329 10.5459L30.1156 12.3077H18.477L18.7603 10.5459ZM31.3914 12.7742L31.0015 10.344C30.9695 10.144 30.9013 9.95693 30.8148 9.7797V3.61417C30.8142 3.04371 30.4397 2.40863 29.9407 2.13478C26.4065 0.224016 22.1855 0.224633 18.6477 2.13663C18.1529 2.40863 17.7784 3.04371 17.7778 3.6154V9.78032C17.6913 9.95693 17.6231 10.144 17.5911 10.344L17.2012 12.7742C16.8308 13.1126 16.5926 13.6025 16.5926 14.1539V22.4615C16.5926 23.3102 17.3902 24 18.3704 24C19.2948 24 20.1938 23.2702 20.4172 22.3422L20.4356 22.2665C20.5274 21.8849 20.9553 21.5385 21.3333 21.5385H27.2593C27.6373 21.5385 28.0652 21.8849 28.1576 22.2689L28.1748 22.3397C28.3988 23.2702 29.2978 24 30.2222 24C31.2024 24 32 23.3102 32 22.4615V14.1539C32 13.6025 31.7618 13.1126 31.3914 12.7742Z" fill="#424242"/>
<path d="M7.7037 14.7692C4.10963 14.7692 1.18518 11.7323 1.18518 7.99999C1.18518 4.26769 4.10963 1.23077 7.7037 1.23077C11.2978 1.23077 14.2222 4.26769 14.2222 7.99999C14.2222 11.7323 11.2978 14.7692 7.7037 14.7692ZM7.7037 0C3.456 0 0 3.58892 0 7.99999C0 12.4111 3.456 16 7.7037 16C11.9514 16 15.4074 12.4111 15.4074 7.99999C15.4074 3.58892 11.9514 0 7.7037 0Z" fill="#424242"/>
<path d="M11.2593 7.38461H8.29629V4.30769C8.29629 3.96738 8.03081 3.6923 7.7037 3.6923C7.37659 3.6923 7.11111 3.96738 7.11111 4.30769V7.38461H4.14815C3.82104 7.38461 3.55556 7.65969 3.55556 7.99999C3.55556 8.3403 3.82104 8.61538 4.14815 8.61538H7.11111V11.6923C7.11111 12.0326 7.37659 12.3077 7.7037 12.3077C8.03081 12.3077 8.29629 12.0326 8.29629 11.6923V8.61538H11.2593C11.5864 8.61538 11.8519 8.3403 11.8519 7.99999C11.8519 7.65969 11.5864 7.38461 11.2593 7.38461Z" fill="#424242"/>
</svg>
