<svg width="31" height="33" viewBox="0 0 31 33" fill="none" xmlns="http://www.w3.org/2000/svg">
<path d="M29.6421 20.8041C28.8485 21.6346 28.1677 22.9454 27.8654 24.2244L27.2526 26.8137C27.0084 27.8483 25.9451 28.7222 24.9306 28.7222H8.65198C7.434 28.7222 4.51199 28.4148 3.68702 25.586L3.00447 22.9521C2.75331 21.9481 2.51089 21.3388 2.39345 21.0454C2.36729 20.98 2.34753 20.9324 2.34113 20.9122C2.24579 20.5358 1.50627 19.4963 1.28128 19.1864C1.16559 19.0269 1.13187 18.8369 1.19524 18.7024C1.30396 18.4714 1.70102 18.3333 2.25682 18.3333H6.90785C8.1113 18.3333 10.0798 18.7086 11.2066 19.1528L11.5025 19.2696C12.7577 19.7646 14.8692 20.1667 16.2099 20.1667H29.0002C29.6043 20.1667 29.8084 20.339 29.8322 20.4001C29.8549 20.4588 29.8107 20.6281 29.6421 20.8041ZM21.758 7.33333H18.8011C19.0703 6.77417 19.5441 6.11111 20.2796 6.11111C21.015 6.11111 21.4888 6.77417 21.758 7.33333ZM30.9066 19.9332C30.7612 19.5641 30.3205 18.9444 29.0002 18.9444V4.27778C29.0002 1.87917 26.9573 0 24.3492 0C21.7411 0 19.6982 1.87917 19.6982 4.27778V4.96772C17.9843 5.4065 17.4157 7.689 17.3901 7.79656C17.3465 7.97928 17.3855 8.17238 17.4959 8.32027C17.6058 8.46877 17.775 8.55556 17.954 8.55556H22.6051C22.6091 8.55556 22.6138 8.55556 22.6167 8.55556C22.9376 8.55556 23.1981 8.28239 23.1981 7.94444C23.1981 7.84422 23.1748 7.7495 23.1341 7.66577C22.9876 7.15489 22.3655 5.34906 20.8609 4.96528V4.27778C20.8609 2.56422 22.3934 1.22222 24.3492 1.22222C26.305 1.22222 27.8375 2.56422 27.8375 4.27778V18.9444H16.2099C15.0065 18.9444 13.0379 18.5692 11.9112 18.1249L11.6153 18.0082C10.3601 17.5132 8.24851 17.1111 6.90785 17.1111H2.25682C0.856281 17.1111 0.337681 17.7681 0.153384 18.1598C-0.108818 18.7159 -0.030913 19.393 0.356866 19.9277C0.834178 20.5859 1.17663 21.1377 1.21616 21.2233C1.23011 21.2789 1.265 21.3761 1.32139 21.5178C1.43592 21.8057 1.64928 22.3416 1.88125 23.2681L2.57019 25.9258C3.2725 28.3336 5.12127 29.304 6.65494 29.6915C6.34856 30.0086 6.03868 30.4052 5.80613 30.8935C5.41835 31.7099 4.70152 31.7778 4.00096 31.7778C3.67945 31.7778 3.41958 32.0509 3.41958 32.3889C3.41958 32.7268 3.67945 33 4.00096 33C4.63059 33 6.1044 33 6.84682 31.4398C7.24855 30.5953 7.9962 30.0844 8.24445 29.9316C8.39968 29.9402 8.54152 29.9444 8.65198 29.9444H23.6138C23.8771 30.1094 24.5998 30.6167 24.9916 31.4398C25.734 33 27.2078 33 27.8375 33C28.159 33 28.4188 32.7268 28.4188 32.3889C28.4188 32.0509 28.159 31.7778 27.8375 31.7778C27.1369 31.7778 26.4207 31.7099 26.0323 30.8935C25.848 30.5067 25.6149 30.1803 25.3742 29.9011C26.7677 29.6933 28.0415 28.5468 28.3816 27.1083L28.9938 24.519C29.2979 23.2344 29.9519 22.2053 30.4624 21.6706C30.9548 21.1548 31.1246 20.4893 30.9066 19.9332Z" fill="#424242"/>
<path d="M7.56422 25.7082C6.71715 25.6532 6.17123 24.4267 6.16076 24.4023C6.03286 24.0943 5.6916 23.9525 5.39626 24.0875C5.10208 24.2226 4.9672 24.5832 5.09569 24.8918C5.12824 24.9706 5.91485 26.8253 7.49155 26.928C7.50375 26.9286 7.51654 26.9292 7.52817 26.9292C7.83281 26.9292 8.08863 26.6799 8.10781 26.3566C8.12816 26.0193 7.88456 25.7296 7.56422 25.7082Z" fill="#424242"/>
<path d="M17.954 12.8333C18.2755 12.8333 18.5354 12.5602 18.5354 12.2222V10.3889C18.5354 10.0509 18.2755 9.77778 17.954 9.77778C17.6325 9.77778 17.3727 10.0509 17.3727 10.3889V12.2222C17.3727 12.5602 17.6325 12.8333 17.954 12.8333Z" fill="#424242"/>
<path d="M20.8609 12.2222V10.3889C20.8609 10.0509 20.601 9.77778 20.2795 9.77778C19.958 9.77778 19.6982 10.0509 19.6982 10.3889V12.2222C19.6982 12.5602 19.958 12.8333 20.2795 12.8333C20.601 12.8333 20.8609 12.5602 20.8609 12.2222Z" fill="#424242"/>
<path d="M23.1864 12.2222V10.3889C23.1864 10.0509 22.9266 9.77778 22.6051 9.77778C22.2836 9.77778 22.0237 10.0509 22.0237 10.3889V12.2222C22.0237 12.5602 22.2836 12.8333 22.6051 12.8333C22.9266 12.8333 23.1864 12.5602 23.1864 12.2222Z" fill="#424242"/>
</svg>
