<svg width="27" height="32" viewBox="0 0 27 32" fill="none" xmlns="http://www.w3.org/2000/svg">
<path d="M24.0652 30.8148H14.087V28.4444H14.6739C15.6447 28.4444 16.4348 27.6468 16.4348 26.6667H25.8261V29.037C25.8261 30.0172 25.036 30.8148 24.0652 30.8148ZM1.17391 29.037V26.6667H10.5652C10.5652 27.6468 11.3553 28.4444 12.3261 28.4444H12.913V30.8148H2.93478C1.96396 30.8148 1.17391 30.0172 1.17391 29.037ZM2.37776 14.3567L3.29458 12.9677C4.10458 11.7416 4.47672 9.65748 4.14274 8.22341L2.87021 2.76386C2.76867 2.33008 2.83911 1.93067 3.06861 1.63793C3.29752 1.34579 3.6673 1.18519 4.1087 1.18519H5.86957C6.88911 1.18519 7.94446 2.03259 8.17337 3.03585C8.22796 3.27467 9.55683 8.88889 13.5 8.88889C17.4432 8.88889 18.7715 3.27409 18.8266 3.03527C19.0555 2.03261 20.1109 1.18519 21.1304 1.18519H22.8913C23.3327 1.18519 23.7025 1.34579 23.9314 1.63793C24.1609 1.93067 24.2313 2.33008 24.1298 2.76386L22.8573 8.22341C22.5233 9.65748 22.8954 11.7416 23.7054 12.9677L24.6222 14.3561C25.1746 15.1923 25.65 16.6335 25.7844 17.7778H16.4348C16.4348 16.7976 15.6447 16 14.6739 16H14.087V10.0741C14.087 9.74696 13.824 9.48148 13.5 9.48148C13.176 9.48148 12.913 9.74696 12.913 10.0741V16H12.3261C11.3553 16 10.5652 16.7976 10.5652 17.7778H1.21558C1.35 16.6335 1.82544 15.1923 2.37776 14.3567ZM14.6739 23.7037H14.087V20.7407H14.6739C15.6447 20.7407 16.4348 19.9431 16.4348 18.963H25.8261V25.4815H16.4348C16.4348 24.5013 15.6447 23.7037 14.6739 23.7037ZM14.6739 17.1852C14.9973 17.1852 15.2609 17.4513 15.2609 17.7778V18.963C15.2609 19.2895 14.9973 19.5556 14.6739 19.5556H12.3261C12.0027 19.5556 11.7391 19.2895 11.7391 18.963V17.7778C11.7391 17.4513 12.0027 17.1852 12.3261 17.1852H14.6739ZM1.17391 18.963H10.5652C10.5652 19.9431 11.3553 20.7407 12.3261 20.7407H12.913V23.7037H12.3261C11.3553 23.7037 10.5652 24.5013 10.5652 25.4815H1.17391V18.963ZM12.3261 27.2593C12.0027 27.2593 11.7391 26.9932 11.7391 26.6667V25.4815C11.7391 25.155 12.0027 24.8889 12.3261 24.8889H14.6739C14.9973 24.8889 15.2609 25.155 15.2609 25.4815V26.6667C15.2609 26.9932 14.9973 27.2593 14.6739 27.2593H12.3261ZM25.5989 13.699L24.6821 12.3099C24.0529 11.357 23.7406 9.61008 24.0006 8.49482L25.2732 3.03585C25.4551 2.25363 25.3013 1.47615 24.8517 0.902517C24.4021 0.328888 23.6872 0 22.8913 0H21.1304C19.5779 0 18.0313 1.24209 17.6827 2.76861C17.6709 2.81779 16.5105 7.7037 13.5 7.7037C10.4895 7.7037 9.3285 2.81778 9.31735 2.76918C8.96811 1.24207 7.42207 0 5.86957 0H4.1087C3.31278 0 2.59788 0.328888 2.14827 0.902517C1.69866 1.47615 1.54487 2.25363 1.72682 3.03585L2.99935 8.49482C3.25938 9.61008 2.94711 11.357 2.31789 12.3099L1.40107 13.699C0.615137 14.8889 0 16.9404 0 18.3704V29.037C0 30.6708 1.31654 32 2.93478 32H24.0652C25.6835 32 27 30.6708 27 29.037V18.3704C27 16.9404 26.3849 14.8889 25.5989 13.699Z" fill="#424242"/>
</svg>
