<svg width="29" height="32" viewBox="0 0 29 32" fill="none" xmlns="http://www.w3.org/2000/svg">
<path d="M25.9437 30.8148H15.4761C15.7573 30.6601 16.0873 30.4119 16.4468 30.0124C16.4639 29.9935 16.4798 29.9739 16.4938 29.9532C17.1968 28.9398 17.3526 27.9413 16.9571 26.9861C16.7414 26.464 16.3704 25.9994 15.9101 25.5858C16.7292 25.5188 17.4058 25.2723 17.94 24.8776C17.9602 24.8794 17.9773 24.8889 17.9975 24.8889H27.7775V29.037C27.7775 30.0172 26.9548 30.8148 25.9437 30.8148ZM10.2071 27.648C10.245 27.3932 10.2737 27.1401 10.2964 26.8907C11.2958 26.669 12.1289 26.0261 12.5879 25.1639C12.8422 25.2361 13.1026 25.3043 13.3703 25.3641C14.4901 25.9099 15.4822 26.605 15.8227 27.4276C16.058 27.9959 15.9523 28.5962 15.5005 29.261C14.9871 29.821 14.6552 29.8744 14.6772 29.8779C14.4015 29.8619 14.1668 29.9739 14.08 30.2311C14.0782 30.2335 13.9119 30.4996 13.1607 30.7307C12.9596 30.7639 12.7664 30.781 12.5873 30.781C12.5873 30.781 12.5873 30.781 12.5867 30.781C11.9425 30.781 11.4443 30.5659 11.0647 30.1239C10.5641 29.5413 10.3135 28.6258 10.2071 27.648ZM7.95833 30.1855C7.45588 30.7295 6.79756 30.9019 5.9357 30.7324C5.32506 30.515 5.15207 30.2874 5.12334 30.243C5.04144 29.997 4.84034 29.8246 4.57444 29.8453C4.57077 29.8447 4.26821 29.7932 3.81956 29.2326C3.43202 28.5624 3.37212 27.9627 3.63679 27.3985C4.03227 26.5564 5.09401 25.869 6.2566 25.3458C6.35501 25.3286 6.44365 25.3067 6.53962 25.2877C7.0384 26.1345 7.90698 26.749 8.93205 26.9238C8.93999 27.1514 8.95283 27.3819 8.97483 27.6142C8.81102 28.6335 8.50417 29.5929 7.95833 30.1855ZM1.22358 22.2708C1.30365 21.5976 1.52064 21.3333 1.50964 21.3333C1.50964 21.3333 1.50903 21.3333 1.50842 21.3333C1.74008 21.3333 1.85683 20.992 1.80121 20.7425C1.80182 20.6951 1.82504 20.4581 2.24192 19.9496C2.74314 19.4904 3.24498 19.2646 3.77371 19.2646C4.52738 19.2646 5.29266 19.7221 5.99621 20.3668C6.23704 20.8059 6.51578 21.219 6.80185 21.6154C6.35625 22.1778 6.0879 22.8788 6.0879 23.6415C6.0879 23.8009 6.1038 23.9567 6.12641 24.1108C6.07507 24.1321 6.02556 24.1493 5.97483 24.1713C5.35685 24.2767 4.70831 24.3502 4.0885 24.3502C1.60377 24.3502 1.25475 23.1644 1.22358 22.2708ZM6.44977 17.3511C6.57935 16.7135 7.06712 16.3277 7.93876 15.9905C8.54329 15.8412 9.08731 16 9.1197 16C9.12032 16 9.12032 16 9.12093 16C9.32814 16 9.54635 16.099 9.7878 15.9342C9.78902 15.9336 9.9131 15.8311 10.2016 15.8311C10.44 15.8311 10.7181 15.8477 11.028 15.9241C11.8984 16.2613 12.385 16.723 12.514 17.3588C12.7096 18.3206 12.1124 19.5609 11.3312 20.6921C11.308 20.717 11.2884 20.7413 11.2652 20.7662C10.7548 20.4753 10.1631 20.3058 9.52924 20.3058C8.95283 20.3058 8.40944 20.4456 7.93205 20.6892C7.64171 20.3307 7.33424 19.9751 6.99194 19.6486C6.56406 18.8356 6.31285 18.0243 6.44977 17.3511ZM13.1075 10.6667H25.9437C26.9548 10.6667 27.7775 11.4643 27.7775 12.4444V16H13.2029C12.8117 15.4904 12.2249 15.0827 11.4394 14.7852C11.4174 14.7775 11.3948 14.7698 11.3722 14.7638C11.3379 14.7556 11.3074 14.7526 11.2737 14.7449V12.4444C11.2737 11.4643 12.0965 10.6667 13.1075 10.6667ZM14.9412 8C14.9412 7.18281 15.764 6.51851 16.775 6.51851H22.2762C23.2873 6.51851 24.11 7.18281 24.11 8V9.48148H14.9412V8ZM18.8649 20.9736C18.8795 20.6347 18.7958 20.1007 18.3526 19.3932C18.3386 19.3707 18.3233 19.3499 18.3068 19.3298C17.6057 18.4824 16.7664 18.0533 15.8123 18.0533C15.069 18.0533 14.3312 18.3253 13.6332 18.7407C13.7683 18.2121 13.8123 17.6865 13.7224 17.1852H27.7775V23.7037H18.8936C19.0378 23.3926 19.1491 23.0513 19.2108 22.6679C19.2145 22.6436 19.2169 22.6193 19.2176 22.5944C19.2432 21.7559 19.0525 21.2575 18.8649 20.9736ZM12.2065 21.5502C12.2389 21.5058 12.2719 21.4655 12.3037 21.4198C13.3673 20.2803 14.6674 19.2385 15.8123 19.2385C16.3752 19.2385 16.8716 19.501 17.3282 20.0415C17.6949 20.6394 17.6387 20.9404 17.657 20.9156C17.5525 21.155 17.6222 21.4293 17.8221 21.5953C17.8514 21.6344 18.0103 21.8726 17.9969 22.5227C17.775 23.8246 16.9565 24.432 15.4241 24.432C14.9003 24.432 14.3477 24.3532 13.8043 24.24C13.5207 24.1043 13.2383 23.9852 12.959 23.8732C12.9645 23.7961 12.9706 23.7197 12.9706 23.6415C12.9706 22.8498 12.6839 22.1227 12.2065 21.5502ZM9.52924 25.792C8.30613 25.792 7.3104 24.8273 7.3104 23.6415C7.3104 22.4557 8.30613 21.491 9.52924 21.491C10.753 21.491 11.7481 22.4557 11.7481 23.6415C11.7481 24.8273 10.753 25.792 9.52924 25.792ZM25.9437 9.48148H25.3325V8C25.3325 6.52977 23.9615 5.33333 22.2762 5.33333H16.775C15.0898 5.33333 13.7187 6.52977 13.7187 8V9.48148H13.1075C11.4223 9.48148 10.0512 10.8107 10.0512 12.4444V14.6216C9.82264 14.6311 9.61788 14.6542 9.47668 14.6963C9.10871 14.5855 8.39476 14.5612 7.59464 14.7638C7.57141 14.7698 7.5494 14.7775 7.52739 14.7852C6.23216 15.2753 5.46626 16.0616 5.25049 17.1218C5.16369 17.5473 5.18386 17.9917 5.2676 18.4409C4.79083 18.2234 4.29266 18.0859 3.77371 18.0859C2.91613 18.0859 2.1056 18.4344 1.3666 19.1236C1.34827 19.1407 1.33116 19.1591 1.31527 19.1781C0.771255 19.8299 0.61172 20.3378 0.582991 20.6744C0.359885 20.9351 0.0927697 21.4092 0.00352721 22.2329C0.000470957 22.2584 -0.000754528 22.2838 0.000467972 22.3093C0.0304192 23.4673 0.559146 25.3689 3.63251 25.5419C3.15574 25.9413 2.76515 26.3953 2.52432 26.9067C2.08606 27.8394 2.17163 28.8314 2.77921 29.856C2.79204 29.8779 2.8061 29.8993 2.82199 29.9194C3.333 30.5707 3.8055 30.8421 4.14169 30.9529C4.34523 31.2267 4.75171 31.5822 5.56284 31.8625C5.5879 31.8708 5.61297 31.8779 5.63925 31.8833C5.94976 31.9479 6.25172 31.981 6.53717 31.981C7.46994 31.981 8.25539 31.6421 8.87092 30.9742C9.14109 30.6803 9.36053 30.3313 9.54452 29.9514C9.70039 30.2933 9.89049 30.608 10.1246 30.8806C10.742 31.6006 11.5708 31.9656 12.5867 31.9662H12.5873C12.679 31.9662 12.7744 31.9591 12.8691 31.9532C12.9425 31.9834 13.0231 32 13.1075 32H25.9437C27.629 32 29 30.6708 29 29.037V12.4444C29 10.8107 27.629 9.48148 25.9437 9.48148Z" fill="#424242"/>
<path d="M14.33 1.18519H18.6088V4.14815C18.6088 4.47585 18.8826 4.74074 19.22 4.74074C19.5574 4.74074 19.8313 4.47585 19.8313 4.14815V1.18519H23.4988C23.5232 1.18519 25.9438 1.23615 25.9438 2.37037C25.9438 2.69807 26.2176 2.96296 26.555 2.96296C26.8924 2.96296 27.1663 2.69807 27.1663 2.37037C27.1663 0.499556 24.8612 0 23.4988 0H14.33C13.9926 0 13.7188 0.264889 13.7188 0.592593C13.7188 0.920297 13.9926 1.18519 14.33 1.18519Z" fill="#424242"/>
<path d="M13.7187 14.8148C14.0562 14.8148 14.33 14.5499 14.33 14.2222V13.0371C14.6674 13.0371 14.9412 12.7722 14.9412 12.4445C14.9412 12.1168 14.6674 11.8519 14.33 11.8519C13.536 11.8519 13.1075 12.4622 13.1075 13.0371V14.2222C13.1075 14.5499 13.3813 14.8148 13.7187 14.8148Z" fill="#424242"/>
</svg>
