<svg width="32" height="32" viewBox="0 0 32 32" fill="none" xmlns="http://www.w3.org/2000/svg">
<path d="M31.9291 31.1289L23.633 15.7633C23.4778 15.4761 23.118 15.3685 22.8301 15.5228C22.5421 15.6782 22.4336 16.0363 22.5889 16.3236L30.885 31.6891C30.9923 31.8877 31.1967 32 31.4076 32C31.5025 32 31.5985 31.9775 31.688 31.9297C31.976 31.7743 32.0844 31.4161 31.9291 31.1289Z" fill="#424242"/>
<path d="M9.16994 15.5228C8.88195 15.3685 8.52224 15.4761 8.36698 15.7633L0.070873 31.1289C-0.0843827 31.4161 0.0240488 31.7743 0.312042 31.9297C0.401522 31.9775 0.497547 32 0.59236 32C0.803318 32 1.00775 31.8877 1.115 31.6891L9.41111 16.3236C9.56637 16.0363 9.45794 15.6782 9.16994 15.5228Z" fill="#424242"/>
<path d="M23.7035 14.2705V7.47419C23.7035 3.35266 20.2476 0 16 0C11.7524 0 8.29647 3.35266 8.29647 7.47419V14.2705C8.29647 14.5973 8.56135 14.8615 8.88905 14.8615H13.0371C13.3648 14.8615 13.6297 14.5973 13.6297 14.2705C13.6297 13.9437 13.3648 13.6795 13.0371 13.6795H9.48163V7.47419C9.48163 4.00452 12.406 1.18197 16 1.18197C19.594 1.18197 22.5184 4.00452 22.5184 7.47419V13.6795H18.9629C18.6352 13.6795 18.3703 13.9437 18.3703 14.2705C18.3703 14.5973 18.6352 14.8615 18.9629 14.8615H23.1109C23.4386 14.8615 23.7035 14.5973 23.7035 14.2705Z" fill="#424242"/>
<path d="M16 26.6811C15.6723 26.6811 15.4074 26.9453 15.4074 27.2721V31.409C15.4074 31.7358 15.6723 32 16 32C16.3277 32 16.5926 31.7358 16.5926 31.409V27.2721C16.5926 26.9453 16.3277 26.6811 16 26.6811Z" fill="#424242"/>
<path d="M16 18.9984C15.6723 18.9984 15.4074 19.2625 15.4074 19.5894V23.1353C15.4074 23.4621 15.6723 23.7262 16 23.7262C16.3277 23.7262 16.5926 23.4621 16.5926 23.1353V19.5894C16.5926 19.2625 16.3277 18.9984 16 18.9984Z" fill="#424242"/>
<path d="M16 13.6795C15.6723 13.6795 15.4074 13.9437 15.4074 14.2705V16.0435C15.4074 16.3703 15.6723 16.6344 16 16.6344C16.3277 16.6344 16.5926 16.3703 16.5926 16.0435V14.2705C16.5926 13.9437 16.3277 13.6795 16 13.6795Z" fill="#424242"/>
</svg>
