<svg width="32" height="32" viewBox="0 0 32 32" fill="none" xmlns="http://www.w3.org/2000/svg">
<path d="M15.6618 28.5799L14.553 29.6881C14.329 29.9133 13.9298 29.9133 13.7047 29.6881L1.37534 17.3518C1.26248 17.2389 1.20064 17.0882 1.20064 16.9272C1.20064 16.7656 1.26248 16.6148 1.37534 16.5025L2.48292 15.3937C2.59518 15.282 2.74588 15.2195 2.90736 15.2195C3.06825 15.2195 3.21892 15.282 3.33178 15.3937L15.6618 27.7305C15.8953 27.9648 15.8953 28.3462 15.6618 28.5799ZM11.4529 29.9836L10.8136 30.6239C10.5878 30.8491 10.1652 30.8485 9.94069 30.6245L5.6268 26.3316C5.6268 26.331 5.6268 26.331 5.6268 26.3304C5.6268 26.3304 5.64902 26.3304 5.64902 26.3298L1.36394 22.0303C1.25108 21.918 1.19463 21.7673 1.19463 21.6057C1.19463 21.4441 1.26006 21.2933 1.37232 21.181L2.01348 20.5407C2.12574 20.4278 2.27762 20.3659 2.43851 20.3659C2.59999 20.3659 2.75068 20.4278 2.86354 20.5407L11.4529 29.1349C11.5652 29.2472 11.6276 29.398 11.6276 29.5589C11.6276 29.7205 11.5658 29.8713 11.4529 29.9836ZM4.18064 14.5444C3.50288 13.8662 2.31185 13.8662 1.63408 14.5444L0.526482 15.6526C0.186701 15.992 0 16.4443 0 16.9272C0 17.4095 0.186701 17.8618 0.526482 18.2012L1.6743 19.3496C1.4888 19.4331 1.3141 19.543 1.16582 19.6908L0.526482 20.3311C0.186701 20.6705 0 21.1228 0 21.6057C0 22.088 0.186701 22.5403 0.526482 22.8797L4.39254 26.7485L2.57959 28.5348C2.34306 28.7679 2.34005 29.1481 2.57238 29.3841C2.69004 29.5037 2.84492 29.5637 3.0004 29.5637C3.15228 29.5637 3.30475 29.5061 3.42121 29.3913L5.2414 27.5984L9.11525 31.4744C9.45443 31.8132 9.90709 32 10.3891 32C10.87 32 11.3226 31.8132 11.6624 31.4738L12.3018 30.8335C12.4494 30.6858 12.5623 30.514 12.6493 30.3308L12.8559 30.5374C13.195 30.8774 13.6471 31.0642 14.1291 31.0642C14.6118 31.0642 15.0638 30.8774 15.4024 30.5374L16.5106 29.4292C17.213 28.7264 17.213 27.584 16.5106 26.8812L4.18064 14.5444Z" fill="#424242"/>
<path d="M30.6248 10.8023L29.9836 11.442C29.7597 11.6673 29.3605 11.6673 29.1354 11.442L20.5466 2.84725C20.4337 2.73552 20.3719 2.58476 20.3719 2.42318C20.3719 2.26221 20.4337 2.11145 20.5466 1.99853L21.1871 1.35882C21.2988 1.2459 21.4494 1.18404 21.6109 1.18404C21.7724 1.18404 21.9231 1.2459 22.0354 1.35882L30.6241 9.95239C30.8583 10.186 30.8583 10.5681 30.6248 10.8023ZM29.6888 14.5444L28.5813 15.6532C28.3561 15.8772 27.9575 15.8772 27.7324 15.6532L15.4024 3.31636C15.1689 3.08211 15.1689 2.70068 15.4024 2.46703L16.5112 1.35882C16.6229 1.2459 16.7736 1.18404 16.9351 1.18404C17.0959 1.18404 17.2466 1.2459 17.3595 1.35882L29.6888 13.6951C29.8017 13.808 29.8635 13.9587 29.8635 14.1197C29.8635 14.2813 29.8017 14.4321 29.6888 14.5444ZM31.4742 11.6516C32.1754 10.9489 32.1754 9.80523 31.4736 9.10307L27.6147 5.24206L29.4523 3.49596C29.693 3.26711 29.7026 2.8869 29.4751 2.64664C29.2464 2.40577 28.8664 2.39616 28.6263 2.6238L26.7647 4.39213L22.8842 0.509505C22.2053 -0.170435 21.0154 -0.169234 20.3376 0.509505L19.6971 1.1492C19.55 1.29696 19.4372 1.46875 19.3501 1.65195L18.2083 0.509505C17.5288 -0.170435 16.3389 -0.169234 15.6618 0.509505L14.5536 1.61771C13.8512 2.32047 13.8512 3.46291 14.5536 4.16568L26.8835 16.5025C27.2227 16.8413 27.6754 17.0287 28.1568 17.0287C28.6389 17.0287 29.0915 16.8413 29.4301 16.5025L30.5377 15.3943C30.8775 15.0549 31.0642 14.6026 31.0642 14.1197C31.0642 13.6374 30.8775 13.1851 30.5377 12.8457L30.3312 12.6391C30.5143 12.552 30.686 12.4391 30.833 12.2913L31.4742 11.6516Z" fill="#424242"/>
<path d="M19.7836 11.3561L11.3671 19.7773C11.1324 20.0121 11.1324 20.3918 11.3671 20.6266C11.4841 20.7437 11.6378 20.8026 11.7915 20.8026C11.9446 20.8026 12.0983 20.7437 12.2159 20.6266L20.6324 12.2054C20.8671 11.9706 20.8671 11.5904 20.6324 11.3561C20.3977 11.1213 20.0183 11.1213 19.7836 11.3561Z" fill="#424242"/>
</svg>
