<svg width="26" height="32" viewBox="0 0 26 32" fill="none" xmlns="http://www.w3.org/2000/svg">
<path d="M18.2715 2.23533L18.3613 1.5568C18.3986 1.27835 18.6196 1.13227 18.8884 1.21694L20.452 1.70288C20.5843 1.74342 20.6813 1.82392 20.7256 1.92767C20.7693 2.0326 20.7604 2.15841 20.6984 2.28303L20.3958 2.89537C20.2605 3.16786 20.1317 3.3688 20.0395 3.49341L18.2319 2.93294C18.226 2.77672 18.2313 2.53763 18.2715 2.23533ZM17.5931 3.98233L19.9828 4.72407L20.1748 4.75269C20.345 4.75269 20.797 4.75269 21.453 3.42783L21.7555 2.81667C21.9724 2.37962 21.9925 1.88474 21.8117 1.45842C21.6308 1.0327 21.2621 0.706549 20.7994 0.562257L19.2359 0.076911C19.0704 0.0256337 18.9026 0 18.7366 0C17.9353 0 17.2989 0.575377 17.1902 1.39939L17.0997 2.07673C16.8764 3.75874 17.3964 3.92092 17.5931 3.98233Z" fill="#424242"/>
<path d="M18.9091 26.0375H7.09092C6.76415 26.0375 6.50001 26.3041 6.50001 26.6338C6.50001 26.9635 6.76415 27.23 7.09092 27.23H18.9091C19.2359 27.23 19.5 26.9635 19.5 26.6338C19.5 26.3041 19.2359 26.0375 18.9091 26.0375Z" fill="#424242"/>
<path d="M22.4545 21.8638C22.4545 22.1929 22.1898 22.46 21.8636 22.46H14.7727C14.4465 22.46 14.1818 22.1929 14.1818 21.8638V15.3051C14.1818 15.0958 14.1458 14.8955 14.0808 14.7088H21.8636C22.1898 14.7088 22.4545 14.9759 22.4545 15.3051V21.8638ZM19.7618 30.1272C19.7027 30.4772 19.2879 30.8075 18.9091 30.8075H7.09091C6.72632 30.8075 6.35227 30.4897 6.29082 30.1272L3.7375 15.1864C3.71445 15.0499 3.74105 14.9276 3.81255 14.8418C3.88405 14.7559 3.99986 14.7088 4.13636 14.7088H12.4091C12.7353 14.7088 13 14.9759 13 15.3051V21.8638C13 22.85 13.7954 23.6525 14.7727 23.6525H20.9164L19.7618 30.1272ZM25.4091 17.0938C24.8087 17.0938 24.209 17.2679 23.6364 17.5965V15.3051C23.6364 14.3189 22.841 13.5163 21.8636 13.5163H20.2634L19.8977 11.3049C19.6991 10.1022 19.8161 8.09704 20.1524 6.92601C20.244 6.61119 20.4065 6.09722 20.4833 5.941C20.6292 5.64646 20.5105 5.28812 20.2186 5.14144C19.9255 4.99238 19.5721 5.11461 19.4261 5.40856C19.2743 5.71563 19.0598 6.44901 19.0184 6.5939C18.6337 7.9283 18.5055 10.1296 18.7318 11.5004L19.0651 13.5163H11.7957L14.8549 10.2704C15.8039 9.26569 16.9378 7.35471 17.3828 6.04177C17.4744 5.77108 17.6871 5.04544 17.6782 4.66146C17.6705 4.3371 17.4082 3.97637 17.0879 3.97637C17.085 3.97637 17.0826 3.97637 17.0796 3.97637C16.7558 3.97637 16.4958 4.36214 16.4964 4.68889C16.497 4.80873 16.3883 5.34476 16.2642 5.71085C15.8724 6.86638 14.8354 8.58954 13.9992 9.47437L10.4733 13.2027C10.3882 13.2921 10.3474 13.403 10.3285 13.5163H4.13636C3.65241 13.5163 3.20509 13.7197 2.90904 14.0738C2.61359 14.4274 2.49068 14.9068 2.57282 15.3891L3.02959 18.0591C2.43514 17.5666 1.60255 17.0938 0.590909 17.0938C0.264136 17.0938 0 17.3603 0 17.6901C0 18.0198 0.264136 18.2863 0.590909 18.2863C2.01795 18.2863 3.04438 19.7954 3.05501 19.8109C3.13242 19.9278 3.24526 20.0047 3.36876 20.044L5.12614 30.3299C5.28568 31.2666 6.14841 32 7.09091 32H18.9091C19.8646 32 20.7693 31.2505 20.9259 30.3341L22.1219 23.6263C22.9763 23.4987 23.6364 22.7611 23.6364 21.8638V19.0519C24.0518 18.6894 24.6752 18.2863 25.4091 18.2863C25.7359 18.2863 26 18.0198 26 17.6901C26 17.3603 25.7359 17.0938 25.4091 17.0938Z" fill="#424242"/>
</svg>
