<svg width="29" height="32" viewBox="0 0 29 32" fill="none" xmlns="http://www.w3.org/2000/svg">
<path d="M27.7917 29.037C27.7917 30.0172 26.9785 30.8148 25.9792 30.8148H3.02083C2.02154 30.8148 1.20833 30.0172 1.20833 29.037V23.7037C1.20833 22.7236 2.02154 21.9259 3.02083 21.9259H25.9792C26.9785 21.9259 27.7917 22.7236 27.7917 23.7037V29.037ZM14.5 8.2963C14.9694 8.2963 15.4195 8.21749 15.8419 8.07882L18.638 12.0207C18.2761 12.1778 18.0229 12.416 17.8169 12.6115C17.5148 12.899 17.3535 13.037 16.991 13.037C16.6279 13.037 16.4666 12.899 16.1645 12.6115C15.8267 12.291 15.3652 11.8519 14.497 11.8519C13.63 11.8519 13.1678 12.291 12.8307 12.6115C12.5286 12.899 12.3679 13.037 12.0054 13.037C11.6435 13.037 11.4828 12.899 11.1813 12.6115C10.9759 12.4166 10.7233 12.1784 10.362 12.0207L13.1581 8.07882C13.5805 8.21749 14.0306 8.2963 14.5 8.2963ZM11.4792 4.14815C11.4792 2.51437 12.8343 1.18519 14.5 1.18519C16.1657 1.18519 17.5208 2.51437 17.5208 4.14815C17.5208 5.78193 16.1657 7.11111 14.5 7.11111C12.8343 7.11111 11.4792 5.78193 11.4792 4.14815ZM9.63224 13.0495C9.91136 13.0797 10.0751 13.2101 10.3397 13.4625C10.6768 13.7831 11.1384 14.2222 12.0054 14.2222C12.8736 14.2222 13.3352 13.7831 13.6723 13.4625C13.9744 13.1751 14.1351 13.037 14.497 13.037C14.8595 13.037 15.0208 13.1751 15.3229 13.4625C15.6606 13.7831 16.1228 14.2222 16.991 14.2222C17.8592 14.2222 18.3208 13.7831 18.6585 13.4625C18.9237 13.2101 19.088 13.0791 19.3678 13.0495L24.8228 20.7407H4.17722L9.63224 13.0495ZM26.3193 20.7745L16.9306 7.53718C18.0169 6.78577 18.7292 5.54785 18.7292 4.14815C18.7292 1.86074 16.8315 0 14.5 0C12.1685 0 10.2708 1.86074 10.2708 4.14815C10.2708 5.54785 10.9838 6.78577 12.0694 7.53718L2.68069 20.7745C1.17692 20.9428 0 22.1843 0 23.7037V29.037C0 30.6708 1.35515 32 3.02083 32H25.9792C27.6449 32 29 30.6708 29 29.037V23.7037C29 22.1843 27.8231 20.9428 26.3193 20.7745Z" fill="#424242"/>
<path d="M4.83335 23.1111C4.49925 23.1111 4.22919 23.3766 4.22919 23.7037V29.037C4.22919 29.3641 4.49925 29.6296 4.83335 29.6296C5.16746 29.6296 5.43752 29.3641 5.43752 29.037V23.7037C5.43752 23.3766 5.16746 23.1111 4.83335 23.1111Z" fill="#424242"/>
<path d="M24.1667 23.1111C23.8326 23.1111 23.5625 23.3766 23.5625 23.7037V29.037C23.5625 29.3641 23.8326 29.6296 24.1667 29.6296C24.5008 29.6296 24.7708 29.3641 24.7708 29.037V23.7037C24.7708 23.3766 24.5008 23.1111 24.1667 23.1111Z" fill="#424242"/>
<path d="M9.66667 23.1111C9.33256 23.1111 9.0625 23.3766 9.0625 23.7037V29.037C9.0625 29.3641 9.33256 29.6296 9.66667 29.6296C10.0008 29.6296 10.2708 29.3641 10.2708 29.037V23.7037C10.2708 23.3766 10.0008 23.1111 9.66667 23.1111Z" fill="#424242"/>
<path d="M19.3334 23.1111C18.9992 23.1111 18.7292 23.3766 18.7292 23.7037V29.037C18.7292 29.3641 18.9992 29.6296 19.3334 29.6296C19.6675 29.6296 19.9375 29.3641 19.9375 29.037V23.7037C19.9375 23.3766 19.6675 23.1111 19.3334 23.1111Z" fill="#424242"/>
<path d="M14.5 23.1111C14.1659 23.1111 13.8959 23.3766 13.8959 23.7037V29.037C13.8959 29.3641 14.1659 29.6296 14.5 29.6296C14.8341 29.6296 15.1042 29.3641 15.1042 29.037V23.7037C15.1042 23.3766 14.8341 23.1111 14.5 23.1111Z" fill="#424242"/>
</svg>
