<svg width="29" height="32" viewBox="0 0 29 32" fill="none" xmlns="http://www.w3.org/2000/svg">
<path d="M9.5529 22.5387C8.55402 22.5387 7.74083 21.7321 7.74083 20.7407C7.74083 19.7493 8.55402 18.9428 9.5529 18.9428C10.5518 18.9428 11.365 19.7493 11.365 20.7407C11.365 21.7321 10.5518 22.5387 9.5529 22.5387ZM9.5529 17.7576C7.89547 17.7576 6.54672 19.0963 6.54672 20.7407C6.54672 22.3852 7.89547 23.7238 9.5529 23.7238C11.2103 23.7238 12.5591 22.3852 12.5591 20.7407C12.5591 19.0963 11.2103 17.7576 9.5529 17.7576Z" fill="#424242"/>
<path d="M9.55289 17.1852C9.88247 17.1852 10.15 16.9203 10.15 16.5926V15.4074C10.15 15.0797 9.88247 14.8148 9.55289 14.8148C9.22332 14.8148 8.95584 15.0797 8.95584 15.4074V16.5926C8.95584 16.9203 9.22332 17.1852 9.55289 17.1852Z" fill="#424242"/>
<path d="M9.55289 24.2963C9.22332 24.2963 8.95584 24.5612 8.95584 24.8889V26.0741C8.95584 26.4018 9.22332 26.6667 9.55289 26.6667C9.88247 26.6667 10.15 26.4018 10.15 26.0741V24.8889C10.15 24.5612 9.88247 24.2963 9.55289 24.2963Z" fill="#424242"/>
<path d="M14.9264 20.1481H13.7323C13.4027 20.1481 13.1352 20.413 13.1352 20.7407C13.1352 21.0684 13.4027 21.3333 13.7323 21.3333H14.9264C15.256 21.3333 15.5234 21.0684 15.5234 20.7407C15.5234 20.413 15.256 20.1481 14.9264 20.1481Z" fill="#424242"/>
<path d="M5.97056 20.7407C5.97056 20.413 5.70308 20.1481 5.3735 20.1481H4.17939C3.84982 20.1481 3.58234 20.413 3.58234 20.7407C3.58234 21.0684 3.84982 21.3333 4.17939 21.3333H5.3735C5.70308 21.3333 5.97056 21.0684 5.97056 20.7407Z" fill="#424242"/>
<path d="M12.9603 23.2847C12.7268 23.053 12.3495 23.053 12.1161 23.2847C11.8826 23.5164 11.8826 23.891 12.1161 24.1227L13.0218 25.0222C13.1382 25.1378 13.2911 25.1959 13.4439 25.1959C13.5967 25.1959 13.7496 25.1378 13.866 25.0222C14.0995 24.7905 14.0995 24.4154 13.866 24.1843L12.9603 23.2847Z" fill="#424242"/>
<path d="M6.14548 18.1968C6.2619 18.3123 6.41475 18.3704 6.5676 18.3704C6.72045 18.3704 6.8733 18.3123 6.98972 18.1968C7.22317 17.9651 7.22317 17.5905 6.98972 17.3588L6.08398 16.4593C5.85053 16.2282 5.4732 16.2282 5.23975 16.4593C5.0063 16.691 5.0063 17.0661 5.23975 17.2972L6.14548 18.1968Z" fill="#424242"/>
<path d="M12.5382 18.3704C12.691 18.3704 12.8439 18.3123 12.9603 18.1968L13.866 17.2972C14.0995 17.0661 14.0995 16.691 13.866 16.4593C13.6326 16.2282 13.2546 16.2282 13.0218 16.4593L12.1161 17.3588C11.8826 17.5905 11.8826 17.9651 12.1161 18.1968C12.2325 18.3123 12.3853 18.3704 12.5382 18.3704Z" fill="#424242"/>
<path d="M6.14548 23.2847L5.23975 24.1843C5.0063 24.4154 5.0063 24.7905 5.23975 25.0222C5.35617 25.1378 5.50903 25.1959 5.66187 25.1959C5.81472 25.1959 5.96755 25.1378 6.08398 25.0222L6.98972 24.1227C7.22317 23.891 7.22317 23.5164 6.98972 23.2847C6.75627 23.053 6.37833 23.053 6.14548 23.2847Z" fill="#424242"/>
<path d="M21.4248 6.58016C21.4271 6.55645 21.4701 6.51853 21.494 6.51853H23.8822C23.9061 6.51853 23.9491 6.55645 23.9521 6.58016L24.4339 10.6667H20.9668L21.4248 6.58016ZM20.897 11.8519H24.4793C24.8053 11.8519 25.114 11.7167 25.3259 11.4815C25.5385 11.2468 25.64 10.9262 25.6036 10.605L25.1385 6.44978C25.0686 5.82341 24.5169 5.33334 23.8822 5.33334H21.494C20.8593 5.33334 20.3077 5.82341 20.2378 6.44978L19.7721 10.605C19.7363 10.9262 19.8378 11.2468 20.0503 11.4815C20.2623 11.7167 20.571 11.8519 20.897 11.8519Z" fill="#424242"/>
<path d="M27.7523 30.7046C27.6968 30.7763 27.5941 30.8148 27.4646 30.8148H18.4932C18.8724 30.3182 19.1058 29.7067 19.1058 29.037V26.6667H27.2544L27.3637 27.9081C27.4228 28.5837 27.6055 29.6705 27.7727 30.333L27.79 30.4012C27.8216 30.5262 27.8079 30.6341 27.7523 30.7046ZM2.98528 30.8148C1.99775 30.8148 1.19411 30.0172 1.19411 29.037V14.2222C1.19411 13.1093 1.98223 11.6474 2.91543 11.0299L4.31492 10.1043C5.56994 9.27289 6.60643 7.45067 6.67569 5.95556C6.67748 5.90578 6.67629 5.66815 6.58911 5.33333H12.5328C12.4826 5.67585 12.4832 5.91289 12.4844 5.93955C12.5185 7.44178 13.5317 9.27111 14.7909 10.1043L16.1904 11.0299C17.1236 11.6474 17.9117 13.1093 17.9117 14.2222V29.037C17.9117 30.0172 17.108 30.8148 16.1205 30.8148H2.98528ZM5.97056 1.77778C5.97056 1.45067 6.23864 1.18519 6.56761 1.18519H12.5382C12.8672 1.18519 13.1352 1.45067 13.1352 1.77778V3.55556C13.1352 3.85067 13.063 4.0557 13.0116 4.14815H6.09356C6.04281 4.0557 5.97056 3.85067 5.97056 3.55556V1.77778ZM26.7875 21.3333L27.1511 25.4815H19.1058V21.3333H26.7875ZM28.9476 30.1114L28.9303 30.0433C28.7799 29.4441 28.6067 28.419 28.553 27.805L27.5655 16.5363C27.4926 15.7013 26.9499 14.7496 26.3033 14.3218C25.9421 14.083 25.6298 13.5947 25.6119 13.3499C25.6065 13.2723 25.5862 13.1988 25.5534 13.133C25.6071 12.8107 25.3874 12.5061 25.0626 12.4527C24.7336 12.3947 24.4291 12.6169 24.3754 12.9399C24.3426 13.1378 24.3187 13.4133 24.453 13.6486C24.5826 14.2441 25.0626 14.9256 25.6406 15.3078C25.9845 15.5354 26.3349 16.1695 26.3761 16.6394L26.6836 20.1481H19.1058V15.7244L19.7357 15.3078C20.3727 14.8865 20.9208 14.0996 21.0104 13.4762C21.0235 13.3855 21.0152 13.2924 20.9859 13.2047L20.8665 12.8498C20.7614 12.5387 20.4241 12.3704 20.1106 12.4753C19.7984 12.579 19.6288 12.9144 19.7333 13.2243L19.7996 13.4204C19.7058 13.6865 19.4228 14.0717 19.1058 14.2951V14.2222C19.1058 12.7153 18.1165 10.88 16.8531 10.0439L15.4536 9.11822C14.5162 8.49778 13.7036 7.02992 13.678 5.91526C13.678 5.91348 13.6756 5.71852 13.7239 5.43111C13.7412 5.32859 13.7233 5.232 13.6905 5.14074C14.078 4.85689 14.3293 4.27911 14.3293 3.55556V1.77778C14.3293 0.79763 13.5257 0 12.5382 0H6.56761C5.58008 0 4.77645 0.79763 4.77645 1.77778V3.55556C4.77645 4.2797 5.02781 4.85807 5.41589 5.14133C5.3741 5.26104 5.36037 5.39141 5.40395 5.52059C5.48038 5.74756 5.48217 5.90163 5.48277 5.90163C5.43083 7.02281 4.59255 8.49541 3.65219 9.11822L2.25269 10.0439C0.989321 10.88 0 12.7153 0 14.2222V29.037C0 30.6708 1.3392 32 2.98528 32H16.1205C16.4119 32 16.6877 31.9455 16.954 31.8679C17.0555 31.9461 17.1767 32 17.3146 32H27.4646C27.9625 32 28.4103 31.7938 28.6933 31.4347C28.9763 31.075 29.0694 30.5938 28.9476 30.1114Z" fill="#424242"/>
</svg>
