<svg width="22" height="31" viewBox="0 0 22 31" fill="none" xmlns="http://www.w3.org/2000/svg">
<path d="M4.95791 3.49894C4.95967 3.47902 4.99832 3.44446 5.01881 3.44446H7.36105C7.38154 3.44446 7.42019 3.47902 7.42195 3.49894L7.90677 8.03705H4.49473L4.95791 3.49894ZM4.43326 9.1852H7.9466C8.26515 9.1852 8.56789 9.05489 8.77693 8.82865C8.98598 8.60125 9.08785 8.29315 9.05682 7.98258L8.5878 3.38481C8.52514 2.7744 7.98642 2.29631 7.36105 2.29631H5.01881C4.39344 2.29631 3.85471 2.7744 3.79206 3.38481L3.32304 7.98258C3.29201 8.29315 3.39388 8.60125 3.60293 8.82865C3.81197 9.05489 4.11471 9.1852 4.43326 9.1852Z" fill="#424242"/>
<path d="M12.312 29.1044C12.1644 28.5252 12.0022 27.5354 11.9577 26.9424L10.9593 13.7325C10.8979 12.9196 10.372 11.9934 9.7355 11.5779C9.40525 11.3626 9.11716 10.9377 9.06563 10.6887L9.10954 10.4275C9.16283 10.1147 8.94736 9.81891 8.62823 9.76735C8.3091 9.71282 8.00754 9.92632 7.95484 10.2391L7.89628 10.5836C7.88867 10.6285 7.88631 10.6731 7.88982 10.7179C7.93433 11.3368 8.44847 12.117 9.08556 12.5332C9.42108 12.7525 9.75718 13.3638 9.79114 13.8168L10.7895 27.0268C10.8387 27.684 11.0126 28.7405 11.176 29.3812L11.1936 29.4512C11.2246 29.5722 11.2111 29.6767 11.1561 29.7451C11.1016 29.8144 11.0015 29.8519 10.8744 29.8519H1.5055C1.37843 29.8519 1.2783 29.8144 1.22384 29.7451C1.1688 29.6767 1.15534 29.5722 1.18696 29.4493L1.20334 29.3827C1.3673 28.7405 1.54123 27.684 1.59042 27.0275L2.58878 13.8161C2.62274 13.3638 2.95884 12.7525 3.29437 12.5332C3.91857 12.1251 4.45612 11.3626 4.54454 10.7587C4.55742 10.6708 4.54923 10.5807 4.51995 10.4957L4.40284 10.1519C4.30095 9.851 3.96835 9.6875 3.66269 9.78911C3.35527 9.88958 3.19015 10.2145 3.29262 10.5147L3.35704 10.7047C3.26218 10.9711 2.96882 11.366 2.64442 11.5779C2.00792 11.9934 1.48207 12.9196 1.42058 13.7318L0.422219 26.9429C0.377716 27.5354 0.215513 28.5252 0.0673672 29.106L0.0509842 29.1726C-0.067884 29.6377 0.0234493 30.1039 0.300418 30.4524C0.577972 30.8002 1.01715 31 1.5055 31H10.8744C11.3628 31 11.802 30.8002 12.0795 30.4524C12.3565 30.1039 12.4484 29.6377 12.3295 29.1744L12.312 29.1044Z" fill="#424242"/>
<path d="M20.8289 10.1353C20.2884 10.8242 18.4867 13.2485 18.4867 14.934C18.4867 14.9569 18.4878 14.9797 18.4907 15.0022L20.2386 29.2744C20.1789 29.489 19.7538 29.8519 18.4867 29.8519C17.726 29.8519 17.3155 29.5556 17.3155 29.2778C17.3155 28.7037 17.3073 15.5081 17.3073 15.5081C17.3155 14.9311 17.3155 13.7778 17.3155 13.7778C17.3155 12.5635 18.8831 10.758 19.4862 10.1651C19.5963 10.0577 19.6578 9.91128 19.6578 9.75926V1.72917C19.6648 1.46389 19.7714 1.14815 20.2428 1.14815C20.7147 1.14815 20.8219 1.46458 20.8289 1.72222V10.1353ZM20.2428 0C19.5372 0 18.9873 0.316889 18.6939 0.891595C18.4966 1.28024 18.4867 1.65224 18.4867 1.72222V9.52739C17.8917 10.1445 16.1444 12.1009 16.1444 13.7778C16.1444 13.7778 16.1444 14.9208 16.1362 15.5005C16.1362 15.5005 16.1444 28.7037 16.1444 29.2778C16.1444 30.1337 16.949 31 18.4867 31C21.3811 31 21.4144 29.3478 21.4144 29.2778C21.4144 29.2549 21.4133 29.2318 21.4104 29.2094L19.6583 14.9024C19.6847 13.6509 21.2616 11.4429 21.8723 10.691C21.9549 10.5894 22 10.4636 22 10.3333V1.72153C21.9994 1.02995 21.5316 0 20.2428 0Z" fill="#424242"/>
<path d="M17.9011 8.03704C17.9011 7.71952 17.6394 7.46296 17.3155 7.46296H14.3878C14.0639 7.46296 13.8022 7.71952 13.8022 8.03704C13.8022 8.35433 14.0639 8.61111 14.3878 8.61111H17.3155C17.6394 8.61111 17.9011 8.35433 17.9011 8.03704Z" fill="#424242"/>
<path d="M14.3878 1.72222H17.3155C17.6394 1.72222 17.9011 1.46567 17.9011 1.14815C17.9011 0.830626 17.6394 0.574072 17.3155 0.574072H14.3878C14.0639 0.574072 13.8022 0.830626 13.8022 1.14815C13.8022 1.46567 14.0639 1.72222 14.3878 1.72222Z" fill="#424242"/>
<path d="M14.3878 4.01853H17.3155C17.6394 4.01853 17.9011 3.76198 17.9011 3.44446C17.9011 3.12694 17.6394 2.87039 17.3155 2.87039H14.3878C14.0639 2.87039 13.8022 3.12694 13.8022 3.44446C13.8022 3.76198 14.0639 4.01853 14.3878 4.01853Z" fill="#424242"/>
<path d="M14.3878 6.31485H17.3155C17.6394 6.31485 17.9011 6.0583 17.9011 5.74077C17.9011 5.42325 17.6394 5.1667 17.3155 5.1667H14.3878C14.0639 5.1667 13.8022 5.42325 13.8022 5.74077C13.8022 6.0583 14.0639 6.31485 14.3878 6.31485Z" fill="#424242"/>
<path d="M2.09103 28.1297C2.09103 28.447 2.35278 28.7037 2.67659 28.7037H9.70328C10.0271 28.7037 10.2888 28.447 10.2888 28.1297C10.2888 27.8121 10.0271 27.5556 9.70328 27.5556H2.67659C2.35278 27.5556 2.09103 27.8121 2.09103 28.1297Z" fill="#424242"/>
</svg>
