<svg width="32" height="32" viewBox="0 0 32 32" fill="none" xmlns="http://www.w3.org/2000/svg">
<path d="M31.4074 29.5968C30.2761 29.5968 29.6883 29.9633 29.1692 30.2865C28.7105 30.5725 28.3484 30.7984 27.552 30.7984C26.7556 30.7984 26.3935 30.5725 25.9348 30.2865C25.4163 29.9633 24.8279 29.5968 23.6966 29.5968C22.5659 29.5968 21.9781 29.9633 21.4602 30.2865C21.0016 30.5725 20.6398 30.7984 19.8442 30.7984C19.0498 30.7984 18.6879 30.5725 18.2303 30.2865C17.7123 29.9633 17.125 29.5968 15.9951 29.5968C14.8644 29.5968 14.2769 29.9633 13.7588 30.2865C13.3002 30.5725 12.9387 30.7984 12.1435 30.7984C11.3486 30.7984 10.987 30.5725 10.5292 30.2865C10.0111 29.9633 9.42359 29.5968 8.29304 29.5968C7.16296 29.5968 6.57547 29.9633 6.05742 30.2865C5.59953 30.5725 5.23798 30.7984 4.44308 30.7984C3.64818 30.7984 3.2861 30.5725 2.82844 30.2865C2.31016 29.9633 1.72267 29.5968 0.592593 29.5968C0.265304 29.5968 0 29.866 0 30.1976C0 30.5292 0.265304 30.7984 0.592593 30.7984C1.3875 30.7984 1.7491 31.0243 2.20693 31.3103C2.72498 31.6335 3.31247 32 4.44308 32C5.57315 32 6.16065 31.6335 6.6787 31.3103C7.13659 31.0243 7.49813 30.7984 8.29304 30.7984C9.08794 30.7984 9.45001 31.0243 9.90761 31.3103C10.426 31.6335 11.0135 32 12.1435 32C13.2741 32 13.8613 31.6335 14.3796 31.3103C14.838 31.0243 15.2 30.7984 15.9951 30.7984C16.7893 30.7984 17.1512 31.0243 17.6088 31.3103C18.1271 31.6335 18.7141 32 19.8442 32C20.975 32 21.5627 31.6335 22.0812 31.3103C22.5393 31.0243 22.9013 30.7984 23.6966 30.7984C24.493 30.7984 24.8551 31.0243 25.3138 31.3103C25.8329 31.6335 26.4207 32 27.552 32C28.6833 32 29.2717 31.6335 29.7902 31.3103C30.2489 31.0243 30.611 30.7984 31.4074 30.7984C31.7345 30.7984 32 30.5292 32 30.1976C32 29.866 31.7345 29.5968 31.4074 29.5968Z" fill="#424242"/>
<path d="M23.1111 23.5888V26.0322C22.3496 26.1338 21.8794 26.4204 21.4602 26.6817C21.0016 26.9677 20.6398 27.1936 19.8442 27.1936C19.0498 27.1936 18.6879 26.9677 18.2303 26.6817C17.7123 26.3585 17.125 25.992 15.9951 25.992C14.8644 25.992 14.2769 26.3585 13.7588 26.6817C13.3002 26.9677 12.9387 27.1936 12.1435 27.1936C11.3486 27.1936 10.987 26.9677 10.5292 26.6817C10.1118 26.4216 9.64397 26.1362 8.88889 26.0341V23.5888H23.1111ZM5.33333 21.7864V18.1816C5.33333 17.8505 5.59929 17.5808 5.92593 17.5808H26.0741C26.4006 17.5808 26.6667 17.8505 26.6667 18.1816V21.7864C26.6667 22.1174 26.4006 22.3872 26.0741 22.3872H5.92593C5.59929 22.3872 5.33333 22.1174 5.33333 21.7864ZM13.037 16.3792V10.3712C13.037 10.0401 13.303 9.77037 13.6296 9.77037H18.3704C18.697 9.77037 18.963 10.0401 18.963 10.3712V16.3792H13.037ZM7.03401 8.2894L15.4514 1.38078C15.7384 1.14526 16.2618 1.14526 16.5484 1.38078L24.9659 8.2894C24.9209 8.37411 24.8889 8.46603 24.8889 8.56877V16.3792H20.1481V10.3712C20.1481 9.37745 19.3507 8.56877 18.3704 8.56877H13.6296C12.6493 8.56877 11.8519 9.37745 11.8519 10.3712V16.3792H7.11111V8.56877C7.11111 8.46603 7.07917 8.37411 7.03401 8.2894ZM0.592593 27.1936C1.3875 27.1936 1.7491 27.4195 2.20693 27.7055C2.72498 28.0287 3.31247 28.3952 4.44308 28.3952C5.57315 28.3952 6.16065 28.0287 6.6787 27.7055C7.13659 27.4195 7.49813 27.1936 8.29304 27.1936C9.08794 27.1936 9.45001 27.4195 9.90761 27.7055C10.426 28.0287 11.0135 28.3952 12.1435 28.3952C13.2741 28.3952 13.8613 28.0287 14.3796 27.7055C14.838 27.4195 15.2 27.1936 15.9951 27.1936C16.7893 27.1936 17.1512 27.4195 17.6088 27.7055C18.1271 28.0287 18.7141 28.3952 19.8442 28.3952C20.975 28.3952 21.5627 28.0287 22.0812 27.7055C22.5393 27.4195 22.9013 27.1936 23.6966 27.1936C24.493 27.1936 24.8551 27.4195 25.3138 27.7055C25.8329 28.0287 26.4207 28.3952 27.552 28.3952C28.6833 28.3952 29.2717 28.0287 29.7902 27.7055C30.2489 27.4195 30.611 27.1936 31.4074 27.1936C31.7345 27.1936 32 26.9244 32 26.5928C32 26.2612 31.7345 25.992 31.4074 25.992C30.2761 25.992 29.6883 26.3585 29.1692 26.6817C28.7105 26.9677 28.3484 27.1936 27.552 27.1936C26.7556 27.1936 26.3935 26.9677 25.9348 26.6817C25.5176 26.4216 25.0501 26.1368 24.2963 26.0341V23.5888H26.0741C27.0542 23.5888 27.8519 22.7801 27.8519 21.7864V18.1816C27.8519 17.1879 27.0542 16.3792 26.0741 16.3792V9.19902L28.0717 10.838C28.1813 10.9281 28.3129 10.972 28.4444 10.972C28.6169 10.972 28.7881 10.8963 28.9049 10.7491C29.1111 10.4913 29.072 10.1128 28.8172 9.90435L17.294 0.446545C16.5683 -0.148848 15.4315 -0.148848 14.7058 0.446545L3.18264 9.90435C2.92824 10.1128 2.88913 10.4913 3.09493 10.7491C3.30092 11.0074 3.67336 11.0471 3.92848 10.838L5.92593 9.19902V16.3792C4.9456 16.3792 4.14815 17.1879 4.14815 18.1816V21.7864C4.14815 22.7801 4.9456 23.5888 5.92593 23.5888H7.7037V26.0329C6.94489 26.1344 6.47591 26.421 6.05742 26.6817C5.59953 26.9677 5.23798 27.1936 4.44308 27.1936C3.64818 27.1936 3.2861 26.9677 2.82844 26.6817C2.31016 26.3585 1.72267 25.992 0.592593 25.992C0.265304 25.992 0 26.2612 0 26.5928C0 26.9244 0.265304 27.1936 0.592593 27.1936Z" fill="#424242"/>
<path d="M8.8889 21.7864C9.21619 21.7864 9.48149 21.5172 9.48149 21.1856V18.7824C9.48149 18.4507 9.21619 18.1816 8.8889 18.1816C8.56161 18.1816 8.29631 18.4507 8.29631 18.7824V21.1856C8.29631 21.5172 8.56161 21.7864 8.8889 21.7864Z" fill="#424242"/>
<path d="M13.6296 21.7864C13.9569 21.7864 14.2222 21.5172 14.2222 21.1856V18.7824C14.2222 18.4507 13.9569 18.1816 13.6296 18.1816C13.3023 18.1816 13.037 18.4507 13.037 18.7824V21.1856C13.037 21.5172 13.3023 21.7864 13.6296 21.7864Z" fill="#424242"/>
<path d="M18.3704 21.7864C18.6977 21.7864 18.963 21.5172 18.963 21.1856V18.7824C18.963 18.4507 18.6977 18.1816 18.3704 18.1816C18.0431 18.1816 17.7778 18.4507 17.7778 18.7824V21.1856C17.7778 21.5172 18.0431 21.7864 18.3704 21.7864Z" fill="#424242"/>
<path d="M23.1111 21.7864C23.4382 21.7864 23.7037 21.5172 23.7037 21.1856V18.7824C23.7037 18.4507 23.4382 18.1816 23.1111 18.1816C22.784 18.1816 22.5185 18.4507 22.5185 18.7824V21.1856C22.5185 21.5172 22.784 21.7864 23.1111 21.7864Z" fill="#424242"/>
</svg>
