<svg width="33" height="25" viewBox="0 0 33 25" fill="none" xmlns="http://www.w3.org/2000/svg">
<path d="M31.7778 23.4794C31.7778 23.584 31.5394 23.7835 31.1667 23.7835H29.9444C29.5546 23.7835 29.1133 23.4411 29.018 23.0616L29.0003 22.9916C28.7693 22.072 27.8422 21.3506 26.8889 21.3506H6.11111C5.15778 21.3506 4.23072 22.072 4.00033 22.9892L3.98138 23.064C3.88666 23.4411 3.44544 23.7835 3.05556 23.7835H1.83333C1.46056 23.7835 1.22222 23.584 1.22222 23.4794V15.2683C1.22222 14.9325 1.49661 14.6601 1.83333 14.6601H31.1667C31.5034 14.6601 31.7778 14.9325 31.7778 15.2683V23.4794ZM3.92211 4.44967C11.6802 0.137913 21.3198 0.137925 29.0736 4.44725C29.2019 4.52023 29.3333 4.74467 29.3333 4.85232V9.89395C29.1329 9.83252 28.9276 9.79421 28.7222 9.79421H26.8889V7.96951C26.8889 6.9635 26.0663 6.14482 25.0556 6.14482H18.9444C17.9337 6.14482 17.1111 6.9635 17.1111 7.96951V9.79421H15.8889V7.96951C15.8889 6.9635 15.0663 6.14482 14.0556 6.14482H7.94444C6.93367 6.14482 6.11111 6.9635 6.11111 7.96951V9.79421H4.27778C4.07244 9.79421 3.86711 9.83252 3.66667 9.89395V4.85354C3.66667 4.74467 3.79744 4.52022 3.92211 4.44967ZM25.6667 9.79421H18.3333V7.96951C18.3333 7.63377 18.6077 7.36128 18.9444 7.36128H25.0556C25.3923 7.36128 25.6667 7.63377 25.6667 7.96951V9.79421ZM14.6667 9.79421H7.33333V7.96951C7.33333 7.63377 7.60772 7.36128 7.94444 7.36128H14.0556C14.3923 7.36128 14.6667 7.63377 14.6667 7.96951V9.79421ZM4.27778 11.0107H28.7222C29.1311 11.0107 29.6218 11.3622 29.7513 11.7491L30.3185 13.4436H2.68155L3.24866 11.7491C3.37822 11.3622 3.86894 11.0107 4.27778 11.0107ZM31.6293 13.5099L30.9106 11.3641C30.8342 11.1348 30.7102 10.92 30.5556 10.7254V4.85111C30.5549 4.30127 30.1773 3.67357 29.6743 3.3877C21.5478 -1.12903 11.4522 -1.13025 3.32201 3.39013C2.82273 3.67235 2.44506 4.30066 2.44444 4.85232V10.7254C2.28983 10.92 2.16577 11.1348 2.08939 11.3641L1.37072 13.5099C0.584218 13.7155 0 14.4222 0 15.2683V23.4794C0 24.3182 0.822556 25 1.83333 25H3.05556C4.00889 25 4.93595 24.2786 5.16634 23.3614L5.18528 23.2866C5.28001 22.9095 5.72122 22.5671 6.11111 22.5671H26.8889C27.2788 22.5671 27.72 22.9095 27.8153 23.289L27.8331 23.359C28.0641 24.2786 28.9911 25 29.9444 25H31.1667C32.1774 25 33 24.3182 33 23.4794V15.2683C33 14.4222 32.4158 13.7155 31.6293 13.5099Z" fill="#424242"/>
</svg>
