<svg width="32" height="31" viewBox="0 0 32 31" fill="none" xmlns="http://www.w3.org/2000/svg">
<path d="M26.419 28.5235C25.7262 29.3434 24.7236 29.7737 23.4394 29.8013C18.4202 29.9359 18.173 24.3252 18.1647 24.0876C18.1641 24.0714 18.1559 24.0582 18.1541 24.0427C18.8907 23.534 22.1499 21.6362 27.5858 23.1551C27.587 23.1719 27.581 23.1869 27.5828 23.2036C27.5876 23.2371 28.0267 26.6197 26.419 28.5235ZM8.68624 29.803C8.63883 29.803 8.59082 29.8025 8.54282 29.8013C7.25986 29.7737 6.25897 29.3452 5.56564 28.5271C3.9609 26.6317 4.39468 23.2371 4.39883 23.203C4.40416 23.1653 4.39409 23.1306 4.39232 23.0941C6.45276 22.5118 10.0759 22.0336 13.8347 24.0936C13.8246 24.3689 13.5585 29.803 8.68624 29.803ZM29.8442 22.6524C22.6454 19.8324 18.003 22.4585 17.1656 23.3042C16.7307 23.7201 15.312 23.6154 14.9333 23.428C14.8824 23.3431 14.8107 23.2718 14.7236 23.221C8.3129 19.4823 2.34669 22.5471 2.09602 22.6799C1.80624 22.8326 1.69423 23.1929 1.84534 23.4861C1.99586 23.7788 2.3538 23.8937 2.64358 23.741C2.65365 23.7357 2.84445 23.6387 3.18105 23.5041C3.1046 24.6106 3.08801 27.4385 4.66134 29.3003C5.58342 30.392 6.8806 30.9629 8.51735 30.9982C8.57483 30.9994 8.63172 31 8.68861 31C13.1633 31 14.7135 27.156 14.9778 24.686C15.2747 24.7519 15.6255 24.7932 15.9882 24.7932C16.3336 24.7932 16.688 24.7519 17.0193 24.6645C17.2765 27.1338 18.819 31 23.2942 31C23.3505 31 23.4074 30.9994 23.4649 30.9982C25.1017 30.9623 26.3988 30.3914 27.3209 29.3003C28.8776 27.4564 28.8776 24.6699 28.803 23.5406C29.005 23.6124 29.2083 23.6866 29.4151 23.768C29.7203 23.8883 30.064 23.7351 30.1819 23.4268C30.3004 23.118 30.1488 22.7715 29.8442 22.6524Z" fill="#424242"/>
<path d="M27.1058 8.45591C26.8 8.33801 26.4575 8.4924 26.3413 8.80182C26.224 9.11063 26.3775 9.45598 26.6832 9.57388C29.309 10.5859 30.8148 11.9121 30.8148 13.2138C30.8148 15.7921 24.8622 18.5528 16 18.5528C7.13778 18.5528 1.18519 15.7921 1.18519 13.2138C1.18519 11.8511 2.80948 10.48 5.64148 9.45237C5.94963 9.34105 6.10963 8.99814 5.99881 8.68753C5.888 8.37632 5.54666 8.21232 5.24089 8.32663C1.86133 9.55231 0 11.2879 0 13.2138C0 16.8789 7.02815 19.7498 16 19.7498C24.9719 19.7498 32 16.8789 32 13.2138C32 11.3615 30.2619 9.67202 27.1058 8.45591Z" fill="#424242"/>
<path d="M16 1.19696C19.4365 1.19696 22.224 3.87934 23.5496 8.15907C23.0525 8.45771 20.8664 9.57566 16 9.57566C11.184 9.57566 9.01632 8.33801 8.50491 7.99209C9.85188 3.81112 12.6092 1.19696 16 1.19696ZM16 13.1665C10.0913 13.1665 8.18906 12.0899 7.72861 11.7434C7.82106 10.845 7.97277 9.99458 8.16833 9.18723C9.1544 9.75758 11.5331 10.7726 16 10.7726C20.5298 10.7726 22.9179 9.84377 23.8732 9.34644C24.0486 10.1041 24.1843 10.9007 24.2714 11.7374C23.7814 12.106 21.8631 13.1665 16 13.1665ZM16 14.3635C23.6344 14.3635 25.155 12.6458 25.3819 12.3017C25.4572 12.188 25.4916 12.0516 25.4791 11.9157C24.8374 4.78843 21.0282 0 16 0C10.9719 0 7.16269 4.78843 6.52091 11.9157C6.50847 12.0516 6.54283 12.188 6.61809 12.3017C6.84506 12.6458 8.36565 14.3635 16 14.3635Z" fill="#424242"/>
</svg>
