<svg width="32" height="30" viewBox="0 0 32 30" fill="none" xmlns="http://www.w3.org/2000/svg">
<path d="M25.3926 21.3135L27.2098 24.8245C27.7057 25.7815 27.6833 26.27 27.5921 26.4071C27.5511 26.4685 27.4255 26.4816 27.327 26.4816C27.1283 26.4816 26.6772 26.4224 25.8872 26.0272L22.2316 24.1972C21.2948 23.7286 20.1691 23.4807 18.9769 23.4807C16.9905 23.4807 15.0501 24.1665 13.7866 25.3158L10.8062 28.0255C9.95221 28.8024 9.50167 28.8626 9.3839 28.8626C9.30901 28.8626 9.28546 28.8433 9.2607 28.8149C9.11696 28.6539 9.01067 28.1376 9.1834 27.2129L9.9039 23.3612C10.4082 20.6669 8.73164 17.4277 6.16731 16.1413L2.50501 14.3045C1.3853 13.7427 1.18962 13.3144 1.20955 13.2087C1.22948 13.1035 1.5689 12.7639 2.8251 12.5979L6.92707 12.0554C9.80546 11.6749 12.557 9.17274 13.0619 6.47778L13.7818 2.63693C13.9938 1.50413 14.3568 1.13735 14.4993 1.13735C14.6243 1.13735 15.0664 1.36367 15.6009 2.39639L17.4163 5.9023C18.5644 8.11844 21.3782 9.72666 24.1068 9.72666C24.3913 9.72666 24.6733 9.70845 24.9457 9.67262L29.0476 9.1301C29.3339 9.092 29.5978 9.07323 29.831 9.07323C30.5303 9.07323 30.755 9.23929 30.7822 9.30412C30.8287 9.4116 30.7526 9.87053 29.8545 10.6877L26.8716 13.4037C24.7832 15.3054 24.1195 18.8539 25.3926 21.3135ZM30.6946 11.5049C32.0824 10.2413 32.1175 9.37862 31.9019 8.87761C31.7177 8.44769 31.2085 7.93588 29.831 7.93588C29.5417 7.93588 29.2216 7.95862 28.8797 8.00355L24.7778 8.54607C24.561 8.57507 24.3357 8.5893 24.1068 8.5893C21.8523 8.5893 19.4426 7.21993 18.5022 5.40357L16.6868 1.89765C16.0345 0.638603 15.2983 0 14.4993 0C13.9576 0 12.99 0.316733 12.592 2.43904L11.8721 6.28047C11.4591 8.48864 9.11757 10.6172 6.75917 10.9294L2.6572 11.4719C0.667212 11.7352 0.12487 12.454 0.0203881 13.0108C-0.0840938 13.5681 0.163529 14.4188 1.93731 15.3088L5.599 17.1456C7.70071 18.1994 9.12783 20.9558 8.71413 23.1639L7.99423 27.0156C7.77379 28.1933 7.88854 29.0446 8.33546 29.5462C8.59999 29.843 8.96235 30 9.3839 30C10.0404 30 10.8014 29.611 11.6457 28.8433L14.6261 26.1335C15.6697 25.185 17.2955 24.618 18.9769 24.618C19.9728 24.618 20.9017 24.8199 21.6645 25.2015L25.3207 27.0315C26.9036 27.8242 28.1037 27.7833 28.6164 27.0104C29.015 26.4099 28.9069 25.5069 28.2957 24.3263L26.4785 20.8153C25.4349 18.7999 26.0001 15.7802 27.7117 14.2215L30.6946 11.5049Z" fill="#424242"/>
<path d="M15.2276 7.51562C15.2542 7.51562 15.2814 7.51392 15.3086 7.51051C15.6389 7.469 15.8714 7.18297 15.8268 6.87133L15.6667 5.7442C15.622 5.43256 15.3182 5.2176 14.9879 5.25627C14.6569 5.29778 14.425 5.58382 14.4691 5.89489L14.6297 7.02258C14.6702 7.30863 14.9293 7.51562 15.2276 7.51562Z" fill="#424242"/>
<path d="M15.95 12.0196C15.6196 12.0611 15.3877 12.3477 15.4318 12.6587L15.5882 13.7574C15.6287 14.0429 15.8878 14.2505 16.1861 14.2505C16.2127 14.2505 16.2399 14.2488 16.267 14.2454C16.5974 14.2038 16.8293 13.9178 16.7852 13.6062L16.6288 12.508C16.5847 12.1964 16.2779 11.9803 15.95 12.0196Z" fill="#424242"/>
<path d="M14.9504 9.27682L15.1111 10.4045C15.1516 10.69 15.4106 10.8976 15.7084 10.8976C15.7356 10.8976 15.7627 10.8959 15.7899 10.8924C16.1203 10.8509 16.3522 10.5649 16.3081 10.2532L16.1481 9.12613C16.1034 8.81449 15.7996 8.59724 15.4692 8.63762C15.1383 8.6797 14.9064 8.96575 14.9504 9.27682Z" fill="#424242"/>
<path d="M22.2666 13.7426C22.3548 13.7426 22.4441 13.725 22.5287 13.6863L23.6164 13.191C23.9171 13.0545 24.0428 12.7145 23.8978 12.4318C23.7517 12.1486 23.3911 12.0298 23.091 12.1668L22.0033 12.6621C21.7031 12.7986 21.5775 13.1387 21.7224 13.4213C21.8269 13.6249 22.0419 13.7426 22.2666 13.7426Z" fill="#424242"/>
<path d="M20.6353 13.9167C20.4898 13.634 20.128 13.5163 19.8285 13.6522L18.7408 14.1475C18.4406 14.2846 18.315 14.6247 18.4605 14.9073C18.565 15.1103 18.78 15.2286 19.0047 15.2286C19.0929 15.2286 19.1823 15.2104 19.2674 15.1717L20.3545 14.6764C20.6547 14.5394 20.7803 14.1993 20.6353 13.9167Z" fill="#424242"/>
<path d="M26.3529 10.6815L25.2658 11.1768C24.9656 11.3133 24.84 11.6533 24.9849 11.9365C25.0894 12.1395 25.3044 12.2573 25.5291 12.2573C25.6173 12.2573 25.7066 12.2391 25.7918 12.201L26.8789 11.7056C27.1791 11.5686 27.3047 11.2291 27.1597 10.9459C27.0142 10.6627 26.6524 10.5444 26.3529 10.6815Z" fill="#424242"/>
<path d="M6.69637 13.6318L5.51204 13.4071C5.18349 13.3457 4.86642 13.5442 4.80059 13.8518C4.73476 14.1601 4.94675 14.4597 5.27348 14.5223L6.45721 14.7469C6.49767 14.7543 6.53753 14.7577 6.57739 14.7577C6.85883 14.7577 7.11128 14.5712 7.16865 14.3016C7.23448 13.9934 7.0231 13.6937 6.69637 13.6318Z" fill="#424242"/>
<path d="M12.3782 15.8689L13.5626 16.0936C13.6024 16.101 13.6429 16.1049 13.6821 16.1049C13.9636 16.1049 14.216 15.9184 14.274 15.6483C14.3392 15.3406 14.1279 15.0409 13.8005 14.9784L12.6162 14.7538C12.2895 14.6929 11.9712 14.8908 11.9053 15.199C11.8395 15.5067 12.0509 15.8069 12.3782 15.8689Z" fill="#424242"/>
<path d="M10.2481 14.3051L9.06441 14.0804C8.73768 14.0179 8.4188 14.218 8.35297 14.5257C8.28714 14.8339 8.49912 15.1336 8.82586 15.1956L10.0102 15.4202C10.05 15.4276 10.0905 15.431 10.1298 15.431C10.4118 15.431 10.6637 15.2445 10.7216 14.9744C10.7875 14.6667 10.5755 14.367 10.2481 14.3051Z" fill="#424242"/>
<path d="M15.4734 17.9514C15.1781 17.803 14.8133 17.9065 14.6551 18.184L14.0844 19.186C13.9267 19.463 14.0367 19.8076 14.3308 19.956C14.422 20.0021 14.5192 20.0237 14.6158 20.0237C14.8308 20.0237 15.0398 19.9151 15.1485 19.724L15.7198 18.722C15.8775 18.445 15.7669 18.1004 15.4734 17.9514Z" fill="#424242"/>
<path d="M12.0461 23.9646C11.7513 23.8156 11.386 23.9197 11.2283 24.1966L10.657 25.1986C10.4994 25.4756 10.6099 25.8202 10.9034 25.9686C10.9946 26.0147 11.0918 26.0363 11.1885 26.0363C11.4041 26.0363 11.6124 25.9277 11.7211 25.7366L12.2925 24.7346C12.4501 24.4576 12.3396 24.113 12.0461 23.9646Z" fill="#424242"/>
<path d="M13.7595 20.958C13.4641 20.8096 13.0994 20.9131 12.9417 21.19L12.3704 22.192C12.2128 22.469 12.3233 22.8142 12.6168 22.9626C12.708 23.0081 12.8058 23.0297 12.9025 23.0297C13.1175 23.0297 13.3258 22.9217 13.4351 22.7306L14.0065 21.728C14.1635 21.4516 14.0536 21.1065 13.7595 20.958Z" fill="#424242"/>
<path d="M23.405 22.3871C23.1803 22.6191 23.1973 22.9785 23.4443 23.1901L24.3363 23.9567C24.4522 24.0562 24.5978 24.1051 24.7427 24.1051C24.907 24.1051 25.0701 24.0425 25.1897 23.9197C25.4143 23.6877 25.3968 23.3277 25.1504 23.1161L24.2578 22.3502C24.0114 22.1386 23.6297 22.1551 23.405 22.3871Z" fill="#424242"/>
<path d="M21.5805 20.0504C21.3341 19.8389 20.9518 19.8559 20.7277 20.0874C20.5025 20.3194 20.52 20.6794 20.7664 20.8909L21.659 21.6569C21.775 21.7565 21.9205 21.8059 22.0655 21.8059C22.2297 21.8059 22.3928 21.7434 22.5124 21.62C22.7371 21.3879 22.7195 21.0286 22.4731 20.817L21.5805 20.0504Z" fill="#424242"/>
<path d="M18.9038 17.7513C18.6568 17.5397 18.2751 17.5562 18.0505 17.7882C17.8258 18.0202 17.8433 18.3796 18.0897 18.5912L18.9817 19.3578C19.0977 19.4573 19.2439 19.5062 19.3888 19.5062C19.5525 19.5062 19.7161 19.4436 19.8351 19.3208C20.0598 19.0888 20.0423 18.7288 19.7959 18.5172L18.9038 17.7513Z" fill="#424242"/>
</svg>
