<svg width="30" height="32" viewBox="0 0 30 32" fill="none" xmlns="http://www.w3.org/2000/svg">
<path d="M28.7421 30.704C28.6219 30.8195 28.0425 30.7985 27.6619 30.7852C27.474 30.7786 27.2794 30.772 27.0836 30.772H17.5744L23.1329 24.6837C25.108 25.3786 27.9077 26.9369 28.2503 28.0579C28.7657 29.7467 28.7916 29.9904 28.7916 30.4471C28.7916 30.612 28.7603 30.686 28.7421 30.704ZM11.1121 16.6273C10.9949 16.4366 10.8789 16.2543 10.7641 16.0756C10.346 15.4204 9.9835 14.8548 9.67658 14.0034C9.59683 13.782 9.36601 13.6256 9.12978 13.6063C9.07178 13.6015 8.91106 13.507 8.82527 13.3506C8.21565 12.2363 7.95466 10.533 8.06824 10.1852C8.08395 10.1762 8.14375 10.1485 8.29782 10.1551C8.47303 10.1612 8.62771 10.0962 8.74432 9.97764C8.86274 9.85971 8.92619 9.69847 8.92014 9.5312C8.91289 9.3483 8.90744 9.16539 8.90321 8.98249C10.8716 8.42955 12.0728 6.98734 12.6703 6.02587C14.1203 7.50177 17.6433 9.52398 21.1687 9.69666C21.1935 9.79714 21.234 9.89221 21.3065 9.96862C21.4182 10.0859 21.5723 10.1539 21.7342 10.1569C21.8454 10.1588 21.9016 10.1804 21.8992 10.1714C22.0291 10.5378 21.7675 12.2429 21.1566 13.3578C21.0715 13.5143 20.9143 13.6117 20.8539 13.6202C20.634 13.6508 20.4485 13.7995 20.3718 14.0076C20.0582 14.85 19.6776 15.4438 19.2746 16.072C19.1532 16.2615 19.0305 16.4528 18.9067 16.6544C18.5405 17.2537 18.2076 17.658 17.8578 17.9269C17.7092 18.0418 17.6228 18.2193 17.624 18.4065C17.6276 19.0442 17.7859 20.2289 17.9678 21.067L15.0079 23.5237C13.7463 22.561 12.5482 21.4395 12.0486 20.9593C12.2915 19.9606 12.5205 18.9492 12.5338 18.4648C12.5392 18.262 12.4413 18.0701 12.2734 17.954C11.8613 17.67 11.4921 17.2482 11.1121 16.6273ZM12.2178 2.17035C12.3102 2.14448 12.3978 2.09455 12.4685 2.02957C12.5476 1.95617 14.4351 0.265471 17.5007 1.96579C17.5237 1.97903 17.5472 1.99045 17.572 2.00008C19.7223 2.84843 21.0152 5.23948 21.1385 8.4885C17.0578 8.26348 13.5458 5.42721 13.176 4.78463C13.1295 4.54757 12.9434 4.35683 12.6975 4.3093C12.4171 4.25635 12.1302 4.40798 12.022 4.67693C12.0123 4.70159 11.0867 6.93138 8.90079 7.728C8.96906 5.17451 9.56964 2.90861 12.2178 2.17035ZM29.4067 27.7077C28.8745 25.9653 25.7357 24.4093 24.0066 23.7264L28.3325 18.9871C28.6587 18.6291 28.8962 18.019 28.8962 17.5352V13.9252C28.8962 13.3284 28.5421 13.1286 28.3899 13.0702C28.2388 13.0119 27.8401 12.9264 27.4389 13.3681L11.7102 30.772H2.91639C2.77017 30.772 2.62578 30.7744 2.48319 30.7774C2.03549 30.7846 1.41983 30.7967 1.27241 30.6523C1.23737 30.618 1.21561 30.5361 1.20957 30.4242C1.25851 30.2004 1.43736 29.4044 1.79322 28.0344C2.14123 26.6945 8.21384 23.3365 11.4281 22.0339C12.0951 22.6663 13.3657 23.8251 14.6713 24.7764C14.7777 24.854 14.9027 24.8925 15.0278 24.8925C15.165 24.8925 15.3027 24.8449 15.4151 24.7529L18.8619 21.8925C19.1501 21.7836 19.3187 21.4798 19.2359 21.1784C19.0637 20.5526 18.8861 19.3956 18.842 18.6742C19.2178 18.3312 19.5713 17.8806 19.9386 17.2813C20.0576 17.087 20.176 16.9023 20.2932 16.7206C20.6715 16.1303 21.0612 15.522 21.3971 14.7014C21.7294 14.5521 22.0309 14.276 22.2176 13.9342C22.9214 12.6485 23.328 10.5859 23.0386 9.77067C22.922 9.44215 22.6858 9.20149 22.3602 9.06973C22.3789 5.02951 20.7899 1.99709 18.0541 0.896035C14.6387 -0.980577 12.312 0.602995 11.7604 1.05004C7.71841 2.2612 7.60905 6.30384 7.69364 9.03964C7.33234 9.16299 7.07073 9.41267 6.94567 9.76645C6.65506 10.5805 7.06048 12.6418 7.76435 13.927C7.96494 14.2928 8.296 14.5792 8.6567 14.7176C8.98235 15.5287 9.35393 16.1105 9.74544 16.7218C9.8554 16.8951 9.96779 17.0707 10.0808 17.2543C10.4675 17.886 10.859 18.3613 11.2952 18.7235C11.2052 19.3246 10.9423 20.4022 10.7955 20.9954C8.23984 22.0791 1.18298 25.5802 0.623505 27.733C0.191515 29.3948 0.0199356 30.2094 0.0126855 30.2437C0.00422691 30.2834 0 30.3256 0 30.3665C0 30.8496 0.143179 31.2347 0.425936 31.5115C0.849467 31.9254 1.44823 31.9856 2.10195 31.9856C2.23487 31.9856 2.3696 31.9832 2.50493 31.9808C2.64027 31.9777 2.77803 31.9753 2.91639 31.9753H11.9791C12.144 31.9753 12.309 31.9085 12.428 31.7762L27.6878 14.8921V17.5352C27.6878 17.7181 27.5622 18.0424 27.4383 18.1772L15.7613 30.9687C15.5371 31.2148 15.5553 31.5951 15.8018 31.8189C15.9178 31.9236 16.0634 31.9705 16.2084 31.9705V31.9753H27.0836C27.2655 31.9753 27.445 31.982 27.619 31.988C27.793 31.994 27.9639 32 28.1307 32C28.6926 32 29.2043 31.932 29.5813 31.5692C29.8592 31.3027 30 30.9248 30 30.4471C30 29.8141 29.9414 29.4628 29.4067 27.7077Z" fill="#424242"/>
</svg>
