<svg width="24" height="32" viewBox="0 0 24 32" fill="none" xmlns="http://www.w3.org/2000/svg">
<path d="M14.5758 30.1499C14.5248 30.5043 14.1624 30.8148 13.8 30.8148H10.2C9.8376 30.8148 9.47519 30.5043 9.42419 30.1505L9.1638 28.3484C9.1434 28.2092 9.17639 28.083 9.25559 27.9923C9.33539 27.9016 9.4578 27.8519 9.6 27.8519H14.4C14.5422 27.8519 14.6646 27.9016 14.7444 27.9923C14.8236 28.083 14.8566 28.2092 14.8362 28.349L14.5758 30.1499ZM8.4924 1.77422C6.6246 3.84533 5.4 7.54015 5.4 11.8519C5.4 16.1636 6.6246 19.8584 8.4924 21.9295C6.6978 21.3185 5.11859 20.2548 3.89159 18.8741L2.89441 17.4424C2.84641 17.373 2.7852 17.3179 2.7174 17.2758C1.7598 15.6841 1.2 13.8335 1.2 11.8519C1.2 7.184 4.2564 3.21659 8.4924 1.77422ZM22.8 11.8519C22.8 13.8335 22.2402 15.6842 21.2826 17.2764C21.2148 17.3179 21.1536 17.373 21.1056 17.4424L20.1084 18.8741C18.8814 20.2548 17.3022 21.3185 15.5076 21.9295C17.3754 19.8584 18.6 16.1636 18.6 11.8519C18.6 7.54015 17.3754 3.84533 15.5076 1.77422C19.7436 3.21659 22.8 7.184 22.8 11.8519ZM11.4 1.25926V22.4444C8.7426 21.8329 6.6 17.2332 6.6 11.8519C6.6 6.47052 8.7426 1.87081 11.4 1.25926ZM12.6 22.4444V1.25926C15.2574 1.87081 17.4 6.47052 17.4 11.8519C17.4 17.2332 15.2574 21.8329 12.6 22.4444ZM14.4 26.6667H9.6C9.5094 26.6667 9.42181 26.6803 9.33481 26.6939L6.2352 22.2412C7.9476 23.1721 9.9114 23.7037 12 23.7037C14.0886 23.7037 16.0524 23.1721 17.7648 22.2412L14.6652 26.6939C14.5782 26.6803 14.4906 26.6667 14.4 26.6667ZM21.0594 19.6C22.8858 17.52 24 14.8148 24 11.8519C24 5.31674 18.6168 0 12 0C5.3832 0 0 5.31674 0 11.8519C0 14.8148 1.11419 17.52 2.94059 19.6L8.29559 27.293C8.03159 27.6338 7.91161 28.0717 7.97581 28.5161L8.2362 30.3182C8.373 31.261 9.2358 32 10.2 32H13.8C14.7642 32 15.627 31.261 15.7638 30.3176L16.0242 28.5168C16.0884 28.0717 15.9684 27.6338 15.7044 27.293L21.0594 19.6Z" fill="#424242"/>
</svg>
