<svg width="20" height="32" viewBox="0 0 20 32" fill="none" xmlns="http://www.w3.org/2000/svg">
<path d="M5.60895 24.2962C4.78654 24.2962 4.11766 23.6219 4.11766 22.794C4.11766 21.9655 4.78654 21.2924 5.60895 21.2924C6.43154 21.2924 7.10089 21.9655 7.10089 22.794C7.10089 23.6219 6.43154 24.2962 5.60895 24.2962ZM5.60895 20.1072C4.13813 20.1072 2.94119 21.3125 2.94119 22.794C2.94119 24.2761 4.13813 25.4814 5.60895 25.4814C7.08042 25.4814 8.27736 24.2761 8.27736 22.794C8.27736 21.3125 7.08042 20.1072 5.60895 20.1072Z" fill="#424242"/>
<path d="M14.3907 24.2962C13.5682 24.2962 12.8991 23.6219 12.8991 22.794C12.8991 21.9655 13.5682 21.2924 14.3907 21.2924C15.213 21.2924 15.8824 21.9655 15.8824 22.794C15.8824 23.6219 15.213 24.2962 14.3907 24.2962ZM14.3907 20.1072C12.9196 20.1072 11.7227 21.3125 11.7227 22.794C11.7227 24.2761 12.9196 25.4814 14.3907 25.4814C15.8619 25.4814 17.0588 24.2761 17.0588 22.794C17.0588 21.3125 15.8619 20.1072 14.3907 20.1072Z" fill="#424242"/>
<path d="M18.8235 23.2023C18.8235 24.8888 17.5429 26.6192 16.0341 26.9789C13.5724 27.5318 11.8001 27.8518 10.0251 27.8518C8.25 27.8518 6.47723 27.5318 4.02253 26.9807C2.50618 26.6192 1.17647 24.8533 1.17647 23.2023V14.4123C1.67741 15.0879 2.321 15.7213 3.05353 16.4419C3.56641 16.9468 4.14776 17.5187 4.76565 18.1883C5.16865 18.6227 5.94576 18.9629 6.53559 18.9629H13.5087C14.0981 18.9629 14.875 18.6239 15.2799 18.1889C15.9047 17.5116 16.4929 16.9356 17.0118 16.4277C17.7141 15.7403 18.3335 15.1329 18.8235 14.4882V23.2023ZM1.69553 10.8763C9.1287 9.77404 10.9701 9.77759 18.3418 10.8709C18.5206 10.8988 18.7524 11.1767 18.8012 11.3118C18.71 13.1115 17.7594 14.0425 16.1918 15.5774C15.6629 16.0953 15.0632 16.6825 14.4198 17.3806C14.2535 17.5596 13.8003 17.7777 13.5087 17.7777H6.53559C6.24423 17.7777 5.79135 17.5584 5.62618 17.3806C4.99035 16.6908 4.398 16.1083 3.87547 15.5939C2.29412 14.0378 1.33477 13.0944 1.24288 11.3035C1.29206 11.1708 1.5177 10.9035 1.69553 10.8763ZM4.01518 7.0949L4.37618 7.01313C5.49677 6.75831 6.55518 6.5183 7.64706 6.5183H12.3529C13.6029 6.5183 14.8435 6.77371 16 7.03327C17.1729 7.31297 18.2341 8.45077 18.6441 9.72486C18.6023 9.71478 18.5594 9.70529 18.5171 9.69877C11.0255 8.58884 9.07306 8.58529 1.52112 9.7047C1.46441 9.71359 1.40765 9.72603 1.35223 9.74144C1.75782 8.48454 2.81571 7.38053 4.01518 7.0949ZM16.2629 5.8783C15.0356 5.60215 13.7224 5.33311 12.3529 5.33311H7.64706C6.42418 5.33311 5.25159 5.59919 4.11741 5.85697L3.75159 5.93933C1.68288 6.43238 0 8.62144 0 10.8194V23.2023C0 25.4281 1.68288 27.6409 3.75894 28.1357C6.301 28.7064 8.1413 29.037 10.0251 29.037C11.9083 29.037 13.7486 28.7064 16.2982 28.1339C18.3394 27.6468 20 25.4346 20 23.2023V10.8194C20 8.58529 18.3271 6.36956 16.2629 5.8783Z" fill="#424242"/>
<path d="M16.2982 29.8032C16.0682 29.5715 15.6962 29.5715 15.4665 29.8032C15.2366 30.0349 15.2366 30.4095 15.4665 30.6412L16.6429 31.8264C16.7576 31.9419 16.9082 32 17.0588 32C17.2094 32 17.36 31.9419 17.4747 31.8264C17.7047 31.5947 17.7047 31.2201 17.4747 30.9884L16.2982 29.8032Z" fill="#424242"/>
<path d="M3.70177 29.8032L2.5253 30.9884C2.29548 31.2201 2.29548 31.5947 2.5253 31.8264C2.64018 31.9419 2.79065 32 2.94118 32C3.09171 32 3.24218 31.9419 3.35707 31.8264L4.53354 30.6412C4.76336 30.4095 4.76336 30.0349 4.53354 29.8032C4.30377 29.5715 3.93154 29.5715 3.70177 29.8032Z" fill="#424242"/>
<path d="M12.6337 2.43411L11.3488 3.72893C11.119 3.96064 11.119 4.33517 11.3488 4.56687C11.4637 4.68243 11.6142 4.7405 11.7647 4.7405C11.9152 4.7405 12.0657 4.68243 12.1806 4.56687L13.9453 2.78908C14.0659 2.6676 14.1282 2.49989 14.1163 2.32804C14.1041 2.15678 14.0188 1.99914 13.8824 1.89603L11.5294 0.118236C11.2688 -0.0773215 10.9008 -0.0251728 10.7061 0.236755C10.5111 0.498684 10.5634 0.870243 10.8235 1.06639L12.6337 2.43411Z" fill="#424242"/>
<path d="M7.81942 4.56687C7.9343 4.68243 8.08477 4.7405 8.2353 4.7405C8.38583 4.7405 8.5363 4.68243 8.65118 4.56687C8.88101 4.33517 8.88101 3.96064 8.65118 3.72893L7.3663 2.43411L9.17648 1.06639C9.43659 0.870243 9.489 0.498684 9.29389 0.236755C9.09947 -0.0251728 8.73142 -0.0773215 8.47059 0.118236L6.11765 1.89603C5.98118 1.99914 5.89589 2.15678 5.88371 2.32804C5.87177 2.49989 5.93406 2.6676 6.05471 2.78908L7.81942 4.56687Z" fill="#424242"/>
</svg>
