<svg width="27" height="32" viewBox="0 0 27 32" fill="none" xmlns="http://www.w3.org/2000/svg">
<path d="M24.0652 30.8148H2.93478C1.96396 30.8148 1.17391 30.0172 1.17391 29.037V8.2963H25.8261V29.037C25.8261 30.0172 25.036 30.8148 24.0652 30.8148ZM2.93478 1.18519H3.52174V3.7037C3.52174 4.6483 4.26248 5.33333 5.28261 5.33333H10.5652C11.5853 5.33333 12.3261 4.6483 12.3261 3.7037V1.18519H24.0652C25.036 1.18519 25.8261 1.98281 25.8261 2.96296V7.11111H1.17391V2.96296C1.17391 1.98281 1.96396 1.18519 2.93478 1.18519ZM4.69565 1.18519H11.1522V3.7037C11.1522 4.12681 10.6632 4.14815 10.5652 4.14815H5.28261C5.18459 4.14815 4.69565 4.12681 4.69565 3.7037V1.18519ZM24.0652 0H2.93478C1.31654 0 0 1.32919 0 2.96296V29.037C0 30.6708 1.31654 32 2.93478 32H24.0652C25.6835 32 27 30.6708 27 29.037V2.96296C27 1.32919 25.6835 0 24.0652 0Z" fill="#424242"/>
<path d="M13.5 26.6667C9.81567 26.6667 6.78815 23.7944 6.48646 20.1517C6.8222 20.16 6.98361 20.2963 7.27181 20.5754C7.60168 20.8954 8.05363 21.3333 8.9012 21.3333C9.74818 21.3333 10.1995 20.8954 10.5294 20.5754C10.827 20.2868 10.9855 20.1482 11.3447 20.1482C11.7033 20.1482 11.8624 20.2868 12.16 20.5754C12.4899 20.8954 12.9412 21.3333 13.7888 21.3333C14.6364 21.3333 15.0883 20.8954 15.4182 20.576C15.7164 20.2868 15.8754 20.1482 16.2346 20.1482C16.5944 20.1482 16.7541 20.2868 17.0523 20.576C17.3827 20.8954 17.8347 21.3333 18.6828 21.3333C19.5304 21.3333 19.9829 20.8954 20.3128 20.576C20.3768 20.5138 20.4325 20.4622 20.4871 20.4142C20.0651 23.9313 17.0951 26.6667 13.5 26.6667ZM13.5 12.4445C17.2154 12.4445 20.2606 15.3659 20.5182 19.0525C20.0457 19.1965 19.7399 19.4886 19.5005 19.7203C19.2023 20.0095 19.0426 20.1482 18.6828 20.1482C18.3224 20.1482 18.1634 20.0095 17.8652 19.7203C17.5353 19.4009 17.0828 18.963 16.2346 18.963C15.3871 18.963 14.9351 19.4009 14.6052 19.7203C14.3071 20.0095 14.148 20.1482 13.7888 20.1482C13.4296 20.1482 13.2705 20.0095 12.9735 19.7209C12.6436 19.4009 12.1917 18.963 11.3447 18.963C10.4971 18.963 10.0458 19.4009 9.71589 19.7209C9.41831 20.0095 9.25983 20.1482 8.9012 20.1482C8.54198 20.1482 8.38291 20.0095 8.08533 19.7203C7.75957 19.405 7.31348 18.9754 6.48587 18.9648C6.78522 15.3197 9.81391 12.4445 13.5 12.4445ZM13.5 11.2593C8.9687 11.2593 5.28261 14.9807 5.28261 19.5556C5.28261 24.1304 8.9687 27.8519 13.5 27.8519C18.0313 27.8519 21.7174 24.1304 21.7174 19.5556C21.7174 14.9807 18.0313 11.2593 13.5 11.2593Z" fill="#424242"/>
<path d="M14.6739 4.14814H15.8478C16.1718 4.14814 16.4348 3.88325 16.4348 3.55554C16.4348 3.22784 16.1718 2.96295 15.8478 2.96295H14.6739C14.3499 2.96295 14.087 3.22784 14.087 3.55554C14.087 3.88325 14.3499 4.14814 14.6739 4.14814Z" fill="#424242"/>
<path d="M20.5435 4.14814H22.8913C23.2153 4.14814 23.4783 3.88325 23.4783 3.55554C23.4783 3.22784 23.2153 2.96295 22.8913 2.96295H20.5435C20.2195 2.96295 19.9565 3.22784 19.9565 3.55554C19.9565 3.88325 20.2195 4.14814 20.5435 4.14814Z" fill="#424242"/>
</svg>
