<svg width="21" height="32" viewBox="0 0 21 32" fill="none" xmlns="http://www.w3.org/2000/svg">
<path d="M1.10526 13.037C1.10526 7.48207 5.31963 2.96296 10.5 2.96296C15.6804 2.96296 19.8947 7.48207 19.8947 13.037C19.8947 18.592 15.6804 23.1111 10.5 23.1111C5.31963 23.1111 1.10526 18.592 1.10526 13.037ZM21 13.037C21 7.02874 16.585 2.1191 11.0526 1.80799V0.592593C11.0526 0.264889 10.8056 0 10.5 0C10.1944 0 9.94737 0.264889 9.94737 0.592593V1.80799C4.41497 2.1191 0 7.02874 0 13.037C0 19.0453 4.41497 23.955 9.94737 24.2661V28.4444C9.94737 28.7721 10.1944 29.037 10.5 29.037C12.1391 29.037 13.2516 30.0433 13.8639 30.8148H7.0875C7.43068 30.3502 7.95513 29.795 8.67853 29.4282C8.95484 29.2883 9.07254 28.9351 8.94267 28.6394C8.8117 28.3437 8.48343 28.2157 8.20712 28.3567C6.40388 29.2699 5.60976 31.0827 5.57715 31.1597C5.49813 31.3434 5.5125 31.5573 5.61364 31.7268C5.71532 31.8969 5.8905 32 6.07895 32H14.9211C15.1145 32 15.2935 31.8916 15.393 31.7156C15.4936 31.5384 15.5008 31.3179 15.4118 31.1342C15.3499 31.008 13.9595 28.2062 11.0526 27.8827V24.2661C16.585 23.955 21 19.0453 21 13.037Z" fill="#424242"/>
<path d="M4.97368 14.8148V11.2593H16.0263L16.0247 14.8148H4.97368ZM17.1316 14.8148V11.2593C17.1316 10.6057 16.6359 10.0741 16.0263 10.0741H4.97368C4.36412 10.0741 3.86841 10.6057 3.86841 11.2593V14.8148C3.86841 15.4685 4.36412 16 4.97368 16H16.0263C16.6359 16 17.1316 15.4685 17.1316 14.8148Z" fill="#424242"/>
</svg>
