<svg width="33" height="32" viewBox="0 0 33 32" fill="none" xmlns="http://www.w3.org/2000/svg">
<path d="M26.6121 7.73534C26.1463 7.35902 25.1834 6.73537 23.4783 6.22947C21.7634 5.72062 20.6018 5.71943 19.9997 5.7786C19.6787 5.40938 19.019 4.92183 17.6704 4.50764L24.5335 2.96748L29.2996 7.95662C27.9333 7.54125 27.0969 7.59392 26.6121 7.73534ZM32.8376 9.91688L25.4609 2.19531L25.9176 0.766381C26.0173 0.454559 25.8369 0.123212 25.5135 0.0267662C25.1919 -0.0702711 24.8489 0.104875 24.7493 0.417288L24.3067 1.80363L13.5932 4.20767C13.2643 4.28163 13.0595 4.59994 13.1353 4.91827C13.2124 5.2366 13.5455 5.43423 13.8696 5.36086L13.954 5.34193C13.9692 5.34134 13.9827 5.34667 13.998 5.34549C14.0151 5.34312 15.7293 5.15497 17.2846 5.6301C18.7843 6.08747 19.0936 6.57264 19.1058 6.57501C19.1187 6.74838 19.2061 6.85547 19.3528 6.95724C19.5002 7.0602 19.683 7.04068 19.8578 6.9963C19.8682 6.99453 20.773 6.78506 22.4977 7.19747L21.1203 11.4618C21.0194 11.7736 21.1991 12.1056 21.5207 12.2032C21.5818 12.2215 21.643 12.2304 21.7035 12.2304C21.964 12.2304 22.2048 12.0683 22.2868 11.815L23.6672 7.54243C25.3796 8.14122 26.0252 8.8199 26.0277 8.82286C26.134 8.95126 26.2649 9.04239 26.4342 9.05422C26.6042 9.06901 26.7454 9.02048 26.8689 8.90924C26.8738 8.90569 27.3879 8.61281 28.9457 9.08912C30.5627 9.58318 31.6198 10.4583 31.6289 10.4666C31.6748 10.505 31.7273 10.5299 31.7799 10.553L31.9395 10.7198C32.0599 10.8464 32.2244 10.9103 32.3888 10.9103C32.5374 10.9103 32.686 10.8583 32.8033 10.753C33.0516 10.5311 33.0668 10.1565 32.8376 9.91688Z" fill="#424242"/>
<path d="M15.8559 30.8166C9.54176 30.8166 4.40573 25.5659 4.40573 19.1112C4.40573 16.9113 5.00365 14.7954 6.12855 12.9457L10.7957 13.78L10.479 18.1384C10.4588 18.4047 10.6263 18.6508 10.8874 18.739C10.9528 18.7609 11.0206 18.7716 11.0885 18.7716C11.2854 18.7716 11.4761 18.6787 11.5922 18.5148L14.9064 13.8398C16.3737 13.8871 22.1535 14.0362 25.9421 13.5812C26.831 15.2741 27.3048 17.1758 27.3048 19.1112C27.3048 25.5659 22.1688 30.8166 15.8559 30.8166ZM26.8187 12.6476C26.7949 12.6079 26.7607 12.5777 26.7289 12.5446C26.7063 12.5215 26.6885 12.4931 26.6622 12.4736C26.6304 12.4499 26.5919 12.4381 26.5559 12.4209C26.5222 12.405 26.4911 12.3831 26.4544 12.373C26.4232 12.3647 26.389 12.4771 26.3566 12.4736C26.3095 12.4688 26.263 12.5754 26.2153 12.5754C26.2117 12.5754 26.2086 12.5754 26.2043 12.5754C22.0874 13.1671 14.6912 12.7576 14.6166 12.7546C14.4076 12.7475 14.207 12.7884 14.0884 12.9564L11.8564 16.0782L12.0538 13.3493C12.0758 13.0487 11.8606 12.7736 11.555 12.7192L6.52041 11.8156C6.47456 11.7198 6.41159 11.6293 6.31438 11.5665C6.03193 11.3843 5.65291 11.4577 5.46645 11.7298C3.9729 13.9007 3.18302 16.4527 3.18302 19.1118C3.18302 26.2186 8.86804 32 15.8559 32C22.8431 32 28.5275 26.2186 28.5275 19.1118C28.5275 16.8415 27.9394 14.6096 26.8267 12.6564C26.8248 12.6529 26.8206 12.6511 26.8187 12.6476Z" fill="#424242"/>
<path d="M9.66526 11.421C9.77347 11.6251 9.98747 11.7417 10.2094 11.7417C10.3041 11.7417 10.3995 11.7209 10.4881 11.676C10.7883 11.5269 10.9069 11.1701 10.7529 10.8796L7.53225 4.82184C7.48028 4.7248 7.40261 4.64375 7.30663 4.58695L0.930172 0.827918C0.641611 0.657511 0.265625 0.745664 0.089554 1.02553C-0.0865173 1.30481 0.00519131 1.66872 0.293141 1.83853L6.52351 5.51115L9.66526 11.421Z" fill="#424242"/>
<path d="M24.1355 19.8597C23.8066 19.8384 23.5095 20.0881 23.4887 20.4141C23.4856 20.4573 23.1628 24.7897 19.1193 27.2742C18.835 27.4493 18.7501 27.815 18.9316 28.0907C19.0478 28.2682 19.2452 28.3652 19.4482 28.3652C19.5601 28.3652 19.6738 28.3357 19.7753 28.2729C24.3611 25.4553 24.6967 20.6857 24.709 20.4833C24.7285 20.1579 24.4717 19.8792 24.1355 19.8597Z" fill="#424242"/>
</svg>
