<svg width="32" height="32" viewBox="0 0 32 32" fill="none" xmlns="http://www.w3.org/2000/svg">
<path d="M1.71006 30.8079L4.74784 28.4346C5.3186 27.9887 6.06973 27.1591 6.45775 26.5463L12.4769 17.0516C12.6241 16.821 12.8691 16.7912 13.0661 16.9789C13.1195 17.0302 14.3939 18.23 15.8796 18.23C15.9775 18.2294 16.0712 18.2103 16.1667 18.1984L18.4243 23.3016C18.5228 23.5239 18.7393 23.6556 18.9666 23.6556C19.0473 23.6556 19.1291 23.6395 19.2075 23.6044C19.5071 23.4703 19.6417 23.1186 19.5088 22.8176L17.3017 17.83C18.0339 17.4378 18.5572 16.8865 18.642 16.7936C18.8147 16.6034 19.02 16.6177 19.1624 16.8353L25.5316 26.563C25.9279 27.168 26.6832 27.9899 27.2522 28.4346L30.2899 30.8079H1.71006ZM31.4469 30.2012L27.9802 27.4928C27.515 27.1293 26.8475 26.4033 26.523 25.9086L20.1538 16.1802C19.8559 15.7249 19.3979 15.4638 18.8971 15.4638C18.4765 15.4638 18.0754 15.6498 17.7675 15.9871C17.4999 16.2786 16.6372 17.0349 15.8695 17.0379C14.8721 17.0379 13.8914 16.123 13.8831 16.1147C13.5757 15.8214 13.1865 15.6599 12.7878 15.6599C12.2651 15.6599 11.7744 15.9406 11.476 16.4115L5.45743 25.9062C5.14179 26.4039 4.48322 27.131 4.01984 27.4928L0.553105 30.2012C-0.0740259 30.6917 -0.0354519 31.1519 0.0428654 31.3825C0.121776 31.6132 0.372744 32 1.16719 32H30.8328C31.6273 32 31.8782 31.6132 31.9571 31.3825C32.0355 31.1519 32.074 30.6917 31.4469 30.2012Z" fill="#424242"/>
<path d="M16 12.3311V14.7152C16 15.0442 16.2658 15.3112 16.5933 15.3112C16.9208 15.3112 17.1866 15.0442 17.1866 14.7152V12.3311C17.1866 12.0021 16.9208 11.7351 16.5933 11.7351C16.2658 11.7351 16 12.0021 16 12.3311Z" fill="#424242"/>
<path d="M12.1892 9.79797C12.7653 9.79797 13.2328 9.7157 13.6267 9.59113V13.5231C13.6267 13.8521 13.8926 14.1192 14.2201 14.1192C14.5476 14.1192 14.8134 13.8521 14.8134 13.5231V9.35095C14.8134 9.2222 14.7641 9.10895 14.6947 9.0112C14.9089 8.82285 15.0738 8.62319 15.1901 8.43246C15.361 8.15173 15.2726 7.78519 14.9931 7.61353C14.7137 7.44188 14.3488 7.53008 14.1779 7.8114C13.8611 8.33114 13.1735 8.60591 12.1892 8.60591C10.9201 8.60591 9.88769 7.56884 9.88769 6.29453C9.88769 5.01962 10.9201 3.98253 12.1892 3.98253C12.5167 3.98253 12.7825 3.71551 12.7825 3.38651C12.7825 3.0575 12.5167 2.79048 12.1892 2.79048C10.2656 2.79048 8.70107 4.36221 8.70107 6.29453C8.70107 8.22625 10.2656 9.79797 12.1892 9.79797Z" fill="#424242"/>
<path d="M15.0922 3.37815C15.3818 3.22437 15.4945 2.86914 15.3414 2.57828C15.3337 2.53954 15.3723 2.31602 15.6832 1.99893C16.137 1.53582 17.0175 1.05542 18.0096 1.22529C19.793 1.53105 20.4249 2.52283 20.4249 5.01542C20.4249 5.07681 20.4178 5.13761 20.4148 5.199C19.9016 4.88132 19.3 4.69476 18.6539 4.69476C18.286 4.69476 17.9235 4.75377 17.577 4.87118C17.2661 4.97609 17.0994 5.31462 17.2038 5.62635C17.3088 5.93807 17.6435 6.10676 17.9556 6.00067C18.1798 5.92497 18.4148 5.88682 18.6539 5.88682C19.8583 5.88682 20.8379 6.87086 20.8379 8.0808C20.8379 9.29074 19.8583 10.2748 18.6539 10.2748C18.1478 10.2748 17.6547 10.0972 17.2649 9.77412C17.0128 9.56492 16.639 9.60067 16.4301 9.85398C16.2213 10.1079 16.2569 10.4834 16.5097 10.6932C17.1113 11.1921 17.8731 11.4668 18.6539 11.4668C20.5127 11.4668 22.0245 9.94756 22.0245 8.0808C22.0245 7.38047 21.8121 6.72961 21.449 6.18961C21.4686 6.14848 21.4905 6.10915 21.5006 6.06266C21.5742 5.72054 21.6116 5.36827 21.6116 5.01542C21.6116 2.84886 21.2069 0.564295 18.2095 0.0505196C16.6776 -0.211733 15.2079 0.587542 14.5416 1.51198C14.1364 2.07403 14.0444 2.66172 14.2883 3.12484C14.442 3.4157 14.8027 3.53311 15.0922 3.37815Z" fill="#424242"/>
</svg>
