<svg width="32" height="32" viewBox="0 0 32 32" fill="none" xmlns="http://www.w3.org/2000/svg">
<path d="M10.864 23.7714C10.432 23.455 9.89278 23.0617 8.88538 23.0617C7.87798 23.0617 7.33991 23.4556 6.90732 23.7714C6.5251 24.0515 6.24835 24.2535 5.62613 24.2535C5.0051 24.2535 4.72895 24.0515 4.34732 23.7714C3.91473 23.4556 3.37725 23.0617 2.37044 23.0617C2.04274 23.0617 1.77785 23.3286 1.77785 23.6576C1.77785 23.9865 2.04274 24.2535 2.37044 24.2535C2.99148 24.2535 3.26763 24.4555 3.64926 24.7355C4.08185 25.0513 4.61932 25.4452 5.62613 25.4452C6.63354 25.4452 7.17219 25.0513 7.60419 24.7355C7.98701 24.4555 8.26316 24.2535 8.88538 24.2535C9.50819 24.2535 9.78433 24.4555 10.1671 24.7355C10.6003 25.0513 11.1384 25.4452 12.1464 25.4452C13.1538 25.4452 13.6925 25.0519 14.1251 24.7355C14.5079 24.4555 14.7846 24.2535 15.4074 24.2535C15.7351 24.2535 16 23.9865 16 23.6576C16 23.3286 15.7351 23.0617 15.4074 23.0617C14.3994 23.0617 13.8614 23.4556 13.4282 23.7714C13.0454 24.0515 12.7692 24.2535 12.1464 24.2535C11.5236 24.2535 11.2469 24.0515 10.864 23.7714Z" fill="#424242"/>
<path d="M27.4471 1.75576L27.6184 1.57342C28 1.16166 28.0237 1.14555 28.307 1.22659C28.4279 1.26056 28.4581 1.2856 28.4581 1.2856C28.4996 1.33268 28.5653 1.57996 28.6187 1.77898L28.6637 1.94762C29.3203 4.35322 32.2584 16.852 26.3603 28.6469C25.3731 28.3752 24.2459 28.1202 22.9914 27.9057L27.4163 6.56217C27.4833 6.23979 27.2776 5.92398 26.957 5.85665C26.6323 5.78991 26.3224 5.99668 26.2566 6.31846L21.8181 27.7263C20.8113 27.5863 19.7286 27.4772 18.5713 27.4081C18.4415 24.7927 18.2625 11.3406 27.4471 1.75576ZM31.7215 30.7784C31.6089 30.7075 30.1914 29.8363 27.5147 28.9866C33.4779 16.8603 30.48 4.09938 29.8074 1.63301L29.763 1.46914C29.5905 0.823793 29.4536 0.313695 28.6287 0.079511C27.6409 -0.199364 27.1692 0.310144 26.7526 0.760038L26.5944 0.92865C17.232 10.6976 17.2522 24.3202 17.3837 27.3503C16.886 27.3336 16.3841 27.3199 15.8614 27.3199C7.2469 27.3199 0.599203 30.7296 0.320093 30.875C0.0297239 31.0263 -0.0840407 31.3856 0.0664773 31.6782C0.171958 31.8826 0.378752 32 0.593269 32C0.684528 32 0.778177 31.9785 0.865288 31.9333C0.930473 31.8993 7.53253 28.5117 15.8614 28.5117C25.7304 28.5117 31.0418 31.7569 31.0945 31.7891C31.3719 31.9631 31.7381 31.8772 31.9105 31.5984C32.083 31.3195 31.9988 30.9524 31.7215 30.7784Z" fill="#424242"/>
<path d="M7.11116 5.75772C8.10374 5.75772 8.91144 6.57052 8.91144 7.56863C8.91144 8.56674 8.10374 9.37954 7.11116 9.37954C6.11857 9.37954 5.31087 8.56674 5.31087 7.56863C5.31087 6.57052 6.11857 5.75772 7.11116 5.75772ZM7.11116 10.5713C8.75737 10.5713 10.0966 9.224 10.0966 7.56863C10.0966 5.91266 8.75737 4.56595 7.11116 4.56595C5.46494 4.56595 4.12569 5.91266 4.12569 7.56863C4.12569 9.224 5.46494 10.5713 7.11116 10.5713Z" fill="#424242"/>
<path d="M7.11115 3.9933C7.43885 3.9933 7.70374 3.72635 7.70374 3.39742V2.20564C7.70374 1.87671 7.43885 1.60976 7.11115 1.60976C6.78345 1.60976 6.51856 1.87671 6.51856 2.20564V3.39742C6.51856 3.72635 6.78345 3.9933 7.11115 3.9933Z" fill="#424242"/>
<path d="M7.70374 12.9316V11.7398C7.70374 11.4109 7.43885 11.1439 7.11115 11.1439C6.78345 11.1439 6.51856 11.4109 6.51856 11.7398V12.9316C6.51856 13.2605 6.78345 13.5275 7.11115 13.5275C7.43885 13.5275 7.70374 13.2605 7.70374 12.9316Z" fill="#424242"/>
<path d="M1.77783 8.16452H2.96302C3.29072 8.16452 3.55561 7.89756 3.55561 7.56863C3.55561 7.2397 3.29072 6.97274 2.96302 6.97274H1.77783C1.45013 6.97274 1.18524 7.2397 1.18524 7.56863C1.18524 7.89756 1.45013 8.16452 1.77783 8.16452Z" fill="#424242"/>
<path d="M10.6667 7.56863C10.6667 7.89756 10.9316 8.16452 11.2593 8.16452H12.4445C12.7722 8.16452 13.0371 7.89756 13.0371 7.56863C13.0371 7.2397 12.7722 6.97274 12.4445 6.97274H11.2593C10.9316 6.97274 10.6667 7.2397 10.6667 7.56863Z" fill="#424242"/>
<path d="M3.66464 11.8769L4.56715 10.9693C4.79885 10.7364 4.79885 10.3598 4.56715 10.1268C4.33545 9.89379 3.96095 9.89379 3.72925 10.1268L2.82674 11.0343C2.59503 11.2673 2.59503 11.6445 2.82674 11.8769C2.94229 11.9937 3.09398 12.0515 3.24569 12.0515C3.3968 12.0515 3.54849 11.9937 3.66464 11.8769Z" fill="#424242"/>
<path d="M10.0741 5.18508C10.2258 5.18508 10.3775 5.12667 10.4931 5.01047L11.3956 4.10294C11.6273 3.86995 11.6273 3.49277 11.3956 3.26038C11.1645 3.02738 10.7894 3.02738 10.5577 3.26038L9.65516 4.16791C9.42346 4.4009 9.42346 4.77748 9.65516 5.01047C9.77072 5.12667 9.92241 5.18508 10.0741 5.18508Z" fill="#424242"/>
<path d="M3.72925 5.01047C3.84481 5.12667 3.9965 5.18508 4.1482 5.18508C4.2999 5.18508 4.4516 5.12667 4.56715 5.01047C4.79885 4.77748 4.79885 4.4009 4.56715 4.16791L3.66464 3.26038C3.43293 3.02738 3.05785 3.02738 2.82674 3.26038C2.59503 3.49277 2.59503 3.86995 2.82674 4.10294L3.72925 5.01047Z" fill="#424242"/>
<path d="M10.9766 12.0515C11.1283 12.0515 11.28 11.9937 11.3956 11.8769C11.6273 11.6445 11.6273 11.2673 11.3956 11.0343L10.4931 10.1268C10.2614 9.89379 9.88687 9.89379 9.65516 10.1268C9.42346 10.3598 9.42346 10.7364 9.65516 10.9693L10.5577 11.8769C10.6738 11.9937 10.8255 12.0515 10.9766 12.0515Z" fill="#424242"/>
</svg>
