<svg width="33" height="32" viewBox="0 0 33 32" fill="none" xmlns="http://www.w3.org/2000/svg">
<path d="M31.7798 19.1567L31.2148 25.5407C31.1579 26.2157 30.7867 26.7721 30.4845 27.1194C30.4179 27.1958 30.3737 27.2871 30.3531 27.3831C30.3198 27.453 30.2786 27.5609 30.2786 27.6978V30.3473C30.2786 30.5701 29.9619 30.8148 29.673 30.8148H27.2574C26.9655 30.8148 26.6452 30.5701 26.6452 30.3473V27.2593C26.6452 26.9316 26.3739 26.6667 26.0396 26.6667H11.5059C11.1716 26.6667 10.9003 26.9316 10.9003 27.2593V30.3473C10.9003 30.5701 10.5836 30.8148 10.2947 30.8148H7.87243C7.58357 30.8148 7.26686 30.5701 7.26686 30.3473V27.6978C7.26686 27.3677 7.02644 27.1923 6.869 27.1022C6.48991 26.6661 5.98305 26.0753 5.93824 25.5443L5.40352 19.168C5.29875 17.9318 6.16533 16.8628 7.41947 16.6803C7.74769 16.6329 7.97598 16.3354 7.93056 16.0136C7.91058 15.8726 7.94389 15.712 8.04139 15.488L8.30965 14.8148H12.717C14.3866 14.8148 15.7449 13.4856 15.7449 11.8519V7.7037H24.0085C24.7358 7.7037 27.1714 7.84534 27.9284 9.61719L29.8232 15.6557C29.8874 15.8074 29.9092 15.9745 29.8874 16.1541C29.8541 16.4267 30.017 16.6856 30.2804 16.7804C31.2681 17.1342 31.8706 18.0895 31.7798 19.1567ZM1.21114 11.8519V2.96296C1.21114 1.98281 2.02624 1.18519 3.02786 1.18519H12.717C13.7186 1.18519 14.5337 1.98281 14.5337 2.96296V11.8519C14.5337 12.832 13.7186 13.6296 12.717 13.6296H3.02786C2.02624 13.6296 1.21114 12.832 1.21114 11.8519ZM31.101 15.84C31.084 15.6255 31.0356 15.4252 30.9611 15.2539L29.0662 9.21541C28.3474 7.52652 26.4562 6.51852 24.0085 6.51852H15.7449V2.96296C15.7449 1.32919 14.3866 0 12.717 0H3.02786C1.3583 0 0 1.32919 0 2.96296V11.8519C0 13.4856 1.3583 14.8148 3.02786 14.8148H7.0101L6.92108 15.0388C6.83327 15.2385 6.77393 15.4293 6.74183 15.6154C5.12193 16.0782 4.05188 17.568 4.19661 19.2658L4.73132 25.6421C4.80642 26.531 5.43379 27.2794 5.91583 27.8353C5.95095 27.8868 5.99637 27.9384 6.05572 27.9887V30.3473C6.05572 31.2273 6.90473 32 7.87243 32H10.2947C11.2624 32 12.1114 31.2273 12.1114 30.3473V27.8519H25.434V30.3473C25.434 31.2273 26.2861 32 27.2574 32H29.673C30.6407 32 31.4897 31.2273 31.4897 30.3473V27.8056C31.494 27.7956 31.4988 27.7849 31.503 27.7736C32.0426 27.1141 32.3599 26.3787 32.4217 25.6403L32.9867 19.2569C33.1102 17.7985 32.3648 16.4764 31.101 15.84Z" fill="#424242"/>
<path d="M10.2947 16.5926H27.2507C27.585 16.5926 27.8563 16.3277 27.8563 16C27.8563 15.6723 27.585 15.4074 27.2507 15.4074H10.2947C9.96045 15.4074 9.68915 15.6723 9.68915 16C9.68915 16.3277 9.96045 16.5926 10.2947 16.5926Z" fill="#424242"/>
<path d="M28.0701 22.3354C27.3585 22.3354 26.7802 21.7695 26.7802 21.0738C26.7802 20.3775 27.3585 19.8116 28.0701 19.8116C28.781 19.8116 29.3599 20.3775 29.3599 21.0738C29.3599 21.7695 28.781 22.3354 28.0701 22.3354ZM28.0701 18.6264C26.6912 18.6264 25.5691 19.7239 25.5691 21.0738C25.5691 22.4231 26.6912 23.5206 28.0701 23.5206C29.449 23.5206 30.5711 22.4231 30.5711 21.0738C30.5711 19.7239 29.449 18.6264 28.0701 18.6264Z" fill="#424242"/>
<path d="M9.11567 22.3354C8.40413 22.3354 7.8258 21.7695 7.8258 21.0738C7.8258 20.3775 8.40413 19.8116 9.11567 19.8116C9.82661 19.8116 10.4055 20.3775 10.4055 21.0738C10.4055 21.7695 9.82661 22.3354 9.11567 22.3354ZM9.11567 18.6264C7.73618 18.6264 6.61466 19.7239 6.61466 21.0738C6.61466 22.4231 7.73618 23.5206 9.11567 23.5206C10.4946 23.5206 11.6167 22.4231 11.6167 21.0738C11.6167 19.7239 10.4946 18.6264 9.11567 18.6264Z" fill="#424242"/>
<path d="M22.589 21.1366L22.259 22.4284C22.0858 23.1076 21.3058 23.7037 20.5894 23.7037H16.956C16.2396 23.7037 15.4596 23.1076 15.2865 22.4284L14.9564 21.1366C14.8856 20.8587 14.9249 20.6062 15.0685 20.4273C15.212 20.2471 15.4524 20.1481 15.7449 20.1481H21.8006C22.0931 20.1481 22.3335 20.2471 22.477 20.4273C22.6205 20.6062 22.6599 20.8587 22.589 21.1366ZM21.8006 18.963H15.7449C15.0812 18.963 14.4865 19.2308 14.1141 19.6972C13.7416 20.1641 13.6205 20.7935 13.781 21.4234L14.111 22.7153C14.4223 23.9342 15.6716 24.8889 16.956 24.8889H20.5894C21.8739 24.8889 23.1232 23.9342 23.4344 22.7153L23.7645 21.4234C23.9249 20.7935 23.8038 20.1641 23.4314 19.6972C23.059 19.2308 22.4643 18.963 21.8006 18.963Z" fill="#424242"/>
<path d="M9.14778 8.2963H6.05573V4.74075L9.11144 4.73956C9.27918 4.74964 10.7489 4.88416 10.7489 6.51853C10.7489 8.16771 9.52384 8.2963 9.14778 8.2963ZM9.14778 3.55556H5.45015C5.11588 3.55556 4.84458 3.82045 4.84458 4.14816V11.2593C4.84458 11.587 5.11588 11.8519 5.45015 11.8519C5.78443 11.8519 6.05573 11.587 6.05573 11.2593V9.48149H9.14778C10.1924 9.48149 11.9601 8.85749 11.9601 6.51853C11.9601 4.30638 10.1446 3.61423 9.14778 3.55556Z" fill="#424242"/>
</svg>
