<svg width="32" height="33" viewBox="0 0 32 33" fill="none" xmlns="http://www.w3.org/2000/svg">
<path d="M6.56153 4.25394C7.56064 4.25394 8.37424 5.0875 8.37424 6.11111C8.37424 7.13472 7.56064 7.96829 6.56153 7.96829C5.56242 7.96829 4.74882 7.13472 4.74882 6.11111C4.74882 5.0875 5.56242 4.25394 6.56153 4.25394ZM6.56153 9.19051C8.21856 9.19051 9.56721 7.80878 9.56721 6.11111C9.56721 4.41345 8.21856 3.03172 6.56153 3.03172C4.9045 3.03172 3.55586 4.41345 3.55586 6.11111C3.55586 7.80878 4.9045 9.19051 6.56153 9.19051Z" fill="#424242"/>
<path d="M6.56153 2.44444C6.89079 2.44444 7.15801 2.17067 7.15801 1.83333V0.611111C7.15801 0.273778 6.89079 0 6.56153 0C6.23227 0 5.96505 0.273778 5.96505 0.611111V1.83333C5.96505 2.17067 6.23227 2.44444 6.56153 2.44444Z" fill="#424242"/>
<path d="M5.96505 10.3889V11.6111C5.96505 11.9485 6.23227 12.2222 6.56153 12.2222C6.89079 12.2222 7.15801 11.9485 7.15801 11.6111V10.3889C7.15801 10.0516 6.89079 9.77778 6.56153 9.77778C6.23227 9.77778 5.96505 10.0516 5.96505 10.3889Z" fill="#424242"/>
<path d="M1.19319 6.72223H2.38616C2.71542 6.72223 2.98264 6.44845 2.98264 6.11112C2.98264 5.77378 2.71542 5.5 2.38616 5.5H1.19319C0.863931 5.5 0.596707 5.77378 0.596707 6.11112C0.596707 6.44845 0.863931 6.72223 1.19319 6.72223Z" fill="#424242"/>
<path d="M10.1404 6.11112C10.1404 6.44845 10.4077 6.72223 10.7369 6.72223H11.9299C12.2592 6.72223 12.5264 6.44845 12.5264 6.11112C12.5264 5.77378 12.2592 5.5 11.9299 5.5H10.7369C10.4077 5.5 10.1404 5.77378 10.1404 6.11112Z" fill="#424242"/>
<path d="M3.15741 8.73463L2.24897 9.66535C2.01574 9.90429 2.01574 10.2911 2.24897 10.5294C2.36528 10.6492 2.51799 10.7085 2.67069 10.7085C2.82279 10.7085 2.97549 10.6492 3.0924 10.5294L4.00085 9.59872C4.23407 9.35977 4.23407 8.97357 4.00085 8.73463C3.76762 8.49568 3.39064 8.49568 3.15741 8.73463Z" fill="#424242"/>
<path d="M9.54395 3.66667C9.69665 3.66667 9.84935 3.60677 9.96566 3.4876L10.8741 2.55688C11.1073 2.31794 11.1073 1.93113 10.8741 1.69279C10.6415 1.45385 10.2639 1.45385 10.0307 1.69279L9.12223 2.62351C8.889 2.86246 8.889 3.24866 9.12223 3.4876C9.23854 3.60677 9.39125 3.66667 9.54395 3.66667Z" fill="#424242"/>
<path d="M3.15741 3.4876C3.27373 3.60677 3.42643 3.66667 3.57913 3.66667C3.73183 3.66667 3.88453 3.60677 4.00085 3.4876C4.23407 3.24866 4.23407 2.86246 4.00085 2.62351L3.0924 1.69279C2.85918 1.45385 2.4816 1.45385 2.24897 1.69279C2.01574 1.93113 2.01574 2.31794 2.24897 2.55688L3.15741 3.4876Z" fill="#424242"/>
<path d="M9.12223 8.73463C8.889 8.97357 8.889 9.35977 9.12223 9.59872L10.0307 10.5294C10.1476 10.6492 10.3003 10.7085 10.4524 10.7085C10.6051 10.7085 10.7578 10.6492 10.8741 10.5294C11.1073 10.2911 11.1073 9.90429 10.8741 9.66535L9.96566 8.73463C9.73244 8.49568 9.35545 8.49568 9.12223 8.73463Z" fill="#424242"/>
<path d="M27.2768 26.8889L24.3028 17.4148L30.3052 26.8889H27.2768ZM18.1793 21.2288L22.264 14.9129L26.0236 26.8889H21.7647L18.1793 21.2288ZM18.2174 31.7778L14.1106 17.053L23.4396 31.7778H18.2174ZM12.3057 15.0291L16.9767 31.7778H1.69483L12.3057 15.0291ZM31.9037 27.1676L22.9988 13.112C22.8897 12.9391 22.7024 12.8339 22.5014 12.8333C22.5002 12.8333 22.4996 12.8333 22.4984 12.8333C22.2986 12.8333 22.1119 12.936 22.0015 13.1071L17.4712 20.1117L13.068 13.1615C12.8479 12.8138 12.2872 12.8138 12.0671 13.1615L0.096266 32.0564C-0.0230308 32.2441 -0.0319867 32.4836 0.0723979 32.6804C0.176783 32.8772 0.3778 33 0.596709 33H17.7653C17.7659 33 17.7665 33 17.7671 33C17.7677 33 17.7683 33 17.7695 33H24.5384C24.7567 33 24.9577 32.8772 25.0627 32.6804C25.1665 32.4836 25.1575 32.2441 25.0388 32.0564L22.5389 28.1111H26.8402C26.8408 28.1111 26.8414 28.1111 26.842 28.1111C26.8426 28.1111 26.8432 28.1111 26.8438 28.1111H31.4033C31.6222 28.1111 31.8232 27.9883 31.9276 27.7915C32.032 27.5947 32.023 27.3552 31.9037 27.1676Z" fill="#424242"/>
</svg>
