<svg width="33" height="32" viewBox="0 0 33 32" fill="none" xmlns="http://www.w3.org/2000/svg">
<path d="M16.1981 4.3987C16.6846 3.73913 16.9773 2.7118 16.8789 2.00952C16.8325 1.67558 16.9651 1.24912 17.0311 1.18743C17.105 1.18743 17.2419 1.28233 17.3354 1.46621C17.3201 1.61924 17.3574 1.77939 17.3959 1.94428C17.556 2.63114 18.1842 3.50247 18.8583 3.97164L18.9799 4.05646C19.423 4.3643 19.8251 4.94499 19.8752 5.23919C19.8825 5.2819 19.8489 5.34714 19.7884 5.40942C19.6809 5.51856 19.511 5.59803 19.3221 5.62828L16.3087 6.1117C15.9415 6.16983 15.6707 6.00434 15.6548 5.91537C15.6047 5.62117 15.7936 4.94676 16.1107 4.51614L16.1981 4.3987ZM15.2045 3.7077L15.1177 3.82454C14.6282 4.48827 14.3404 5.46992 14.4498 6.10874C14.5671 6.80508 15.2808 7.31104 16.1462 7.31104C16.2641 7.31104 16.3851 7.30155 16.5074 7.28197L19.5208 6.79857C19.9718 6.7268 20.3806 6.52453 20.6714 6.22974C21.0027 5.89283 21.1518 5.46162 21.0809 5.04642C20.9727 4.40701 20.3757 3.56711 19.6918 3.09201L19.5709 3.00778C19.1467 2.7124 18.7422 2.14476 18.6151 1.77464C18.6352 1.69753 18.6395 1.6145 18.6254 1.53205C18.4604 0.563451 17.6679 -0.120444 16.819 0.0177579C15.8938 0.166044 15.5552 1.36241 15.6677 2.16909C15.7184 2.53031 15.5308 3.26521 15.2045 3.7077Z" fill="#424242"/>
<path d="M29.3333 15.392H3.66667V13.0194H29.3333V15.392ZM28.7222 26.0686H19.5556C19.2182 26.0686 18.9444 25.8028 18.9444 25.4754V21.9166H29.3333V25.4754C29.3333 25.8028 29.0596 26.0686 28.7222 26.0686ZM29.3333 17.1714V20.7303H18.9444V17.1714C18.9444 16.844 19.2182 16.5783 19.5556 16.5783H28.7222C29.0596 16.5783 29.3333 16.844 29.3333 17.1714ZM32.3889 11.8332H7.94444V4.85602L14.9252 1.69398C15.2313 1.55577 15.3633 1.20226 15.2203 0.905688C15.0779 0.60971 14.7143 0.480994 14.4082 0.619196L5.2415 4.77119C4.93533 4.9094 4.80333 5.26291 4.94633 5.55948C5.05022 5.77479 5.27021 5.90173 5.5006 5.90173C5.58737 5.90173 5.67478 5.88394 5.7585 5.84597L6.72222 5.40942V11.8332H0.611111C0.273167 11.8332 0 12.0983 0 12.4263C0 12.7543 0.273167 13.0194 0.611111 13.0194H2.44444V31.4069C2.44444 31.7349 2.71761 32 3.05556 32C3.3935 32 3.66667 31.7349 3.66667 31.4069V16.5783H17.8347C17.7662 16.7645 17.7222 16.9626 17.7222 17.1714V25.4754C17.7222 26.4565 18.5448 27.2549 19.5556 27.2549H28.7222C28.9373 27.2549 29.1414 27.2121 29.3333 27.1457V31.4069C29.3333 31.7349 29.6065 32 29.9444 32C30.2824 32 30.5556 31.7349 30.5556 31.4069V13.0194H32.3889C32.7268 13.0194 33 12.7543 33 12.4263C33 12.0983 32.7268 11.8332 32.3889 11.8332Z" fill="#424242"/>
<path d="M23.2222 18.9509H25.0556C25.3935 18.9509 25.6667 18.6857 25.6667 18.3577C25.6667 18.0297 25.3935 17.7646 25.0556 17.7646H23.2222C22.8843 17.7646 22.6111 18.0297 22.6111 18.3577C22.6111 18.6857 22.8843 18.9509 23.2222 18.9509Z" fill="#424242"/>
<path d="M25.0556 23.1029H23.2222C22.8843 23.1029 22.6111 23.368 22.6111 23.696C22.6111 24.024 22.8843 24.2892 23.2222 24.2892H25.0556C25.3935 24.2892 25.6667 24.024 25.6667 23.696C25.6667 23.368 25.3935 23.1029 25.0556 23.1029Z" fill="#424242"/>
</svg>
