<svg width="32" height="29" viewBox="0 0 32 29" fill="none" xmlns="http://www.w3.org/2000/svg">
<path d="M24.0266 27.8163C21.8354 27.8163 19.767 26.7475 18.493 24.9578C18.4724 24.9294 18.444 24.9128 18.4198 24.8891L19.102 17.6006C19.2136 17.7001 19.3506 17.7551 19.4906 17.7551C19.6418 17.7551 19.793 17.6971 19.9082 17.5817C20.1391 17.3503 20.1391 16.9763 19.9082 16.7448L19.3175 16.153C19.2998 16.1353 19.2762 16.1276 19.2567 16.1122C19.3093 16.0873 19.3618 16.0619 19.4067 16.0204C20.6659 14.8492 22.3067 14.2041 24.0266 14.2041C27.7717 14.2041 30.8188 17.2574 30.8188 21.0102C30.8188 24.763 27.7717 27.8163 24.0266 27.8163ZM16.5375 25.449H4.725C4.38244 25.449 4.05347 25.1489 4.02217 24.8074L3.58393 20.123L6.29546 20.1242C7.07509 21.241 8.23331 21.898 9.44999 21.898C10.7452 21.898 11.8828 21.2558 12.6193 20.1224H17.6792L17.2403 24.8074C17.209 25.1489 16.88 25.449 16.5375 25.449ZM15.4856 27.8163H5.77691L5.4816 26.6327H15.7809L15.4856 27.8163ZM18.8415 7.69388L18.2881 13.6122H12.6063C11.8255 12.4943 10.6673 11.8367 9.44999 11.8367C8.23213 11.8367 7.07449 12.4943 6.29428 13.6122H2.97439L2.42099 7.69388H18.8415ZM1.69333 3.55102H19.5692L19.9909 6.5102H1.27161L1.69333 3.55102ZM4.45628 1.18367H16.8062L17.0147 2.36735H4.24777L4.45628 1.18367ZM3.08545 14.7959H6.61618C6.82349 14.7959 7.01486 14.6858 7.12176 14.5083C7.68817 13.5625 8.53689 13.0198 9.44999 13.0198C10.3637 13.0198 11.2124 13.5625 11.78 14.5095C11.8869 14.6882 12.0794 14.7959 12.2867 14.7959C12.2903 14.7959 12.2933 14.7959 12.2968 14.7959L18.177 14.7947L17.7896 18.9388H12.285C12.0694 18.9388 11.8704 19.0566 11.767 19.2465C11.2425 20.2071 10.4417 20.7143 9.44999 20.7143C8.53807 20.7143 7.69053 20.1727 7.12294 19.2288C7.01663 19.0512 6.82586 18.9429 6.61973 18.9417L3.47287 18.9394L3.08545 14.7959ZM24.0266 13.0204C22.3474 13.0204 20.7368 13.5513 19.3902 14.5183L20.0286 7.69388H20.6718C20.676 7.69388 20.6807 7.69388 20.6837 7.69388C21.0097 7.69388 21.2743 7.42873 21.2743 7.10204C21.2743 7.0322 21.2625 6.96533 21.24 6.90319L20.6659 2.87515C20.6246 2.58396 20.3754 2.36735 20.0812 2.36735H18.2143L17.8829 0.488843C17.8333 0.205945 17.5882 0 17.3017 0H3.96074C3.67429 0 3.42919 0.205945 3.37957 0.488843L3.04821 2.36735H1.18126C0.88713 2.36735 0.637892 2.58396 0.596549 2.87515L0.00592491 7.018C-0.0182907 7.18845 0.0324938 7.36007 0.144122 7.48968C0.256931 7.61929 0.419356 7.69388 0.590637 7.69388H1.23383L2.84504 24.9175C2.91887 25.6987 3.5089 26.3521 4.24541 26.5587L4.74271 28.552C4.80886 28.8154 5.04453 29 5.31563 29H15.9469C16.218 29 16.4536 28.8154 16.5198 28.552L17.0171 26.5587C17.339 26.4687 17.6301 26.2947 17.8646 26.0592C19.3737 27.9033 21.6328 29 24.0266 29C28.4232 29 32 25.4158 32 21.0102C32 16.6046 28.4232 13.0204 24.0266 13.0204Z" fill="#424242"/>
<path d="M24.0266 23.8327C22.4732 23.8327 21.2093 22.5667 21.2093 21.0102C21.2093 19.4537 22.4732 18.1877 24.0266 18.1877C25.5793 18.1877 26.8427 19.4537 26.8427 21.0102C26.8427 22.5667 25.5793 23.8327 24.0266 23.8327ZM24.0266 17.0041C21.8218 17.0041 20.0281 18.8015 20.0281 21.0102C20.0281 23.2189 21.8218 25.0163 24.0266 25.0163C26.2308 25.0163 28.024 23.2189 28.024 21.0102C28.024 18.8015 26.2308 17.0041 24.0266 17.0041Z" fill="#424242"/>
<path d="M23.0344 15.9796H24.2156C24.5422 15.9796 24.8062 15.7145 24.8062 15.3878C24.8062 15.0611 24.5422 14.7959 24.2156 14.7959H23.0344C22.7077 14.7959 22.4437 15.0611 22.4437 15.3878C22.4437 15.7145 22.7077 15.9796 23.0344 15.9796Z" fill="#424242"/>
<path d="M28.7676 17.3367L28.1769 16.7448C27.946 16.5134 27.5727 16.5134 27.3418 16.7448C27.1108 16.9763 27.1108 17.3503 27.3418 17.5817L27.9324 18.1735C28.0475 18.2889 28.1988 18.3469 28.35 18.3469C28.5012 18.3469 28.6524 18.2889 28.7676 18.1735C28.9985 17.9421 28.9985 17.5681 28.7676 17.3367Z" fill="#424242"/>
<path d="M30.2476 21.2819C30.1082 20.9859 29.7568 20.8581 29.4615 20.9984L28.689 21.3624C28.3937 21.5014 28.2673 21.8542 28.4061 22.1501C28.5071 22.3643 28.7191 22.4898 28.9411 22.4898C29.0256 22.4898 29.1107 22.472 29.1922 22.4336L29.9641 22.0696C30.2594 21.9305 30.3858 21.5778 30.2476 21.2819Z" fill="#424242"/>
<path d="M26.825 24.9116C26.5285 24.7737 26.1771 24.9051 26.0418 25.2016L25.6827 25.9822C25.5463 26.2793 25.6762 26.6309 25.9727 26.7676C26.0519 26.8043 26.1363 26.8215 26.219 26.8215C26.4428 26.8215 26.6566 26.6942 26.7559 26.477L27.1144 25.6964C27.2514 25.3999 27.1215 25.0483 26.825 24.9116Z" fill="#424242"/>
<path d="M21.8531 24.8571H20.6719C20.3452 24.8571 20.0812 25.1223 20.0812 25.449C20.0812 25.7757 20.3452 26.0408 20.6719 26.0408H21.8531C22.1797 26.0408 22.4437 25.7757 22.4437 25.449C22.4437 25.1223 22.1797 24.8571 21.8531 24.8571Z" fill="#424242"/>
</svg>
